999
dxflib 2.2.0.0
  0
SECTION
  2
HEADER
  9
$ACADVER
  1
AC1015
  9
$HANDSEED
  5
FFFF
  9
$DIMASZ
 40
2.5
  9
$PLIMMIN
 10
0.0
 20
0.0
  9
$DIMEXE
 40
1.25
  9
$DIMGAP
 40
0.625
  9
$PLIMMAX
 10
210.0
 20
297.0
  9
$INSUNITS
 70
0
  9
$DIMSTYLE
  2
Standard
  9
$DIMEXO
 40
0.625
  9
$DIMTXT
 40
2.5
  0
ENDSEC
  0
SECTION
  2
TABLES
  0
TABLE
  2
VPORT
  5
8
100
AcDbSymbolTable
 70
1
  0
VPORT
  5
30
100
AcDbSymbolTableRecord
100
AcDbViewportTableRecord
  2
*Active
 70
0
 10
0.0
 20
0.0
 11
1.0
 21
1.0
 12
286.30555555555549
 22
148.5
 13
0.0
 23
0.0
 14
10.0
 24
10.0
 15
10.0
 25
10.0
 16
0.0
 26
0.0
 36
1.0
 17
0.0
 27
0.0
 37
0.0
 40
297.0
 41
1.92798353909465
 42
50.0
 43
0.0
 44
0.0
 50
0.0
 51
0.0
 71
0
 72
100
 73
1
 74
3
 75
1
 76
1
 77
0
 78
0
281
0
 65
1
110
0.0
120
0.0
130
0.0
111
1.0
121
0.0
131
0.0
112
0.0
122
1.0
132
0.0
 79
0
146
0.0
  0
ENDTAB
  0
TABLE
  2
LTYPE
  5
5
100
AcDbSymbolTable
 70
21
  0
LTYPE
  5
14
100
AcDbSymbolTableRecord
100
AcDbLinetypeTableRecord
  2
ByBlock
 70
0
  3

 72
65
 73
0
 40
0.0
  0
LTYPE
  5
15
100
AcDbSymbolTableRecord
100
AcDbLinetypeTableRecord
  2
ByLayer
 70
0
  3

 72
65
 73
0
 40
0.0
  0
LTYPE
  5
16
100
AcDbSymbolTableRecord
100
AcDbLinetypeTableRecord
  2
CONTINUOUS
 70
0
  3
Solid line
 72
65
 73
0
 40
0.0
  0
LTYPE
  5
31
100
AcDbSymbolTableRecord
100
AcDbLinetypeTableRecord
  2
DOT
 70
0
  3
Dot . . . . . . . . . . . . . . . . . . . . . .
 72
65
 73
2
 40
6.3499999999999996
 49
0.0
 74
0
 49
-6.3499999999999996
 74
0
  0
LTYPE
  5
32
100
AcDbSymbolTableRecord
100
AcDbLinetypeTableRecord
  2
DOT2
 70
0
  3
Dot (.5x) .....................................
 72
65
 73
2
 40
3.1749999999999998
 49
0.0
 74
0
 49
-3.1749999999999998
 74
0
  0
LTYPE
  5
33
100
AcDbSymbolTableRecord
100
AcDbLinetypeTableRecord
  2
DOTX2
 70
0
  3
Dot (2x) .  .  .  .  .  .  .  .  .  .  .  .  .
 72
65
 73
2
 40
12.699999999999999
 49
0.0
 74
0
 49
-12.699999999999999
 74
0
  0
LTYPE
  5
34
100
AcDbSymbolTableRecord
100
AcDbLinetypeTableRecord
  2
DASHED
 70
0
  3
Dashed __ __ __ __ __ __ __ __ __ __ __ __ __ _
 72
65
 73
2
 40
19.050000000000001
 49
12.699999999999999
 74
0
 49
-6.3499999999999996
 74
0
  0
LTYPE
  5
35
100
AcDbSymbolTableRecord
100
AcDbLinetypeTableRecord
  2
DASHED2
 70
0
  3
Dashed (.5x) _ _ _ _ _ _ _ _ _ _ _ _ _ _ _ _ _
 72
65
 73
2
 40
9.5250000000000004
 49
6.3499999999999996
 74
0
 49
-3.1749999999999998
 74
0
  0
LTYPE
  5
36
100
AcDbSymbolTableRecord
100
AcDbLinetypeTableRecord
  2
DASHEDX2
 70
0
  3
Dashed (2x) ____  ____  ____  ____  ____  ___
 72
65
 73
2
 40
38.100000000000001
 49
25.399999999999999
 74
0
 49
-12.699999999999999
 74
0
  0
LTYPE
  5
37
100
AcDbSymbolTableRecord
100
AcDbLinetypeTableRecord
  2
DASHDOT
 70
0
  3
Dash dot __ . __ . __ . __ . __ . __ . __ . __
 72
65
 73
4
 40
25.399999999999999
 49
12.699999999999999
 74
0
 49
-6.3499999999999996
 74
0
 49
0.0
 74
0
 49
-6.3499999999999996
 74
0
  0
LTYPE
  5
38
100
AcDbSymbolTableRecord
100
AcDbLinetypeTableRecord
  2
DASHDOT2
 70
0
  3
Dash dot (.5x) _._._._._._._._._._._._._._._.
 72
65
 73
4
 40
12.699999999999999
 49
6.3499999999999996
 74
0
 49
-3.1749999999999998
 74
0
 49
0.0
 74
0
 49
-3.1749999999999998
 74
0
  0
LTYPE
  5
39
100
AcDbSymbolTableRecord
100
AcDbLinetypeTableRecord
  2
DASHDOTX2
 70
0
  3
Dash dot (2x) ____  .  ____  .  ____  .  ___
 72
65
 73
4
 40
50.799999999999997
 49
25.399999999999999
 74
0
 49
-12.699999999999999
 74
0
 49
0.0
 74
0
 49
-12.699999999999999
 74
0
  0
LTYPE
  5
3A
100
AcDbSymbolTableRecord
100
AcDbLinetypeTableRecord
  2
DIVIDE
 70
0
  3
Divide ____ . . ____ . . ____ . . ____ . . ____
 72
65
 73
6
 40
31.75
 49
12.699999999999999
 74
0
 49
-6.3499999999999996
 74
0
 49
0.0
 74
0
 49
-6.3499999999999996
 74
0
 49
0.0
 74
0
 49
-6.3499999999999996
 74
0
  0
LTYPE
  5
3B
100
AcDbSymbolTableRecord
100
AcDbLinetypeTableRecord
  2
DIVIDE2
 70
0
  3
Divide (.5x) __..__..__..__..__..__..__..__.._
 72
65
 73
6
 40
15.875
 49
6.3499999999999996
 74
0
 49
-3.1749999999999998
 74
0
 49
0.0
 74
0
 49
-3.1749999999999998
 74
0
 49
0.0
 74
0
 49
-3.1749999999999998
 74
0
  0
LTYPE
  5
3C
100
AcDbSymbolTableRecord
100
AcDbLinetypeTableRecord
  2
DIVIDEX2
 70
0
  3
Divide (2x) ________  .  .  ________  .  .  _
 72
65
 73
6
 40
63.5
 49
25.399999999999999
 74
0
 49
-12.699999999999999
 74
0
 49
0.0
 74
0
 49
-12.699999999999999
 74
0
 49
0.0
 74
0
 49
-12.699999999999999
 74
0
  0
LTYPE
  5
3D
100
AcDbSymbolTableRecord
100
AcDbLinetypeTableRecord
  2
CENTER
 70
0
  3
Center ____ _ ____ _ ____ _ ____ _ ____ _ ____
 72
65
 73
4
 40
50.799999999999997
 49
31.75
 74
0
 49
-6.3499999999999996
 74
0
 49
6.3499999999999996
 74
0
 49
-6.3499999999999996
 74
0
  0
LTYPE
  5
3E
100
AcDbSymbolTableRecord
100
AcDbLinetypeTableRecord
  2
CENTER2
 70
0
  3
Center (.5x) ___ _ ___ _ ___ _ ___ _ ___ _ ___
 72
65
 73
4
 40
28.574999999999999
 49
19.050000000000001
 74
0
 49
-3.1749999999999998
 74
0
 49
3.1749999999999998
 74
0
 49
-3.1749999999999998
 74
0
  0
LTYPE
  5
3F
100
AcDbSymbolTableRecord
100
AcDbLinetypeTableRecord
  2
CENTERX2
 70
0
  3
Center (2x) ________  __  ________  __  _____
 72
65
 73
4
 40
101.59999999999999
 49
63.5
 74
0
 49
-12.699999999999999
 74
0
 49
12.699999999999999
 74
0
 49
-12.699999999999999
 74
0
  0
LTYPE
  5
40
100
AcDbSymbolTableRecord
100
AcDbLinetypeTableRecord
  2
BORDER
 70
0
  3
Border __ __ . __ __ . __ __ . __ __ . __ __ .
 72
65
 73
6
 40
44.450000000000003
 49
12.699999999999999
 74
0
 49
-6.3499999999999996
 74
0
 49
12.699999999999999
 74
0
 49
-6.3499999999999996
 74
0
 49
0.0
 74
0
 49
-6.3499999999999996
 74
0
  0
LTYPE
  5
41
100
AcDbSymbolTableRecord
100
AcDbLinetypeTableRecord
  2
BORDER2
 70
0
  3
Border (.5x) __.__.__.__.__.__.__.__.__.__.__.
 72
65
 73
6
 40
22.225000000000001
 49
6.3499999999999996
 74
0
 49
-3.1749999999999998
 74
0
 49
6.3499999999999996
 74
0
 49
-3.1749999999999998
 74
0
 49
0.0
 74
0
 49
-3.1749999999999998
 74
0
  0
LTYPE
  5
42
100
AcDbSymbolTableRecord
100
AcDbLinetypeTableRecord
  2
BORDERX2
 70
0
  3
Border (2x) ____  ____  .  ____  ____  .  ___
 72
65
 73
6
 40
88.900000000000006
 49
25.399999999999999
 74
0
 49
-12.699999999999999
 74
0
 49
25.399999999999999
 74
0
 49
-12.699999999999999
 74
0
 49
0.0
 74
0
 49
-12.699999999999999
 74
0
  0
ENDTAB
  0
TABLE
  2
LAYER
  5
2
100
AcDbSymbolTable
 70
1
  0
LAYER
  5
10
100
AcDbSymbolTableRecord
100
AcDbLayerTableRecord
  2
0
 70
0
 62
7
  6
CONTINUOUS
370
0
390
F
  0
ENDTAB
  0
TABLE
  2
STYLE
  5
3
100
AcDbSymbolTable
 70
1
  0
STYLE
  5
11
100
AcDbSymbolTableRecord
100
AcDbTextStyleTableRecord
  2
Standard
 70
0
 40
0.0
 41
0.75
 50
0.0
 71
0
 42
2.5
  3
txt
  4

  0
ENDTAB
  0
TABLE
  2
VIEW
  5
6
100
AcDbSymbolTable
 70
0
  0
ENDTAB
  0
TABLE
  2
UCS
  5
7
100
AcDbSymbolTable
 70
0
  0
ENDTAB
  0
TABLE
  2
APPID
  5
9
100
AcDbSymbolTable
 70
1
  0
APPID
  5
12
100
AcDbSymbolTableRecord
100
AcDbRegAppTableRecord
  2
ACAD
 70
0
  0
ENDTAB
  0
TABLE
  2
DIMSTYLE
  5
A
100
AcDbSymbolTable
 70
1
100
AcDbDimStyleTable
 71
0
  0
DIMSTYLE
105
27
100
AcDbSymbolTableRecord
100
AcDbDimStyleTableRecord
  2
Standard
 41
2.5
 42
0.625
 43
3.75
 44
1.25
 70
0
 73
0
 74
0
 77
1
 78
8
140
2.5
141
2.5
143
0.03937007874016
147
0.625
171
3
172
1
271
2
272
2
274
3
278
44
283
0
284
8
340
11
  0
ENDTAB
  0
TABLE
  2
BLOCK_RECORD
  5
1
100
AcDbSymbolTable
 70
1
  0
BLOCK_RECORD
  5
1F
100
AcDbSymbolTableRecord
100
AcDbBlockTableRecord
  2
*Model_Space
340
22
  0
BLOCK_RECORD
  5
1B
100
AcDbSymbolTableRecord
100
AcDbBlockTableRecord
  2
*Paper_Space
340
1E
  0
BLOCK_RECORD
  5
23
100
AcDbSymbolTableRecord
100
AcDbBlockTableRecord
  2
*Paper_Space0
340
26
  0
BLOCK_RECORD
  5
43
100
AcDbSymbolTableRecord
100
AcDbBlockTableRecord
  2
PNC
340
0
  0
BLOCK_RECORD
  5
44
100
AcDbSymbolTableRecord
100
AcDbBlockTableRecord
  2
PNO
340
0
  0
BLOCK_RECORD
  5
45
100
AcDbSymbolTableRecord
100
AcDbBlockTableRecord
  2
NO
340
0
  0
BLOCK_RECORD
  5
46
100
AcDbSymbolTableRecord
100
AcDbBlockTableRecord
  2
NC
340
0
  0
BLOCK_RECORD
  5
47
100
AcDbSymbolTableRecord
100
AcDbBlockTableRecord
  2
KM
340
0
  0
BLOCK_RECORD
  5
48
100
AcDbSymbolTableRecord
100
AcDbBlockTableRecord
  2
LAMP
340
0
  0
BLOCK_RECORD
  5
49
100
AcDbSymbolTableRecord
100
AcDbBlockTableRecord
  2
PUNTO
340
0
  0
BLOCK_RECORD
  5
4A
100
AcDbSymbolTableRecord
100
AcDbBlockTableRecord
  2
BORN
340
0
  0
ENDTAB
  0
ENDSEC
  0
SECTION
  2
BLOCKS
  0
BLOCK
  5
20
100
AcDbEntity
  8
0
100
AcDbBlockBegin
  2
*Model_Space
 70
0
 10
0.0
 20
0.0
 30
0.0
  3
*Model_Space
  1

  0
ENDBLK
  5
21
100
AcDbEntity
  8
0
100
AcDbBlockEnd
  0
BLOCK
  5
1C
100
AcDbEntity
 67
1
  8
0
100
AcDbBlockBegin
  2
*Paper_Space
 70
0
 10
0.0
 20
0.0
 30
0.0
  3
*Paper_Space
  1

  0
ENDBLK
  5
1D
100
AcDbEntity
 67
1
  8
0
100
AcDbBlockEnd
  0
BLOCK
  5
24
100
AcDbEntity
  8
0
100
AcDbBlockBegin
  2
*Paper_Space0
 70
0
 10
0.0
 20
0.0
 30
0.0
  3
*Paper_Space0
  1

  0
ENDBLK
  5
25
100
AcDbEntity
  8
0
100
AcDbBlockEnd
  0
BLOCK
  5
4B
100
AcDbEntity
  8
0
100
AcDbBlockBegin
  2
PNC
 70
0
 10
0.0
 20
0.0
 30
0.0
  3
PNC
  1

  0
POINT
  5
4C
100
AcDbEntity
100
AcDbPoint
  8
0
 62
256
370
-1
  6
ByLayer
 10
0.0
 20
0.0
 30
0.0
  0
LINE
  5
4D
100
AcDbEntity
100
AcDbLine
  8
0
 62
256
370
-1
  6
ByLayer
 10
0.0
 20
0.0
 30
0.0
 11
0.0
 21
-3.0
 31
0.0
  0
LINE
  5
4E
100
AcDbEntity
100
AcDbLine
  8
0
 62
256
370
-1
  6
ByLayer
 10
0.0
 20
-6.0
 30
0.0
 11
0.0
 21
-10.0
 31
0.0
  0
LINE
  5
4F
100
AcDbEntity
100
AcDbLine
  8
0
 62
256
370
-1
  6
ByLayer
 10
0.0
 20
-6.0
 30
0.0
 11
3.0
 21
-3.0
 31
0.0
  0
LINE
  5
50
100
AcDbEntity
100
AcDbLine
  8
0
 62
256
370
-1
  6
ByLayer
 10
0.0
 20
-3.0
 30
0.0
 11
3.0
 21
-3.0
 31
0.0
  0
LINE
  5
51
100
AcDbEntity
100
AcDbLine
  8
0
 62
256
370
-1
  6
DASHEDX2
 10
1.8000000000000114
 20
-4.1999999999999886
 30
0.0
 11
-2.1999999999999886
 21
-4.1999999999999886
 31
0.0
  0
LINE
  5
52
100
AcDbEntity
100
AcDbLine
  8
0
 62
256
370
-1
  6
ByLayer
 10
-2.1999999999999886
 20
-3.1999999999999886
 30
0.0
 11
-1.5999999999999943
 21
-3.1999999999999886
 31
0.0
  0
LINE
  5
53
100
AcDbEntity
100
AcDbLine
  8
0
 62
256
370
-1
  6
ByLayer
 10
-2.1999999999999886
 20
-3.1999999999999886
 30
0.0
 11
-2.1999999999999886
 21
-5.1999999999999886
 31
0.0
  0
LINE
  5
54
100
AcDbEntity
100
AcDbLine
  8
0
 62
256
370
-1
  6
ByLayer
 10
-2.1999999999999886
 20
-5.1999999999999886
 30
0.0
 11
-1.5999999999999943
 21
-5.1999999999999886
 31
0.0
  0
MTEXT
  5
55
100
AcDbEntity
100
AcDbMText
  8
0
 62
256
370
-1
  6
ByLayer
 10
1.3024602026049206
 20
-1.3748191027496384
 30
0.0
 40
2.0
 41
100.0
 71
5
 72
2
  1
11
  7
standard
 50
0.0
 73
1
 44
1.0
  0
MTEXT
  5
56
100
AcDbEntity
100
AcDbMText
  8
0
 62
256
370
-1
  6
ByLayer
 10
1.4471780028943562
 20
-8.1620839363241693
 30
0.0
 40
2.0
 41
100.0
 71
5
 72
2
  1
12
  7
standard
 50
0.0
 73
1
 44
1.0
  0
ENDBLK
  5
57
100
AcDbEntity
  8
0
100
AcDbBlockEnd
  0
BLOCK
  5
58
100
AcDbEntity
  8
0
100
AcDbBlockBegin
  2
PNO
 70
0
 10
0.0
 20
0.0
 30
0.0
  3
PNO
  1

  0
LINE
  5
59
100
AcDbEntity
100
AcDbLine
  8
0
 62
256
370
-1
  6
ByLayer
 10
0.0
 20
-7.0
 30
0.0
 11
0.0
 21
-10.0
 31
0.0
  0
LINE
  5
5A
100
AcDbEntity
100
AcDbLine
  8
0
 62
256
370
-1
  6
ByLayer
 10
0.0000000000000284
 20
-6.9999999999999716
 30
0.0
 11
0.0000000000000284
 21
-5.9999999999999716
 31
0.0
  0
LINE
  5
5B
100
AcDbEntity
100
AcDbLine
  8
0
 62
256
370
-1
  6
ByLayer
 10
0.0000000000000284
 20
-5.9999999999999716
 30
0.0
 11
-2.0
 21
-4.0
 31
0.0
  0
LINE
  5
5C
100
AcDbEntity
100
AcDbLine
  8
0
 62
256
370
-1
  6
ByLayer
 10
0.0
 20
-3.0
 30
0.0
 11
0.0
 21
0.0
 31
0.0
  0
LINE
  5
5D
100
AcDbEntity
100
AcDbLine
  8
0
 62
256
370
-1
  6
ByLayer
 10
-2.0
 20
-4.0
 30
0.0
 11
-3.0
 21
-3.0
 31
0.0
  0
LINE
  5
5E
100
AcDbEntity
100
AcDbLine
  8
0
 62
256
370
-1
  6
ByLayer
 10
-5.0
 20
-4.2999999999999829
 30
0.0
 11
-5.0
 21
-5.2999999999999829
 31
0.0
  0
LINE
  5
5F
100
AcDbEntity
100
AcDbLine
  8
0
 62
256
370
-1
  6
ByLayer
 10
-5.0000000000000284
 20
-3.9999999999999716
 30
0.0
 11
-5.0000000000000284
 21
-4.2999999999999829
 31
0.0
  0
LINE
  5
60
100
AcDbEntity
100
AcDbLine
  8
0
 62
256
370
-1
  6
ByLayer
 10
-5.0000000000000284
 20
-3.9999999999999716
 30
0.0
 11
-4.5000000000000284
 21
-3.9999999999999716
 31
0.0
  0
LINE
  5
61
100
AcDbEntity
100
AcDbLine
  8
0
 62
256
370
-1
  6
ByLayer
 10
-5.0000000000000284
 20
-5.2999999999999829
 30
0.0
 11
-5.0000000000000284
 21
-5.5999999999999943
 31
0.0
  0
LINE
  5
62
100
AcDbEntity
100
AcDbLine
  8
0
 62
256
370
-1
  6
ByLayer
 10
-5.0000000000000284
 20
-5.5999999999999943
 30
0.0
 11
-4.5000000000000284
 21
-5.5999999999999943
 31
0.0
  0
LINE
  5
63
100
AcDbEntity
100
AcDbLine
  8
0
 62
256
370
-1
  6
DASHEDX2
 10
-5.0
 20
-4.7999999999999829
 30
0.0
 11
-1.5
 21
-4.7999999999999829
 31
0.0
  0
MTEXT
  5
64
100
AcDbEntity
100
AcDbMText
  8
0
 62
256
370
-1
  6
ByLayer
 10
1.519536903039074
 20
-1.5484804630969611
 30
0.0
 40
2.0
 41
100.0
 71
5
 72
2
  1
13
  7
standard
 50
0.0
 73
1
 44
1.0
  0
MTEXT
  5
65
100
AcDbEntity
100
AcDbMText
  8
0
 62
256
370
-1
  6
ByLayer
 10
1.6642547033285096
 20
-8.0607814761215639
 30
0.0
 40
2.0
 41
100.0
 71
5
 72
2
  1
14
  7
standard
 50
0.0
 73
1
 44
1.0
  0
ENDBLK
  5
66
100
AcDbEntity
  8
0
100
AcDbBlockEnd
  0
BLOCK
  5
67
100
AcDbEntity
  8
0
100
AcDbBlockBegin
  2
NO
 70
0
 10
0.0
 20
0.0
 30
0.0
  3
NO
  1

  0
LINE
  5
68
100
AcDbEntity
100
AcDbLine
  8
0
 62
256
370
-1
  6
ByLayer
 10
0.0
 20
-7.0
 30
0.0
 11
0.0
 21
-10.0
 31
0.0
  0
LINE
  5
69
100
AcDbEntity
100
AcDbLine
  8
0
 62
256
370
-1
  6
ByLayer
 10
0.0000000000000284
 20
-6.9999999999999716
 30
0.0
 11
0.0000000000000284
 21
-5.9999999999999716
 31
0.0
  0
LINE
  5
6A
100
AcDbEntity
100
AcDbLine
  8
0
 62
256
370
-1
  6
ByLayer
 10
0.0000000000000284
 20
-5.9999999999999716
 30
0.0
 11
-2.0
 21
-4.0
 31
0.0
  0
LINE
  5
6B
100
AcDbEntity
100
AcDbLine
  8
0
 62
256
370
-1
  6
ByLayer
 10
0.0
 20
-3.0
 30
0.0
 11
0.0
 21
0.0
 31
0.0
  0
LINE
  5
6C
100
AcDbEntity
100
AcDbLine
  8
0
 62
256
370
-1
  6
ByLayer
 10
-2.0
 20
-4.0
 30
0.0
 11
-3.0
 21
-3.0
 31
0.0
  0
MTEXT
  5
6D
100
AcDbEntity
100
AcDbMText
  8
0
 62
256
370
-1
  6
ByLayer
 10
1.4652677279305359
 20
-1.7004341534008689
 30
0.0
 40
2.0
 41
100.0
 71
5
 72
2
  1
13
  7
standard
 50
0.0
 73
1
 44
1.0
  0
MTEXT
  5
6E
100
AcDbEntity
100
AcDbMText
  8
0
 62
256
370
-1
  6
ByLayer
 10
1.6099855282199715
 20
-8.1041968162083968
 30
0.0
 40
2.0
 41
100.0
 71
5
 72
2
  1
14
  7
standard
 50
0.0
 73
1
 44
1.0
  0
ENDBLK
  5
6F
100
AcDbEntity
  8
0
100
AcDbBlockEnd
  0
BLOCK
  5
70
100
AcDbEntity
  8
0
100
AcDbBlockBegin
  2
NC
 70
0
 10
0.0
 20
0.0
 30
0.0
  3
NC
  1

  0
POINT
  5
71
100
AcDbEntity
100
AcDbPoint
  8
0
 62
256
370
-1
  6
ByLayer
 10
0.0
 20
0.0
 30
0.0
  0
LINE
  5
72
100
AcDbEntity
100
AcDbLine
  8
0
 62
256
370
-1
  6
ByLayer
 10
0.0
 20
0.0
 30
0.0
 11
0.0
 21
-3.0
 31
0.0
  0
LINE
  5
73
100
AcDbEntity
100
AcDbLine
  8
0
 62
256
370
-1
  6
ByLayer
 10
0.0
 20
-6.0
 30
0.0
 11
0.0
 21
-10.0
 31
0.0
  0
LINE
  5
74
100
AcDbEntity
100
AcDbLine
  8
0
 62
256
370
-1
  6
ByLayer
 10
0.0
 20
-6.0
 30
0.0
 11
3.0
 21
-3.0
 31
0.0
  0
LINE
  5
75
100
AcDbEntity
100
AcDbLine
  8
0
 62
256
370
-1
  6
ByLayer
 10
0.0
 20
-3.0
 30
0.0
 11
3.0
 21
-3.0
 31
0.0
  0
MTEXT
  5
76
100
AcDbEntity
100
AcDbMText
  8
0
 62
256
370
-1
  6
ByLayer
 10
1.4245658465991318
 20
-1.4245658465991318
 30
0.0
 40
2.0
 41
100.0
 71
5
 72
2
  1
11
  7
standard
 50
0.0
 73
1
 44
1.0
  0
MTEXT
  5
77
100
AcDbEntity
100
AcDbMText
  8
0
 62
256
370
-1
  6
ByLayer
 10
1.5376266280752533
 20
-8.0047033285094074
 30
0.0
 40
2.0
 41
100.0
 71
5
 72
2
  1
12
  7
standard
 50
0.0
 73
1
 44
1.0
  0
ENDBLK
  5
78
100
AcDbEntity
  8
0
100
AcDbBlockEnd
  0
BLOCK
  5
79
100
AcDbEntity
  8
0
100
AcDbBlockBegin
  2
KM
 70
0
 10
0.0
 20
0.0
 30
0.0
  3
KM
  1

  0
LINE
  5
7A
100
AcDbEntity
100
AcDbLine
  8
0
 62
256
370
-1
  6
ByLayer
 10
0.0
 20
0.0
 30
0.0
 11
0.0
 21
-3.0
 31
0.0
  0
LINE
  5
7B
100
AcDbEntity
100
AcDbLine
  8
0
 62
256
370
-1
  6
ByLayer
 10
0.0
 20
-7.0
 30
0.0
 11
0.0
 21
-10.0
 31
0.0
  0
LINE
  5
7C
100
AcDbEntity
100
AcDbLine
  8
0
 62
256
370
-1
  6
ByLayer
 10
4.0
 20
-7.0
 30
0.0
 11
-4.0
 21
-7.0
 31
0.0
  0
LINE
  5
7D
100
AcDbEntity
100
AcDbLine
  8
0
 62
256
370
-1
  6
ByLayer
 10
-4.0
 20
-7.0
 30
0.0
 11
-4.0
 21
-3.0
 31
0.0
  0
LINE
  5
7E
100
AcDbEntity
100
AcDbLine
  8
0
 62
256
370
-1
  6
ByLayer
 10
-4.0
 20
-3.0
 30
0.0
 11
4.0
 21
-3.0
 31
0.0
  0
LINE
  5
7F
100
AcDbEntity
100
AcDbLine
  8
0
 62
256
370
-1
  6
ByLayer
 10
4.0
 20
-3.0
 30
0.0
 11
4.0
 21
-7.0
 31
0.0
  0
MTEXT
  5
80
100
AcDbEntity
100
AcDbMText
  8
0
 62
256
370
-1
  6
ByLayer
 10
2.0
 20
-1.0
 30
0.0
 40
2.0
 41
100.0
 71
5
 72
2
  1
A1
  7
standard
 50
0.0
 73
1
 44
1.0
  0
MTEXT
  5
81
100
AcDbEntity
100
AcDbMText
  8
0
 62
256
370
-1
  6
ByLayer
 10
2.0
 20
-9.0
 30
0.0
 40
2.0
 41
100.0
 71
5
 72
2
  1
A2
  7
standard
 50
0.0
 73
1
 44
1.0
  0
ENDBLK
  5
82
100
AcDbEntity
  8
0
100
AcDbBlockEnd
  0
BLOCK
  5
83
100
AcDbEntity
  8
0
100
AcDbBlockBegin
  2
LAMP
 70
0
 10
0.0
 20
0.0
 30
0.0
  3
LAMP
  1

  0
CIRCLE
  5
84
100
AcDbEntity
100
AcDbCircle
  8
0
 62
256
370
-1
  6
ByLayer
 10
0.0
 20
-5.0
 30
0.0
 40
2.2360679774997898
  0
LINE
  5
85
100
AcDbEntity
100
AcDbLine
  8
0
 62
256
370
-1
  6
ByLayer
 10
0.0
 20
0.0
 30
0.0
 11
0.0
 21
-2.7639320225001995
 31
0.0
  0
LINE
  5
86
100
AcDbEntity
100
AcDbLine
  8
0
 62
256
370
-1
  6
ByLayer
 10
0.0
 20
-7.2360679774998005
 30
0.0
 11
0.0
 21
-10.0
 31
0.0
  0
LINE
  5
87
100
AcDbEntity
100
AcDbLine
  8
0
 62
256
370
-1
  6
ByLayer
 10
-1.5999999999999943
 20
-3.5
 30
0.0
 11
1.6000000000000227
 21
-6.5
 31
0.0
  0
LINE
  5
88
100
AcDbEntity
100
AcDbLine
  8
0
 62
256
370
-1
  6
ByLayer
 10
1.6000000000000227
 20
-3.5
 30
0.0
 11
-1.5999999999999943
 21
-6.5
 31
0.0
  0
MTEXT
  5
89
100
AcDbEntity
100
AcDbMText
  8
0
 62
256
370
-1
  6
ByLayer
 10
2.0
 20
-1.0
 30
0.0
 40
2.0
 41
100.0
 71
5
 72
2
  1
X1
  7
standard
 50
0.0
 73
1
 44
1.0
  0
MTEXT
  5
8A
100
AcDbEntity
100
AcDbMText
  8
0
 62
256
370
-1
  6
ByLayer
 10
2.0
 20
-9.0
 30
0.0
 40
2.0
 41
100.0
 71
5
 72
2
  1
X2
  7
standard
 50
0.0
 73
1
 44
1.0
  0
ENDBLK
  5
8B
100
AcDbEntity
  8
0
100
AcDbBlockEnd
  0
BLOCK
  5
8C
100
AcDbEntity
  8
0
100
AcDbBlockBegin
  2
PUNTO
 70
0
 10
0.0
 20
0.0
 30
0.0
  3
PUNTO
  1

  0
HATCH
  5
8D
  8
0
 62
256
370
-1
  6
ByLayer
100
AcDbEntity
100
AcDbHatch
 10
0.0
 20
0.0
 30
0.0
210
0.0
220
0.0
230
1.0
  2
SOLID
 70
1
 71
0
 91
1
 92
1
 93
1
 72
2
 10
0.0
 20
-0.0000000000000284
 40
0.1414213562373115
 50
0.0
 51
360.0
 73
1
 97
0
 75
0
 76
1
 98
0
  0
CIRCLE
  5
8E
100
AcDbEntity
100
AcDbCircle
  8
0
 62
256
370
-1
  6
ByLayer
 10
0.0
 20
-0.0000000000000284
 30
0.0
 40
0.1414213562373115
  0
ENDBLK
  5
8F
100
AcDbEntity
  8
0
100
AcDbBlockEnd
  0
BLOCK
  5
90
100
AcDbEntity
  8
0
100
AcDbBlockBegin
  2
BORN
 70
0
 10
0.0
 20
0.0
 30
0.0
  3
BORN
  1

  0
CIRCLE
  5
91
100
AcDbEntity
100
AcDbCircle
  8
0
 62
256
370
-1
  6
ByLayer
 10
0.0
 20
0.0
 30
0.0
 40
0.4472135954999579
  0
ENDBLK
  5
92
100
AcDbEntity
  8
0
100
AcDbBlockEnd
  0
ENDSEC
  0
SECTION
  2
ENTITIES
  0
LINE
  5
93
100
AcDbEntity
100
AcDbLine
  8
0
 62
256
370
-1
  6
ByLayer
 10
0.0
 20
0.0
 30
0.0
 11
297.0
 21
0.0
 31
0.0
  0
LINE
  5
94
100
AcDbEntity
100
AcDbLine
  8
0
 62
256
370
-1
  6
ByLayer
 10
0.0
 20
0.0
 30
0.0
 11
0.0000000000000129
 21
210.0
 31
0.0
  0
LINE
  5
95
100
AcDbEntity
100
AcDbLine
  8
0
 62
256
370
-1
  6
ByLayer
 10
297.0
 20
0.0
 30
0.0
 11
297.0
 21
210.0
 31
0.0
  0
LINE
  5
96
100
AcDbEntity
100
AcDbLine
  8
0
 62
256
370
-1
  6
ByLayer
 10
0.0
 20
210.0
 30
0.0
 11
297.0
 21
210.0
 31
0.0
  0
LINE
  5
97
100
AcDbEntity
100
AcDbLine
  8
0
 62
256
370
-1
  6
ByLayer
 10
10.0
 20
200.0
 30
0.0
 11
290.0
 21
200.0
 31
0.0
  0
LINE
  5
98
100
AcDbEntity
100
AcDbLine
  8
0
 62
256
370
-1
  6
ByLayer
 10
290.0
 20
200.0
 30
0.0
 11
290.0
 21
10.0
 31
0.0
  0
LINE
  5
99
100
AcDbEntity
100
AcDbLine
  8
0
 62
256
370
-1
  6
ByLayer
 10
290.0
 20
10.0
 30
0.0
 11
10.0
 21
10.0
 31
0.0
  0
LINE
  5
9A
100
AcDbEntity
100
AcDbLine
  8
0
 62
256
370
-1
  6
ByLayer
 10
10.0
 20
10.0
 30
0.0
 11
10.0
 21
200.0
 31
0.0
  0
LINE
  5
9B
100
AcDbEntity
100
AcDbLine
  8
0
 62
256
370
-1
  6
ByLayer
 10
290.0
 20
195.0
 30
0.0
 11
10.0
 21
195.0
 31
0.0
  0
LINE
  5
9C
100
AcDbEntity
100
AcDbLine
  8
0
 62
256
370
-1
  6
ByLayer
 10
150.0
 20
200.0
 30
0.0
 11
150.0
 21
195.0
 31
0.0
  0
LINE
  5
9D
100
AcDbEntity
100
AcDbLine
  8
0
 62
256
370
-1
  6
ByLayer
 10
85.0
 20
195.0
 30
0.0
 11
85.0
 21
200.0
 31
0.0
  0
LINE
  5
9E
100
AcDbEntity
100
AcDbLine
  8
0
 62
256
370
-1
  6
ByLayer
 10
50.0
 20
195.0
 30
0.0
 11
50.0
 21
200.0
 31
0.0
  0
LINE
  5
9F
100
AcDbEntity
100
AcDbLine
  8
0
 62
256
370
-1
  6
ByLayer
 10
120.0
 20
200.0
 30
0.0
 11
120.0
 21
195.0
 31
0.0
  0
LINE
  5
A0
100
AcDbEntity
100
AcDbLine
  8
0
 62
256
370
-1
  6
ByLayer
 10
220.0
 20
200.0
 30
0.0
 11
220.0
 21
195.0
 31
0.0
  0
LINE
  5
A1
100
AcDbEntity
100
AcDbLine
  8
0
 62
256
370
-1
  6
ByLayer
 10
255.0
 20
200.0
 30
0.0
 11
255.0
 21
195.0
 31
0.0
  0
LINE
  5
A2
100
AcDbEntity
100
AcDbLine
  8
0
 62
256
370
-1
  6
ByLayer
 10
185.0
 20
200.0
 30
0.0
 11
185.0
 21
195.0
 31
0.0
  0
LINE
  5
A3
100
AcDbEntity
100
AcDbLine
  8
0
 62
256
370
-1
  6
ByLayer
 10
10.0
 20
30.0
 30
0.0
 11
290.0
 21
30.0
 31
0.0
  0
LINE
  5
A4
100
AcDbEntity
100
AcDbLine
  8
0
 62
256
370
-1
  6
ByLayer
 10
10.0
 20
15.0
 30
0.0
 11
290.0
 21
15.0
 31
0.0
  0
LINE
  5
A5
100
AcDbEntity
100
AcDbLine
  8
0
 62
256
370
-1
  6
ByLayer
 10
10.0
 20
15.0
 30
0.0
 11
290.0
 21
15.0
 31
0.0
  0
LINE
  5
A6
100
AcDbEntity
100
AcDbLine
  8
0
 62
256
370
-1
  6
ByLayer
 10
290.0
 20
10.0
 30
0.0
 11
10.0
 21
10.0
 31
0.0
  0
LINE
  5
A7
100
AcDbEntity
100
AcDbLine
  8
0
 62
256
370
-1
  6
ByLayer
 10
150.0
 20
15.0
 30
0.0
 11
150.0
 21
10.0
 31
0.0
  0
LINE
  5
A8
100
AcDbEntity
100
AcDbLine
  8
0
 62
256
370
-1
  6
ByLayer
 10
85.0
 20
10.0
 30
0.0
 11
85.0
 21
15.0
 31
0.0
  0
LINE
  5
A9
100
AcDbEntity
100
AcDbLine
  8
0
 62
256
370
-1
  6
ByLayer
 10
50.0
 20
10.0
 30
0.0
 11
50.0
 21
15.0
 31
0.0
  0
LINE
  5
AA
100
AcDbEntity
100
AcDbLine
  8
0
 62
256
370
-1
  6
ByLayer
 10
120.0
 20
15.0
 30
0.0
 11
120.0
 21
10.0
 31
0.0
  0
LINE
  5
AB
100
AcDbEntity
100
AcDbLine
  8
0
 62
256
370
-1
  6
ByLayer
 10
220.0
 20
15.0
 30
0.0
 11
220.0
 21
10.0
 31
0.0
  0
LINE
  5
AC
100
AcDbEntity
100
AcDbLine
  8
0
 62
256
370
-1
  6
ByLayer
 10
255.0
 20
15.0
 30
0.0
 11
255.0
 21
10.0
 31
0.0
  0
LINE
  5
AD
100
AcDbEntity
100
AcDbLine
  8
0
 62
256
370
-1
  6
ByLayer
 10
185.0
 20
15.0
 30
0.0
 11
185.0
 21
10.0
 31
0.0
  0
LINE
  5
AE
100
AcDbEntity
100
AcDbLine
  8
0
 62
256
370
-1
  6
ByLayer
 10
120.0
 20
15.0
 30
0.0
 11
120.0
 21
30.0
 31
0.0
  0
LINE
  5
AF
100
AcDbEntity
100
AcDbLine
  8
0
 62
256
370
-1
  6
ByLayer
 10
100.0
 20
15.0
 30
0.0
 11
100.0
 21
30.0
 31
0.0
  0
LINE
  5
B0
100
AcDbEntity
100
AcDbLine
  8
0
 62
256
370
-1
  6
ByLayer
 10
70.0
 20
15.0
 30
0.0
 11
70.0
 21
30.0
 31
0.0
  0
LINE
  5
B1
100
AcDbEntity
100
AcDbLine
  8
0
 62
256
370
-1
  6
ByLayer
 10
41.0
 20
15.0
 30
0.0
 11
41.0
 21
30.0
 31
0.0
  0
LINE
  5
B2
100
AcDbEntity
100
AcDbLine
  8
0
 62
256
370
-1
  6
ByLayer
 10
10.0
 20
25.0
 30
0.0
 11
100.0
 21
25.0
 31
0.0
  0
LINE
  5
B3
100
AcDbEntity
100
AcDbLine
  8
0
 62
256
370
-1
  6
ByLayer
 10
100.0
 20
20.0
 30
0.0
 11
10.0
 21
20.0
 31
0.0
  0
LINE
  5
B4
100
AcDbEntity
100
AcDbLine
  8
0
 62
256
370
-1
  6
ByLayer
 10
180.0
 20
30.0
 30
0.0
 11
180.0
 21
15.0
 31
0.0
  0
LINE
  5
B5
100
AcDbEntity
100
AcDbLine
  8
0
 62
256
370
-1
  6
ByLayer
 10
240.0
 20
30.0
 30
0.0
 11
240.0
 21
15.0
 31
0.0
  0
LINE
  5
B6
100
AcDbEntity
100
AcDbLine
  8
0
 62
256
370
-1
  6
ByLayer
 10
240.0
 20
22.0
 30
0.0
 11
290.0
 21
22.0
 31
0.0
  0
LINE
  5
B7
100
AcDbEntity
100
AcDbLine
  8
0
 62
256
370
-1
  6
ByLayer
 10
265.0
 20
30.0
 30
0.0
 11
265.0
 21
22.0
 31
0.0
  0
MTEXT
  5
B8
100
AcDbEntity
100
AcDbMText
  8
0
 62
256
370
-1
  6
ByLayer
 10
55.0
 20
27.0
 30
0.0
 40
2.0
 41
100.0
 71
5
 72
2
  1
Fecha
  7
standard
 50
0.0
 73
1
 44
1.0
  0
MTEXT
  5
B9
100
AcDbEntity
100
AcDbMText
  8
0
 62
256
370
-1
  6
ByLayer
 10
85.0
 20
27.0
 30
0.0
 40
2.0
 41
100.0
 71
5
 72
2
  1
Nombre
  7
standard
 50
0.0
 73
1
 44
1.0
  0
MTEXT
  5
BA
100
AcDbEntity
100
AcDbMText
  8
0
 62
256
370
-1
  6
ByLayer
 10
25.0
 20
22.0
 30
0.0
 40
2.0
 41
100.0
 71
5
 72
2
  1
Dibujado
  7
standard
 50
0.0
 73
1
 44
1.0
  0
MTEXT
  5
BB
100
AcDbEntity
100
AcDbMText
  8
0
 62
256
370
-1
  6
ByLayer
 10
27.0
 20
17.0
 30
0.0
 40
2.0
 41
100.0
 71
5
 72
2
  1
Comprobado
  7
standard
 50
0.0
 73
1
 44
1.0
  0
MTEXT
  5
BC
100
AcDbEntity
100
AcDbMText
  8
0
 62
256
370
-1
  6
ByLayer
 10
106.0
 20
27.0
 30
0.0
 40
2.0
 41
100.0
 71
5
 72
2
  1
Firmas
  7
standard
 50
0.0
 73
1
 44
1.0
  0
MTEXT
  5
BD
100
AcDbEntity
100
AcDbMText
  8
0
 62
256
370
-1
  6
ByLayer
 10
126.0
 20
27.0
 30
0.0
 40
2.0
 41
100.0
 71
5
 72
2
  1
Entidad
  7
standard
 50
0.0
 73
1
 44
1.0
  0
MTEXT
  5
BE
100
AcDbEntity
100
AcDbMText
  8
0
 62
256
370
-1
  6
ByLayer
 10
185.0
 20
27.0
 30
0.0
 40
2.0
 41
100.0
 71
5
 72
2
  1
Titulo
  7
standard
 50
0.0
 73
1
 44
1.0
  0
MTEXT
  5
BF
100
AcDbEntity
100
AcDbMText
  8
0
 62
256
370
-1
  6
ByLayer
 10
245.0
 20
27.0
 30
0.0
 40
2.0
 41
100.0
 71
5
 72
2
  1
Fecha:
  7
standard
 50
0.0
 73
1
 44
1.0
  0
MTEXT
  5
C0
100
AcDbEntity
100
AcDbMText
  8
0
 62
256
370
-1
  6
ByLayer
 10
269.0
 20
27.0
 30
0.0
 40
2.0
 41
100.0
 71
5
 72
2
  1
Num:
  7
standard
 50
0.0
 73
1
 44
1.0
  0
MTEXT
  5
C1
100
AcDbEntity
100
AcDbMText
  8
0
 62
256
370
-1
  6
ByLayer
 10
246.0
 20
20.0
 30
0.0
 40
2.0
 41
100.0
 71
5
 72
2
  1
Archivo:
  7
standard
 50
0.0
 73
1
 44
1.0
  0
INSERT
  5
C2
100
AcDbEntity
100
AcDbBlockReference
  8
0
 62
256
370
-1
  6
ByLayer
  2
PNC
 10
137.0
 20
180.0
 30
0.0
 44
1.0
 45
1.0
  0
LINE
  5
C3
100
AcDbEntity
100
AcDbLine
  8
0
 62
256
370
-1
  6
ByLayer
 10
137.0
 20
170.0
 30
0.0
 11
137.0
 21
165.0
 31
0.0
  0
INSERT
  5
C4
100
AcDbEntity
100
AcDbBlockReference
  8
0
 62
256
370
-1
  6
ByLayer
  2
PNC
 10
137.0
 20
165.0
 30
0.0
 44
1.0
 45
1.0
  0
LINE
  5
C5
100
AcDbEntity
100
AcDbLine
  8
0
 62
256
370
-1
  6
ByLayer
 10
137.0
 20
155.0
 30
0.0
 11
137.0
 21
150.0
 31
0.0
  0
LINE
  5
C6
100
AcDbEntity
100
AcDbLine
  8
0
 62
256
370
-1
  6
ByLayer
 10
120.0
 20
140.0
 30
0.0
 11
120.0
 21
140.0
 31
0.0
  0
INSERT
  5
C7
100
AcDbEntity
100
AcDbBlockReference
  8
0
 62
256
370
-1
  6
ByLayer
  2
NC
 10
120.0
 20
150.0
 30
0.0
 44
1.0
 45
1.0
  0
INSERT
  5
C8
100
AcDbEntity
100
AcDbBlockReference
  8
0
 62
256
370
-1
  6
ByLayer
  2
NC
 10
80.0
 20
150.0
 30
0.0
 44
1.0
 45
1.0
  0
INSERT
  5
C9
100
AcDbEntity
100
AcDbBlockReference
  8
0
 62
256
370
-1
  6
ByLayer
  2
NC
 10
160.0
 20
150.0
 30
0.0
 44
1.0
 45
1.0
  0
INSERT
  5
CA
100
AcDbEntity
100
AcDbBlockReference
  8
0
 62
256
370
-1
  6
ByLayer
  2
NC
 10
200.0
 20
150.0
 30
0.0
 44
1.0
 45
1.0
  0
INSERT
  5
CB
100
AcDbEntity
100
AcDbBlockReference
  8
0
 62
256
370
-1
  6
ByLayer
  2
NC
 10
80.0
 20
135.0
 30
0.0
 44
1.0
 45
1.0
  0
INSERT
  5
CC
100
AcDbEntity
100
AcDbBlockReference
  8
0
 62
256
370
-1
  6
ByLayer
  2
NC
 10
80.0
 20
120.0
 30
0.0
 44
1.0
 45
1.0
  0
INSERT
  5
CD
100
AcDbEntity
100
AcDbBlockReference
  8
0
 62
256
370
-1
  6
ByLayer
  2
NC
 10
120.0
 20
135.0
 30
0.0
 44
1.0
 45
1.0
  0
INSERT
  5
CE
100
AcDbEntity
100
AcDbBlockReference
  8
0
 62
256
370
-1
  6
ByLayer
  2
NC
 10
120.0
 20
120.0
 30
0.0
 44
1.0
 45
1.0
  0
INSERT
  5
CF
100
AcDbEntity
100
AcDbBlockReference
  8
0
 62
256
370
-1
  6
ByLayer
  2
NC
 10
160.0
 20
135.0
 30
0.0
 44
1.0
 45
1.0
  0
INSERT
  5
D0
100
AcDbEntity
100
AcDbBlockReference
  8
0
 62
256
370
-1
  6
ByLayer
  2
NC
 10
160.0
 20
120.0
 30
0.0
 44
1.0
 45
1.0
  0
INSERT
  5
D1
100
AcDbEntity
100
AcDbBlockReference
  8
0
 62
256
370
-1
  6
ByLayer
  2
NC
 10
200.0
 20
135.0
 30
0.0
 44
1.0
 45
1.0
  0
INSERT
  5
D2
100
AcDbEntity
100
AcDbBlockReference
  8
0
 62
256
370
-1
  6
ByLayer
  2
NC
 10
200.0
 20
120.0
 30
0.0
 44
1.0
 45
1.0
  0
INSERT
  5
D3
100
AcDbEntity
100
AcDbBlockReference
  8
0
 62
256
370
-1
  6
ByLayer
  2
NO
 10
100.0
 20
150.0
 30
0.0
 44
1.0
 45
1.0
  0
INSERT
  5
D4
100
AcDbEntity
100
AcDbBlockReference
  8
0
 62
256
370
-1
  6
ByLayer
  2
NO
 10
137.0
 20
150.0
 30
0.0
 44
1.0
 45
1.0
  0
INSERT
  5
D5
100
AcDbEntity
100
AcDbBlockReference
  8
0
 62
256
370
-1
  6
ByLayer
  2
NO
 10
180.0
 20
150.0
 30
0.0
 44
1.0
 45
1.0
  0
INSERT
  5
D6
100
AcDbEntity
100
AcDbBlockReference
  8
0
 62
256
370
-1
  6
ByLayer
  2
NO
 10
240.0
 20
150.0
 30
0.0
 44
1.0
 45
1.0
  0
INSERT
  5
D7
100
AcDbEntity
100
AcDbBlockReference
  8
0
 62
256
370
-1
  6
ByLayer
  2
PUNTO
 10
137.0
 20
150.0
 30
0.0
 44
1.0
 45
1.0
  0
INSERT
  5
D8
100
AcDbEntity
100
AcDbBlockReference
  8
0
 62
256
370
-1
  6
ByLayer
  2
PUNTO
 10
160.0
 20
150.0
 30
0.0
 44
1.0
 45
1.0
  0
INSERT
  5
D9
100
AcDbEntity
100
AcDbBlockReference
  8
0
 62
256
370
-1
  6
ByLayer
  2
PUNTO
 10
180.0
 20
150.0
 30
0.0
 44
1.0
 45
1.0
  0
INSERT
  5
DA
100
AcDbEntity
100
AcDbBlockReference
  8
0
 62
256
370
-1
  6
ByLayer
  2
PUNTO
 10
200.0
 20
150.0
 30
0.0
 44
1.0
 45
1.0
  0
INSERT
  5
DB
100
AcDbEntity
100
AcDbBlockReference
  8
0
 62
256
370
-1
  6
ByLayer
  2
PUNTO
 10
120.0
 20
150.0
 30
0.0
 44
1.0
 45
1.0
  0
INSERT
  5
DC
100
AcDbEntity
100
AcDbBlockReference
  8
0
 62
256
370
-1
  6
ByLayer
  2
PUNTO
 10
100.0
 20
150.0
 30
0.0
 44
1.0
 45
1.0
  0
INSERT
  5
DD
100
AcDbEntity
100
AcDbBlockReference
  8
0
 62
256
370
-1
  6
ByLayer
  2
PUNTO
 10
80.0
 20
150.0
 30
0.0
 44
1.0
 45
1.0
  0
INSERT
  5
DE
100
AcDbEntity
100
AcDbBlockReference
  8
0
 62
256
370
-1
  6
ByLayer
  2
PUNTO
 10
240.0
 20
150.0
 30
0.0
 44
1.0
 45
1.0
  0
INSERT
  5
DF
100
AcDbEntity
100
AcDbBlockReference
  8
0
 62
256
370
-1
  6
ByLayer
  2
PUNTO
 10
200.0
 20
110.0
 30
0.0
 44
1.0
 45
1.0
  0
INSERT
  5
E0
100
AcDbEntity
100
AcDbBlockReference
  8
0
 62
256
370
-1
  6
ByLayer
  2
PUNTO
 10
160.0
 20
110.0
 30
0.0
 44
1.0
 45
1.0
  0
INSERT
  5
E1
100
AcDbEntity
100
AcDbBlockReference
  8
0
 62
256
370
-1
  6
ByLayer
  2
PUNTO
 10
120.0
 20
110.0
 30
0.0
 44
1.0
 45
1.0
  0
INSERT
  5
E2
100
AcDbEntity
100
AcDbBlockReference
  8
0
 62
256
370
-1
  6
ByLayer
  2
PUNTO
 10
80.0
 20
110.0
 30
0.0
 44
1.0
 45
1.0
  0
LINE
  5
E3
100
AcDbEntity
100
AcDbLine
  8
0
 62
256
370
-1
  6
ByLayer
 10
80.0
 20
150.0
 30
0.0
 11
100.0
 21
150.0
 31
0.0
  0
LINE
  5
E4
100
AcDbEntity
100
AcDbLine
  8
0
 62
256
370
-1
  6
ByLayer
 10
100.0
 20
150.0
 30
0.0
 11
120.0
 21
150.0
 31
0.0
  0
LINE
  5
E5
100
AcDbEntity
100
AcDbLine
  8
0
 62
256
370
-1
  6
ByLayer
 10
120.0
 20
150.0
 30
0.0
 11
180.0
 21
150.0
 31
0.0
  0
LINE
  5
E6
100
AcDbEntity
100
AcDbLine
  8
0
 62
256
370
-1
  6
ByLayer
 10
180.0
 20
150.0
 30
0.0
 11
240.0
 21
150.0
 31
0.0
  0
LINE
  5
E7
100
AcDbEntity
100
AcDbLine
  8
0
 62
256
370
-1
  6
ByLayer
 10
200.0
 20
140.0
 30
0.0
 11
200.0
 21
135.0
 31
0.0
  0
LINE
  5
E8
100
AcDbEntity
100
AcDbLine
  8
0
 62
256
370
-1
  6
ByLayer
 10
200.0
 20
125.0
 30
0.0
 11
200.0
 21
120.0
 31
0.0
  0
LINE
  5
E9
100
AcDbEntity
100
AcDbLine
  8
0
 62
256
370
-1
  6
ByLayer
 10
160.0
 20
120.0
 30
0.0
 11
160.0
 21
125.0
 31
0.0
  0
LINE
  5
EA
100
AcDbEntity
100
AcDbLine
  8
0
 62
256
370
-1
  6
ByLayer
 10
160.0
 20
135.0
 30
0.0
 11
160.0
 21
140.0
 31
0.0
  0
LINE
  5
EB
100
AcDbEntity
100
AcDbLine
  8
0
 62
256
370
-1
  6
ByLayer
 10
120.0
 20
140.0
 30
0.0
 11
120.0
 21
135.0
 31
0.0
  0
LINE
  5
EC
100
AcDbEntity
100
AcDbLine
  8
0
 62
256
370
-1
  6
ByLayer
 10
120.0
 20
125.0
 30
0.0
 11
120.0
 21
120.0
 31
0.0
  0
LINE
  5
ED
100
AcDbEntity
100
AcDbLine
  8
0
 62
256
370
-1
  6
ByLayer
 10
80.0
 20
140.0
 30
0.0
 11
80.0
 21
135.0
 31
0.0
  0
LINE
  5
EE
100
AcDbEntity
100
AcDbLine
  8
0
 62
256
370
-1
  6
ByLayer
 10
80.0
 20
125.0
 30
0.0
 11
80.0
 21
120.0
 31
0.0
  0
LINE
  5
EF
100
AcDbEntity
100
AcDbLine
  8
0
 62
256
370
-1
  6
ByLayer
 10
100.0
 20
140.0
 30
0.0
 11
100.0
 21
110.0
 31
0.0
  0
LINE
  5
F0
100
AcDbEntity
100
AcDbLine
  8
0
 62
256
370
-1
  6
ByLayer
 10
100.0
 20
110.0
 30
0.0
 11
80.0
 21
110.0
 31
0.0
  0
LINE
  5
F1
100
AcDbEntity
100
AcDbLine
  8
0
 62
256
370
-1
  6
ByLayer
 10
137.0
 20
140.0
 30
0.0
 11
137.0
 21
110.0
 31
0.0
  0
LINE
  5
F2
100
AcDbEntity
100
AcDbLine
  8
0
 62
256
370
-1
  6
ByLayer
 10
137.0
 20
110.0
 30
0.0
 11
120.0
 21
110.0
 31
0.0
  0
LINE
  5
F3
100
AcDbEntity
100
AcDbLine
  8
0
 62
256
370
-1
  6
ByLayer
 10
180.0
 20
140.0
 30
0.0
 11
180.0
 21
110.0
 31
0.0
  0
LINE
  5
F4
100
AcDbEntity
100
AcDbLine
  8
0
 62
256
370
-1
  6
ByLayer
 10
180.0
 20
110.0
 30
0.0
 11
160.0
 21
110.0
 31
0.0
  0
LINE
  5
F5
100
AcDbEntity
100
AcDbLine
  8
0
 62
256
370
-1
  6
ByLayer
 10
200.0
 20
110.0
 30
0.0
 11
240.0
 21
110.0
 31
0.0
  0
LINE
  5
F6
100
AcDbEntity
100
AcDbLine
  8
0
 62
256
370
-1
  6
ByLayer
 10
240.0
 20
110.0
 30
0.0
 11
240.0
 21
140.0
 31
0.0
  0
INSERT
  5
F7
100
AcDbEntity
100
AcDbBlockReference
  8
0
 62
256
370
-1
  6
ByLayer
  2
PUNTO
 10
120.0
 20
104.0
 30
0.0
 44
1.0
 45
1.0
  0
INSERT
  5
F8
100
AcDbEntity
100
AcDbBlockReference
  8
0
 62
256
370
-1
  6
ByLayer
  2
PUNTO
 10
160.0
 20
104.0
 30
0.0
 44
1.0
 45
1.0
  0
INSERT
  5
F9
100
AcDbEntity
100
AcDbBlockReference
  8
0
 62
256
370
-1
  6
ByLayer
  2
PUNTO
 10
200.0
 20
104.0
 30
0.0
 44
1.0
 45
1.0
  0
INSERT
  5
FA
100
AcDbEntity
100
AcDbBlockReference
  8
0
 62
256
370
-1
  6
ByLayer
  2
PNO
 10
200.0
 20
104.0
 30
0.0
 44
1.0
 45
1.0
  0
INSERT
  5
FB
100
AcDbEntity
100
AcDbBlockReference
  8
0
 62
256
370
-1
  6
ByLayer
  2
PNO
 10
160.0
 20
104.0
 30
0.0
 44
1.0
 45
1.0
  0
INSERT
  5
FC
100
AcDbEntity
100
AcDbBlockReference
  8
0
 62
256
370
-1
  6
ByLayer
  2
PNO
 10
120.0
 20
104.0
 30
0.0
 44
1.0
 45
1.0
  0
INSERT
  5
FD
100
AcDbEntity
100
AcDbBlockReference
  8
0
 62
256
370
-1
  6
ByLayer
  2
NO
 10
90.0
 20
104.0
 30
0.0
 44
1.0
 45
1.0
  0
INSERT
  5
FE
100
AcDbEntity
100
AcDbBlockReference
  8
0
 62
256
370
-1
  6
ByLayer
  2
NO
 10
130.0
 20
104.0
 30
0.0
 44
1.0
 45
1.0
  0
INSERT
  5
FF
100
AcDbEntity
100
AcDbBlockReference
  8
0
 62
256
370
-1
  6
ByLayer
  2
NO
 10
170.0
 20
104.0
 30
0.0
 44
1.0
 45
1.0
  0
INSERT
  5
100
100
AcDbEntity
100
AcDbBlockReference
  8
0
 62
256
370
-1
  6
ByLayer
  2
NO
 10
210.0
 20
104.0
 30
0.0
 44
1.0
 45
1.0
  0
INSERT
  5
101
100
AcDbEntity
100
AcDbBlockReference
  8
0
 62
256
370
-1
  6
ByLayer
  2
PUNTO
 10
200.0
 20
90.0
 30
0.0
 44
1.0
 45
1.0
  0
INSERT
  5
102
100
AcDbEntity
100
AcDbBlockReference
  8
0
 62
256
370
-1
  6
ByLayer
  2
PUNTO
 10
160.0
 20
90.0
 30
0.0
 44
1.0
 45
1.0
  0
INSERT
  5
103
100
AcDbEntity
100
AcDbBlockReference
  8
0
 62
256
370
-1
  6
ByLayer
  2
PUNTO
 10
120.0
 20
90.0
 30
0.0
 44
1.0
 45
1.0
  0
INSERT
  5
104
100
AcDbEntity
100
AcDbBlockReference
  8
0
 62
256
370
-1
  6
ByLayer
  2
PUNTO
 10
80.0
 20
90.0
 30
0.0
 44
1.0
 45
1.0
  0
INSERT
  5
105
100
AcDbEntity
100
AcDbBlockReference
  8
0
 62
256
370
-1
  6
ByLayer
  2
PUNTO
 10
80.0
 20
94.0
 30
0.0
 44
1.0
 45
1.0
  0
INSERT
  5
106
100
AcDbEntity
100
AcDbBlockReference
  8
0
 62
256
370
-1
  6
ByLayer
  2
PUNTO
 10
120.0
 20
94.0
 30
0.0
 44
1.0
 45
1.0
  0
INSERT
  5
107
100
AcDbEntity
100
AcDbBlockReference
  8
0
 62
256
370
-1
  6
ByLayer
  2
PUNTO
 10
160.0
 20
94.0
 30
0.0
 44
1.0
 45
1.0
  0
INSERT
  5
108
100
AcDbEntity
100
AcDbBlockReference
  8
0
 62
256
370
-1
  6
ByLayer
  2
PUNTO
 10
200.0
 20
94.0
 30
0.0
 44
1.0
 45
1.0
  0
LINE
  5
109
100
AcDbEntity
100
AcDbLine
  8
0
 62
256
370
-1
  6
ByLayer
 10
200.0
 20
93.0
 30
0.0
 11
200.0
 21
90.0
 31
0.0
  0
LINE
  5
10A
100
AcDbEntity
100
AcDbLine
  8
0
 62
256
370
-1
  6
ByLayer
 10
200.0
 20
104.0
 30
0.0
 11
200.0
 21
110.0
 31
0.0
  0
LINE
  5
10B
100
AcDbEntity
100
AcDbLine
  8
0
 62
256
370
-1
  6
ByLayer
 10
200.0
 20
110.0
 30
0.0
 11
200.0
 21
104.0
 31
0.0
  0
LINE
  5
10C
100
AcDbEntity
100
AcDbLine
  8
0
 62
256
370
-1
  6
ByLayer
 10
200.0
 20
104.0
 30
0.0
 11
210.0
 21
104.0
 31
0.0
  0
LINE
  5
10D
100
AcDbEntity
100
AcDbLine
  8
0
 62
256
370
-1
  6
ByLayer
 10
210.0
 20
94.0
 30
0.0
 11
200.0
 21
94.0
 31
0.0
  0
LINE
  5
10E
100
AcDbEntity
100
AcDbLine
  8
0
 62
256
370
-1
  6
ByLayer
 10
200.0
 20
94.0
 30
0.0
 11
200.0
 21
94.0
 31
0.0
  0
LINE
  5
10F
100
AcDbEntity
100
AcDbLine
  8
0
 62
256
370
-1
  6
ByLayer
 10
200.0
 20
94.0
 30
0.0
 11
200.0
 21
93.0
 31
0.0
  0
LINE
  5
110
100
AcDbEntity
100
AcDbLine
  8
0
 62
256
370
-1
  6
ByLayer
 10
160.0
 20
110.0
 30
0.0
 11
160.0
 21
104.0
 31
0.0
  0
LINE
  5
111
100
AcDbEntity
100
AcDbLine
  8
0
 62
256
370
-1
  6
ByLayer
 10
160.0
 20
104.0
 30
0.0
 11
170.0
 21
104.0
 31
0.0
  0
LINE
  5
112
100
AcDbEntity
100
AcDbLine
  8
0
 62
256
370
-1
  6
ByLayer
 10
170.0
 20
94.0
 30
0.0
 11
160.0
 21
94.0
 31
0.0
  0
LINE
  5
113
100
AcDbEntity
100
AcDbLine
  8
0
 62
256
370
-1
  6
ByLayer
 10
160.0
 20
94.0
 30
0.0
 11
160.0
 21
90.0
 31
0.0
  0
LINE
  5
114
100
AcDbEntity
100
AcDbLine
  8
0
 62
256
370
-1
  6
ByLayer
 10
120.0
 20
110.0
 30
0.0
 11
120.0
 21
104.0
 31
0.0
  0
LINE
  5
115
100
AcDbEntity
100
AcDbLine
  8
0
 62
256
370
-1
  6
ByLayer
 10
120.0
 20
104.0
 30
0.0
 11
130.0
 21
104.0
 31
0.0
  0
LINE
  5
116
100
AcDbEntity
100
AcDbLine
  8
0
 62
256
370
-1
  6
ByLayer
 10
130.0
 20
94.0
 30
0.0
 11
120.0
 21
94.0
 31
0.0
  0
LINE
  5
117
100
AcDbEntity
100
AcDbLine
  8
0
 62
256
370
-1
  6
ByLayer
 10
120.0
 20
94.0
 30
0.0
 11
120.0
 21
90.0
 31
0.0
  0
LINE
  5
118
100
AcDbEntity
100
AcDbLine
  8
0
 62
256
370
-1
  6
ByLayer
 10
90.0
 20
94.0
 30
0.0
 11
80.0
 21
94.0
 31
0.0
  0
LINE
  5
119
100
AcDbEntity
100
AcDbLine
  8
0
 62
256
370
-1
  6
ByLayer
 10
80.0
 20
94.0
 30
0.0
 11
80.0
 21
90.0
 31
0.0
  0
INSERT
  5
11A
100
AcDbEntity
100
AcDbBlockReference
  8
0
 62
256
370
-1
  6
ByLayer
  2
KM
 10
200.0
 20
80.0
 30
0.0
 44
1.0
 45
1.0
  0
INSERT
  5
11B
100
AcDbEntity
100
AcDbBlockReference
  8
0
 62
256
370
-1
  6
ByLayer
  2
KM
 10
160.0
 20
80.0
 30
0.0
 44
1.0
 45
1.0
  0
INSERT
  5
11C
100
AcDbEntity
100
AcDbBlockReference
  8
0
 62
256
370
-1
  6
ByLayer
  2
KM
 10
120.0
 20
80.0
 30
0.0
 44
1.0
 45
1.0
  0
INSERT
  5
11D
100
AcDbEntity
100
AcDbBlockReference
  8
0
 62
256
370
-1
  6
ByLayer
  2
KM
 10
80.0
 20
80.0
 30
0.0
 44
1.0
 45
1.0
  0
LINE
  5
11E
100
AcDbEntity
100
AcDbLine
  8
0
 62
256
370
-1
  6
ByLayer
 10
80.0
 20
70.0
 30
0.0
 11
80.0
 21
60.0
 31
0.0
  0
LINE
  5
11F
100
AcDbEntity
100
AcDbLine
  8
0
 62
256
370
-1
  6
ByLayer
 10
120.0
 20
70.0
 30
0.0
 11
120.0
 21
60.0
 31
0.0
  0
LINE
  5
120
100
AcDbEntity
100
AcDbLine
  8
0
 62
256
370
-1
  6
ByLayer
 10
160.0
 20
70.0
 30
0.0
 11
160.0
 21
60.0
 31
0.0
  0
LINE
  5
121
100
AcDbEntity
100
AcDbLine
  8
0
 62
256
370
-1
  6
ByLayer
 10
200.0
 20
70.0
 30
0.0
 11
200.0
 21
60.0
 31
0.0
  0
INSERT
  5
122
100
AcDbEntity
100
AcDbBlockReference
  8
0
 62
256
370
-1
  6
ByLayer
  2
LAMP
 10
130.0
 20
80.0
 30
0.0
 44
1.0
 45
1.0
  0
INSERT
  5
123
100
AcDbEntity
100
AcDbBlockReference
  8
0
 62
256
370
-1
  6
ByLayer
  2
LAMP
 10
210.0
 20
80.0
 30
0.0
 44
1.0
 45
1.0
  0
INSERT
  5
124
100
AcDbEntity
100
AcDbBlockReference
  8
0
 62
256
370
-1
  6
ByLayer
  2
LAMP
 10
170.0
 20
80.0
 30
0.0
 44
1.0
 45
1.0
  0
INSERT
  5
125
100
AcDbEntity
100
AcDbBlockReference
  8
0
 62
256
370
-1
  6
ByLayer
  2
LAMP
 10
90.0
 20
80.0
 30
0.0
 44
1.0
 45
1.0
  0
LINE
  5
126
100
AcDbEntity
100
AcDbLine
  8
0
 62
256
370
-1
  6
ByLayer
 10
200.0
 20
90.0
 30
0.0
 11
210.0
 21
90.0
 31
0.0
  0
LINE
  5
127
100
AcDbEntity
100
AcDbLine
  8
0
 62
256
370
-1
  6
ByLayer
 10
210.0
 20
90.0
 30
0.0
 11
210.0
 21
90.0
 31
0.0
  0
LINE
  5
128
100
AcDbEntity
100
AcDbLine
  8
0
 62
256
370
-1
  6
ByLayer
 10
210.0
 20
90.0
 30
0.0
 11
210.0
 21
80.0
 31
0.0
  0
LINE
  5
129
100
AcDbEntity
100
AcDbLine
  8
0
 62
256
370
-1
  6
ByLayer
 10
170.0
 20
80.0
 30
0.0
 11
170.0
 21
90.0
 31
0.0
  0
LINE
  5
12A
100
AcDbEntity
100
AcDbLine
  8
0
 62
256
370
-1
  6
ByLayer
 10
170.0
 20
90.0
 30
0.0
 11
160.0
 21
90.0
 31
0.0
  0
LINE
  5
12B
100
AcDbEntity
100
AcDbLine
  8
0
 62
256
370
-1
  6
ByLayer
 10
120.0
 20
90.0
 30
0.0
 11
130.0
 21
90.0
 31
0.0
  0
LINE
  5
12C
100
AcDbEntity
100
AcDbLine
  8
0
 62
256
370
-1
  6
ByLayer
 10
130.0
 20
90.0
 30
0.0
 11
130.0
 21
80.0
 31
0.0
  0
LINE
  5
12D
100
AcDbEntity
100
AcDbLine
  8
0
 62
256
370
-1
  6
ByLayer
 10
80.0
 20
90.0
 30
0.0
 11
90.0
 21
90.0
 31
0.0
  0
LINE
  5
12E
100
AcDbEntity
100
AcDbLine
  8
0
 62
256
370
-1
  6
ByLayer
 10
80.0
 20
60.0
 30
0.0
 11
210.0
 21
60.0
 31
0.0
  0
INSERT
  5
12F
100
AcDbEntity
100
AcDbBlockReference
  8
0
 62
256
370
-1
  6
ByLayer
  2
PUNTO
 10
210.0
 20
60.0
 30
0.0
 44
1.0
 45
1.0
  0
INSERT
  5
130
100
AcDbEntity
100
AcDbBlockReference
  8
0
 62
256
370
-1
  6
ByLayer
  2
PUNTO
 10
200.0
 20
60.0
 30
0.0
 44
1.0
 45
1.0
  0
INSERT
  5
131
100
AcDbEntity
100
AcDbBlockReference
  8
0
 62
256
370
-1
  6
ByLayer
  2
PUNTO
 10
170.0
 20
60.0
 30
0.0
 44
1.0
 45
1.0
  0
INSERT
  5
132
100
AcDbEntity
100
AcDbBlockReference
  8
0
 62
256
370
-1
  6
ByLayer
  2
PUNTO
 10
160.0
 20
60.0
 30
0.0
 44
1.0
 45
1.0
  0
INSERT
  5
133
100
AcDbEntity
100
AcDbBlockReference
  8
0
 62
256
370
-1
  6
ByLayer
  2
PUNTO
 10
130.0
 20
60.0
 30
0.0
 44
1.0
 45
1.0
  0
INSERT
  5
134
100
AcDbEntity
100
AcDbBlockReference
  8
0
 62
256
370
-1
  6
ByLayer
  2
PUNTO
 10
120.0
 20
60.0
 30
0.0
 44
1.0
 45
1.0
  0
INSERT
  5
135
100
AcDbEntity
100
AcDbBlockReference
  8
0
 62
256
370
-1
  6
ByLayer
  2
PUNTO
 10
90.0
 20
60.0
 30
0.0
 44
1.0
 45
1.0
  0
INSERT
  5
136
100
AcDbEntity
100
AcDbBlockReference
  8
0
 62
256
370
-1
  6
ByLayer
  2
PUNTO
 10
80.0
 20
60.0
 30
0.0
 44
1.0
 45
1.0
  0
INSERT
  5
137
100
AcDbEntity
100
AcDbBlockReference
  8
0
 62
256
370
-1
  6
ByLayer
  2
PNC
 10
50.0
 20
150.0
 30
0.0
 44
1.0
 45
1.0
  0
INSERT
  5
138
100
AcDbEntity
100
AcDbBlockReference
  8
0
 62
256
370
-1
  6
ByLayer
  2
PNO
 10
50.0
 20
104.0
 30
0.0
 44
1.0
 45
1.0
  0
INSERT
  5
139
100
AcDbEntity
100
AcDbBlockReference
  8
0
 62
256
370
-1
  6
ByLayer
  2
NO
 10
59.0
 20
104.0
 30
0.0
 44
1.0
 45
1.0
  0
INSERT
  5
13A
100
AcDbEntity
100
AcDbBlockReference
  8
0
 62
256
370
-1
  6
ByLayer
  2
KM
 10
50.0
 20
80.0
 30
0.0
 44
1.0
 45
1.0
  0
INSERT
  5
13B
100
AcDbEntity
100
AcDbBlockReference
  8
0
 62
256
370
-1
  6
ByLayer
  2
LAMP
 10
62.0
 20
80.0
 30
0.0
 44
1.0
 45
1.0
  0
LINE
  5
13C
100
AcDbEntity
100
AcDbLine
  8
0
 62
256
370
-1
  6
ByLayer
 10
137.0
 20
180.0
 30
0.0
 11
137.0
 21
190.0
 31
0.0
  0
LINE
  5
13D
100
AcDbEntity
100
AcDbLine
  8
0
 62
256
370
-1
  6
ByLayer
 10
137.0
 20
190.0
 30
0.0
 11
80.0
 21
190.0
 31
0.0
  0
LINE
  5
13E
100
AcDbEntity
100
AcDbLine
  8
0
 62
256
370
-1
  6
ByLayer
 10
80.0
 20
190.0
 30
0.0
 11
50.0
 21
190.0
 31
0.0
  0
LINE
  5
13F
100
AcDbEntity
100
AcDbLine
  8
0
 62
256
370
-1
  6
ByLayer
 10
50.0
 20
190.0
 30
0.0
 11
50.0
 21
150.0
 31
0.0
  0
LINE
  5
140
100
AcDbEntity
100
AcDbLine
  8
0
 62
256
370
-1
  6
ByLayer
 10
50.0
 20
140.0
 30
0.0
 11
50.0
 21
104.0
 31
0.0
  0
LINE
  5
141
100
AcDbEntity
100
AcDbLine
  8
0
 62
256
370
-1
  6
ByLayer
 10
50.0
 20
104.0
 30
0.0
 11
59.0
 21
104.0
 31
0.0
  0
INSERT
  5
142
100
AcDbEntity
100
AcDbBlockReference
  8
0
 62
256
370
-1
  6
ByLayer
  2
PUNTO
 10
50.0
 20
104.0
 30
0.0
 44
1.0
 45
1.0
  0
INSERT
  5
143
100
AcDbEntity
100
AcDbBlockReference
  8
0
 62
256
370
-1
  6
ByLayer
  2
PUNTO
 10
50.0
 20
94.0
 30
0.0
 44
1.0
 45
1.0
  0
INSERT
  5
144
100
AcDbEntity
100
AcDbBlockReference
  8
0
 62
256
370
-1
  6
ByLayer
  2
PUNTO
 10
50.0
 20
190.0
 30
0.0
 44
1.0
 45
1.0
  0
LINE
  5
145
100
AcDbEntity
100
AcDbLine
  8
0
 62
256
370
-1
  6
ByLayer
 10
50.0
 20
94.0
 30
0.0
 11
59.0
 21
94.0
 31
0.0
  0
LINE
  5
146
100
AcDbEntity
100
AcDbLine
  8
0
 62
256
370
-1
  6
ByLayer
 10
50.0
 20
94.0
 30
0.0
 11
50.0
 21
80.0
 31
0.0
  0
LINE
  5
147
100
AcDbEntity
100
AcDbLine
  8
0
 62
256
370
-1
  6
ByLayer
 10
50.0
 20
80.0
 30
0.0
 11
62.0
 21
80.0
 31
0.0
  0
INSERT
  5
148
100
AcDbEntity
100
AcDbBlockReference
  8
0
 62
256
370
-1
  6
ByLayer
  2
PUNTO
 10
50.0
 20
80.0
 30
0.0
 44
1.0
 45
1.0
  0
LINE
  5
149
100
AcDbEntity
100
AcDbLine
  8
0
 62
256
370
-1
  6
ByLayer
 10
50.0
 20
70.0
 30
0.0
 11
50.0
 21
60.0
 31
0.0
  0
LINE
  5
14A
100
AcDbEntity
100
AcDbLine
  8
0
 62
256
370
-1
  6
ByLayer
 10
50.0
 20
60.0
 30
0.0
 11
62.0
 21
60.0
 31
0.0
  0
LINE
  5
14B
100
AcDbEntity
100
AcDbLine
  8
0
 62
256
370
-1
  6
ByLayer
 10
62.0
 20
60.0
 30
0.0
 11
62.0
 21
70.0
 31
0.0
  0
LINE
  5
14C
100
AcDbEntity
100
AcDbLine
  8
0
 62
256
370
-1
  6
ByLayer
 10
62.0
 20
70.0
 30
0.0
 11
62.0
 21
60.0
 31
0.0
  0
LINE
  5
14D
100
AcDbEntity
100
AcDbLine
  8
0
 62
256
370
-1
  6
ByLayer
 10
62.0
 20
60.0
 30
0.0
 11
80.0
 21
60.0
 31
0.0
  0
INSERT
  5
14E
100
AcDbEntity
100
AcDbBlockReference
  8
0
 62
256
370
-1
  6
ByLayer
  2
PUNTO
 10
62.0
 20
60.0
 30
0.0
 44
1.0
 45
1.0
  0
INSERT
  5
14F
100
AcDbEntity
100
AcDbBlockReference
  8
0
 62
256
370
-1
  6
ByLayer
  2
PUNTO
 10
50.0
 20
60.0
 30
0.0
 44
1.0
 45
1.0
  0
LINE
  5
150
100
AcDbEntity
100
AcDbLine
  8
0
 62
256
370
-1
  6
ByLayer
 10
50.0
 20
190.0
 30
0.0
 11
40.0
 21
190.0
 31
0.0
  0
LINE
  5
151
100
AcDbEntity
100
AcDbLine
  8
0
 62
256
370
-1
  6
ByLayer
 10
40.0
 20
190.0
 30
0.0
 11
40.0
 21
170.0
 31
0.0
  0
LINE
  5
152
100
AcDbEntity
100
AcDbLine
  8
0
 62
256
370
-1
  6
ByLayer
 10
40.0
 20
170.0
 30
0.0
 11
30.0
 21
170.0
 31
0.0
  0
LINE
  5
153
100
AcDbEntity
100
AcDbLine
  8
0
 62
256
370
-1
  6
ByLayer
 10
30.0
 20
170.0
 30
0.0
 11
30.0
 21
175.0
 31
0.0
  0
LINE
  5
154
100
AcDbEntity
100
AcDbLine
  8
0
 62
256
370
-1
  6
ByLayer
 10
32.0
 20
175.0
 30
0.0
 11
25.0
 21
175.0
 31
0.0
  0
LINE
  5
155
100
AcDbEntity
100
AcDbLine
  8
0
 62
256
370
-1
  6
ByLayer
 10
25.0
 20
175.0
 30
0.0
 11
25.0
 21
60.0
 31
0.0
  0
LINE
  5
156
100
AcDbEntity
100
AcDbLine
  8
0
 62
256
370
-1
  6
ByLayer
 10
25.0
 20
60.0
 30
0.0
 11
50.0
 21
60.0
 31
0.0
  0
LINE
  5
157
100
AcDbEntity
100
AcDbLine
  8
0
 62
256
370
-1
  6
ByLayer
 10
25.0
 20
175.0
 30
0.0
 11
23.0
 21
175.0
 31
0.0
  0
LINE
  5
158
100
AcDbEntity
100
AcDbLine
  8
0
 62
256
370
-1
  6
ByLayer
 10
23.0
 20
175.0
 30
0.0
 11
23.0
 21
179.0
 31
0.0
  0
LINE
  5
159
100
AcDbEntity
100
AcDbLine
  8
0
 62
256
370
-1
  6
ByLayer
 10
23.0
 20
179.0
 30
0.0
 11
32.0
 21
179.0
 31
0.0
  0
LINE
  5
15A
100
AcDbEntity
100
AcDbLine
  8
0
 62
256
370
-1
  6
ByLayer
 10
32.0
 20
179.0
 30
0.0
 11
32.0
 21
175.0
 31
0.0
  0
LINE
  5
15B
100
AcDbEntity
100
AcDbLine
  8
0
 62
256
370
-1
  6
ByLayer
 10
32.0
 20
175.0
 30
0.0
 11
32.0
 21
177.0
 31
0.0
  0
LINE
  5
15C
100
AcDbEntity
100
AcDbLine
  8
0
 62
256
370
-1
  6
ByLayer
 10
32.0
 20
177.0
 30
0.0
 11
23.0
 21
177.0
 31
0.0
  0
LINE
  5
15D
100
AcDbEntity
100
AcDbLine
  8
0
 62
256
370
-1
  6
ByLayer
 10
25.0
 20
179.00000000000003
 30
0.0
 11
25.0
 21
178.50000000000003
 31
0.0
  0
LINE
  5
15E
100
AcDbEntity
100
AcDbLine
  8
0
 62
256
370
-1
  6
ByLayer
 10
25.0
 20
178.50000000000003
 30
0.0
 11
25.699999999999999
 21
178.50000000000003
 31
0.0
  0
LINE
  5
15F
100
AcDbEntity
100
AcDbLine
  8
0
 62
256
370
-1
  6
ByLayer
 10
25.699999999999999
 20
178.50000000000003
 30
0.0
 11
25.699999999999999
 21
177.60000000000002
 31
0.0
  0
LINE
  5
160
100
AcDbEntity
100
AcDbLine
  8
0
 62
256
370
-1
  6
ByLayer
 10
25.699999999999999
 20
177.60000000000002
 30
0.0
 11
25.0
 21
177.60000000000002
 31
0.0
  0
LINE
  5
161
100
AcDbEntity
100
AcDbLine
  8
0
 62
256
370
-1
  6
ByLayer
 10
25.0
 20
177.60000000000002
 30
0.0
 11
25.0
 21
177.00000000000003
 31
0.0
  0
LINE
  5
162
100
AcDbEntity
100
AcDbLine
  8
0
 62
256
370
-1
  6
ByLayer
 10
27.5
 20
179.00000000000003
 30
0.0
 11
27.5
 21
175.00000000000003
 31
0.0
  0
LINE
  5
163
100
AcDbEntity
100
AcDbLine
  8
0
 62
256
370
-1
  6
ByLayer
 10
30.0
 20
179.00000000000003
 30
0.0
 11
30.0
 21
178.50000000000003
 31
0.0
  0
LINE
  5
164
100
AcDbEntity
100
AcDbLine
  8
0
 62
256
370
-1
  6
ByLayer
 10
30.0
 20
178.50000000000003
 30
0.0
 11
30.699999999999999
 21
178.50000000000003
 31
0.0
  0
LINE
  5
165
100
AcDbEntity
100
AcDbLine
  8
0
 62
256
370
-1
  6
ByLayer
 10
30.699999999999999
 20
178.50000000000003
 30
0.0
 11
30.699999999999999
 21
177.60000000000002
 31
0.0
  0
LINE
  5
166
100
AcDbEntity
100
AcDbLine
  8
0
 62
256
370
-1
  6
ByLayer
 10
30.699999999999999
 20
177.60000000000002
 30
0.0
 11
30.0
 21
177.60000000000002
 31
0.0
  0
LINE
  5
167
100
AcDbEntity
100
AcDbLine
  8
0
 62
256
370
-1
  6
ByLayer
 10
30.0
 20
177.60000000000002
 30
0.0
 11
30.0
 21
177.00000000000003
 31
0.0
  0
LINE
  5
168
100
AcDbEntity
100
AcDbLine
  8
0
 62
256
370
-1
  6
ByLayer
 10
29.199999999999999
 20
176.70000000000002
 30
0.0
 11
29.199999999999999
 21
175.40000000000003
 31
0.0
  0
LINE
  5
169
100
AcDbEntity
100
AcDbLine
  8
0
 62
256
370
-1
  6
ByLayer
 10
29.599999999999998
 20
176.70000000000002
 30
0.0
 11
30.300000000000001
 21
176.00000000000003
 31
0.0
  0
LINE
  5
16A
100
AcDbEntity
100
AcDbLine
  8
0
 62
256
370
-1
  6
ByLayer
 10
30.300000000000001
 20
176.00000000000003
 30
0.0
 11
29.599999999999998
 21
175.50000000000003
 31
0.0
  0
LINE
  5
16B
100
AcDbEntity
100
AcDbLine
  8
0
 62
256
370
-1
  6
ByLayer
 10
24.199999999999999
 20
176.70000000000002
 30
0.0
 11
24.199999999999999
 21
175.30000000000001
 31
0.0
  0
LINE
  5
16C
100
AcDbEntity
100
AcDbLine
  8
0
 62
256
370
-1
  6
ByLayer
 10
24.599999999999998
 20
176.70000000000002
 30
0.0
 11
25.299999999999997
 21
176.00000000000003
 31
0.0
  0
LINE
  5
16D
100
AcDbEntity
100
AcDbLine
  8
0
 62
256
370
-1
  6
ByLayer
 10
25.299999999999997
 20
176.00000000000003
 30
0.0
 11
24.599999999999998
 21
175.30000000000001
 31
0.0
  0
LINE
  5
16E
100
AcDbEntity
100
AcDbLine
  8
0
 62
256
370
-1
  6
ByLayer
 10
30.0
 20
182.0
 30
0.0
 11
29.999999999999996
 21
179.0
 31
0.0
  0
LINE
  5
16F
100
AcDbEntity
100
AcDbLine
  8
0
 62
256
370
-1
  6
ByLayer
 10
30.000000000000028
 20
182.00000000000003
 30
0.0
 11
30.000000000000025
 21
183.00000000000003
 31
0.0
  0
LINE
  5
170
100
AcDbEntity
100
AcDbLine
  8
0
 62
256
370
-1
  6
ByLayer
 10
30.000000000000025
 20
183.00000000000003
 30
0.0
 11
28.0
 21
185.0
 31
0.0
  0
LINE
  5
171
100
AcDbEntity
100
AcDbLine
  8
0
 62
256
370
-1
  6
ByLayer
 10
30.0
 20
186.0
 30
0.0
 11
30.0
 21
189.0
 31
0.0
  0
LINE
  5
172
100
AcDbEntity
100
AcDbLine
  8
0
 62
256
370
-1
  6
ByLayer
 10
28.0
 20
185.0
 30
0.0
 11
27.0
 21
186.0
 31
0.0
  0
LINE
  5
173
100
AcDbEntity
100
AcDbLine
  8
0
 62
256
370
-1
  6
ByLayer
 10
25.0
 20
182.0
 30
0.0
 11
24.999999999999996
 21
179.0
 31
0.0
  0
LINE
  5
174
100
AcDbEntity
100
AcDbLine
  8
0
 62
256
370
-1
  6
ByLayer
 10
25.000000000000028
 20
182.00000000000003
 30
0.0
 11
25.000000000000025
 21
183.00000000000003
 31
0.0
  0
LINE
  5
175
100
AcDbEntity
100
AcDbLine
  8
0
 62
256
370
-1
  6
ByLayer
 10
25.000000000000025
 20
183.00000000000003
 30
0.0
 11
23.0
 21
185.0
 31
0.0
  0
LINE
  5
176
100
AcDbEntity
100
AcDbLine
  8
0
 62
256
370
-1
  6
ByLayer
 10
25.0
 20
186.0
 30
0.0
 11
25.0
 21
189.0
 31
0.0
  0
LINE
  5
177
100
AcDbEntity
100
AcDbLine
  8
0
 62
256
370
-1
  6
ByLayer
 10
23.0
 20
185.0
 30
0.0
 11
22.0
 21
186.0
 31
0.0
  0
LINE
  5
178
100
AcDbEntity
100
AcDbLine
  8
0
 62
256
370
-1
  6
ByLayer
 10
18.0
 20
186.0
 30
0.0
 11
21.0
 21
186.0
 31
0.0
  0
LINE
  5
179
100
AcDbEntity
100
AcDbLine
  8
0
 62
256
370
-1
  6
ByLayer
 10
21.0
 20
186.0
 30
0.0
 11
21.0
 21
183.0
 31
0.0
  0
LINE
  5
17A
100
AcDbEntity
100
AcDbLine
  8
0
 62
256
370
-1
  6
ByLayer
 10
21.0
 20
183.0
 30
0.0
 11
18.0
 21
183.0
 31
0.0
  0
LINE
  5
17B
100
AcDbEntity
100
AcDbLine
  8
0
 62
256
370
-1
  6
ByLayer
 10
18.0
 20
183.0
 30
0.0
 11
18.0
 21
186.0
 31
0.0
  0
LINE
  5
17C
100
AcDbEntity
100
AcDbLine
  8
0
 62
256
370
-1
  6
ByLayer
 10
19.5
 20
186.00000000000003
 30
0.0
 11
19.5
 21
183.00000000000003
 31
0.0
  0
LINE
  5
17D
100
AcDbEntity
100
AcDbLine
  8
0
 62
256
370
-1
  6
ByLayer
 10
21.0
 20
184.50000000000003
 30
0.0
 11
18.0
 21
184.50000000000003
 31
0.0
  0
LINE
  5
17E
100
AcDbEntity
100
AcDbLine
  8
0
 62
256
370
-1
  6
ByLayer
 10
18.0
 20
184.50000000000003
 30
0.0
 11
17.0
 21
184.50000000000003
 31
0.0
  0
LINE
  5
17F
100
AcDbEntity
100
AcDbLine
  8
0
 62
256
370
-1
  6
ByLayer
 10
17.0
 20
184.50000000000003
 30
0.0
 11
17.0
 21
185.70000000000002
 31
0.0
  0
LINE
  5
180
100
AcDbEntity
100
AcDbLine
  8
0
 62
256
370
-1
  6
ByLayer
 10
17.0
 20
185.70000000000002
 30
0.0
 11
17.0
 21
183.30000000000001
 31
0.0
  0
LINE
  5
181
100
AcDbEntity
100
AcDbLine
  8
0
 62
256
370
-1
  6
ByLayer
 10
21.0
 20
184.50000000000003
 30
0.0
 11
23.500000000000004
 21
184.50000000000003
 31
0.0
  0
LINE
  5
182
100
AcDbEntity
100
AcDbLine
  8
0
 62
256
370
-1
  6
ByLayer
 10
25.400000000000002
 20
184.50000000000003
 30
0.0
 11
28.5
 21
184.50000000000003
 31
0.0
  0
LINE
  5
183
100
AcDbEntity
100
AcDbLine
  8
0
 62
256
370
-1
  6
DASHEDX2
 10
19.5
 20
183.00000000000003
 30
0.0
 11
19.5
 21
177.90000000000001
 31
0.0
  0
LINE
  5
184
100
AcDbEntity
100
AcDbLine
  8
0
 62
256
370
-1
  6
DASHEDX2
 10
19.5
 20
177.90000000000001
 30
0.0
 11
19.5
 21
176.00000000000003
 31
0.0
  0
LINE
  5
185
100
AcDbEntity
100
AcDbLine
  8
0
 62
256
370
-1
  6
DASHEDX2
 10
19.5
 20
176.00000000000003
 30
0.0
 11
23.0
 21
176.00000000000003
 31
0.0
  0
LINE
  5
186
100
AcDbEntity
100
AcDbLine
  8
0
 62
256
370
-1
  6
DASHEDX2
 10
19.5
 20
178.00000000000003
 30
0.0
 11
23.0
 21
178.00000000000003
 31
0.0
  0
CIRCLE
  5
187
100
AcDbEntity
100
AcDbCircle
  8
0
 62
256
370
-1
  6
ByLayer
 10
25.0
 20
190.0
 30
0.0
 40
1.0
  0
CIRCLE
  5
188
100
AcDbEntity
100
AcDbCircle
  8
0
 62
256
370
-1
  6
ByLayer
 10
30.0
 20
190.0
 30
0.0
 40
1.0
  0
MTEXT
  5
189
100
AcDbEntity
100
AcDbMText
  8
0
 62
256
370
-1
  6
ByLayer
 10
12.0
 20
185.0
 30
0.0
 40
2.0
 41
100.0
 71
1
 72
2
  1
Q1
  7
standard
 50
0.0
 73
0
 44
1.0
  0
MTEXT
  5
18A
100
AcDbEntity
100
AcDbMText
  8
0
 62
256
370
-1
  6
ByLayer
 10
25.0
 20
194.0
 30
0.0
 40
2.0
 41
100.0
 71
1
 72
2
  1
N
  7
standard
 50
0.0
 73
0
 44
1.0
  0
MTEXT
  5
18B
100
AcDbEntity
100
AcDbMText
  8
0
 62
256
370
-1
  6
ByLayer
 10
30.0
 20
194.0
 30
0.0
 40
2.0
 41
100.0
 71
1
 72
2
  1
L\P
  7
standard
 50
0.0
 73
0
 44
1.0
  0
MTEXT
  5
18C
100
AcDbEntity
100
AcDbMText
  8
0
 62
256
370
-1
  6
ByLayer
 10
42.0
 20
147.0
 30
0.0
 40
2.0
 41
100.0
 71
1
 72
2
  1
S6
  7
standard
 50
0.0
 73
0
 44
1.0
  0
MTEXT
  5
18D
100
AcDbEntity
100
AcDbMText
  8
0
 62
256
370
-1
  6
ByLayer
 10
40.0
 20
100.0
 30
0.0
 40
2.0
 41
100.0
 71
1
 72
2
  1
S1
  7
standard
 50
0.0
 73
0
 44
1.0
  0
MTEXT
  5
18E
100
AcDbEntity
100
AcDbMText
  8
0
 62
256
370
-1
  6
ByLayer
 10
53.0
 20
100.0
 30
0.0
 40
1.5
 41
100.0
 71
1
 72
2
  1
KM5
  7
standard
 50
0.0
 73
0
 44
1.0
  0
MTEXT
  5
18F
100
AcDbEntity
100
AcDbMText
  8
0
 62
256
370
-1
  6
ByLayer
 10
40.0
 20
76.0
 30
0.0
 40
1.5
 41
100.0
 71
1
 72
2
  1
KM5
  7
standard
 50
0.0
 73
0
 44
1.0
  0
MTEXT
  5
190
100
AcDbEntity
100
AcDbMText
  8
0
 62
256
370
-1
  6
ByLayer
 10
57.0
 20
76.0
 30
0.0
 40
1.5
 41
100.0
 71
1
 72
2
  1
H5
  7
standard
 50
0.0
 73
0
 44
1.0
  0
MTEXT
  5
191
100
AcDbEntity
100
AcDbMText
  8
0
 62
256
370
-1
  6
ByLayer
 10
74.0
 20
147.0
 30
0.0
 40
1.5
 41
100.0
 71
1
 72
2
  1
KM2
  7
standard
 50
0.0
 73
0
 44
1.0
  0
MTEXT
  5
192
100
AcDbEntity
100
AcDbMText
  8
0
 62
256
370
-1
  6
ByLayer
 10
74.0
 20
131.0
 30
0.0
 40
1.5
 41
100.0
 71
1
 72
2
  1
KM3
  7
standard
 50
0.0
 73
0
 44
1.0
  0
MTEXT
  5
193
100
AcDbEntity
100
AcDbMText
  8
0
 62
256
370
-1
  6
ByLayer
 10
74.0
 20
116.0
 30
0.0
 40
1.5
 41
100.0
 71
1
 72
2
  1
KM4
  7
standard
 50
0.0
 73
0
 44
1.0
  0
MTEXT
  5
194
100
AcDbEntity
100
AcDbMText
  8
0
 62
256
370
-1
  6
ByLayer
 10
71.0
 20
100.0
 30
0.0
 40
1.5
 41
100.0
 71
1
 72
2
  1
S2
  7
standard
 50
0.0
 73
0
 44
1.0
  0
MTEXT
  5
195
100
AcDbEntity
100
AcDbMText
  8
0
 62
256
370
-1
  6
ByLayer
 10
83.0
 20
100.0
 30
0.0
 40
1.5
 41
100.0
 71
1
 72
2
  1
KM1
  7
standard
 50
0.0
 73
0
 44
1.0
  0
MTEXT
  5
196
100
AcDbEntity
100
AcDbMText
  8
0
 62
256
370
-1
  6
ByLayer
 10
71.0
 20
76.0
 30
0.0
 40
1.5
 41
100.0
 71
1
 72
2
  1
KM1
  7
standard
 50
0.0
 73
0
 44
1.0
  0
MTEXT
  5
197
100
AcDbEntity
100
AcDbMText
  8
0
 62
256
370
-1
  6
ByLayer
 10
85.0
 20
76.0
 30
0.0
 40
1.5
 41
100.0
 71
1
 72
2
  1
H1
  7
standard
 50
0.0
 73
0
 44
1.0
  0
MTEXT
  5
198
100
AcDbEntity
100
AcDbMText
  8
0
 62
256
370
-1
  6
ByLayer
 10
92.0
 20
146.0
 30
0.0
 40
1.5
 41
100.0
 71
1
 72
2
  1
KM5
  7
standard
 50
0.0
 73
0
 44
1.0
  0
MTEXT
  5
199
100
AcDbEntity
100
AcDbMText
  8
0
 62
256
370
-1
  6
ByLayer
 10
129.0
 20
146.0
 30
0.0
 40
1.5
 41
100.0
 71
1
 72
2
  1
KM5
  7
standard
 50
0.0
 73
0
 44
1.0
  0
MTEXT
  5
19A
100
AcDbEntity
100
AcDbMText
  8
0
 62
256
370
-1
  6
ByLayer
 10
172.0
 20
146.0
 30
0.0
 40
1.5
 41
100.0
 71
1
 72
2
  1
KM5
  7
standard
 50
0.0
 73
0
 44
1.0
  0
MTEXT
  5
19B
100
AcDbEntity
100
AcDbMText
  8
0
 62
256
370
-1
  6
ByLayer
 10
231.0
 20
146.0
 30
0.0
 40
1.5
 41
100.0
 71
1
 72
2
  1
KM5
  7
standard
 50
0.0
 73
0
 44
1.0
  0
MTEXT
  5
19C
100
AcDbEntity
100
AcDbMText
  8
0
 62
256
370
-1
  6
ByLayer
 10
130.0
 20
176.0
 30
0.0
 40
1.5
 41
100.0
 71
1
 72
2
  1
S6
  7
standard
 50
0.0
 73
0
 44
1.0
  0
MTEXT
  5
19D
100
AcDbEntity
100
AcDbMText
  8
0
 62
256
370
-1
  6
ByLayer
 10
130.0
 20
161.0
 30
0.0
 40
1.5
 41
100.0
 71
1
 72
2
  1
S1
  7
standard
 50
0.0
 73
0
 44
1.0
  0
MTEXT
  5
19E
100
AcDbEntity
100
AcDbMText
  8
0
 62
256
370
-1
  6
ByLayer
 10
114.0
 20
146.0
 30
0.0
 40
1.5
 41
100.0
 71
1
 72
2
  1
KM1\P
  7
standard
 50
0.0
 73
0
 44
1.0
  0
MTEXT
  5
19F
100
AcDbEntity
100
AcDbMText
  8
0
 62
256
370
-1
  6
ByLayer
 10
153.0
 20
146.0
 30
0.0
 40
1.5
 41
100.0
 71
1
 72
2
  1
KM1\P
  7
standard
 50
0.0
 73
0
 44
1.0
  0
MTEXT
  5
1A0
100
AcDbEntity
100
AcDbMText
  8
0
 62
256
370
-1
  6
ByLayer
 10
193.0
 20
146.0
 30
0.0
 40
1.5
 41
100.0
 71
1
 72
2
  1
KM1\P
  7
standard
 50
0.0
 73
0
 44
1.0
  0
MTEXT
  5
1A1
100
AcDbEntity
100
AcDbMText
  8
0
 62
256
370
-1
  6
ByLayer
 10
114.0
 20
131.0
 30
0.0
 40
1.5
 41
100.0
 71
1
 72
2
  1
KM3
  7
standard
 50
0.0
 73
0
 44
1.0
  0
MTEXT
  5
1A2
100
AcDbEntity
100
AcDbMText
  8
0
 62
256
370
-1
  6
ByLayer
 10
193.0
 20
116.0
 30
0.0
 40
1.5
 41
100.0
 71
1
 72
2
  1
KM3
  7
standard
 50
0.0
 73
0
 44
1.0
  0
MTEXT
  5
1A3
100
AcDbEntity
100
AcDbMText
  8
0
 62
256
370
-1
  6
ByLayer
 10
114.0
 20
117.0
 30
0.0
 40
1.5
 41
100.0
 71
1
 72
2
  1
KM4
  7
standard
 50
0.0
 73
0
 44
1.0
  0
MTEXT
  5
1A4
100
AcDbEntity
100
AcDbMText
  8
0
 62
256
370
-1
  6
ByLayer
 10
153.0
 20
117.0
 30
0.0
 40
1.5
 41
100.0
 71
1
 72
2
  1
KM4
  7
standard
 50
0.0
 73
0
 44
1.0
  0
MTEXT
  5
1A5
100
AcDbEntity
100
AcDbMText
  8
0
 62
256
370
-1
  6
ByLayer
 10
204.0
 20
100.0
 30
0.0
 40
1.5
 41
100.0
 71
1
 72
2
  1
KM4
  7
standard
 50
0.0
 73
0
 44
1.0
  0
MTEXT
  5
1A6
100
AcDbEntity
100
AcDbMText
  8
0
 62
256
370
-1
  6
ByLayer
 10
190.0
 20
76.0
 30
0.0
 40
1.5
 41
100.0
 71
1
 72
2
  1
KM4
  7
standard
 50
0.0
 73
0
 44
1.0
  0
MTEXT
  5
1A7
100
AcDbEntity
100
AcDbMText
  8
0
 62
256
370
-1
  6
ByLayer
 10
109.0
 20
76.0
 30
0.0
 40
1.5
 41
100.0
 71
1
 72
2
  1
KM2
  7
standard
 50
0.0
 73
0
 44
1.0
  0
MTEXT
  5
1A8
100
AcDbEntity
100
AcDbMText
  8
0
 62
256
370
-1
  6
ByLayer
 10
153.0
 20
131.0
 30
0.0
 40
1.5
 41
100.0
 71
1
 72
2
  1
KM2
  7
standard
 50
0.0
 73
0
 44
1.0
  0
MTEXT
  5
1A9
100
AcDbEntity
100
AcDbMText
  8
0
 62
256
370
-1
  6
ByLayer
 10
193.0
 20
131.0
 30
0.0
 40
1.5
 41
100.0
 71
1
 72
2
  1
KM2
  7
standard
 50
0.0
 73
0
 44
1.0
  0
MTEXT
  5
1AA
100
AcDbEntity
100
AcDbMText
  8
0
 62
256
370
-1
  6
ByLayer
 10
149.0
 20
76.0
 30
0.0
 40
1.5
 41
100.0
 71
1
 72
2
  1
KM3
  7
standard
 50
0.0
 73
0
 44
1.0
  0
MTEXT
  5
1AB
100
AcDbEntity
100
AcDbMText
  8
0
 62
256
370
-1
  6
ByLayer
 10
164.0
 20
100.0
 30
0.0
 40
1.5
 41
100.0
 71
1
 72
2
  1
KM3
  7
standard
 50
0.0
 73
0
 44
1.0
  0
MTEXT
  5
1AC
100
AcDbEntity
100
AcDbMText
  8
0
 62
256
370
-1
  6
ByLayer
 10
124.0
 20
100.0
 30
0.0
 40
1.5
 41
100.0
 71
1
 72
2
  1
KM2
  7
standard
 50
0.0
 73
0
 44
1.0
  0
MTEXT
  5
1AD
100
AcDbEntity
100
AcDbMText
  8
0
 62
256
370
-1
  6
ByLayer
 10
110.0
 20
100.0
 30
0.0
 40
1.5
 41
100.0
 71
1
 72
2
  1
S3
  7
standard
 50
0.0
 73
0
 44
1.0
  0
MTEXT
  5
1AE
100
AcDbEntity
100
AcDbMText
  8
0
 62
256
370
-1
  6
ByLayer
 10
150.0
 20
100.0
 30
0.0
 40
1.5
 41
100.0
 71
1
 72
2
  1
S4
  7
standard
 50
0.0
 73
0
 44
1.0
  0
MTEXT
  5
1AF
100
AcDbEntity
100
AcDbMText
  8
0
 62
256
370
-1
  6
ByLayer
 10
190.0
 20
100.0
 30
0.0
 40
1.5
 41
100.0
 71
1
 72
2
  1
S5
  7
standard
 50
0.0
 73
0
 44
1.0
  0
MTEXT
  5
1B0
100
AcDbEntity
100
AcDbMText
  8
0
 62
256
370
-1
  6
ByLayer
 10
125.0
 20
76.0
 30
0.0
 40
1.5
 41
100.0
 71
1
 72
2
  1
H2
  7
standard
 50
0.0
 73
0
 44
1.0
  0
MTEXT
  5
1B1
100
AcDbEntity
100
AcDbMText
  8
0
 62
256
370
-1
  6
ByLayer
 10
165.0
 20
76.0
 30
0.0
 40
1.5
 41
100.0
 71
1
 72
2
  1
H3
  7
standard
 50
0.0
 73
0
 44
1.0
  0
MTEXT
  5
1B2
100
AcDbEntity
100
AcDbMText
  8
0
 62
256
370
-1
  6
ByLayer
 10
205.0
 20
76.0
 30
0.0
 40
1.5
 41
100.0
 71
1
 72
2
  1
H4
  7
standard
 50
0.0
 73
0
 44
1.0
  0
MTEXT
  5
1B3
100
AcDbEntity
100
AcDbMText
  8
0
 62
256
370
-1
  6
ByLayer
 10
26.0
 20
188.0
 30
0.0
 40
1.5
 41
100.0
 71
1
 72
2
  1
1
  7
standard
 50
0.0
 73
0
 44
1.0
  0
MTEXT
  5
1B4
100
AcDbEntity
100
AcDbMText
  8
0
 62
256
370
-1
  6
ByLayer
 10
26.0
 20
173.0
 30
0.0
 40
1.5
 41
100.0
 71
1
 72
2
  1
2
  7
standard
 50
0.0
 73
0
 44
1.0
  0
MTEXT
  5
1B5
100
AcDbEntity
100
AcDbMText
  8
0
 62
256
370
-1
  6
ByLayer
 10
31.0
 20
188.0
 30
0.0
 40
1.5
 41
100.0
 71
1
 72
2
  1
3
  7
standard
 50
0.0
 73
0
 44
1.0
  0
MTEXT
  5
1B6
100
AcDbEntity
100
AcDbMText
  8
0
 62
256
370
-1
  6
ByLayer
 10
31.0
 20
173.0
 30
0.0
 40
1.5
 41
100.0
 71
1
 72
2
  1
4
  7
standard
 50
0.0
 73
0
 44
1.0
  0
MTEXT
  5
1B7
100
AcDbEntity
100
AcDbMText
  8
0
 62
256
370
-1
  6
ByLayer
 10
20.0
 20
120.0
 30
0.0
 40
2.0
 41
100.0
 71
1
 72
2
  1
N
  7
standard
 50
90.0
 73
0
 44
1.0
  0
MTEXT
  5
1B8
100
AcDbEntity
100
AcDbMText
  8
0
 62
256
370
-1
  6
ByLayer
 10
46.0
 20
170.0
 30
0.0
 40
2.0
 41
100.0
 71
1
 72
2
  1
1
  7
standard
 50
90.0
 73
0
 44
1.0
  0
MTEXT
  5
1B9
100
AcDbEntity
100
AcDbMText
  8
0
 62
256
370
-1
  6
ByLayer
 10
45.0
 20
120.0
 30
0.0
 40
2.0
 41
100.0
 71
1
 72
2
  1
2
  7
standard
 50
90.0
 73
0
 44
1.0
  0
MTEXT
  5
1BA
100
AcDbEntity
100
AcDbMText
  8
0
 62
256
370
-1
  6
ByLayer
 10
45.0
 20
87.0
 30
0.0
 40
2.0
 41
100.0
 71
1
 72
2
  1
3
  7
standard
 50
90.0
 73
0
 44
1.0
  0
MTEXT
  5
1BB
100
AcDbEntity
100
AcDbMText
  8
0
 62
256
370
-1
  6
ByLayer
 10
133.0
 20
167.0
 30
0.0
 40
2.0
 41
100.0
 71
1
 72
2
  1
4
  7
standard
 50
90.0
 73
0
 44
1.0
  0
MTEXT
  5
1BC
100
AcDbEntity
100
AcDbMText
  8
0
 62
256
370
-1
  6
ByLayer
 10
76.0
 20
138.0
 30
0.0
 40
2.0
 41
100.0
 71
1
 72
2
  1
6
  7
standard
 50
90.0
 73
0
 44
1.0
  0
MTEXT
  5
1BD
100
AcDbEntity
100
AcDbMText
  8
0
 62
256
370
-1
  6
ByLayer
 10
76.0
 20
121.0
 30
0.0
 40
2.0
 41
100.0
 71
1
 72
2
  1
7
  7
standard
 50
90.0
 73
0
 44
1.0
  0
MTEXT
  5
1BE
100
AcDbEntity
100
AcDbMText
  8
0
 62
256
370
-1
  6
ByLayer
 10
76.0
 20
106.0
 30
0.0
 40
2.0
 41
100.0
 71
1
 72
2
  1
8
  7
standard
 50
90.0
 73
0
 44
1.0
  0
MTEXT
  5
1BF
100
AcDbEntity
100
AcDbMText
  8
0
 62
256
370
-1
  6
ByLayer
 10
76.0
 20
88.0
 30
0.0
 40
2.0
 41
100.0
 71
1
 72
2
  1
9
  7
standard
 50
90.0
 73
0
 44
1.0
  0
MTEXT
  5
1C0
100
AcDbEntity
100
AcDbMText
  8
0
 62
256
370
-1
  6
ByLayer
 10
115.0
 20
138.0
 30
0.0
 40
2.0
 41
100.0
 71
1
 72
2
  1
10
  7
standard
 50
90.0
 73
0
 44
1.0
  0
MTEXT
  5
1C1
100
AcDbEntity
100
AcDbMText
  8
0
 62
256
370
-1
  6
ByLayer
 10
115.0
 20
123.0
 30
0.0
 40
2.0
 41
100.0
 71
1
 72
2
  1
11
  7
standard
 50
90.0
 73
0
 44
1.0
  0
MTEXT
  5
1C2
100
AcDbEntity
100
AcDbMText
  8
0
 62
256
370
-1
  6
ByLayer
 10
115.0
 20
106.0
 30
0.0
 40
2.0
 41
100.0
 71
1
 72
2
  1
12
  7
standard
 50
90.0
 73
0
 44
1.0
  0
MTEXT
  5
1C3
100
AcDbEntity
100
AcDbMText
  8
0
 62
256
370
-1
  6
ByLayer
 10
115.0
 20
87.0
 30
0.0
 40
2.0
 41
100.0
 71
1
 72
2
  1
13
  7
standard
 50
90.0
 73
0
 44
1.0
  0
MTEXT
  5
1C4
100
AcDbEntity
100
AcDbMText
  8
0
 62
256
370
-1
  6
ByLayer
 10
155.0
 20
138.0
 30
0.0
 40
2.0
 41
100.0
 71
1
 72
2
  1
14
  7
standard
 50
90.0
 73
0
 44
1.0
  0
MTEXT
  5
1C5
100
AcDbEntity
100
AcDbMText
  8
0
 62
256
370
-1
  6
ByLayer
 10
155.0
 20
122.0
 30
0.0
 40
2.0
 41
100.0
 71
1
 72
2
  1
15
  7
standard
 50
90.0
 73
0
 44
1.0
  0
MTEXT
  5
1C6
100
AcDbEntity
100
AcDbMText
  8
0
 62
256
370
-1
  6
ByLayer
 10
155.0
 20
107.0
 30
0.0
 40
2.0
 41
100.0
 71
1
 72
2
  1
16
  7
standard
 50
90.0
 73
0
 44
1.0
  0
MTEXT
  5
1C7
100
AcDbEntity
100
AcDbMText
  8
0
 62
256
370
-1
  6
ByLayer
 10
155.0
 20
87.0
 30
0.0
 40
2.0
 41
100.0
 71
1
 72
2
  1
17
  7
standard
 50
90.0
 73
0
 44
1.0
  0
MTEXT
  5
1C8
100
AcDbEntity
100
AcDbMText
  8
0
 62
256
370
-1
  6
ByLayer
 10
195.0
 20
139.0
 30
0.0
 40
2.0
 41
100.0
 71
1
 72
2
  1
18
  7
standard
 50
90.0
 73
0
 44
1.0
  0
MTEXT
  5
1C9
100
AcDbEntity
100
AcDbMText
  8
0
 62
256
370
-1
  6
ByLayer
 10
195.0
 20
122.0
 30
0.0
 40
2.0
 41
100.0
 71
1
 72
2
  1
19
  7
standard
 50
90.0
 73
0
 44
1.0
  0
MTEXT
  5
1CA
100
AcDbEntity
100
AcDbMText
  8
0
 62
256
370
-1
  6
ByLayer
 10
195.0
 20
107.0
 30
0.0
 40
2.0
 41
100.0
 71
1
 72
2
  1
20
  7
standard
 50
90.0
 73
0
 44
1.0
  0
MTEXT
  5
1CB
100
AcDbEntity
100
AcDbMText
  8
0
 62
256
370
-1
  6
ByLayer
 10
195.0
 20
87.0
 30
0.0
 40
2.0
 41
100.0
 71
1
 72
2
  1
21
  7
standard
 50
90.0
 73
0
 44
1.0
  0
MTEXT
  5
1CC
100
AcDbEntity
100
AcDbMText
  8
0
 62
256
370
-1
  6
ByLayer
 10
87.0
 20
193.0
 30
0.0
 40
2.0
 41
100.0
 71
1
 72
2
  1
1
  7
standard
 50
0.0
 73
0
 44
1.0
  0
MTEXT
  5
1CD
100
AcDbEntity
100
AcDbMText
  8
0
 62
256
370
-1
  6
ByLayer
 10
110.0
 20
153.0
 30
0.0
 40
2.0
 41
100.0
 71
1
 72
2
  1
5
  7
standard
 50
0.0
 73
0
 44
1.0
  0
MTEXT
  5
1CE
100
AcDbEntity
100
AcDbMText
  8
0
 62
256
370
-1
  6
ByLayer
 10
180.0
 20
154.0
 30
0.0
 40
2.0
 41
100.0
 71
1
 72
2
  1
5
  7
standard
 50
0.0
 73
0
 44
1.0
  0
MTEXT
  5
1CF
100
AcDbEntity
100
AcDbMText
  8
0
 62
256
370
-1
  6
ByLayer
 10
134.0
 20
153.0
 30
0.0
 40
2.0
 41
100.0
 71
1
 72
2
  1
5
  7
standard
 50
90.0
 73
0
 44
1.0
  0
MTEXT
  5
1D0
100
AcDbEntity
100
AcDbMText
  8
0
 62
256
370
-1
  6
ByLayer
 10
36.0
 20
64.0
 30
0.0
 40
2.0
 41
100.0
 71
1
 72
2
  1
N
  7
standard
 50
0.0
 73
0
 44
1.0
  0
MTEXT
  5
1D1
100
AcDbEntity
100
AcDbMText
  8
0
 62
256
370
-1
  6
ByLayer
 10
104.0
 20
64.0
 30
0.0
 40
2.0
 41
100.0
 71
1
 72
2
  1
N
  7
standard
 50
0.0
 73
0
 44
1.0
  0
MTEXT
  5
1D2
100
AcDbEntity
100
AcDbMText
  8
0
 62
256
370
-1
  6
ByLayer
 10
184.0
 20
63.0
 30
0.0
 40
2.0
 41
100.0
 71
1
 72
2
  1
N
  7
standard
 50
0.0
 73
0
 44
1.0
  0
MTEXT
  5
1D3
100
AcDbEntity
100
AcDbMText
  8
0
 62
256
370
-1
  6
ByLayer
 10
27.0
 20
198.0
 30
0.0
 40
3.0
 41
100.0
 71
1
 72
2
  1
1
  7
standard
 50
0.0
 73
0
 44
1.0
  0
MTEXT
  5
1D4
100
AcDbEntity
100
AcDbMText
  8
0
 62
256
370
-1
  6
ByLayer
 10
66.0
 20
199.0
 30
0.0
 40
3.0
 41
100.0
 71
1
 72
2
  1
2
  7
standard
 50
0.0
 73
0
 44
1.0
  0
MTEXT
  5
1D5
100
AcDbEntity
100
AcDbMText
  8
0
 62
256
370
-1
  6
ByLayer
 10
102.0
 20
199.0
 30
0.0
 40
3.0
 41
100.0
 71
1
 72
2
  1
3
  7
standard
 50
0.0
 73
0
 44
1.0
  0
MTEXT
  5
1D6
100
AcDbEntity
100
AcDbMText
  8
0
 62
256
370
-1
  6
ByLayer
 10
135.0
 20
199.0
 30
0.0
 40
3.0
 41
100.0
 71
1
 72
2
  1
4
  7
standard
 50
0.0
 73
0
 44
1.0
  0
MTEXT
  5
1D7
100
AcDbEntity
100
AcDbMText
  8
0
 62
256
370
-1
  6
ByLayer
 10
166.0
 20
199.0
 30
0.0
 40
3.0
 41
100.0
 71
1
 72
2
  1
5
  7
standard
 50
0.0
 73
0
 44
1.0
  0
MTEXT
  5
1D8
100
AcDbEntity
100
AcDbMText
  8
0
 62
256
370
-1
  6
ByLayer
 10
202.0
 20
199.0
 30
0.0
 40
3.0
 41
100.0
 71
1
 72
2
  1
6
  7
standard
 50
0.0
 73
0
 44
1.0
  0
MTEXT
  5
1D9
100
AcDbEntity
100
AcDbMText
  8
0
 62
256
370
-1
  6
ByLayer
 10
236.0
 20
199.0
 30
0.0
 40
3.0
 41
100.0
 71
1
 72
2
  1
7
  7
standard
 50
0.0
 73
0
 44
1.0
  0
MTEXT
  5
1DA
100
AcDbEntity
100
AcDbMText
  8
0
 62
256
370
-1
  6
ByLayer
 10
272.0
 20
199.0
 30
0.0
 40
3.0
 41
100.0
 71
1
 72
2
  1
8
  7
standard
 50
0.0
 73
0
 44
1.0
  0
MTEXT
  5
1DB
100
AcDbEntity
100
AcDbMText
  8
0
 62
256
370
-1
  6
ByLayer
 10
271.0
 20
14.0
 30
0.0
 40
3.0
 41
100.0
 71
1
 72
2
  1
8
  7
standard
 50
0.0
 73
0
 44
1.0
  0
MTEXT
  5
1DC
100
AcDbEntity
100
AcDbMText
  8
0
 62
256
370
-1
  6
ByLayer
 10
237.0
 20
14.0
 30
0.0
 40
3.0
 41
100.0
 71
1
 72
2
  1
7
  7
standard
 50
0.0
 73
0
 44
1.0
  0
MTEXT
  5
1DD
100
AcDbEntity
100
AcDbMText
  8
0
 62
256
370
-1
  6
ByLayer
 10
202.0
 20
14.0
 30
0.0
 40
3.0
 41
100.0
 71
1
 72
2
  1
6
  7
standard
 50
0.0
 73
0
 44
1.0
  0
MTEXT
  5
1DE
100
AcDbEntity
100
AcDbMText
  8
0
 62
256
370
-1
  6
ByLayer
 10
166.0
 20
14.0
 30
0.0
 40
3.0
 41
100.0
 71
1
 72
2
  1
5
  7
standard
 50
0.0
 73
0
 44
1.0
  0
MTEXT
  5
1DF
100
AcDbEntity
100
AcDbMText
  8
0
 62
256
370
-1
  6
ByLayer
 10
133.0
 20
14.0
 30
0.0
 40
3.0
 41
100.0
 71
1
 72
2
  1
4
  7
standard
 50
0.0
 73
0
 44
1.0
  0
MTEXT
  5
1E0
100
AcDbEntity
100
AcDbMText
  8
0
 62
256
370
-1
  6
ByLayer
 10
102.0
 20
14.0
 30
0.0
 40
3.0
 41
100.0
 71
1
 72
2
  1
3
  7
standard
 50
0.0
 73
0
 44
1.0
  0
MTEXT
  5
1E1
100
AcDbEntity
100
AcDbMText
  8
0
 62
256
370
-1
  6
ByLayer
 10
66.0
 20
14.0
 30
0.0
 40
3.0
 41
100.0
 71
1
 72
2
  1
2
  7
standard
 50
0.0
 73
0
 44
1.0
  0
MTEXT
  5
1E2
100
AcDbEntity
100
AcDbMText
  8
0
 62
256
370
-1
  6
ByLayer
 10
28.0
 20
14.0
 30
0.0
 40
3.0
 41
100.0
 71
1
 72
2
  1
1
  7
standard
 50
0.0
 73
0
 44
1.0
  0
LINE
  5
1E3
100
AcDbEntity
100
AcDbLine
  8
0
 62
256
370
-1
  6
ByLayer
 10
90.0
 20
90.0
 30
0.0
 11
90.000000000000014
 21
86.44721359549996
 31
0.0
  0
LINE
  5
1E4
100
AcDbEntity
100
AcDbLine
  8
0
 62
256
370
-1
  6
ByLayer
 10
90.000000000000014
 20
85.55278640450004
 30
0.0
 11
90.000000000000014
 21
82.44721359549996
 31
0.0
  0
LINE
  5
1E5
100
AcDbEntity
100
AcDbLine
  8
0
 62
256
370
-1
  6
ByLayer
 10
90.0
 20
80.0
 30
0.0
 11
90.000000000000014
 21
81.55278640450004
 31
0.0
  0
INSERT
  5
1E6
100
AcDbEntity
100
AcDbBlockReference
  8
0
 62
256
370
-1
  6
ByLayer
  2
BORN
 10
90.0
 20
67.0
 30
0.0
 44
1.0
 45
1.0
  0
INSERT
  5
1E7
100
AcDbEntity
100
AcDbBlockReference
  8
0
 62
256
370
-1
  6
ByLayer
  2
BORN
 10
90.0
 20
64.0
 30
0.0
 44
1.0
 45
1.0
  0
LINE
  5
1E8
100
AcDbEntity
100
AcDbLine
  8
0
 62
256
370
-1
  6
ByLayer
 10
90.000000000000014
 20
63.55278640450004
 30
0.0
 11
90.000000000000014
 21
60.0
 31
0.0
  0
LINE
  5
1E9
100
AcDbEntity
100
AcDbLine
  8
0
 62
256
370
-1
  6
ByLayer
 10
90.0
 20
70.0
 30
0.0
 11
90.000000000000014
 21
67.44721359549996
 31
0.0
  0
LINE
  5
1EA
100
AcDbEntity
100
AcDbLine
  8
0
 62
256
370
-1
  6
ByLayer
 10
90.000000000000014
 20
66.55278640450004
 30
0.0
 11
90.000000000000014
 21
64.44721359549996
 31
0.0
  0
LINE
  5
1EB
100
AcDbEntity
100
AcDbLine
  8
0
 62
256
370
-1
  6
ByLayer
 10
90.000000000000014
 20
86.44721359549996
 30
0.0
 11
90.000000000000014
 21
85.537177429602792
 31
0.0
  0
LINE
  5
1EC
100
AcDbEntity
100
AcDbLine
  8
0
 62
256
370
-1
  6
ByLayer
 10
90.000000000000014
 20
82.44721359549996
 30
0.0
 11
90.000000000000014
 21
81.55278640450004
 31
0.0
  0
INSERT
  5
1ED
100
AcDbEntity
100
AcDbBlockReference
  8
0
 62
256
370
-1
  6
ByLayer
  2
BORN
 10
80.0
 20
81.0
 30
0.0
 44
1.0
 45
1.0
  0
INSERT
  5
1EE
100
AcDbEntity
100
AcDbBlockReference
  8
0
 62
256
370
-1
  6
ByLayer
  2
BORN
 10
80.0
 20
84.0
 30
0.0
 44
1.0
 45
1.0
  0
LINE
  5
1EF
100
AcDbEntity
100
AcDbLine
  8
0
 62
256
370
-1
  6
ByLayer
 10
80.0
 20
90.0
 30
0.0
 11
80.000000000000014
 21
84.44721359549996
 31
0.0
  0
LINE
  5
1F0
100
AcDbEntity
100
AcDbLine
  8
0
 62
256
370
-1
  6
ByLayer
 10
80.0
 20
81.44721359549996
 30
0.0
 11
80.0
 21
83.55278640450004
 31
0.0
  0
LINE
  5
1F1
100
AcDbEntity
100
AcDbLine
  8
0
 62
256
370
-1
  6
ByLayer
 10
80.0
 20
80.0
 30
0.0
 11
80.0
 21
80.55278640450004
 31
0.0
  0
INSERT
  5
1F2
100
AcDbEntity
100
AcDbBlockReference
  8
0
 62
256
370
-1
  6
ByLayer
  2
BORN
 10
80.0
 20
102.0
 30
0.0
 44
1.0
 45
1.0
  0
LINE
  5
1F3
100
AcDbEntity
100
AcDbLine
  8
0
 62
256
370
-1
  6
ByLayer
 10
80.0
 20
106.0
 30
0.0
 11
90.0
 21
106.0
 31
0.0
  0
LINE
  5
1F4
100
AcDbEntity
100
AcDbLine
  8
0
 62
256
370
-1
  6
ByLayer
 10
90.0
 20
106.0
 30
0.0
 11
90.0
 21
104.0
 31
0.0
  0
INSERT
  5
1F5
100
AcDbEntity
100
AcDbBlockReference
  8
0
 62
256
370
-1
  6
ByLayer
  2
PUNTO
 10
80.0
 20
106.0
 30
0.0
 44
1.0
 45
1.0
  0
INSERT
  5
1F6
100
AcDbEntity
100
AcDbBlockReference
  8
0
 62
256
370
-1
  6
ByLayer
  2
BORN
 10
80.0
 20
105.0
 30
0.0
 44
1.0
 45
1.0
  0
LINE
  5
1F7
100
AcDbEntity
100
AcDbLine
  8
0
 62
256
370
-1
  6
ByLayer
 10
80.000000000000014
 20
106.00000000000001
 30
0.0
 11
80.000000000000014
 21
110.00000000000001
 31
0.0
  0
LINE
  5
1F8
100
AcDbEntity
100
AcDbLine
  8
0
 62
256
370
-1
  6
ByLayer
 10
80.000000000000014
 20
106.00000000000001
 30
0.0
 11
80.000000000000014
 21
105.44721359549996
 31
0.0
  0
LINE
  5
1F9
100
AcDbEntity
100
AcDbLine
  8
0
 62
256
370
-1
  6
ByLayer
 10
80.0
 20
104.0
 30
0.0
 11
80.000000000000014
 21
104.55278640450004
 31
0.0
  0
LINE
  5
1FA
100
AcDbEntity
100
AcDbLine
  8
0
 62
256
370
-1
  6
ByLayer
 10
80.0
 20
97.0
 30
0.0
 11
80.0
 21
94.0
 31
0.0
  0
LINE
  5
1FB
100
AcDbEntity
100
AcDbLine
  8
0
 62
256
370
-1
  6
ByLayer
 10
80.000000000000028
 20
97.000000000000028
 30
0.0
 11
80.000000000000028
 21
98.000000000000028
 31
0.0
  0
LINE
  5
1FC
100
AcDbEntity
100
AcDbLine
  8
0
 62
256
370
-1
  6
ByLayer
 10
80.000000000000028
 20
98.000000000000028
 30
0.0
 11
78.0
 21
100.0
 31
0.0
  0
LINE
  5
1FD
100
AcDbEntity
100
AcDbLine
  8
0
 62
256
370
-1
  6
ByLayer
 10
78.0
 20
100.0
 30
0.0
 11
77.0
 21
101.0
 31
0.0
  0
LINE
  5
1FE
100
AcDbEntity
100
AcDbLine
  8
0
 62
256
370
-1
  6
ByLayer
 10
75.0
 20
99.700000000000017
 30
0.0
 11
75.0
 21
98.700000000000017
 31
0.0
  0
LINE
  5
1FF
100
AcDbEntity
100
AcDbLine
  8
0
 62
256
370
-1
  6
ByLayer
 10
74.999999999999972
 20
100.00000000000003
 30
0.0
 11
74.999999999999972
 21
99.700000000000017
 31
0.0
  0
LINE
  5
200
100
AcDbEntity
100
AcDbLine
  8
0
 62
256
370
-1
  6
ByLayer
 10
74.999999999999972
 20
100.00000000000003
 30
0.0
 11
75.499999999999972
 21
100.00000000000003
 31
0.0
  0
LINE
  5
201
100
AcDbEntity
100
AcDbLine
  8
0
 62
256
370
-1
  6
ByLayer
 10
74.999999999999972
 20
98.700000000000017
 30
0.0
 11
74.999999999999972
 21
98.400000000000006
 31
0.0
  0
LINE
  5
202
100
AcDbEntity
100
AcDbLine
  8
0
 62
256
370
-1
  6
ByLayer
 10
74.999999999999972
 20
98.400000000000006
 30
0.0
 11
75.499999999999972
 21
98.400000000000006
 31
0.0
  0
LINE
  5
203
100
AcDbEntity
100
AcDbLine
  8
0
 62
256
370
-1
  6
ByLayer
 10
75.0
 20
99.200000000000017
 30
0.0
 11
78.5
 21
99.200000000000017
 31
0.0
  0
MTEXT
  5
204
100
AcDbEntity
100
AcDbMText
  8
0
 62
256
370
-1
  6
ByLayer
 10
81.519536903039068
 20
102.45151953690304
 30
0.0
 40
2.0
 41
100.0
 71
5
 72
2
  1
13
  7
standard
 50
0.0
 73
1
 44
1.0
  0
MTEXT
  5
205
100
AcDbEntity
100
AcDbMText
  8
0
 62
256
370
-1
  6
ByLayer
 10
81.66425470332851
 20
95.939218523878438
 30
0.0
 40
2.0
 41
100.0
 71
5
 72
2
  1
14
  7
standard
 50
0.0
 73
1
 44
1.0
  0
LINE
  5
206
100
AcDbEntity
100
AcDbLine
  8
0
 62
256
370
-1
  6
ByLayer
 10
80.000000000000014
 20
101.00000000000001
 30
0.0
 11
80.000000000000014
 21
101.55278640450004
 31
0.0
  0
LINE
  5
207
100
AcDbEntity
100
AcDbLine
  8
0
 62
256
370
-1
  6
ByLayer
 10
80.000000000000014
 20
104.00000000000001
 30
0.0
 11
80.000000000000014
 21
102.44721359549996
 31
0.0
  0
INSERT
  5
208
100
AcDbEntity
100
AcDbBlockReference
  8
0
 62
256
370
-1
  6
ByLayer
  2
BORN
 10
120.0
 20
81.0
 30
0.0
 44
1.0
 45
1.0
  0
INSERT
  5
209
100
AcDbEntity
100
AcDbBlockReference
  8
0
 62
256
370
-1
  6
ByLayer
  2
BORN
 10
120.0
 20
84.0
 30
0.0
 44
1.0
 45
1.0
  0
LINE
  5
20A
100
AcDbEntity
100
AcDbLine
  8
0
 62
256
370
-1
  6
ByLayer
 10
120.0
 20
90.0
 30
0.0
 11
120.0
 21
84.44721359549996
 31
0.0
  0
LINE
  5
20B
100
AcDbEntity
100
AcDbLine
  8
0
 62
256
370
-1
  6
ByLayer
 10
120.0
 20
80.55278640450004
 30
0.0
 11
120.0
 21
79.900000000000006
 31
0.0
  0
LINE
  5
20C
100
AcDbEntity
100
AcDbLine
  8
0
 62
256
370
-1
  6
ByLayer
 10
120.0
 20
83.55278640450004
 30
0.0
 11
120.0
 21
81.44721359549996
 31
0.0
  0
LINE
  5
20D
100
AcDbEntity
100
AcDbLine
  8
0
 62
256
370
-1
  6
ByLayer
 10
120.0
 20
83.55278640450004
 30
0.0
 11
120.0
 21
83.40000000000002
 31
0.0
  0
INSERT
  5
20E
100
AcDbEntity
100
AcDbBlockReference
  8
0
 62
256
370
-1
  6
ByLayer
  2
BORN
 10
130.0
 20
67.0
 30
0.0
 44
1.0
 45
1.0
  0
INSERT
  5
20F
100
AcDbEntity
100
AcDbBlockReference
  8
0
 62
256
370
-1
  6
ByLayer
  2
BORN
 10
130.0
 20
64.0
 30
0.0
 44
1.0
 45
1.0
  0
LINE
  5
210
100
AcDbEntity
100
AcDbLine
  8
0
 62
256
370
-1
  6
ByLayer
 10
130.0
 20
70.0
 30
0.0
 11
130.0
 21
67.44721359549996
 31
0.0
  0
LINE
  5
211
100
AcDbEntity
100
AcDbLine
  8
0
 62
256
370
-1
  6
ByLayer
 10
130.0
 20
60.0
 30
0.0
 11
130.0
 21
63.55278640450004
 31
0.0
  0
LINE
  5
212
100
AcDbEntity
100
AcDbLine
  8
0
 62
256
370
-1
  6
ByLayer
 10
130.0
 20
64.44721359549996
 30
0.0
 11
130.0
 21
66.55278640450004
 31
0.0
  0
INSERT
  5
213
100
AcDbEntity
100
AcDbBlockReference
  8
0
 62
256
370
-1
  6
ByLayer
  2
BORN
 10
160.0
 20
81.0
 30
0.0
 44
1.0
 45
1.0
  0
INSERT
  5
214
100
AcDbEntity
100
AcDbBlockReference
  8
0
 62
256
370
-1
  6
ByLayer
  2
BORN
 10
170.0
 20
64.0
 30
0.0
 44
1.0
 45
1.0
  0
INSERT
  5
215
100
AcDbEntity
100
AcDbBlockReference
  8
0
 62
256
370
-1
  6
ByLayer
  2
BORN
 10
170.0
 20
67.0
 30
0.0
 44
1.0
 45
1.0
  0
LINE
  5
216
100
AcDbEntity
100
AcDbLine
  8
0
 62
256
370
-1
  6
ByLayer
 10
160.0
 20
90.0
 30
0.0
 11
160.0
 21
84.44721359549996
 31
0.0
  0
INSERT
  5
217
100
AcDbEntity
100
AcDbBlockReference
  8
0
 62
256
370
-1
  6
ByLayer
  2
BORN
 10
160.0
 20
84.0
 30
0.0
 44
1.0
 45
1.0
  0
LINE
  5
218
100
AcDbEntity
100
AcDbLine
  8
0
 62
256
370
-1
  6
ByLayer
 10
160.00000000000003
 20
83.55278640450004
 30
0.0
 11
160.00000000000003
 21
81.44721359549996
 31
0.0
  0
LINE
  5
219
100
AcDbEntity
100
AcDbLine
  8
0
 62
256
370
-1
  6
ByLayer
 10
160.00000000000003
 20
80.55278640450004
 30
0.0
 11
160.00000000000003
 21
79.90000000000002
 31
0.0
  0
LINE
  5
21A
100
AcDbEntity
100
AcDbLine
  8
0
 62
256
370
-1
  6
ByLayer
 10
170.0
 20
60.0
 30
0.0
 11
170.0
 21
63.55278640450004
 31
0.0
  0
LINE
  5
21B
100
AcDbEntity
100
AcDbLine
  8
0
 62
256
370
-1
  6
ByLayer
 10
170.0
 20
70.0
 30
0.0
 11
170.0
 21
67.44721359549996
 31
0.0
  0
LINE
  5
21C
100
AcDbEntity
100
AcDbLine
  8
0
 62
256
370
-1
  6
ByLayer
 10
170.00000000000003
 20
64.44721359549996
 30
0.0
 11
170.00000000000003
 21
66.55278640450004
 31
0.0
  0
INSERT
  5
21D
100
AcDbEntity
100
AcDbBlockReference
  8
0
 62
256
370
-1
  6
ByLayer
  2
BORN
 10
210.0
 20
67.0
 30
0.0
 44
1.0
 45
1.0
  0
INSERT
  5
21E
100
AcDbEntity
100
AcDbBlockReference
  8
0
 62
256
370
-1
  6
ByLayer
  2
BORN
 10
210.0
 20
64.0
 30
0.0
 44
1.0
 45
1.0
  0
INSERT
  5
21F
100
AcDbEntity
100
AcDbBlockReference
  8
0
 62
256
370
-1
  6
ByLayer
  2
BORN
 10
200.0
 20
81.0
 30
0.0
 44
1.0
 45
1.0
  0
INSERT
  5
220
100
AcDbEntity
100
AcDbBlockReference
  8
0
 62
256
370
-1
  6
ByLayer
  2
BORN
 10
200.0
 20
84.0
 30
0.0
 44
1.0
 45
1.0
  0
LINE
  5
221
100
AcDbEntity
100
AcDbLine
  8
0
 62
256
370
-1
  6
ByLayer
 10
200.0
 20
90.0
 30
0.0
 11
200.0
 21
84.44721359549996
 31
0.0
  0
LINE
  5
222
100
AcDbEntity
100
AcDbLine
  8
0
 62
256
370
-1
  6
ByLayer
 10
200.00000000000003
 20
80.0
 30
0.0
 11
200.00000000000003
 21
80.55278640450004
 31
0.0
  0
LINE
  5
223
100
AcDbEntity
100
AcDbLine
  8
0
 62
256
370
-1
  6
ByLayer
 10
200.00000000000003
 20
81.44721359549996
 30
0.0
 11
200.00000000000003
 21
83.55278640450004
 31
0.0
  0
LINE
  5
224
100
AcDbEntity
100
AcDbLine
  8
0
 62
256
370
-1
  6
ByLayer
 10
210.0
 20
70.0
 30
0.0
 11
210.0
 21
67.44721359549996
 31
0.0
  0
LINE
  5
225
100
AcDbEntity
100
AcDbLine
  8
0
 62
256
370
-1
  6
ByLayer
 10
210.0
 20
63.55278640450004
 30
0.0
 11
210.0
 21
60.000000000000007
 31
0.0
  0
LINE
  5
226
100
AcDbEntity
100
AcDbLine
  8
0
 62
256
370
-1
  6
ByLayer
 10
210.0
 20
66.55278640450004
 30
0.0
 11
210.0
 21
64.44721359549996
 31
0.0
  0
ENDSEC
  0
SECTION
  2
OBJECTS
  0
DICTIONARY
  5
C
100
AcDbDictionary
280
0
281
1
  3
ACAD_GROUP
350
D
  3
ACAD_LAYOUT
350
1A
  3
ACAD_MLINESTYLE
350
17
  3
ACAD_PLOTSETTINGS
350
19
  3
ACAD_PLOTSTYLENAME
350
E
  3
AcDbVariableDictionary
350
227
  0
DICTIONARY
  5
D
100
AcDbDictionary
280
0
281
1
  0
ACDBDICTIONARYWDFLT
  5
E
100
AcDbDictionary
281
1
  3
Normal
350
F
100
AcDbDictionaryWithDefault
340
F
  0
ACDBPLACEHOLDER
  5
F
  0
DICTIONARY
  5
17
100
AcDbDictionary
280
0
281
1
  3
Standard
350
18
  0
MLINESTYLE
  5
18
100
AcDbMlineStyle
  2
STANDARD
 70
0
  3

 62
256
 51
90.0
 52
90.0
 71
2
 49
0.5
 62
256
  6
BYLAYER
 49
-0.5
 62
256
  6
BYLAYER
  0
DICTIONARY
  5
19
100
AcDbDictionary
280
0
281
1
  0
DICTIONARY
  5
1A
100
AcDbDictionary
281
1
  3
Layout1
350
1E
  3
Layout2
350
26
  3
Model
350
22
  0
LAYOUT
  5
1E
100
AcDbPlotSettings
  1

  2
C:\Program Files\AutoCAD 2002\plotters\DWF ePlot (optimized for plotting).pc3
  4

  6

 40
0.0
 41
0.0
 42
0.0
 43
0.0
 44
0.0
 45
0.0
 46
0.0
 47
0.0
 48
0.0
 49
0.0
140
0.0
141
0.0
142
1.0
143
1.0
 70
688
 72
0
 73
0
 74
5
  7

 75
16
147
1.0
148
0.0
149
0.0
100
AcDbLayout
  1
Layout1
 70
1
 71
1
 10
0.0
 20
0.0
 11
420.0
 21
297.0
 12
0.0
 22
0.0
 32
0.0
 14
100000000000000000000.0
 24
100000000000000000000.0
 34
100000000000000000000.0
 15
-100000000000000000000.0
 25
-100000000000000000000.0
 35
-100000000000000000000.0
146
0.0
 13
0.0
 23
0.0
 33
0.0
 16
1.0
 26
0.0
 36
0.0
 17
0.0
 27
1.0
 37
0.0
 76
0
330
1B
  0
LAYOUT
  5
22
100
AcDbPlotSettings
  1

  2
C:\Program Files\AutoCAD 2002\plotters\DWF ePlot (optimized for plotting).pc3
  4

  6

 40
0.0
 41
0.0
 42
0.0
 43
0.0
 44
0.0
 45
0.0
 46
0.0
 47
0.0
 48
0.0
 49
0.0
140
0.0
141
0.0
142
1.0
143
1.0
 70
1712
 72
0
 73
0
 74
0
  7

 75
0
147
1.0
148
0.0
149
0.0
100
AcDbLayout
  1
Model
 70
1
 71
0
 10
0.0
 20
0.0
 11
12.0
 21
9.0
 12
0.0
 22
0.0
 32
0.0
 14
0.0
 24
0.0
 34
0.0
 15
0.0
 25
0.0
 35
0.0
146
0.0
 13
0.0
 23
0.0
 33
0.0
 16
1.0
 26
0.0
 36
0.0
 17
0.0
 27
1.0
 37
0.0
 76
0
330
1F
  0
LAYOUT
  5
26
100
AcDbPlotSettings
  1

  2
C:\Program Files\AutoCAD 2002\plotters\DWF ePlot (optimized for plotting).pc3
  4

  6

 40
0.0
 41
0.0
 42
0.0
 43
0.0
 44
0.0
 45
0.0
 46
0.0
 47
0.0
 48
0.0
 49
0.0
140
0.0
141
0.0
142
1.0
143
1.0
 70
688
 72
0
 73
0
 74
5
  7

 75
16
147
1.0
148
0.0
149
0.0
100
AcDbLayout
  1
Layout2
 70
1
 71
2
 10
0.0
 20
0.0
 11
12.0
 21
9.0
 12
0.0
 22
0.0
 32
0.0
 14
0.0
 24
0.0
 34
0.0
 15
0.0
 25
0.0
 35
0.0
146
0.0
 13
0.0
 23
0.0
 33
0.0
 16
1.0
 26
0.0
 36
0.0
 17
0.0
 27
1.0
 37
0.0
 76
0
330
23
  0
DICTIONARY
  5
227
100
AcDbDictionary
281
1
  3
DIMASSOC
350
229
  3
HIDETEXT
350
228
  0
DICTIONARYVAR
  5
228
100
DictionaryVariables
280
0
  1
2
  0
DICTIONARYVAR
  5
229
100
DictionaryVariables
280
0
  1
1
  0
ENDSEC
  0
EOF
