999
dxfrw 0.5.10
0
SECTION
2
HEADER
9
$ACADVER
1
AC1021
9
$HANDSEED
5
20000
9
$DWGCODEPAGE
3
ANSI_1252
9
$INSBASE
10
0
20
0
30
0
9
$EXTMIN
10
10000000000
20
10000000000
30
0
9
$EXTMAX
10
-10000000000
20
-10000000000
30
0
9
$LIMMIN
10
0
20
0
9
$LIMMAX
10
420
20
297
9
$ORTHOMODE
70
0
9
$LTSCALE
40
1
9
$TEXTSTYLE
7
STANDARD
9
$DIMASZ
40
2.5
9
$DIMSCALE
40
1
9
$DIMEXO
40
0.625
9
$DIMEXE
40
1.25
9
$DIMTXT
40
2.5
9
$DIMTSZ
40
0
9
$DIMAUNIT
70
0
9
$DIMADEC
70
2
9
$DIMLUNIT
70
2
9
$DIMSTYLE
2
Standard
9
$DIMGAP
40
0.625
9
$DIMTIH
70
0
9
$LUNITS
70
2
9
$LUPREC
70
4
9
$AUNITS
70
0
9
$AUPREC
70
2
9
$SPLINESEGS
70
8
9
$GRIDMODE
70
1
9
$SNAPSTYLE
70
0
9
$GRIDUNIT
10
0
20
0
9
$PINSBASE
10
-0.00680594662195
20
0.00165046604178
30
0
9
$PLIMMIN
10
0
20
0
9
$PLIMMAX
10
210
20
297
9
$INSUNITS
70
0
9
$PSVPSCALE
40
1
0
ENDSEC
0
SECTION
2
CLASSES
0
ENDSEC
0
SECTION
2
TABLES
0
TABLE
2
VPORT
5
8
330
0
100
AcDbSymbolTable
70
1
0
VPORT
5
31
330
2
100
AcDbSymbolTableRecord
100
AcDbViewportTableRecord
2
*ACTIVE
70
0
10
0
20
0
11
1
21
1
12
189.980821301
22
164.516019857
13
0
23
0
14
10
24
10
15
10
25
10
16
0
26
0
36
1
17
0
27
0
37
0
40
392.694043324
41
1.43686006826
42
50
43
0
44
0
50
0
51
0
71
0
72
100
73
1
74
3
75
0
76
1
77
0
78
0
281
0
65
1
110
0
120
0
130
0
111
1
121
0
131
0
112
0
122
1
132
0
79
0
146
0
348
10020
60
7
61
5
292
1
282
1
141
0
142
0
63
250
421
3358443
0
ENDTAB
0
TABLE
2
LTYPE
5
5
330
0
100
AcDbSymbolTable
70
4
0
LTYPE
5
14
330
5
100
AcDbSymbolTableRecord
100
AcDbLinetypeTableRecord
2
ByBlock
70
0
3

72
65
73
0
40
0
0
LTYPE
5
15
330
5
100
AcDbSymbolTableRecord
100
AcDbLinetypeTableRecord
2
ByLayer
70
0
3

72
65
73
0
40
0
0
LTYPE
5
16
330
5
100
AcDbSymbolTableRecord
100
AcDbLinetypeTableRecord
2
Continuous
70
0
3
Solid line
72
65
73
0
40
0
0
LTYPE
5
32
330
5
100
AcDbSymbolTableRecord
100
AcDbLinetypeTableRecord
2
DOT
70
0
3
Dot . . . . . . . . . . . . . . . . . . . . . .
72
65
73
2
40
6.35
49
0
74
0
49
-6.35
74
0
0
LTYPE
5
33
330
5
100
AcDbSymbolTableRecord
100
AcDbLinetypeTableRecord
2
DOT2
70
0
3
Dot (.5x) .....................................
72
65
73
2
40
3.175
49
0
74
0
49
-3.175
74
0
0
LTYPE
5
34
330
5
100
AcDbSymbolTableRecord
100
AcDbLinetypeTableRecord
2
DOTX2
70
0
3
Dot (2x) .  .  .  .  .  .  .  .  .  .  .  .  .
72
65
73
2
40
12.7
49
0
74
0
49
-12.7
74
0
0
LTYPE
5
35
330
5
100
AcDbSymbolTableRecord
100
AcDbLinetypeTableRecord
2
DASHED
70
0
3
Dot . . . . . . . . . . . . . . . . . . . . . .
72
65
73
2
40
19.05
49
12.7
74
0
49
-6.35
74
0
0
LTYPE
5
36
330
5
100
AcDbSymbolTableRecord
100
AcDbLinetypeTableRecord
2
DASHED2
70
0
3
Dashed (.5x) _ _ _ _ _ _ _ _ _ _ _ _ _ _ _ _ _
72
65
73
2
40
9.525
49
6.35
74
0
49
-3.175
74
0
0
LTYPE
5
37
330
5
100
AcDbSymbolTableRecord
100
AcDbLinetypeTableRecord
2
DASHEDX2
70
0
3
Dashed (2x) ____  ____  ____  ____  ____  ___
72
65
73
2
40
38.1
49
25.4
74
0
49
-12.7
74
0
0
LTYPE
5
38
330
5
100
AcDbSymbolTableRecord
100
AcDbLinetypeTableRecord
2
DASHDOT
70
0
3
Dash dot __ . __ . __ . __ . __ . __ . __ . __
72
65
73
4
40
25.4
49
12.7
74
0
49
-6.35
74
0
49
0
74
0
49
-6.35
74
0
0
LTYPE
5
39
330
5
100
AcDbSymbolTableRecord
100
AcDbLinetypeTableRecord
2
DASHDOT2
70
0
3
Dash dot (.5x) _._._._._._._._._._._._._._._.
72
65
73
4
40
12.7
49
6.35
74
0
49
-3.175
74
0
49
0
74
0
49
-3.175
74
0
0
LTYPE
5
3A
330
5
100
AcDbSymbolTableRecord
100
AcDbLinetypeTableRecord
2
DASHDOTX2
70
0
3
Dash dot (2x) ____  .  ____  .  ____  .  ___
72
65
73
4
40
50.8
49
25.4
74
0
49
-12.7
74
0
49
0
74
0
49
-12.7
74
0
0
LTYPE
5
3B
330
5
100
AcDbSymbolTableRecord
100
AcDbLinetypeTableRecord
2
DIVIDE
70
0
3
Divide ____ . . ____ . . ____ . . ____ . . ____
72
65
73
6
40
31.75
49
12.7
74
0
49
-6.35
74
0
49
0
74
0
49
-6.35
74
0
49
0
74
0
49
-6.35
74
0
0
LTYPE
5
3C
330
5
100
AcDbSymbolTableRecord
100
AcDbLinetypeTableRecord
2
DIVIDE2
70
0
3
Divide (.5x) __..__..__..__..__..__..__..__.._
72
65
73
6
40
15.875
49
6.35
74
0
49
-3.175
74
0
49
0
74
0
49
-3.175
74
0
49
0
74
0
49
-3.175
74
0
0
LTYPE
5
3D
330
5
100
AcDbSymbolTableRecord
100
AcDbLinetypeTableRecord
2
DIVIDEX2
70
0
3
Divide (2x) ________  .  .  ________  .  .  _
72
65
73
6
40
63.5
49
25.4
74
0
49
-12.7
74
0
49
0
74
0
49
-12.7
74
0
49
0
74
0
49
-12.7
74
0
0
LTYPE
5
3E
330
5
100
AcDbSymbolTableRecord
100
AcDbLinetypeTableRecord
2
BORDER
70
0
3
Border __ __ . __ __ . __ __ . __ __ . __ __ .
72
65
73
6
40
44.45
49
12.7
74
0
49
-6.35
74
0
49
12.7
74
0
49
-6.35
74
0
49
0
74
0
49
-6.35
74
0
0
LTYPE
5
3F
330
5
100
AcDbSymbolTableRecord
100
AcDbLinetypeTableRecord
2
BORDER2
70
0
3
Border (.5x) __.__.__.__.__.__.__.__.__.__.__.
72
65
73
6
40
22.225
49
6.35
74
0
49
-3.175
74
0
49
6.35
74
0
49
-3.175
74
0
49
0
74
0
49
-3.175
74
0
0
LTYPE
5
40
330
5
100
AcDbSymbolTableRecord
100
AcDbLinetypeTableRecord
2
BORDERX2
70
0
3
Border (2x) ____  ____  .  ____  ____  .  ___
72
65
73
6
40
88.9
49
25.4
74
0
49
-12.7
74
0
49
25.4
74
0
49
-12.7
74
0
49
0
74
0
49
-12.7
74
0
0
LTYPE
5
41
330
5
100
AcDbSymbolTableRecord
100
AcDbLinetypeTableRecord
2
CENTER
70
0
3
Center ____ _ ____ _ ____ _ ____ _ ____ _ ____
72
65
73
4
40
50.8
49
31.75
74
0
49
-6.35
74
0
49
6.35
74
0
49
-6.35
74
0
0
LTYPE
5
42
330
5
100
AcDbSymbolTableRecord
100
AcDbLinetypeTableRecord
2
CENTER2
70
0
3
Center (.5x) ___ _ ___ _ ___ _ ___ _ ___ _ ___
72
65
73
4
40
28.575
49
19.05
74
0
49
-3.175
74
0
49
3.175
74
0
49
-3.175
74
0
0
LTYPE
5
43
330
5
100
AcDbSymbolTableRecord
100
AcDbLinetypeTableRecord
2
CENTERX2
70
0
3
Center (2x) ________  __  ________  __  _____
72
65
73
4
40
101.6
49
63.5
74
0
49
-12.7
74
0
49
12.7
74
0
49
-12.7
74
0
0
ENDTAB
0
TABLE
2
LAYER
5
2
330
0
100
AcDbSymbolTable
70
1
0
LAYER
5
10
330
2
100
AcDbSymbolTableRecord
100
AcDbLayerTableRecord
2
0
70
0
62
7
6
CONTINUOUS
370
0
390
F
0
ENDTAB
0
TABLE
2
STYLE
5
3
330
0
100
AcDbSymbolTable
70
3
0
STYLE
5
44
330
2
100
AcDbSymbolTableRecord
100
AcDbTextStyleTableRecord
2
romans
70
0
40
0
41
1
50
0
71
0
42
1
3
romans
4

0
STYLE
5
45
330
2
100
AcDbSymbolTableRecord
100
AcDbTextStyleTableRecord
2
standard
70
0
40
0
41
1
50
0
71
0
42
1
3
standard
4

0
ENDTAB
0
TABLE
2
VIEW
5
6
330
0
100
AcDbSymbolTable
70
0
0
ENDTAB
0
TABLE
2
UCS
5
7
330
0
100
AcDbSymbolTable
70
0
0
ENDTAB
0
TABLE
2
APPID
5
9
330
0
100
AcDbSymbolTable
70
1
0
APPID
5
12
330
9
100
AcDbSymbolTableRecord
100
AcDbRegAppTableRecord
2
ACAD
70
0
0
ENDTAB
0
TABLE
2
DIMSTYLE
5
A
330
0
100
AcDbSymbolTable
70
1
100
AcDbDimStyleTable
71
1
0
DIMSTYLE
105
46
330
A
100
AcDbSymbolTableRecord
100
AcDbDimStyleTableRecord
2
Standard
70
0
40
1
41
2.5
42
0.625
43
0.38
44
1.25
45
0
46
0
47
0
48
0
140
2.5
141
0.09
142
0
143
25.4
144
1
145
0
146
1
147
0.625
148
0
71
0
72
0
73
0
74
1
75
0
76
0
77
0
78
0
79
0
170
0
171
2
172
0
173
0
174
0
175
0
176
0
177
0
178
0
179
0
271
4
272
4
273
2
274
2
275
0
276
0
277
2
278
46
279
0
280
0
281
0
282
0
283
1
284
0
285
0
286
0
288
0
289
3
340
Standard
341

371
-2
372
-2
0
ENDTAB
0
TABLE
2
BLOCK_RECORD
5
1
330
0
100
AcDbSymbolTable
70
2
0
BLOCK_RECORD
5
1F
330
1
100
AcDbSymbolTableRecord
100
AcDbBlockTableRecord
2
*Model_Space
70
0
280
1
281
0
0
BLOCK_RECORD
5
1E
330
1
100
AcDbSymbolTableRecord
100
AcDbBlockTableRecord
2
*Paper_Space
70
0
280
1
281
0
0
BLOCK_RECORD
5
47
330
1
100
AcDbSymbolTableRecord
100
AcDbBlockTableRecord
2
LOGO ANGEL Y HUGO-0
70
0
280
1
281
0
0
BLOCK_RECORD
5
4A
330
1
100
AcDbSymbolTableRecord
100
AcDbBlockTableRecord
2
detctor de inundacion-0
70
0
280
1
281
0
0
BLOCK_RECORD
5
4D
330
1
100
AcDbSymbolTableRecord
100
AcDbBlockTableRecord
2
detector de presencia pir-0
70
0
280
1
281
0
0
BLOCK_RECORD
5
50
330
1
100
AcDbSymbolTableRecord
100
AcDbBlockTableRecord
2
detector de presencia pir-1
70
0
280
1
281
0
0
BLOCK_RECORD
5
53
330
1
100
AcDbSymbolTableRecord
100
AcDbBlockTableRecord
2
detector de presencia pir-2
70
0
280
1
281
0
0
BLOCK_RECORD
5
56
330
1
100
AcDbSymbolTableRecord
100
AcDbBlockTableRecord
2
detector de presencia pir-3
70
0
280
1
281
0
0
BLOCK_RECORD
5
59
330
1
100
AcDbSymbolTableRecord
100
AcDbBlockTableRecord
2
detector de presencia pir-4
70
0
280
1
281
0
0
BLOCK_RECORD
5
5C
330
1
100
AcDbSymbolTableRecord
100
AcDbBlockTableRecord
2
detector de presencia pir-5
70
0
280
1
281
0
0
BLOCK_RECORD
5
5F
330
1
100
AcDbSymbolTableRecord
100
AcDbBlockTableRecord
2
detector de proximidad magnetico-0
70
0
280
1
281
0
0
BLOCK_RECORD
5
62
330
1
100
AcDbSymbolTableRecord
100
AcDbBlockTableRecord
2
detector de gas-0
70
0
280
1
281
0
0
BLOCK_RECORD
5
65
330
1
100
AcDbSymbolTableRecord
100
AcDbBlockTableRecord
2
detector de gas-1
70
0
280
1
281
0
0
BLOCK_RECORD
5
68
330
1
100
AcDbSymbolTableRecord
100
AcDbBlockTableRecord
2
detctor de inundacion-1
70
0
280
1
281
0
0
BLOCK_RECORD
5
6B
330
1
100
AcDbSymbolTableRecord
100
AcDbBlockTableRecord
2
detector de presencia pir-6
70
0
280
1
281
0
0
BLOCK_RECORD
5
6E
330
1
100
AcDbSymbolTableRecord
100
AcDbBlockTableRecord
2
anemometro con salida digital-0
70
0
280
1
281
0
0
BLOCK_RECORD
5
71
330
1
100
AcDbSymbolTableRecord
100
AcDbBlockTableRecord
2
pulsador-0
70
0
280
1
281
0
0
BLOCK_RECORD
5
74
330
1
100
AcDbSymbolTableRecord
100
AcDbBlockTableRecord
2
detctor de inundacion-2
70
0
280
1
281
0
0
BLOCK_RECORD
5
77
330
1
100
AcDbSymbolTableRecord
100
AcDbBlockTableRecord
2
interruptor de proximidad magnetico (ventana)
70
0
280
1
281
0
0
BLOCK_RECORD
5
7A
330
1
100
AcDbSymbolTableRecord
100
AcDbBlockTableRecord
2
termostato
70
0
280
1
281
0
0
BLOCK_RECORD
5
7D
330
1
100
AcDbSymbolTableRecord
100
AcDbBlockTableRecord
2
sensor de presencia
70
0
280
1
281
0
0
BLOCK_RECORD
5
80
330
1
100
AcDbSymbolTableRecord
100
AcDbBlockTableRecord
2
PULSADOR 1
70
0
280
1
281
0
0
BLOCK_RECORD
5
83
330
1
100
AcDbSymbolTableRecord
100
AcDbBlockTableRecord
2
TERMOSTATO
70
0
280
1
281
0
0
BLOCK_RECORD
5
86
330
1
100
AcDbSymbolTableRecord
100
AcDbBlockTableRecord
2
DET VENTANA
70
0
280
1
281
0
0
BLOCK_RECORD
5
89
330
1
100
AcDbSymbolTableRecord
100
AcDbBlockTableRecord
2
DET GAS
70
0
280
1
281
0
0
BLOCK_RECORD
5
8C
330
1
100
AcDbSymbolTableRecord
100
AcDbBlockTableRecord
2
DET AGUA
70
0
280
1
281
0
0
BLOCK_RECORD
5
8F
330
1
100
AcDbSymbolTableRecord
100
AcDbBlockTableRecord
2
BOMBILLA
70
0
280
1
281
0
0
BLOCK_RECORD
5
92
330
1
100
AcDbSymbolTableRecord
100
AcDbBlockTableRecord
2
MOT PERSIAMNA
70
0
280
1
281
0
0
BLOCK_RECORD
5
95
330
1
100
AcDbSymbolTableRecord
100
AcDbBlockTableRecord
2
ELECTROVALVULA
70
0
280
1
281
0
0
BLOCK_RECORD
5
98
330
1
100
AcDbSymbolTableRecord
100
AcDbBlockTableRecord
2
ZUMBADOR
70
0
280
1
281
0
0
ENDTAB
0
ENDSEC
0
SECTION
2
BLOCKS
0
BLOCK
5
20
330
1F
100
AcDbEntity
8
0
100
AcDbBlockBegin
2
*Model_Space
70
0
10
0
20
0
30
0
3
*Model_Space
1

0
ENDBLK
5
21
330
1F
100
AcDbEntity
8
0
100
AcDbBlockEnd
0
BLOCK
5
1C
330
1B
100
AcDbEntity
8
0
100
AcDbBlockBegin
2
*Paper_Space
70
0
10
0
20
0
30
0
3
*Paper_Space
1

0
ENDBLK
5
1D
330
1F
100
AcDbEntity
8
0
100
AcDbBlockEnd
0
BLOCK
5
48
330
47
100
AcDbEntity
8
0
100
AcDbBlockBegin
2
LOGO ANGEL Y HUGO-0
70
0
10
0
20
0
3
LOGO ANGEL Y HUGO-0
1

0
LINE
5
9B
100
AcDbEntity
8
0
6
ByLayer
62
256
370
-1
100
AcDbLine
10
10
20
20
11
125
21
20
0
LINE
5
9C
100
AcDbEntity
8
0
6
ByLayer
62
256
370
-1
100
AcDbLine
10
10
20
20
11
10
21
95
0
LINE
5
9D
100
AcDbEntity
8
0
6
ByLayer
62
256
370
-1
100
AcDbLine
10
125
20
20
11
125
21
95
0
LINE
5
9E
100
AcDbEntity
8
0
6
ByLayer
62
256
370
-1
100
AcDbLine
10
10
20
95
11
125
21
95
0
CIRCLE
5
9F
100
AcDbEntity
8
0
6
ByLayer
62
256
370
-1
100
AcDbCircle
10
17
20
83
40
3.16227766017
0
LINE
5
A0
100
AcDbEntity
8
0
6
ByLayer
62
256
370
-1
100
AcDbLine
10
14.9303847577
20
80.6153212483
11
18.0303847577
21
85.9846787517
0
LINE
5
A1
100
AcDbEntity
8
0
6
ByLayer
62
256
370
-1
100
AcDbLine
10
15.9696152423
20
80.0153212483
11
19.0696152423
21
85.3846787517
0
CIRCLE
5
A2
100
AcDbEntity
8
0
6
ByLayer
62
256
370
-1
100
AcDbCircle
10
27
20
83
40
3.16227766017
0
LINE
5
A3
100
AcDbEntity
8
0
6
ByLayer
62
256
370
-1
100
AcDbLine
10
24.9303847577
20
80.6153212483
11
28.0303847577
21
85.9846787517
0
LINE
5
A4
100
AcDbEntity
8
0
6
ByLayer
62
256
370
-1
100
AcDbLine
10
25.9696152423
20
80.0153212483
11
29.0696152423
21
85.3846787517
0
CIRCLE
5
A5
100
AcDbEntity
8
0
6
ByLayer
62
256
370
-1
100
AcDbCircle
10
117
20
83
40
3.16227766017
0
LINE
5
A6
100
AcDbEntity
8
0
6
ByLayer
62
256
370
-1
100
AcDbLine
10
114.930384758
20
80.6153212483
11
118.030384758
21
85.9846787517
0
LINE
5
A7
100
AcDbEntity
8
0
6
ByLayer
62
256
370
-1
100
AcDbLine
10
115.969615242
20
80.0153212483
11
119.069615242
21
85.3846787517
0
CIRCLE
5
A8
100
AcDbEntity
8
0
6
ByLayer
62
256
370
-1
100
AcDbCircle
10
107
20
83
40
3.16227766017
0
LINE
5
A9
100
AcDbEntity
8
0
6
ByLayer
62
256
370
-1
100
AcDbLine
10
104.930384758
20
80.6153212483
11
108.030384758
21
85.9846787517
0
LINE
5
AA
100
AcDbEntity
8
0
6
ByLayer
62
256
370
-1
100
AcDbLine
10
105.969615242
20
80.0153212483
11
109.069615242
21
85.3846787517
0
CIRCLE
5
AB
100
AcDbEntity
8
0
6
ByLayer
62
256
370
-1
100
AcDbCircle
10
97
20
83
40
3.16227766017
0
LINE
5
AC
100
AcDbEntity
8
0
6
ByLayer
62
256
370
-1
100
AcDbLine
10
94.9303847577
20
80.6153212483
11
98.0303847577
21
85.9846787517
0
LINE
5
AD
100
AcDbEntity
8
0
6
ByLayer
62
256
370
-1
100
AcDbLine
10
95.9696152423
20
80.0153212483
11
99.0696152423
21
85.3846787517
0
CIRCLE
5
AE
100
AcDbEntity
8
0
6
ByLayer
62
256
370
-1
100
AcDbCircle
10
87
20
83
40
3.16227766017
0
LINE
5
AF
100
AcDbEntity
8
0
6
ByLayer
62
256
370
-1
100
AcDbLine
10
84.9303847577
20
80.6153212483
11
88.0303847577
21
85.9846787517
0
LINE
5
B0
100
AcDbEntity
8
0
6
ByLayer
62
256
370
-1
100
AcDbLine
10
85.9696152423
20
80.0153212483
11
89.0696152423
21
85.3846787517
0
CIRCLE
5
B1
100
AcDbEntity
8
0
6
ByLayer
62
256
370
-1
100
AcDbCircle
10
77
20
83
40
3.16227766017
0
LINE
5
B2
100
AcDbEntity
8
0
6
ByLayer
62
256
370
-1
100
AcDbLine
10
74.9303847577
20
80.6153212483
11
78.0303847577
21
85.9846787517
0
LINE
5
B3
100
AcDbEntity
8
0
6
ByLayer
62
256
370
-1
100
AcDbLine
10
75.9696152423
20
80.0153212483
11
79.0696152423
21
85.3846787517
0
CIRCLE
5
B4
100
AcDbEntity
8
0
6
ByLayer
62
256
370
-1
100
AcDbCircle
10
67
20
83
40
3.16227766017
0
LINE
5
B5
100
AcDbEntity
8
0
6
ByLayer
62
256
370
-1
100
AcDbLine
10
64.9303847577
20
80.6153212483
11
68.0303847577
21
85.9846787517
0
LINE
5
B6
100
AcDbEntity
8
0
6
ByLayer
62
256
370
-1
100
AcDbLine
10
65.9696152423
20
80.0153212483
11
69.0696152423
21
85.3846787517
0
CIRCLE
5
B7
100
AcDbEntity
8
0
6
ByLayer
62
256
370
-1
100
AcDbCircle
10
57
20
83
40
3.16227766017
0
LINE
5
B8
100
AcDbEntity
8
0
6
ByLayer
62
256
370
-1
100
AcDbLine
10
54.9303847577
20
80.6153212483
11
58.0303847577
21
85.9846787517
0
LINE
5
B9
100
AcDbEntity
8
0
6
ByLayer
62
256
370
-1
100
AcDbLine
10
55.9696152423
20
80.0153212483
11
59.0696152423
21
85.3846787517
0
CIRCLE
5
BA
100
AcDbEntity
8
0
6
ByLayer
62
256
370
-1
100
AcDbCircle
10
47
20
83
40
3.16227766017
0
LINE
5
BB
100
AcDbEntity
8
0
6
ByLayer
62
256
370
-1
100
AcDbLine
10
44.9303847577
20
80.6153212483
11
48.0303847577
21
85.9846787517
0
LINE
5
BC
100
AcDbEntity
8
0
6
ByLayer
62
256
370
-1
100
AcDbLine
10
45.9696152423
20
80.0153212483
11
49.0696152423
21
85.3846787517
0
MTEXT
5
BD
100
AcDbEntity
8
0
6
ByLayer
62
256
370
-1
100
AcDbMText
10
17
20
84
30
0
40
4
41
4.57143111111
71
5
72
5
1
L1\P\P
7
romans
210
0
220
0
230
1
50
0
73
2
44
1
0
MTEXT
5
BE
100
AcDbEntity
8
0
6
ByLayer
62
256
370
-1
100
AcDbMText
10
27
20
90
30
0
40
4
41
2.66666666667
71
5
72
5
1
N
7
romans
210
0
220
0
230
1
50
0
73
2
44
1
0
MTEXT
5
BF
100
AcDbEntity
8
0
6
ByLayer
62
256
370
-1
100
AcDbMText
10
47
20
90
30
0
40
4
41
2.28571555556
71
5
72
5
1
I1
7
romans
210
0
220
0
230
1
50
0
73
2
44
1
0
MTEXT
5
C0
100
AcDbEntity
8
0
6
ByLayer
62
256
370
-1
100
AcDbMText
10
57
20
90
30
0
40
4
41
4
71
5
72
5
1
I2
7
romans
210
0
220
0
230
1
50
0
73
2
44
1
0
MTEXT
5
C1
100
AcDbEntity
8
0
6
ByLayer
62
256
370
-1
100
AcDbMText
10
67
20
90
30
0
40
4
41
4
71
5
72
5
1
I3
7
romans
210
0
220
0
230
1
50
0
73
2
44
1
0
MTEXT
5
C2
100
AcDbEntity
8
0
6
ByLayer
62
256
370
-1
100
AcDbMText
10
78
20
90
30
0
40
4
41
4.19047555556
71
5
72
5
1
I4
7
romans
210
0
220
0
230
1
50
0
73
2
44
1
0
MTEXT
5
C3
100
AcDbEntity
8
0
6
ByLayer
62
256
370
-1
100
AcDbMText
10
87
20
90
30
0
40
4
41
4
71
5
72
5
1
I5
7
romans
210
0
220
0
230
1
50
0
73
2
44
1
0
MTEXT
5
C4
100
AcDbEntity
8
0
6
ByLayer
62
256
370
-1
100
AcDbMText
10
97
20
90
30
0
40
4
41
3.80952444444
71
5
72
5
1
I6
7
romans
210
0
220
0
230
1
50
0
73
2
44
1
0
MTEXT
5
C5
100
AcDbEntity
8
0
6
ByLayer
62
256
370
-1
100
AcDbMText
10
107
20
90
30
0
40
4
41
4
71
5
72
5
1
I7
7
romans
210
0
220
0
230
1
50
0
73
2
44
1
0
MTEXT
5
C6
100
AcDbEntity
8
0
6
ByLayer
62
256
370
-1
100
AcDbMText
10
117
20
90
30
0
40
4
41
4
71
5
72
5
1
I8
7
romans
210
0
220
0
230
1
50
0
73
2
44
1
0
CIRCLE
5
C7
100
AcDbEntity
8
0
6
ByLayer
62
256
370
-1
100
AcDbCircle
10
20
20
38
40
3.16227766017
0
LINE
5
C8
100
AcDbEntity
8
0
6
ByLayer
62
256
370
-1
100
AcDbLine
10
17.9303847577
20
35.6153212483
11
21.0303847577
21
40.9846787517
0
LINE
5
C9
100
AcDbEntity
8
0
6
ByLayer
62
256
370
-1
100
AcDbLine
10
18.9696152423
20
35.0153212483
11
22.0696152423
21
40.3846787517
0
CIRCLE
5
CA
100
AcDbEntity
8
0
6
ByLayer
62
256
370
-1
100
AcDbCircle
10
33
20
38
40
3.16227766017
0
LINE
5
CB
100
AcDbEntity
8
0
6
ByLayer
62
256
370
-1
100
AcDbLine
10
30.9303847577
20
35.6153212483
11
34.0303847577
21
40.9846787517
0
LINE
5
CC
100
AcDbEntity
8
0
6
ByLayer
62
256
370
-1
100
AcDbLine
10
31.9696152423
20
35.0153212483
11
35.0696152423
21
40.3846787517
0
LINE
5
CD
100
AcDbEntity
8
0
6
ByLayer
62
256
370
-1
100
AcDbLine
10
20
20
34.8377223398
11
20
21
30
0
LINE
5
CE
100
AcDbEntity
8
0
6
ByLayer
62
256
370
-1
100
AcDbLine
10
33
20
30
11
33
21
34.8377223398
0
CIRCLE
5
CF
100
AcDbEntity
8
0
6
ByLayer
62
256
370
-1
100
AcDbCircle
10
48
20
38
40
3.16227766017
0
LINE
5
D0
100
AcDbEntity
8
0
6
ByLayer
62
256
370
-1
100
AcDbLine
10
45.9303847577
20
35.6153212483
11
49.0303847577
21
40.9846787517
0
LINE
5
D1
100
AcDbEntity
8
0
6
ByLayer
62
256
370
-1
100
AcDbLine
10
46.9696152423
20
35.0153212483
11
50.0696152423
21
40.3846787517
0
CIRCLE
5
D2
100
AcDbEntity
8
0
6
ByLayer
62
256
370
-1
100
AcDbCircle
10
61
20
38
40
3.16227766017
0
LINE
5
D3
100
AcDbEntity
8
0
6
ByLayer
62
256
370
-1
100
AcDbLine
10
58.9303847577
20
35.6153212483
11
62.0303847577
21
40.9846787517
0
LINE
5
D4
100
AcDbEntity
8
0
6
ByLayer
62
256
370
-1
100
AcDbLine
10
59.9696152423
20
35.0153212483
11
63.0696152423
21
40.3846787517
0
LINE
5
D5
100
AcDbEntity
8
0
6
ByLayer
62
256
370
-1
100
AcDbLine
10
48
20
34.8377223398
11
48
21
30
0
LINE
5
D6
100
AcDbEntity
8
0
6
ByLayer
62
256
370
-1
100
AcDbLine
10
61
20
30
11
61
21
34.8377223398
0
CIRCLE
5
D7
100
AcDbEntity
8
0
6
ByLayer
62
256
370
-1
100
AcDbCircle
10
76
20
38
40
3.16227766017
0
LINE
5
D8
100
AcDbEntity
8
0
6
ByLayer
62
256
370
-1
100
AcDbLine
10
73.9303847577
20
35.6153212483
11
77.0303847577
21
40.9846787517
0
LINE
5
D9
100
AcDbEntity
8
0
6
ByLayer
62
256
370
-1
100
AcDbLine
10
74.9696152423
20
35.0153212483
11
78.0696152423
21
40.3846787517
0
CIRCLE
5
DA
100
AcDbEntity
8
0
6
ByLayer
62
256
370
-1
100
AcDbCircle
10
89
20
38
40
3.16227766017
0
LINE
5
DB
100
AcDbEntity
8
0
6
ByLayer
62
256
370
-1
100
AcDbLine
10
86.9303847577
20
35.6153212483
11
90.0303847577
21
40.9846787517
0
LINE
5
DC
100
AcDbEntity
8
0
6
ByLayer
62
256
370
-1
100
AcDbLine
10
87.9696152423
20
35.0153212483
11
91.0696152423
21
40.3846787517
0
LINE
5
DD
100
AcDbEntity
8
0
6
ByLayer
62
256
370
-1
100
AcDbLine
10
76
20
34.8377223398
11
76
21
30
0
LINE
5
DE
100
AcDbEntity
8
0
6
ByLayer
62
256
370
-1
100
AcDbLine
10
89
20
30
11
89
21
34.8377223398
0
CIRCLE
5
DF
100
AcDbEntity
8
0
6
ByLayer
62
256
370
-1
100
AcDbCircle
10
104
20
38
40
3.16227766017
0
LINE
5
E0
100
AcDbEntity
8
0
6
ByLayer
62
256
370
-1
100
AcDbLine
10
101.930384758
20
35.6153212483
11
105.030384758
21
40.9846787517
0
LINE
5
E1
100
AcDbEntity
8
0
6
ByLayer
62
256
370
-1
100
AcDbLine
10
102.969615242
20
35.0153212483
11
106.069615242
21
40.3846787517
0
CIRCLE
5
E2
100
AcDbEntity
8
0
6
ByLayer
62
256
370
-1
100
AcDbCircle
10
117
20
38
40
3.16227766017
0
LINE
5
E3
100
AcDbEntity
8
0
6
ByLayer
62
256
370
-1
100
AcDbLine
10
114.930384758
20
35.6153212483
11
118.030384758
21
40.9846787517
0
LINE
5
E4
100
AcDbEntity
8
0
6
ByLayer
62
256
370
-1
100
AcDbLine
10
115.969615242
20
35.0153212483
11
119.069615242
21
40.3846787517
0
LINE
5
E5
100
AcDbEntity
8
0
6
ByLayer
62
256
370
-1
100
AcDbLine
10
104
20
34.8377223398
11
104
21
30
0
LINE
5
E6
100
AcDbEntity
8
0
6
ByLayer
62
256
370
-1
100
AcDbLine
10
117
20
30
11
117
21
34.8377223398
0
MTEXT
5
E7
100
AcDbEntity
8
0
6
ByLayer
62
256
370
-1
100
AcDbMText
10
26
20
25
30
0
40
4
41
5.33333333333
71
5
72
5
1
Q1
7
romans
210
0
220
0
230
1
50
0
73
2
44
1
0
MTEXT
5
E8
100
AcDbEntity
8
0
6
ByLayer
62
256
370
-1
100
AcDbMText
10
54
20
25
30
0
40
4
41
7.04761777778
71
5
72
5
1
Q2
7
romans
210
0
220
0
230
1
50
0
73
2
44
1
0
MTEXT
5
E9
100
AcDbEntity
8
0
6
ByLayer
62
256
370
-1
100
AcDbMText
10
82
20
25
30
0
40
4
41
7.04761777778
71
5
72
5
1
Q3
7
romans
210
0
220
0
230
1
50
0
73
2
44
1
0
MTEXT
5
EA
100
AcDbEntity
8
0
6
ByLayer
62
256
370
-1
100
AcDbMText
10
111
20
25
30
0
40
4
41
7.23809333333
71
5
72
5
1
Q4
7
romans
210
0
220
0
230
1
50
0
73
2
44
1
0
LINE
5
EB
100
AcDbEntity
8
0
6
ByLayer
62
256
370
-1
100
AcDbLine
10
20
20
50
11
60
21
50
0
LINE
5
EC
100
AcDbEntity
8
0
6
ByLayer
62
256
370
-1
100
AcDbLine
10
60
20
50
11
60
21
70
0
LINE
5
ED
100
AcDbEntity
8
0
6
ByLayer
62
256
370
-1
100
AcDbLine
10
60
20
70
11
20
21
70
0
LINE
5
EE
100
AcDbEntity
8
0
6
ByLayer
62
256
370
-1
100
AcDbLine
10
20
20
70
11
20
21
50
0
LINE
5
EF
100
AcDbEntity
8
0
6
ByLayer
62
256
370
-1
100
AcDbLine
10
110
20
70
11
90
21
70
0
LINE
5
F0
100
AcDbEntity
8
0
6
ByLayer
62
256
370
-1
100
AcDbLine
10
90
20
70
11
90
21
70
0
LINE
5
F1
100
AcDbEntity
8
0
6
ByLayer
62
256
370
-1
100
AcDbLine
10
90
20
70
11
110
21
70
0
LINE
5
F2
100
AcDbEntity
8
0
6
ByLayer
62
256
370
-1
100
AcDbLine
10
110
20
70
11
110
21
70
0
LINE
5
F3
100
AcDbEntity
8
0
6
ByLayer
62
256
370
-1
100
AcDbLine
10
90
20
76
11
110
21
76
0
LINE
5
F4
100
AcDbEntity
8
0
6
ByLayer
62
256
370
-1
100
AcDbLine
10
110
20
76
11
110
21
75
0
LINE
5
F5
100
AcDbEntity
8
0
6
ByLayer
62
256
370
-1
100
AcDbLine
10
90
20
75
11
90
21
76
0
LINE
5
F6
100
AcDbEntity
8
0
6
ByLayer
62
256
370
-1
100
AcDbLine
10
90
20
75
11
90
21
70
0
LINE
5
F7
100
AcDbEntity
8
0
6
ByLayer
62
256
370
-1
100
AcDbLine
10
110
20
75
11
110
21
70
0
LINE
5
F8
100
AcDbEntity
8
0
6
ByLayer
62
256
370
-1
100
AcDbLine
10
98
20
64
11
100
21
69
0
LINE
5
F9
100
AcDbEntity
8
0
6
ByLayer
62
256
370
-1
100
AcDbLine
10
100
20
69
11
102
21
64
0
LINE
5
FA
100
AcDbEntity
8
0
6
ByLayer
62
256
370
-1
100
AcDbLine
10
102
20
64
11
98
21
64
0
LINE
5
FB
100
AcDbEntity
8
0
6
ByLayer
62
256
370
-1
100
AcDbLine
10
98
20
56
11
100
21
51
0
LINE
5
FC
100
AcDbEntity
8
0
6
ByLayer
62
256
370
-1
100
AcDbLine
10
100
20
51
11
102
21
56
0
LINE
5
FD
100
AcDbEntity
8
0
6
ByLayer
62
256
370
-1
100
AcDbLine
10
102
20
56
11
98
21
56
0
LINE
5
FE
100
AcDbEntity
8
0
6
ByLayer
62
256
370
-1
100
AcDbLine
10
97
20
58
11
92
21
60
0
LINE
5
FF
100
AcDbEntity
8
0
6
ByLayer
62
256
370
-1
100
AcDbLine
10
92
20
60
11
97
21
62
0
LINE
5
100
100
AcDbEntity
8
0
6
ByLayer
62
256
370
-1
100
AcDbLine
10
97
20
62
11
97
21
58
0
LINE
5
101
100
AcDbEntity
8
0
6
ByLayer
62
256
370
-1
100
AcDbLine
10
103
20
58
11
108
21
60
0
LINE
5
102
100
AcDbEntity
8
0
6
ByLayer
62
256
370
-1
100
AcDbLine
10
108
20
60
11
103
21
62
0
LINE
5
103
100
AcDbEntity
8
0
6
ByLayer
62
256
370
-1
100
AcDbLine
10
103
20
62
11
103
21
58
0
LINE
5
104
100
AcDbEntity
8
0
6
ByLayer
62
256
370
-1
100
AcDbLine
10
89
20
46
11
97
21
46
0
LINE
5
105
100
AcDbEntity
8
0
6
ByLayer
62
256
370
-1
100
AcDbLine
10
97
20
46
11
97
21
50
0
LINE
5
106
100
AcDbEntity
8
0
6
ByLayer
62
256
370
-1
100
AcDbLine
10
97
20
50
11
89
21
50
0
LINE
5
107
100
AcDbEntity
8
0
6
ByLayer
62
256
370
-1
100
AcDbLine
10
89
20
50
11
89
21
46
0
LINE
5
108
100
AcDbEntity
8
0
6
ByLayer
62
256
370
-1
100
AcDbLine
10
103
20
46
11
111
21
46
0
LINE
5
109
100
AcDbEntity
8
0
6
ByLayer
62
256
370
-1
100
AcDbLine
10
111
20
46
11
111
21
50
0
LINE
5
10A
100
AcDbEntity
8
0
6
ByLayer
62
256
370
-1
100
AcDbLine
10
111
20
50
11
103
21
50
0
LINE
5
10B
100
AcDbEntity
8
0
6
ByLayer
62
256
370
-1
100
AcDbLine
10
103
20
50
11
103
21
46
0
LINE
5
10C
100
AcDbEntity
8
0
6
ByLayer
62
256
370
-1
100
AcDbLine
10
28
20
30
11
33
21
30
0
LINE
5
10D
100
AcDbEntity
8
0
6
ByLayer
62
256
370
-1
100
AcDbLine
10
20
20
30
11
24
21
30
0
LINE
5
10E
100
AcDbEntity
8
0
6
ByLayer
62
256
370
-1
100
AcDbLine
10
61
20
30
11
56
21
30
0
LINE
5
10F
100
AcDbEntity
8
0
6
ByLayer
62
256
370
-1
100
AcDbLine
10
48
20
30
11
52
21
30
0
LINE
5
110
100
AcDbEntity
8
0
6
ByLayer
62
256
370
-1
100
AcDbLine
10
76
20
30
11
80
21
30
0
LINE
5
111
100
AcDbEntity
8
0
6
ByLayer
62
256
370
-1
100
AcDbLine
10
84
20
30
11
89
21
30
0
LINE
5
112
100
AcDbEntity
8
0
6
ByLayer
62
256
370
-1
100
AcDbLine
10
104
20
30
11
108
21
30
0
LINE
5
113
100
AcDbEntity
8
0
6
ByLayer
62
256
370
-1
100
AcDbLine
10
113
20
30
11
117
21
30
0
LINE
5
114
100
AcDbEntity
8
0
6
ByLayer
62
256
370
-1
100
AcDbLine
10
108
20
30
11
113
21
32
0
LINE
5
115
100
AcDbEntity
8
0
6
ByLayer
62
256
370
-1
100
AcDbLine
10
80
20
30
11
84
21
32
0
LINE
5
116
100
AcDbEntity
8
0
6
ByLayer
62
256
370
-1
100
AcDbLine
10
52
20
30
11
56
21
32
0
LINE
5
117
100
AcDbEntity
8
0
6
ByLayer
62
256
370
-1
100
AcDbLine
10
24
20
30
11
28
21
32
0
ENDBLK
5
49
330
47
100
AcDbEntity
8
0
100
AcDbBlockEnd
0
BLOCK
5
4B
330
4A
100
AcDbEntity
8
0
100
AcDbBlockBegin
2
detctor de inundacion-0
70
0
10
0
20
0
3
detctor de inundacion-0
1

0
LINE
5
118
100
AcDbEntity
8
0
6
ByLayer
62
256
370
-1
100
AcDbLine
10
100
20
100
11
100
21
100
0
MTEXT
5
119
100
AcDbEntity
8
0
6
ByLayer
62
256
370
-1
100
AcDbMText
10
-6
20
78
30
0
40
2.5
41
0
71
5
72
5
1

7
standard
210
0
220
0
230
1
50
0
73
2
44
1
0
LINE
5
11A
100
AcDbEntity
8
0
6
ByLayer
62
256
370
-1
100
AcDbLine
10
25.3821989529
20
60.3368237347
11
25.3821989529
21
64.3368237347
0
LINE
5
11B
100
AcDbEntity
8
0
6
ByLayer
62
256
370
-1
100
AcDbLine
10
20.3821989529
20
49.3368237347
11
20.3821989529
21
51.3368237347
0
LINE
5
11C
100
AcDbEntity
8
0
6
ByLayer
62
256
370
-1
100
AcDbLine
10
20.3821989529
20
51.3368237347
11
20.3821989529
21
51.3368237347
0
LINE
5
11D
100
AcDbEntity
8
0
6
ByLayer
62
256
370
-1
100
AcDbLine
10
20.3821989529
20
51.3368237347
11
22.3821989529
21
51.3368237347
0
LINE
5
11E
100
AcDbEntity
8
0
6
ByLayer
62
256
370
-1
100
AcDbLine
10
28.3821989529
20
51.3368237347
11
30.3821989529
21
51.3368237347
0
LINE
5
11F
100
AcDbEntity
8
0
6
ByLayer
62
256
370
-1
100
AcDbLine
10
30.3821989529
20
51.3368237347
11
30.3821989529
21
49.3368237347
0
LINE
5
120
100
AcDbEntity
8
0
6
ByLayer
62
256
370
-1
100
AcDbLine
10
30.3821989529
20
49.3368237347
11
30.3821989529
21
51.3368237347
0
LINE
5
121
100
AcDbEntity
8
0
6
ByLayer
62
256
370
-1
100
AcDbLine
10
25.3821989529
20
60.3368237347
11
21.3821989529
21
51.3368237347
0
LINE
5
122
100
AcDbEntity
8
0
6
ByLayer
62
256
370
-1
100
AcDbLine
10
17.3821989529
20
58.3368237347
11
13.3821989529
21
58.3368237347
0
LINE
5
123
100
AcDbEntity
8
0
6
ByLayer
62
256
370
-1
100
AcDbLine
10
13.3821989529
20
58.3368237347
11
13.3821989529
21
54.3368237347
0
LINE
5
124
100
AcDbEntity
8
0
6
ByLayer
62
256
370
-1
100
AcDbLine
10
13.3821989529
20
54.3368237347
11
17.3821989529
21
54.3368237347
0
LINE
5
125
100
AcDbEntity
8
0
6
ByLayer
62
256
370
-1
100
AcDbLine
10
17.3821989529
20
54.3368237347
11
17.3821989529
21
58.3368237347
0
LINE
5
126
100
AcDbEntity
8
0
6
ByLayer
62
256
370
-1
100
AcDbLine
10
15.3821989529
20
58.3368237347
11
15.3821989529
21
61.3368237347
0
LINE
5
127
100
AcDbEntity
8
0
6
ByLayer
62
256
370
-1
100
AcDbLine
10
15.3821989529
20
54.3368237347
11
15.3821989529
21
51.3368237347
0
LINE
5
128
100
AcDbEntity
8
0
6
DASHED2
62
256
370
-1
100
AcDbLine
10
17.3821989529
20
56.3368237347
11
23.3821989529
21
56.3368237347
0
MTEXT
5
129
100
AcDbEntity
8
0
6
ByLayer
62
256
370
-1
100
AcDbMText
10
26.3821989529
20
63.3368237347
30
0
40
1
41
0.777777777778
71
5
72
5
1
11
7
standard
210
0
220
0
230
1
50
0
73
2
44
1
0
MTEXT
5
12A
100
AcDbEntity
8
0
6
ByLayer
62
256
370
-1
100
AcDbMText
10
21.3821989529
20
50.3368237347
30
0
40
1
41
1
71
5
72
5
1
12
7
standard
210
0
220
0
230
1
50
0
73
2
44
1
0
MTEXT
5
12B
100
AcDbEntity
8
0
6
ByLayer
62
256
370
-1
100
AcDbMText
10
31.3821989529
20
50.3368237347
30
0
40
1
41
1.11111111111
71
5
72
5
1
14
7
standard
210
0
220
0
230
1
50
0
73
2
44
1
0
SPLINE
5
12C
100
AcDbEntity
8
0
6
ByLayer
62
256
370
-1
100
AcDbSpline
210
0
220
0
230
1
70
8
71
3
72
9
73
5
74
0
42
1e-007
43
1e-007
40
0
40
0
40
0
40
0
40
0.5
40
1
40
1
40
1
40
1
10
0
20
0
30
0
10
0
20
0
30
0
10
0
20
0
30
0
10
0
20
0
30
0
10
0
20
0
30
0
0
ARC
5
12D
100
AcDbEntity
8
0
6
ByLayer
62
256
370
-1
100
AcDbCircle
10
15.1
20
55.8
40
1
100
AcDbArc
50
180
51
270
0
LINE
5
12E
100
AcDbEntity
8
0
6
ByLayer
62
256
370
-1
100
AcDbLine
10
15.1
20
54.8
11
15.7
21
54.8
0
ARC
5
12F
100
AcDbEntity
8
0
6
ByLayer
62
256
370
-1
100
AcDbCircle
10
15.7
20
55.8
40
1
100
AcDbArc
50
270
51
0
0
LINE
5
130
100
AcDbEntity
8
0
6
ByLayer
62
256
370
-1
100
AcDbLine
10
14.1
20
55.9
11
14.1
21
55.8
0
LINE
5
131
100
AcDbEntity
8
0
6
ByLayer
62
256
370
-1
100
AcDbLine
10
16.7
20
55.8
11
16.7
21
55.9
0
ARC
5
132
100
AcDbEntity
8
0
6
ByLayer
62
256
370
-1
100
AcDbCircle
10
16.1
20
55.9
40
2
100
AcDbArc
50
110.487315115
51
180
0
ARC
5
133
100
AcDbEntity
8
0
6
ByLayer
62
256
370
-1
100
AcDbCircle
10
14.7
20
55.9
40
2
100
AcDbArc
50
0
51
69.5126848853
0
ENDBLK
5
4C
330
4A
100
AcDbEntity
8
0
100
AcDbBlockEnd
0
BLOCK
5
4E
330
4D
100
AcDbEntity
8
0
100
AcDbBlockBegin
2
detector de presencia pir-0
70
0
10
0
20
0
3
detector de presencia pir-0
1

0
HATCH
5
134
100
AcDbEntity
8
0
6
ByLayer
62
256
370
-1
100
AcDbHatch
10
0
20
0
30
0
210
0
220
0
230
1
2
SOLID
70
1
71
0
91
1
92
0
93
2
72
1
10
67.0091976723
20
78.318985591
11
67.0091976723
21
75.0771472743
72
2
10
70.6085763612
20
76.6980664326
40
3.94751895036
50
155.75638808
51
204.24361192
73
0
97
0
75
0
76
1
98
0
0
LINE
5
135
100
AcDbEntity
8
0
6
ByLayer
62
256
370
-1
100
AcDbLine
10
100
20
100
11
100
21
100
0
MTEXT
5
136
100
AcDbEntity
8
0
6
ByLayer
62
256
370
-1
100
AcDbMText
10
-6
20
78
30
0
40
2.5
41
0
71
5
72
5
1

7
standard
210
0
220
0
230
1
50
0
73
2
44
1
0
LINE
5
137
100
AcDbEntity
8
0
6
ByLayer
62
256
370
-1
100
AcDbLine
10
76.3141361257
20
80.7766143106
11
76.3141361257
21
84.7766143106
0
LINE
5
138
100
AcDbEntity
8
0
6
ByLayer
62
256
370
-1
100
AcDbLine
10
71.3141361257
20
69.7766143106
11
71.3141361257
21
71.7766143106
0
LINE
5
139
100
AcDbEntity
8
0
6
ByLayer
62
256
370
-1
100
AcDbLine
10
71.3141361257
20
71.7766143106
11
71.3141361257
21
71.7766143106
0
LINE
5
13A
100
AcDbEntity
8
0
6
ByLayer
62
256
370
-1
100
AcDbLine
10
71.3141361257
20
71.7766143106
11
73.3141361257
21
71.7766143106
0
LINE
5
13B
100
AcDbEntity
8
0
6
ByLayer
62
256
370
-1
100
AcDbLine
10
79.3141361257
20
71.7766143106
11
81.3141361257
21
71.7766143106
0
LINE
5
13C
100
AcDbEntity
8
0
6
ByLayer
62
256
370
-1
100
AcDbLine
10
81.3141361257
20
71.7766143106
11
81.3141361257
21
69.7766143106
0
LINE
5
13D
100
AcDbEntity
8
0
6
ByLayer
62
256
370
-1
100
AcDbLine
10
81.3141361257
20
69.7766143106
11
81.3141361257
21
71.7766143106
0
LINE
5
13E
100
AcDbEntity
8
0
6
ByLayer
62
256
370
-1
100
AcDbLine
10
76.3141361257
20
80.7766143106
11
72.3141361257
21
71.7766143106
0
LINE
5
13F
100
AcDbEntity
8
0
6
ByLayer
62
256
370
-1
100
AcDbLine
10
68.3141361257
20
78.7766143106
11
64.3141361257
21
78.7766143106
0
LINE
5
140
100
AcDbEntity
8
0
6
ByLayer
62
256
370
-1
100
AcDbLine
10
64.3141361257
20
78.7766143106
11
64.3141361257
21
74.7766143106
0
LINE
5
141
100
AcDbEntity
8
0
6
ByLayer
62
256
370
-1
100
AcDbLine
10
64.3141361257
20
74.7766143106
11
68.3141361257
21
74.7766143106
0
LINE
5
142
100
AcDbEntity
8
0
6
ByLayer
62
256
370
-1
100
AcDbLine
10
68.3141361257
20
74.7766143106
11
68.3141361257
21
78.7766143106
0
LINE
5
143
100
AcDbEntity
8
0
6
ByLayer
62
256
370
-1
100
AcDbLine
10
66.3141361257
20
78.7766143106
11
66.3141361257
21
81.7766143106
0
LINE
5
144
100
AcDbEntity
8
0
6
ByLayer
62
256
370
-1
100
AcDbLine
10
66.3141361257
20
74.7766143106
11
66.3141361257
21
71.7766143106
0
LINE
5
145
100
AcDbEntity
8
0
6
DASHED2
62
256
370
-1
100
AcDbLine
10
68.3141361257
20
76.7766143106
11
74.3141361257
21
76.7766143106
0
MTEXT
5
146
100
AcDbEntity
8
0
6
ByLayer
62
256
370
-1
100
AcDbMText
10
77.3141361257
20
83.7766143106
30
0
40
1
41
0.777777777778
71
5
72
5
1
11
7
standard
210
0
220
0
230
1
50
0
73
2
44
1
0
MTEXT
5
147
100
AcDbEntity
8
0
6
ByLayer
62
256
370
-1
100
AcDbMText
10
72.3141361257
20
70.7766143106
30
0
40
1
41
1
71
5
72
5
1
12
7
standard
210
0
220
0
230
1
50
0
73
2
44
1
0
MTEXT
5
148
100
AcDbEntity
8
0
6
ByLayer
62
256
370
-1
100
AcDbMText
10
82.3141361257
20
70.7766143106
30
0
40
1
41
1.11111111111
71
5
72
5
1
14
7
standard
210
0
220
0
230
1
50
0
73
2
44
1
0
ARC
5
149
100
AcDbEntity
8
0
6
ByLayer
62
256
370
-1
100
AcDbCircle
10
71.6765969485
20
76.7167208323
40
5.42721482431
100
AcDbArc
50
162.892505021
51
197.107494979
0
ARC
5
14A
100
AcDbEntity
8
0
6
ByLayer
62
256
370
-1
100
AcDbCircle
10
71.1069328744
20
76.7167208323
40
5.42721482431
100
AcDbArc
50
162.892505021
51
197.107494979
0
ARC
5
14B
100
AcDbEntity
8
0
6
ByLayer
62
256
370
-1
100
AcDbCircle
10
70.5072864805
20
76.746703152
40
5.42721482431
100
AcDbArc
50
162.892505021
51
197.107494979
0
ARC
5
14C
100
AcDbEntity
8
0
6
ByLayer
62
256
370
-1
100
AcDbCircle
10
69.9975870457
20
76.7317119922
40
5.42721482431
100
AcDbArc
50
162.892505021
51
197.107494979
0
LINE
5
14D
100
AcDbEntity
8
0
6
ByLayer
62
256
370
-1
100
AcDbLine
10
67.5151493172
20
78.318985591
11
67.0091976723
21
78.318985591
0
LINE
5
14E
100
AcDbEntity
8
0
6
ByLayer
62
256
370
-1
100
AcDbLine
10
67.0091976723
20
78.318985591
11
67.0091976723
21
75.0771472743
0
LINE
5
14F
100
AcDbEntity
8
0
6
ByLayer
62
256
370
-1
100
AcDbLine
10
67.0091976723
20
75.0771472743
11
67.5151493172
21
75.0771472743
0
LINE
5
150
100
AcDbEntity
8
0
6
ByLayer
62
256
370
-1
100
AcDbLine
10
67.5151493172
20
75.0771472743
11
67.5151493172
21
78.318985591
0
ARC
5
151
100
AcDbEntity
8
0
6
ByLayer
62
256
370
-1
100
AcDbCircle
10
70.6085763612
20
76.6980664326
40
3.94751895036
100
AcDbArc
50
155.75638808
51
204.24361192
0
SPLINE
5
152
100
AcDbEntity
8
0
6
ByLayer
62
256
370
-1
100
AcDbSpline
210
0
220
0
230
1
70
8
71
3
72
9
73
5
74
0
42
1e-007
43
1e-007
40
0
40
0
40
0
40
0
40
0.5
40
1
40
1
40
1
40
1
10
0
20
0
30
0
10
0
20
0
30
0
10
0
20
0
30
0
10
0
20
0
30
0
10
0
20
0
30
0
0
ENDBLK
5
4F
330
4D
100
AcDbEntity
8
0
100
AcDbBlockEnd
0
BLOCK
5
51
330
50
100
AcDbEntity
8
0
100
AcDbBlockBegin
2
detector de presencia pir-1
70
0
10
0
20
0
3
detector de presencia pir-1
1

0
HATCH
5
153
100
AcDbEntity
8
0
6
ByLayer
62
256
370
-1
100
AcDbHatch
10
0
20
0
30
0
210
0
220
0
230
1
2
SOLID
70
1
71
0
91
1
92
0
93
2
72
1
10
67.0091976723
20
78.318985591
11
67.0091976723
21
75.0771472743
72
2
10
70.6085763612
20
76.6980664326
40
3.94751895036
50
155.75638808
51
204.24361192
73
0
97
0
75
0
76
1
98
0
0
LINE
5
154
100
AcDbEntity
8
0
6
ByLayer
62
256
370
-1
100
AcDbLine
10
100
20
100
11
100
21
100
0
MTEXT
5
155
100
AcDbEntity
8
0
6
ByLayer
62
256
370
-1
100
AcDbMText
10
-6
20
78
30
0
40
2.5
41
0
71
5
72
5
1

7
standard
210
0
220
0
230
1
50
0
73
2
44
1
0
LINE
5
156
100
AcDbEntity
8
0
6
ByLayer
62
256
370
-1
100
AcDbLine
10
76.3141361257
20
80.7766143106
11
76.3141361257
21
84.7766143106
0
LINE
5
157
100
AcDbEntity
8
0
6
ByLayer
62
256
370
-1
100
AcDbLine
10
71.3141361257
20
69.7766143106
11
71.3141361257
21
71.7766143106
0
LINE
5
158
100
AcDbEntity
8
0
6
ByLayer
62
256
370
-1
100
AcDbLine
10
71.3141361257
20
71.7766143106
11
71.3141361257
21
71.7766143106
0
LINE
5
159
100
AcDbEntity
8
0
6
ByLayer
62
256
370
-1
100
AcDbLine
10
71.3141361257
20
71.7766143106
11
73.3141361257
21
71.7766143106
0
LINE
5
15A
100
AcDbEntity
8
0
6
ByLayer
62
256
370
-1
100
AcDbLine
10
79.3141361257
20
71.7766143106
11
81.3141361257
21
71.7766143106
0
LINE
5
15B
100
AcDbEntity
8
0
6
ByLayer
62
256
370
-1
100
AcDbLine
10
81.3141361257
20
71.7766143106
11
81.3141361257
21
69.7766143106
0
LINE
5
15C
100
AcDbEntity
8
0
6
ByLayer
62
256
370
-1
100
AcDbLine
10
81.3141361257
20
69.7766143106
11
81.3141361257
21
71.7766143106
0
LINE
5
15D
100
AcDbEntity
8
0
6
ByLayer
62
256
370
-1
100
AcDbLine
10
76.3141361257
20
80.7766143106
11
72.3141361257
21
71.7766143106
0
LINE
5
15E
100
AcDbEntity
8
0
6
ByLayer
62
256
370
-1
100
AcDbLine
10
68.3141361257
20
78.7766143106
11
64.3141361257
21
78.7766143106
0
LINE
5
15F
100
AcDbEntity
8
0
6
ByLayer
62
256
370
-1
100
AcDbLine
10
64.3141361257
20
78.7766143106
11
64.3141361257
21
74.7766143106
0
LINE
5
160
100
AcDbEntity
8
0
6
ByLayer
62
256
370
-1
100
AcDbLine
10
64.3141361257
20
74.7766143106
11
68.3141361257
21
74.7766143106
0
LINE
5
161
100
AcDbEntity
8
0
6
ByLayer
62
256
370
-1
100
AcDbLine
10
68.3141361257
20
74.7766143106
11
68.3141361257
21
78.7766143106
0
LINE
5
162
100
AcDbEntity
8
0
6
ByLayer
62
256
370
-1
100
AcDbLine
10
66.3141361257
20
78.7766143106
11
66.3141361257
21
81.7766143106
0
LINE
5
163
100
AcDbEntity
8
0
6
ByLayer
62
256
370
-1
100
AcDbLine
10
66.3141361257
20
74.7766143106
11
66.3141361257
21
71.7766143106
0
LINE
5
164
100
AcDbEntity
8
0
6
DASHED2
62
256
370
-1
100
AcDbLine
10
68.3141361257
20
76.7766143106
11
74.3141361257
21
76.7766143106
0
MTEXT
5
165
100
AcDbEntity
8
0
6
ByLayer
62
256
370
-1
100
AcDbMText
10
77.3141361257
20
83.7766143106
30
0
40
1
41
0.777777777778
71
5
72
5
1
11
7
standard
210
0
220
0
230
1
50
0
73
2
44
1
0
MTEXT
5
166
100
AcDbEntity
8
0
6
ByLayer
62
256
370
-1
100
AcDbMText
10
72.3141361257
20
70.7766143106
30
0
40
1
41
1
71
5
72
5
1
12
7
standard
210
0
220
0
230
1
50
0
73
2
44
1
0
MTEXT
5
167
100
AcDbEntity
8
0
6
ByLayer
62
256
370
-1
100
AcDbMText
10
82.3141361257
20
70.7766143106
30
0
40
1
41
1.11111111111
71
5
72
5
1
14
7
standard
210
0
220
0
230
1
50
0
73
2
44
1
0
ARC
5
168
100
AcDbEntity
8
0
6
ByLayer
62
256
370
-1
100
AcDbCircle
10
71.6765969485
20
76.7167208323
40
5.42721482431
100
AcDbArc
50
162.892505021
51
197.107494979
0
ARC
5
169
100
AcDbEntity
8
0
6
ByLayer
62
256
370
-1
100
AcDbCircle
10
71.1069328744
20
76.7167208323
40
5.42721482431
100
AcDbArc
50
162.892505021
51
197.107494979
0
ARC
5
16A
100
AcDbEntity
8
0
6
ByLayer
62
256
370
-1
100
AcDbCircle
10
70.5072864805
20
76.746703152
40
5.42721482431
100
AcDbArc
50
162.892505021
51
197.107494979
0
ARC
5
16B
100
AcDbEntity
8
0
6
ByLayer
62
256
370
-1
100
AcDbCircle
10
69.9975870457
20
76.7317119922
40
5.42721482431
100
AcDbArc
50
162.892505021
51
197.107494979
0
LINE
5
16C
100
AcDbEntity
8
0
6
ByLayer
62
256
370
-1
100
AcDbLine
10
67.5151493172
20
78.318985591
11
67.0091976723
21
78.318985591
0
LINE
5
16D
100
AcDbEntity
8
0
6
ByLayer
62
256
370
-1
100
AcDbLine
10
67.0091976723
20
78.318985591
11
67.0091976723
21
75.0771472743
0
LINE
5
16E
100
AcDbEntity
8
0
6
ByLayer
62
256
370
-1
100
AcDbLine
10
67.0091976723
20
75.0771472743
11
67.5151493172
21
75.0771472743
0
LINE
5
16F
100
AcDbEntity
8
0
6
ByLayer
62
256
370
-1
100
AcDbLine
10
67.5151493172
20
75.0771472743
11
67.5151493172
21
78.318985591
0
ARC
5
170
100
AcDbEntity
8
0
6
ByLayer
62
256
370
-1
100
AcDbCircle
10
70.6085763612
20
76.6980664326
40
3.94751895036
100
AcDbArc
50
155.75638808
51
204.24361192
0
SPLINE
5
171
100
AcDbEntity
8
0
6
ByLayer
62
256
370
-1
100
AcDbSpline
210
0
220
0
230
1
70
8
71
3
72
9
73
5
74
0
42
1e-007
43
1e-007
40
0
40
0
40
0
40
0
40
0.5
40
1
40
1
40
1
40
1
10
0
20
0
30
0
10
0
20
0
30
0
10
0
20
0
30
0
10
0
20
0
30
0
10
0
20
0
30
0
0
ENDBLK
5
52
330
50
100
AcDbEntity
8
0
100
AcDbBlockEnd
0
BLOCK
5
54
330
53
100
AcDbEntity
8
0
100
AcDbBlockBegin
2
detector de presencia pir-2
70
0
10
0
20
0
3
detector de presencia pir-2
1

0
HATCH
5
172
100
AcDbEntity
8
0
6
ByLayer
62
256
370
-1
100
AcDbHatch
10
0
20
0
30
0
210
0
220
0
230
1
2
SOLID
70
1
71
0
91
1
92
0
93
2
72
1
10
67.0091976723
20
78.318985591
11
67.0091976723
21
75.0771472743
72
2
10
70.6085763612
20
76.6980664326
40
3.94751895036
50
155.75638808
51
204.24361192
73
0
97
0
75
0
76
1
98
0
0
LINE
5
173
100
AcDbEntity
8
0
6
ByLayer
62
256
370
-1
100
AcDbLine
10
100
20
100
11
100
21
100
0
MTEXT
5
174
100
AcDbEntity
8
0
6
ByLayer
62
256
370
-1
100
AcDbMText
10
-6
20
78
30
0
40
2.5
41
0
71
5
72
5
1

7
standard
210
0
220
0
230
1
50
0
73
2
44
1
0
LINE
5
175
100
AcDbEntity
8
0
6
ByLayer
62
256
370
-1
100
AcDbLine
10
76.3141361257
20
80.7766143106
11
76.3141361257
21
84.7766143106
0
LINE
5
176
100
AcDbEntity
8
0
6
ByLayer
62
256
370
-1
100
AcDbLine
10
71.3141361257
20
69.7766143106
11
71.3141361257
21
71.7766143106
0
LINE
5
177
100
AcDbEntity
8
0
6
ByLayer
62
256
370
-1
100
AcDbLine
10
71.3141361257
20
71.7766143106
11
71.3141361257
21
71.7766143106
0
LINE
5
178
100
AcDbEntity
8
0
6
ByLayer
62
256
370
-1
100
AcDbLine
10
71.3141361257
20
71.7766143106
11
73.3141361257
21
71.7766143106
0
LINE
5
179
100
AcDbEntity
8
0
6
ByLayer
62
256
370
-1
100
AcDbLine
10
79.3141361257
20
71.7766143106
11
81.3141361257
21
71.7766143106
0
LINE
5
17A
100
AcDbEntity
8
0
6
ByLayer
62
256
370
-1
100
AcDbLine
10
81.3141361257
20
71.7766143106
11
81.3141361257
21
69.7766143106
0
LINE
5
17B
100
AcDbEntity
8
0
6
ByLayer
62
256
370
-1
100
AcDbLine
10
81.3141361257
20
69.7766143106
11
81.3141361257
21
71.7766143106
0
LINE
5
17C
100
AcDbEntity
8
0
6
ByLayer
62
256
370
-1
100
AcDbLine
10
76.3141361257
20
80.7766143106
11
72.3141361257
21
71.7766143106
0
LINE
5
17D
100
AcDbEntity
8
0
6
ByLayer
62
256
370
-1
100
AcDbLine
10
68.3141361257
20
78.7766143106
11
64.3141361257
21
78.7766143106
0
LINE
5
17E
100
AcDbEntity
8
0
6
ByLayer
62
256
370
-1
100
AcDbLine
10
64.3141361257
20
78.7766143106
11
64.3141361257
21
74.7766143106
0
LINE
5
17F
100
AcDbEntity
8
0
6
ByLayer
62
256
370
-1
100
AcDbLine
10
64.3141361257
20
74.7766143106
11
68.3141361257
21
74.7766143106
0
LINE
5
180
100
AcDbEntity
8
0
6
ByLayer
62
256
370
-1
100
AcDbLine
10
68.3141361257
20
74.7766143106
11
68.3141361257
21
78.7766143106
0
LINE
5
181
100
AcDbEntity
8
0
6
ByLayer
62
256
370
-1
100
AcDbLine
10
66.3141361257
20
78.7766143106
11
66.3141361257
21
81.7766143106
0
LINE
5
182
100
AcDbEntity
8
0
6
ByLayer
62
256
370
-1
100
AcDbLine
10
66.3141361257
20
74.7766143106
11
66.3141361257
21
71.7766143106
0
LINE
5
183
100
AcDbEntity
8
0
6
DASHED2
62
256
370
-1
100
AcDbLine
10
68.3141361257
20
76.7766143106
11
74.3141361257
21
76.7766143106
0
MTEXT
5
184
100
AcDbEntity
8
0
6
ByLayer
62
256
370
-1
100
AcDbMText
10
77.3141361257
20
83.7766143106
30
0
40
1
41
0.777777777778
71
5
72
5
1
11
7
standard
210
0
220
0
230
1
50
0
73
2
44
1
0
MTEXT
5
185
100
AcDbEntity
8
0
6
ByLayer
62
256
370
-1
100
AcDbMText
10
72.3141361257
20
70.7766143106
30
0
40
1
41
1
71
5
72
5
1
12
7
standard
210
0
220
0
230
1
50
0
73
2
44
1
0
MTEXT
5
186
100
AcDbEntity
8
0
6
ByLayer
62
256
370
-1
100
AcDbMText
10
82.3141361257
20
70.7766143106
30
0
40
1
41
1.11111111111
71
5
72
5
1
14
7
standard
210
0
220
0
230
1
50
0
73
2
44
1
0
ARC
5
187
100
AcDbEntity
8
0
6
ByLayer
62
256
370
-1
100
AcDbCircle
10
71.6765969485
20
76.7167208323
40
5.42721482431
100
AcDbArc
50
162.892505021
51
197.107494979
0
ARC
5
188
100
AcDbEntity
8
0
6
ByLayer
62
256
370
-1
100
AcDbCircle
10
71.1069328744
20
76.7167208323
40
5.42721482431
100
AcDbArc
50
162.892505021
51
197.107494979
0
ARC
5
189
100
AcDbEntity
8
0
6
ByLayer
62
256
370
-1
100
AcDbCircle
10
70.5072864805
20
76.746703152
40
5.42721482431
100
AcDbArc
50
162.892505021
51
197.107494979
0
ARC
5
18A
100
AcDbEntity
8
0
6
ByLayer
62
256
370
-1
100
AcDbCircle
10
69.9975870457
20
76.7317119922
40
5.42721482431
100
AcDbArc
50
162.892505021
51
197.107494979
0
LINE
5
18B
100
AcDbEntity
8
0
6
ByLayer
62
256
370
-1
100
AcDbLine
10
67.5151493172
20
78.318985591
11
67.0091976723
21
78.318985591
0
LINE
5
18C
100
AcDbEntity
8
0
6
ByLayer
62
256
370
-1
100
AcDbLine
10
67.0091976723
20
78.318985591
11
67.0091976723
21
75.0771472743
0
LINE
5
18D
100
AcDbEntity
8
0
6
ByLayer
62
256
370
-1
100
AcDbLine
10
67.0091976723
20
75.0771472743
11
67.5151493172
21
75.0771472743
0
LINE
5
18E
100
AcDbEntity
8
0
6
ByLayer
62
256
370
-1
100
AcDbLine
10
67.5151493172
20
75.0771472743
11
67.5151493172
21
78.318985591
0
ARC
5
18F
100
AcDbEntity
8
0
6
ByLayer
62
256
370
-1
100
AcDbCircle
10
70.6085763612
20
76.6980664326
40
3.94751895036
100
AcDbArc
50
155.75638808
51
204.24361192
0
SPLINE
5
190
100
AcDbEntity
8
0
6
ByLayer
62
256
370
-1
100
AcDbSpline
210
0
220
0
230
1
70
8
71
3
72
9
73
5
74
0
42
1e-007
43
1e-007
40
0
40
0
40
0
40
0
40
0.5
40
1
40
1
40
1
40
1
10
0
20
0
30
0
10
0
20
0
30
0
10
0
20
0
30
0
10
0
20
0
30
0
10
0
20
0
30
0
0
ENDBLK
5
55
330
53
100
AcDbEntity
8
0
100
AcDbBlockEnd
0
BLOCK
5
57
330
56
100
AcDbEntity
8
0
100
AcDbBlockBegin
2
detector de presencia pir-3
70
0
10
0
20
0
3
detector de presencia pir-3
1

0
HATCH
5
191
100
AcDbEntity
8
0
6
ByLayer
62
256
370
-1
100
AcDbHatch
10
0
20
0
30
0
210
0
220
0
230
1
2
SOLID
70
1
71
0
91
1
92
0
93
2
72
1
10
67.0091976723
20
78.318985591
11
67.0091976723
21
75.0771472743
72
2
10
70.6085763612
20
76.6980664326
40
3.94751895036
50
155.75638808
51
204.24361192
73
0
97
0
75
0
76
1
98
0
0
LINE
5
192
100
AcDbEntity
8
0
6
ByLayer
62
256
370
-1
100
AcDbLine
10
100
20
100
11
100
21
100
0
MTEXT
5
193
100
AcDbEntity
8
0
6
ByLayer
62
256
370
-1
100
AcDbMText
10
-6
20
78
30
0
40
2.5
41
0
71
5
72
5
1

7
standard
210
0
220
0
230
1
50
0
73
2
44
1
0
LINE
5
194
100
AcDbEntity
8
0
6
ByLayer
62
256
370
-1
100
AcDbLine
10
76.3141361257
20
80.7766143106
11
76.3141361257
21
84.7766143106
0
LINE
5
195
100
AcDbEntity
8
0
6
ByLayer
62
256
370
-1
100
AcDbLine
10
71.3141361257
20
69.7766143106
11
71.3141361257
21
71.7766143106
0
LINE
5
196
100
AcDbEntity
8
0
6
ByLayer
62
256
370
-1
100
AcDbLine
10
71.3141361257
20
71.7766143106
11
71.3141361257
21
71.7766143106
0
LINE
5
197
100
AcDbEntity
8
0
6
ByLayer
62
256
370
-1
100
AcDbLine
10
71.3141361257
20
71.7766143106
11
73.3141361257
21
71.7766143106
0
LINE
5
198
100
AcDbEntity
8
0
6
ByLayer
62
256
370
-1
100
AcDbLine
10
79.3141361257
20
71.7766143106
11
81.3141361257
21
71.7766143106
0
LINE
5
199
100
AcDbEntity
8
0
6
ByLayer
62
256
370
-1
100
AcDbLine
10
81.3141361257
20
71.7766143106
11
81.3141361257
21
69.7766143106
0
LINE
5
19A
100
AcDbEntity
8
0
6
ByLayer
62
256
370
-1
100
AcDbLine
10
81.3141361257
20
69.7766143106
11
81.3141361257
21
71.7766143106
0
LINE
5
19B
100
AcDbEntity
8
0
6
ByLayer
62
256
370
-1
100
AcDbLine
10
76.3141361257
20
80.7766143106
11
72.3141361257
21
71.7766143106
0
LINE
5
19C
100
AcDbEntity
8
0
6
ByLayer
62
256
370
-1
100
AcDbLine
10
68.3141361257
20
78.7766143106
11
64.3141361257
21
78.7766143106
0
LINE
5
19D
100
AcDbEntity
8
0
6
ByLayer
62
256
370
-1
100
AcDbLine
10
64.3141361257
20
78.7766143106
11
64.3141361257
21
74.7766143106
0
LINE
5
19E
100
AcDbEntity
8
0
6
ByLayer
62
256
370
-1
100
AcDbLine
10
64.3141361257
20
74.7766143106
11
68.3141361257
21
74.7766143106
0
LINE
5
19F
100
AcDbEntity
8
0
6
ByLayer
62
256
370
-1
100
AcDbLine
10
68.3141361257
20
74.7766143106
11
68.3141361257
21
78.7766143106
0
LINE
5
1A0
100
AcDbEntity
8
0
6
ByLayer
62
256
370
-1
100
AcDbLine
10
66.3141361257
20
78.7766143106
11
66.3141361257
21
81.7766143106
0
LINE
5
1A1
100
AcDbEntity
8
0
6
ByLayer
62
256
370
-1
100
AcDbLine
10
66.3141361257
20
74.7766143106
11
66.3141361257
21
71.7766143106
0
LINE
5
1A2
100
AcDbEntity
8
0
6
DASHED2
62
256
370
-1
100
AcDbLine
10
68.3141361257
20
76.7766143106
11
74.3141361257
21
76.7766143106
0
MTEXT
5
1A3
100
AcDbEntity
8
0
6
ByLayer
62
256
370
-1
100
AcDbMText
10
77.3141361257
20
83.7766143106
30
0
40
1
41
0.777777777778
71
5
72
5
1
11
7
standard
210
0
220
0
230
1
50
0
73
2
44
1
0
MTEXT
5
1A4
100
AcDbEntity
8
0
6
ByLayer
62
256
370
-1
100
AcDbMText
10
72.3141361257
20
70.7766143106
30
0
40
1
41
1
71
5
72
5
1
12
7
standard
210
0
220
0
230
1
50
0
73
2
44
1
0
MTEXT
5
1A5
100
AcDbEntity
8
0
6
ByLayer
62
256
370
-1
100
AcDbMText
10
82.3141361257
20
70.7766143106
30
0
40
1
41
1.11111111111
71
5
72
5
1
14
7
standard
210
0
220
0
230
1
50
0
73
2
44
1
0
ARC
5
1A6
100
AcDbEntity
8
0
6
ByLayer
62
256
370
-1
100
AcDbCircle
10
71.6765969485
20
76.7167208323
40
5.42721482431
100
AcDbArc
50
162.892505021
51
197.107494979
0
ARC
5
1A7
100
AcDbEntity
8
0
6
ByLayer
62
256
370
-1
100
AcDbCircle
10
71.1069328744
20
76.7167208323
40
5.42721482431
100
AcDbArc
50
162.892505021
51
197.107494979
0
ARC
5
1A8
100
AcDbEntity
8
0
6
ByLayer
62
256
370
-1
100
AcDbCircle
10
70.5072864805
20
76.746703152
40
5.42721482431
100
AcDbArc
50
162.892505021
51
197.107494979
0
ARC
5
1A9
100
AcDbEntity
8
0
6
ByLayer
62
256
370
-1
100
AcDbCircle
10
69.9975870457
20
76.7317119922
40
5.42721482431
100
AcDbArc
50
162.892505021
51
197.107494979
0
LINE
5
1AA
100
AcDbEntity
8
0
6
ByLayer
62
256
370
-1
100
AcDbLine
10
67.5151493172
20
78.318985591
11
67.0091976723
21
78.318985591
0
LINE
5
1AB
100
AcDbEntity
8
0
6
ByLayer
62
256
370
-1
100
AcDbLine
10
67.0091976723
20
78.318985591
11
67.0091976723
21
75.0771472743
0
LINE
5
1AC
100
AcDbEntity
8
0
6
ByLayer
62
256
370
-1
100
AcDbLine
10
67.0091976723
20
75.0771472743
11
67.5151493172
21
75.0771472743
0
LINE
5
1AD
100
AcDbEntity
8
0
6
ByLayer
62
256
370
-1
100
AcDbLine
10
67.5151493172
20
75.0771472743
11
67.5151493172
21
78.318985591
0
ARC
5
1AE
100
AcDbEntity
8
0
6
ByLayer
62
256
370
-1
100
AcDbCircle
10
70.6085763612
20
76.6980664326
40
3.94751895036
100
AcDbArc
50
155.75638808
51
204.24361192
0
SPLINE
5
1AF
100
AcDbEntity
8
0
6
ByLayer
62
256
370
-1
100
AcDbSpline
210
0
220
0
230
1
70
8
71
3
72
9
73
5
74
0
42
1e-007
43
1e-007
40
0
40
0
40
0
40
0
40
0.5
40
1
40
1
40
1
40
1
10
0
20
0
30
0
10
0
20
0
30
0
10
0
20
0
30
0
10
0
20
0
30
0
10
0
20
0
30
0
0
ENDBLK
5
58
330
56
100
AcDbEntity
8
0
100
AcDbBlockEnd
0
BLOCK
5
5A
330
59
100
AcDbEntity
8
0
100
AcDbBlockBegin
2
detector de presencia pir-4
70
0
10
0
20
0
3
detector de presencia pir-4
1

0
HATCH
5
1B0
100
AcDbEntity
8
0
6
ByLayer
62
256
370
-1
100
AcDbHatch
10
0
20
0
30
0
210
0
220
0
230
1
2
SOLID
70
1
71
0
91
1
92
0
93
2
72
1
10
67.0091976723
20
78.318985591
11
67.0091976723
21
75.0771472743
72
2
10
70.6085763612
20
76.6980664326
40
3.94751895036
50
155.75638808
51
204.24361192
73
0
97
0
75
0
76
1
98
0
0
LINE
5
1B1
100
AcDbEntity
8
0
6
ByLayer
62
256
370
-1
100
AcDbLine
10
100
20
100
11
100
21
100
0
MTEXT
5
1B2
100
AcDbEntity
8
0
6
ByLayer
62
256
370
-1
100
AcDbMText
10
-6
20
78
30
0
40
2.5
41
0
71
5
72
5
1

7
standard
210
0
220
0
230
1
50
0
73
2
44
1
0
LINE
5
1B3
100
AcDbEntity
8
0
6
ByLayer
62
256
370
-1
100
AcDbLine
10
76.3141361257
20
80.7766143106
11
76.3141361257
21
84.7766143106
0
LINE
5
1B4
100
AcDbEntity
8
0
6
ByLayer
62
256
370
-1
100
AcDbLine
10
71.3141361257
20
69.7766143106
11
71.3141361257
21
71.7766143106
0
LINE
5
1B5
100
AcDbEntity
8
0
6
ByLayer
62
256
370
-1
100
AcDbLine
10
71.3141361257
20
71.7766143106
11
71.3141361257
21
71.7766143106
0
LINE
5
1B6
100
AcDbEntity
8
0
6
ByLayer
62
256
370
-1
100
AcDbLine
10
71.3141361257
20
71.7766143106
11
73.3141361257
21
71.7766143106
0
LINE
5
1B7
100
AcDbEntity
8
0
6
ByLayer
62
256
370
-1
100
AcDbLine
10
79.3141361257
20
71.7766143106
11
81.3141361257
21
71.7766143106
0
LINE
5
1B8
100
AcDbEntity
8
0
6
ByLayer
62
256
370
-1
100
AcDbLine
10
81.3141361257
20
71.7766143106
11
81.3141361257
21
69.7766143106
0
LINE
5
1B9
100
AcDbEntity
8
0
6
ByLayer
62
256
370
-1
100
AcDbLine
10
81.3141361257
20
69.7766143106
11
81.3141361257
21
71.7766143106
0
LINE
5
1BA
100
AcDbEntity
8
0
6
ByLayer
62
256
370
-1
100
AcDbLine
10
76.3141361257
20
80.7766143106
11
72.3141361257
21
71.7766143106
0
LINE
5
1BB
100
AcDbEntity
8
0
6
ByLayer
62
256
370
-1
100
AcDbLine
10
68.3141361257
20
78.7766143106
11
64.3141361257
21
78.7766143106
0
LINE
5
1BC
100
AcDbEntity
8
0
6
ByLayer
62
256
370
-1
100
AcDbLine
10
64.3141361257
20
78.7766143106
11
64.3141361257
21
74.7766143106
0
LINE
5
1BD
100
AcDbEntity
8
0
6
ByLayer
62
256
370
-1
100
AcDbLine
10
64.3141361257
20
74.7766143106
11
68.3141361257
21
74.7766143106
0
LINE
5
1BE
100
AcDbEntity
8
0
6
ByLayer
62
256
370
-1
100
AcDbLine
10
68.3141361257
20
74.7766143106
11
68.3141361257
21
78.7766143106
0
LINE
5
1BF
100
AcDbEntity
8
0
6
ByLayer
62
256
370
-1
100
AcDbLine
10
66.3141361257
20
78.7766143106
11
66.3141361257
21
81.7766143106
0
LINE
5
1C0
100
AcDbEntity
8
0
6
ByLayer
62
256
370
-1
100
AcDbLine
10
66.3141361257
20
74.7766143106
11
66.3141361257
21
71.7766143106
0
LINE
5
1C1
100
AcDbEntity
8
0
6
DASHED2
62
256
370
-1
100
AcDbLine
10
68.3141361257
20
76.7766143106
11
74.3141361257
21
76.7766143106
0
MTEXT
5
1C2
100
AcDbEntity
8
0
6
ByLayer
62
256
370
-1
100
AcDbMText
10
77.3141361257
20
83.7766143106
30
0
40
1
41
0.777777777778
71
5
72
5
1
11
7
standard
210
0
220
0
230
1
50
0
73
2
44
1
0
MTEXT
5
1C3
100
AcDbEntity
8
0
6
ByLayer
62
256
370
-1
100
AcDbMText
10
72.3141361257
20
70.7766143106
30
0
40
1
41
1
71
5
72
5
1
12
7
standard
210
0
220
0
230
1
50
0
73
2
44
1
0
MTEXT
5
1C4
100
AcDbEntity
8
0
6
ByLayer
62
256
370
-1
100
AcDbMText
10
82.3141361257
20
70.7766143106
30
0
40
1
41
1.11111111111
71
5
72
5
1
14
7
standard
210
0
220
0
230
1
50
0
73
2
44
1
0
ARC
5
1C5
100
AcDbEntity
8
0
6
ByLayer
62
256
370
-1
100
AcDbCircle
10
71.6765969485
20
76.7167208323
40
5.42721482431
100
AcDbArc
50
162.892505021
51
197.107494979
0
ARC
5
1C6
100
AcDbEntity
8
0
6
ByLayer
62
256
370
-1
100
AcDbCircle
10
71.1069328744
20
76.7167208323
40
5.42721482431
100
AcDbArc
50
162.892505021
51
197.107494979
0
ARC
5
1C7
100
AcDbEntity
8
0
6
ByLayer
62
256
370
-1
100
AcDbCircle
10
70.5072864805
20
76.746703152
40
5.42721482431
100
AcDbArc
50
162.892505021
51
197.107494979
0
ARC
5
1C8
100
AcDbEntity
8
0
6
ByLayer
62
256
370
-1
100
AcDbCircle
10
69.9975870457
20
76.7317119922
40
5.42721482431
100
AcDbArc
50
162.892505021
51
197.107494979
0
LINE
5
1C9
100
AcDbEntity
8
0
6
ByLayer
62
256
370
-1
100
AcDbLine
10
67.5151493172
20
78.318985591
11
67.0091976723
21
78.318985591
0
LINE
5
1CA
100
AcDbEntity
8
0
6
ByLayer
62
256
370
-1
100
AcDbLine
10
67.0091976723
20
78.318985591
11
67.0091976723
21
75.0771472743
0
LINE
5
1CB
100
AcDbEntity
8
0
6
ByLayer
62
256
370
-1
100
AcDbLine
10
67.0091976723
20
75.0771472743
11
67.5151493172
21
75.0771472743
0
LINE
5
1CC
100
AcDbEntity
8
0
6
ByLayer
62
256
370
-1
100
AcDbLine
10
67.5151493172
20
75.0771472743
11
67.5151493172
21
78.318985591
0
ARC
5
1CD
100
AcDbEntity
8
0
6
ByLayer
62
256
370
-1
100
AcDbCircle
10
70.6085763612
20
76.6980664326
40
3.94751895036
100
AcDbArc
50
155.75638808
51
204.24361192
0
SPLINE
5
1CE
100
AcDbEntity
8
0
6
ByLayer
62
256
370
-1
100
AcDbSpline
210
0
220
0
230
1
70
8
71
3
72
9
73
5
74
0
42
1e-007
43
1e-007
40
0
40
0
40
0
40
0
40
0.5
40
1
40
1
40
1
40
1
10
0
20
0
30
0
10
0
20
0
30
0
10
0
20
0
30
0
10
0
20
0
30
0
10
0
20
0
30
0
0
ENDBLK
5
5B
330
59
100
AcDbEntity
8
0
100
AcDbBlockEnd
0
BLOCK
5
5D
330
5C
100
AcDbEntity
8
0
100
AcDbBlockBegin
2
detector de presencia pir-5
70
0
10
0
20
0
3
detector de presencia pir-5
1

0
HATCH
5
1CF
100
AcDbEntity
8
0
6
ByLayer
62
256
370
-1
100
AcDbHatch
10
0
20
0
30
0
210
0
220
0
230
1
2
SOLID
70
1
71
0
91
1
92
0
93
2
72
1
10
67.0091976723
20
78.318985591
11
67.0091976723
21
75.0771472743
72
2
10
70.6085763612
20
76.6980664326
40
3.94751895036
50
155.75638808
51
204.24361192
73
0
97
0
75
0
76
1
98
0
0
LINE
5
1D0
100
AcDbEntity
8
0
6
ByLayer
62
256
370
-1
100
AcDbLine
10
100
20
100
11
100
21
100
0
MTEXT
5
1D1
100
AcDbEntity
8
0
6
ByLayer
62
256
370
-1
100
AcDbMText
10
-6
20
78
30
0
40
2.5
41
0
71
5
72
5
1

7
standard
210
0
220
0
230
1
50
0
73
2
44
1
0
LINE
5
1D2
100
AcDbEntity
8
0
6
ByLayer
62
256
370
-1
100
AcDbLine
10
76.3141361257
20
80.7766143106
11
76.3141361257
21
84.7766143106
0
LINE
5
1D3
100
AcDbEntity
8
0
6
ByLayer
62
256
370
-1
100
AcDbLine
10
71.3141361257
20
69.7766143106
11
71.3141361257
21
71.7766143106
0
LINE
5
1D4
100
AcDbEntity
8
0
6
ByLayer
62
256
370
-1
100
AcDbLine
10
71.3141361257
20
71.7766143106
11
71.3141361257
21
71.7766143106
0
LINE
5
1D5
100
AcDbEntity
8
0
6
ByLayer
62
256
370
-1
100
AcDbLine
10
71.3141361257
20
71.7766143106
11
73.3141361257
21
71.7766143106
0
LINE
5
1D6
100
AcDbEntity
8
0
6
ByLayer
62
256
370
-1
100
AcDbLine
10
79.3141361257
20
71.7766143106
11
81.3141361257
21
71.7766143106
0
LINE
5
1D7
100
AcDbEntity
8
0
6
ByLayer
62
256
370
-1
100
AcDbLine
10
81.3141361257
20
71.7766143106
11
81.3141361257
21
69.7766143106
0
LINE
5
1D8
100
AcDbEntity
8
0
6
ByLayer
62
256
370
-1
100
AcDbLine
10
81.3141361257
20
69.7766143106
11
81.3141361257
21
71.7766143106
0
LINE
5
1D9
100
AcDbEntity
8
0
6
ByLayer
62
256
370
-1
100
AcDbLine
10
76.3141361257
20
80.7766143106
11
72.3141361257
21
71.7766143106
0
LINE
5
1DA
100
AcDbEntity
8
0
6
ByLayer
62
256
370
-1
100
AcDbLine
10
68.3141361257
20
78.7766143106
11
64.3141361257
21
78.7766143106
0
LINE
5
1DB
100
AcDbEntity
8
0
6
ByLayer
62
256
370
-1
100
AcDbLine
10
64.3141361257
20
78.7766143106
11
64.3141361257
21
74.7766143106
0
LINE
5
1DC
100
AcDbEntity
8
0
6
ByLayer
62
256
370
-1
100
AcDbLine
10
64.3141361257
20
74.7766143106
11
68.3141361257
21
74.7766143106
0
LINE
5
1DD
100
AcDbEntity
8
0
6
ByLayer
62
256
370
-1
100
AcDbLine
10
68.3141361257
20
74.7766143106
11
68.3141361257
21
78.7766143106
0
LINE
5
1DE
100
AcDbEntity
8
0
6
ByLayer
62
256
370
-1
100
AcDbLine
10
66.3141361257
20
78.7766143106
11
66.3141361257
21
81.7766143106
0
LINE
5
1DF
100
AcDbEntity
8
0
6
ByLayer
62
256
370
-1
100
AcDbLine
10
66.3141361257
20
74.7766143106
11
66.3141361257
21
71.7766143106
0
LINE
5
1E0
100
AcDbEntity
8
0
6
DASHED2
62
256
370
-1
100
AcDbLine
10
68.3141361257
20
76.7766143106
11
74.3141361257
21
76.7766143106
0
MTEXT
5
1E1
100
AcDbEntity
8
0
6
ByLayer
62
256
370
-1
100
AcDbMText
10
77.3141361257
20
83.7766143106
30
0
40
1
41
0.777777777778
71
5
72
5
1
11
7
standard
210
0
220
0
230
1
50
0
73
2
44
1
0
MTEXT
5
1E2
100
AcDbEntity
8
0
6
ByLayer
62
256
370
-1
100
AcDbMText
10
72.3141361257
20
70.7766143106
30
0
40
1
41
1
71
5
72
5
1
12
7
standard
210
0
220
0
230
1
50
0
73
2
44
1
0
MTEXT
5
1E3
100
AcDbEntity
8
0
6
ByLayer
62
256
370
-1
100
AcDbMText
10
82.3141361257
20
70.7766143106
30
0
40
1
41
1.11111111111
71
5
72
5
1
14
7
standard
210
0
220
0
230
1
50
0
73
2
44
1
0
ARC
5
1E4
100
AcDbEntity
8
0
6
ByLayer
62
256
370
-1
100
AcDbCircle
10
71.6765969485
20
76.7167208323
40
5.42721482431
100
AcDbArc
50
162.892505021
51
197.107494979
0
ARC
5
1E5
100
AcDbEntity
8
0
6
ByLayer
62
256
370
-1
100
AcDbCircle
10
71.1069328744
20
76.7167208323
40
5.42721482431
100
AcDbArc
50
162.892505021
51
197.107494979
0
ARC
5
1E6
100
AcDbEntity
8
0
6
ByLayer
62
256
370
-1
100
AcDbCircle
10
70.5072864805
20
76.746703152
40
5.42721482431
100
AcDbArc
50
162.892505021
51
197.107494979
0
ARC
5
1E7
100
AcDbEntity
8
0
6
ByLayer
62
256
370
-1
100
AcDbCircle
10
69.9975870457
20
76.7317119922
40
5.42721482431
100
AcDbArc
50
162.892505021
51
197.107494979
0
LINE
5
1E8
100
AcDbEntity
8
0
6
ByLayer
62
256
370
-1
100
AcDbLine
10
67.5151493172
20
78.318985591
11
67.0091976723
21
78.318985591
0
LINE
5
1E9
100
AcDbEntity
8
0
6
ByLayer
62
256
370
-1
100
AcDbLine
10
67.0091976723
20
78.318985591
11
67.0091976723
21
75.0771472743
0
LINE
5
1EA
100
AcDbEntity
8
0
6
ByLayer
62
256
370
-1
100
AcDbLine
10
67.0091976723
20
75.0771472743
11
67.5151493172
21
75.0771472743
0
LINE
5
1EB
100
AcDbEntity
8
0
6
ByLayer
62
256
370
-1
100
AcDbLine
10
67.5151493172
20
75.0771472743
11
67.5151493172
21
78.318985591
0
ARC
5
1EC
100
AcDbEntity
8
0
6
ByLayer
62
256
370
-1
100
AcDbCircle
10
70.6085763612
20
76.6980664326
40
3.94751895036
100
AcDbArc
50
155.75638808
51
204.24361192
0
SPLINE
5
1ED
100
AcDbEntity
8
0
6
ByLayer
62
256
370
-1
100
AcDbSpline
210
0
220
0
230
1
70
8
71
3
72
9
73
5
74
0
42
1e-007
43
1e-007
40
0
40
0
40
0
40
0
40
0.5
40
1
40
1
40
1
40
1
10
0
20
0
30
0
10
0
20
0
30
0
10
0
20
0
30
0
10
0
20
0
30
0
10
0
20
0
30
0
0
ENDBLK
5
5E
330
5C
100
AcDbEntity
8
0
100
AcDbBlockEnd
0
BLOCK
5
60
330
5F
100
AcDbEntity
8
0
100
AcDbBlockBegin
2
detector de proximidad magnetico-0
70
0
10
0
20
0
3
detector de proximidad magnetico-0
1

0
LINE
5
1EE
100
AcDbEntity
8
0
6
ByLayer
62
256
370
-1
100
AcDbLine
10
100
20
100
11
100
21
100
0
MTEXT
5
1EF
100
AcDbEntity
8
0
6
ByLayer
62
256
370
-1
100
AcDbMText
10
-6
20
78
30
0
40
2.5
41
0
71
5
72
5
1

7
standard
210
0
220
0
230
1
50
0
73
2
44
1
0
SPLINE
5
1F0
100
AcDbEntity
8
0
6
ByLayer
62
256
370
-1
100
AcDbSpline
210
0
220
0
230
1
70
8
71
3
72
9
73
5
74
0
42
1e-007
43
1e-007
40
0
40
0
40
0
40
0
40
0.5
40
1
40
1
40
1
40
1
10
0
20
0
30
0
10
0
20
0
30
0
10
0
20
0
30
0
10
0
20
0
30
0
10
0
20
0
30
0
0
LINE
5
1F1
100
AcDbEntity
8
0
6
ByLayer
62
256
370
-1
100
AcDbLine
10
120
20
60
11
120
21
65
0
LINE
5
1F2
100
AcDbEntity
8
0
6
ByLayer
62
256
370
-1
100
AcDbLine
10
120
20
50
11
120
21
55
0
LINE
5
1F3
100
AcDbEntity
8
0
6
ByLayer
62
256
370
-1
100
AcDbLine
10
117
20
60
11
120
21
55
0
LINE
5
1F4
100
AcDbEntity
8
0
6
ByLayer
62
256
370
-1
100
AcDbLine
10
110
20
56
11
110
21
56
0
LINE
5
1F5
100
AcDbEntity
8
0
6
ByLayer
62
256
370
-1
100
AcDbLine
10
111
20
56
11
111
21
56
0
LINE
5
1F6
100
AcDbEntity
8
0
6
ByLayer
62
256
370
-1
100
AcDbLine
10
115
20
56
11
116.5
21
57.5
0
LINE
5
1F7
100
AcDbEntity
8
0
6
ByLayer
62
256
370
-1
100
AcDbLine
10
113.5
20
57.5
11
115
21
56
0
LINE
5
1F8
100
AcDbEntity
8
0
6
ByLayer
62
256
370
-1
100
AcDbLine
10
113.5
20
57.5
11
115
21
59
0
LINE
5
1F9
100
AcDbEntity
8
0
6
ByLayer
62
256
370
-1
100
AcDbLine
10
115
20
59
11
116.5
21
57.5
0
LINE
5
1FA
100
AcDbEntity
8
0
6
DASHEDX2
62
256
370
-1
100
AcDbLine
10
116.5
20
57.5
11
118.5
21
57.5
0
LINE
5
1FB
100
AcDbEntity
8
0
6
ByLayer
62
256
370
-1
100
AcDbLine
10
115.3
20
58.7
11
115.3
21
56.3
0
LINE
5
1FC
100
AcDbEntity
8
0
6
ByLayer
62
256
370
-1
100
AcDbLine
10
114.7
20
56.3
11
114.7
21
58.7
0
LINE
5
1FD
100
AcDbEntity
8
0
6
ByLayer
62
256
370
9
100
AcDbLine
10
111
20
59
11
112
21
59
0
LINE
5
1FE
100
AcDbEntity
8
0
6
ByLayer
62
256
370
9
100
AcDbLine
10
111
20
59
11
111
21
56
0
LINE
5
1FF
100
AcDbEntity
8
0
6
ByLayer
62
256
370
9
100
AcDbLine
10
111
20
56
11
112
21
56
0
ENDBLK
5
61
330
5F
100
AcDbEntity
8
0
100
AcDbBlockEnd
0
BLOCK
5
63
330
62
100
AcDbEntity
8
0
100
AcDbBlockBegin
2
detector de gas-0
70
0
10
0
20
0
3
detector de gas-0
1

0
LINE
5
200
100
AcDbEntity
8
0
6
ByLayer
62
256
370
-1
100
AcDbLine
10
100
20
100
11
100
21
100
0
MTEXT
5
201
100
AcDbEntity
8
0
6
ByLayer
62
256
370
-1
100
AcDbMText
10
-6
20
78
30
0
40
2.5
41
0
71
5
72
5
1

7
standard
210
0
220
0
230
1
50
0
73
2
44
1
0
LINE
5
202
100
AcDbEntity
8
0
6
ByLayer
62
256
370
-1
100
AcDbLine
10
4.16055846422
20
60.8952879581
11
4.16055846422
21
64.8952879581
0
LINE
5
203
100
AcDbEntity
8
0
6
ByLayer
62
256
370
-1
100
AcDbLine
10
-0.839441535777
20
49.8952879581
11
-0.839441535777
21
51.8952879581
0
LINE
5
204
100
AcDbEntity
8
0
6
ByLayer
62
256
370
-1
100
AcDbLine
10
-0.839441535777
20
51.8952879581
11
-0.839441535777
21
51.8952879581
0
LINE
5
205
100
AcDbEntity
8
0
6
ByLayer
62
256
370
-1
100
AcDbLine
10
-0.839441535777
20
51.8952879581
11
1.16055846422
21
51.8952879581
0
LINE
5
206
100
AcDbEntity
8
0
6
ByLayer
62
256
370
-1
100
AcDbLine
10
7.16055846422
20
51.8952879581
11
9.16055846422
21
51.8952879581
0
LINE
5
207
100
AcDbEntity
8
0
6
ByLayer
62
256
370
-1
100
AcDbLine
10
9.16055846422
20
51.8952879581
11
9.16055846422
21
49.8952879581
0
LINE
5
208
100
AcDbEntity
8
0
6
ByLayer
62
256
370
-1
100
AcDbLine
10
9.16055846422
20
49.8952879581
11
9.16055846422
21
51.8952879581
0
LINE
5
209
100
AcDbEntity
8
0
6
ByLayer
62
256
370
-1
100
AcDbLine
10
4.16055846422
20
60.8952879581
11
0.160558464223
21
51.8952879581
0
LINE
5
20A
100
AcDbEntity
8
0
6
ByLayer
62
256
370
-1
100
AcDbLine
10
-3.83944153578
20
58.8952879581
11
-7.83944153578
21
58.8952879581
0
LINE
5
20B
100
AcDbEntity
8
0
6
ByLayer
62
256
370
-1
100
AcDbLine
10
-7.83944153578
20
58.8952879581
11
-7.83944153578
21
54.8952879581
0
LINE
5
20C
100
AcDbEntity
8
0
6
ByLayer
62
256
370
-1
100
AcDbLine
10
-7.83944153578
20
54.8952879581
11
-3.83944153578
21
54.8952879581
0
LINE
5
20D
100
AcDbEntity
8
0
6
ByLayer
62
256
370
-1
100
AcDbLine
10
-3.83944153578
20
54.8952879581
11
-3.83944153578
21
58.8952879581
0
LINE
5
20E
100
AcDbEntity
8
0
6
ByLayer
62
256
370
-1
100
AcDbLine
10
-5.83944153578
20
58.8952879581
11
-5.83944153578
21
61.8952879581
0
LINE
5
20F
100
AcDbEntity
8
0
6
ByLayer
62
256
370
-1
100
AcDbLine
10
-5.83944153578
20
54.8952879581
11
-5.83944153578
21
51.8952879581
0
LINE
5
210
100
AcDbEntity
8
0
6
DASHED2
62
256
370
-1
100
AcDbLine
10
-3.83944153578
20
56.8952879581
11
2.16055846422
21
56.8952879581
0
MTEXT
5
211
100
AcDbEntity
8
0
6
ByLayer
62
256
370
-1
100
AcDbMText
10
5.16055846422
20
63.8952879581
30
0
40
1
41
0.777777777778
71
5
72
5
1
11
7
standard
210
0
220
0
230
1
50
0
73
2
44
1
0
MTEXT
5
212
100
AcDbEntity
8
0
6
ByLayer
62
256
370
-1
100
AcDbMText
10
0.160558464223
20
50.8952879581
30
0
40
1
41
1
71
5
72
5
1
12
7
standard
210
0
220
0
230
1
50
0
73
2
44
1
0
MTEXT
5
213
100
AcDbEntity
8
0
6
ByLayer
62
256
370
-1
100
AcDbMText
10
10.1605584642
20
50.8952879581
30
0
40
1
41
1.11111111111
71
5
72
5
1
14
7
standard
210
0
220
0
230
1
50
0
73
2
44
1
0
SPLINE
5
214
100
AcDbEntity
8
0
6
ByLayer
62
256
370
-1
100
AcDbSpline
210
0
220
0
230
1
70
8
71
3
72
9
73
5
74
0
42
1e-007
43
1e-007
40
0
40
0
40
0
40
0
40
0.5
40
1
40
1
40
1
40
1
10
0
20
0
30
0
10
0
20
0
30
0
10
0
20
0
30
0
10
0
20
0
30
0
10
0
20
0
30
0
0
LINE
5
215
100
AcDbEntity
8
0
6
ByLayer
62
256
370
-1
100
AcDbLine
10
-5
20
55.2
11
-6.6
21
55.2
0
LINE
5
216
100
AcDbEntity
8
0
6
ByLayer
62
256
370
-1
100
AcDbLine
10
-6.6
20
55.5
11
-5
21
55.5
0
LINE
5
217
100
AcDbEntity
8
0
6
ByLayer
62
256
370
-1
100
AcDbLine
10
-6.6
20
55.3
11
-5
21
55.3
0
LINE
5
218
100
AcDbEntity
8
0
6
ByLayer
62
256
370
-1
100
AcDbLine
10
-6
20
57.9
11
-6
21
57.9
0
LINE
5
219
100
AcDbEntity
8
0
6
ByLayer
62
256
370
-1
100
AcDbLine
10
-6
20
58.3
11
-6
21
58.3
0
LINE
5
21A
100
AcDbEntity
8
0
6
ByLayer
62
256
370
-1
100
AcDbLine
10
-6
20
57.9
11
-5.6
21
57.9
0
LINE
5
21B
100
AcDbEntity
8
0
6
ByLayer
62
256
370
-1
100
AcDbLine
10
-5
20
57.4
11
-5
21
55.2
0
ARC
5
21C
100
AcDbEntity
8
0
6
ByLayer
62
256
370
-1
100
AcDbCircle
10
-5.5
20
57.4
40
0.5
100
AcDbArc
50
0
51
90
0
LINE
5
21D
100
AcDbEntity
8
0
6
ByLayer
62
256
370
-1
100
AcDbLine
10
-6.1
20
57.9
11
-5.5
21
57.9
0
LINE
5
21E
100
AcDbEntity
8
0
6
ByLayer
62
256
370
-1
100
AcDbLine
10
-6.6
20
55.2
11
-6.6
21
57.4
0
ARC
5
21F
100
AcDbEntity
8
0
6
ByLayer
62
256
370
-1
100
AcDbCircle
10
-6.1
20
57.4
40
0.5
100
AcDbArc
50
90
51
180
0
LINE
5
220
100
AcDbEntity
8
0
6
ByLayer
62
256
370
-1
100
AcDbLine
10
-5.6
20
57.9
11
-5.6
21
58.15
0
ARC
5
221
100
AcDbEntity
8
0
6
ByLayer
62
256
370
-1
100
AcDbCircle
10
-5.75
20
58.15
40
0.15
100
AcDbArc
50
0
51
90
0
LINE
5
222
100
AcDbEntity
8
0
6
ByLayer
62
256
370
-1
100
AcDbLine
10
-5.75
20
58.3
11
-5.85
21
58.3
0
LINE
5
223
100
AcDbEntity
8
0
6
ByLayer
62
256
370
-1
100
AcDbLine
10
-6
20
57.9
11
-6
21
58.15
0
ARC
5
224
100
AcDbEntity
8
0
6
ByLayer
62
256
370
-1
100
AcDbCircle
10
-5.85
20
58.15
40
0.15
100
AcDbArc
50
90
51
180
0
ENDBLK
5
64
330
62
100
AcDbEntity
8
0
100
AcDbBlockEnd
0
BLOCK
5
66
330
65
100
AcDbEntity
8
0
100
AcDbBlockBegin
2
detector de gas-1
70
0
10
0
20
0
3
detector de gas-1
1

0
LINE
5
225
100
AcDbEntity
8
0
6
ByLayer
62
256
370
-1
100
AcDbLine
10
100
20
100
11
100
21
100
0
MTEXT
5
226
100
AcDbEntity
8
0
6
ByLayer
62
256
370
-1
100
AcDbMText
10
-6
20
78
30
0
40
2.5
41
0
71
5
72
5
1

7
standard
210
0
220
0
230
1
50
0
73
2
44
1
0
LINE
5
227
100
AcDbEntity
8
0
6
ByLayer
62
256
370
-1
100
AcDbLine
10
4.16055846422
20
60.8952879581
11
4.16055846422
21
64.8952879581
0
LINE
5
228
100
AcDbEntity
8
0
6
ByLayer
62
256
370
-1
100
AcDbLine
10
-0.839441535777
20
49.8952879581
11
-0.839441535777
21
51.8952879581
0
LINE
5
229
100
AcDbEntity
8
0
6
ByLayer
62
256
370
-1
100
AcDbLine
10
-0.839441535777
20
51.8952879581
11
-0.839441535777
21
51.8952879581
0
LINE
5
22A
100
AcDbEntity
8
0
6
ByLayer
62
256
370
-1
100
AcDbLine
10
-0.839441535777
20
51.8952879581
11
1.16055846422
21
51.8952879581
0
LINE
5
22B
100
AcDbEntity
8
0
6
ByLayer
62
256
370
-1
100
AcDbLine
10
7.16055846422
20
51.8952879581
11
9.16055846422
21
51.8952879581
0
LINE
5
22C
100
AcDbEntity
8
0
6
ByLayer
62
256
370
-1
100
AcDbLine
10
9.16055846422
20
51.8952879581
11
9.16055846422
21
49.8952879581
0
LINE
5
22D
100
AcDbEntity
8
0
6
ByLayer
62
256
370
-1
100
AcDbLine
10
9.16055846422
20
49.8952879581
11
9.16055846422
21
51.8952879581
0
LINE
5
22E
100
AcDbEntity
8
0
6
ByLayer
62
256
370
-1
100
AcDbLine
10
4.16055846422
20
60.8952879581
11
0.160558464223
21
51.8952879581
0
LINE
5
22F
100
AcDbEntity
8
0
6
ByLayer
62
256
370
-1
100
AcDbLine
10
-3.83944153578
20
58.8952879581
11
-7.83944153578
21
58.8952879581
0
LINE
5
230
100
AcDbEntity
8
0
6
ByLayer
62
256
370
-1
100
AcDbLine
10
-7.83944153578
20
58.8952879581
11
-7.83944153578
21
54.8952879581
0
LINE
5
231
100
AcDbEntity
8
0
6
ByLayer
62
256
370
-1
100
AcDbLine
10
-7.83944153578
20
54.8952879581
11
-3.83944153578
21
54.8952879581
0
LINE
5
232
100
AcDbEntity
8
0
6
ByLayer
62
256
370
-1
100
AcDbLine
10
-3.83944153578
20
54.8952879581
11
-3.83944153578
21
58.8952879581
0
LINE
5
233
100
AcDbEntity
8
0
6
ByLayer
62
256
370
-1
100
AcDbLine
10
-5.83944153578
20
58.8952879581
11
-5.83944153578
21
61.8952879581
0
LINE
5
234
100
AcDbEntity
8
0
6
ByLayer
62
256
370
-1
100
AcDbLine
10
-5.83944153578
20
54.8952879581
11
-5.83944153578
21
51.8952879581
0
LINE
5
235
100
AcDbEntity
8
0
6
DASHED2
62
256
370
-1
100
AcDbLine
10
-3.83944153578
20
56.8952879581
11
2.16055846422
21
56.8952879581
0
MTEXT
5
236
100
AcDbEntity
8
0
6
ByLayer
62
256
370
-1
100
AcDbMText
10
5.16055846422
20
63.8952879581
30
0
40
1
41
0.777777777778
71
5
72
5
1
11
7
standard
210
0
220
0
230
1
50
0
73
2
44
1
0
MTEXT
5
237
100
AcDbEntity
8
0
6
ByLayer
62
256
370
-1
100
AcDbMText
10
0.160558464223
20
50.8952879581
30
0
40
1
41
1
71
5
72
5
1
12
7
standard
210
0
220
0
230
1
50
0
73
2
44
1
0
MTEXT
5
238
100
AcDbEntity
8
0
6
ByLayer
62
256
370
-1
100
AcDbMText
10
10.1605584642
20
50.8952879581
30
0
40
1
41
1.11111111111
71
5
72
5
1
14
7
standard
210
0
220
0
230
1
50
0
73
2
44
1
0
SPLINE
5
239
100
AcDbEntity
8
0
6
ByLayer
62
256
370
-1
100
AcDbSpline
210
0
220
0
230
1
70
8
71
3
72
9
73
5
74
0
42
1e-007
43
1e-007
40
0
40
0
40
0
40
0
40
0.5
40
1
40
1
40
1
40
1
10
0
20
0
30
0
10
0
20
0
30
0
10
0
20
0
30
0
10
0
20
0
30
0
10
0
20
0
30
0
0
LINE
5
23A
100
AcDbEntity
8
0
6
ByLayer
62
256
370
-1
100
AcDbLine
10
-5
20
55.2
11
-6.6
21
55.2
0
LINE
5
23B
100
AcDbEntity
8
0
6
ByLayer
62
256
370
-1
100
AcDbLine
10
-6.6
20
55.5
11
-5
21
55.5
0
LINE
5
23C
100
AcDbEntity
8
0
6
ByLayer
62
256
370
-1
100
AcDbLine
10
-6.6
20
55.3
11
-5
21
55.3
0
LINE
5
23D
100
AcDbEntity
8
0
6
ByLayer
62
256
370
-1
100
AcDbLine
10
-6
20
57.9
11
-6
21
57.9
0
LINE
5
23E
100
AcDbEntity
8
0
6
ByLayer
62
256
370
-1
100
AcDbLine
10
-6
20
58.3
11
-6
21
58.3
0
LINE
5
23F
100
AcDbEntity
8
0
6
ByLayer
62
256
370
-1
100
AcDbLine
10
-6
20
57.9
11
-5.6
21
57.9
0
LINE
5
240
100
AcDbEntity
8
0
6
ByLayer
62
256
370
-1
100
AcDbLine
10
-5
20
57.4
11
-5
21
55.2
0
ARC
5
241
100
AcDbEntity
8
0
6
ByLayer
62
256
370
-1
100
AcDbCircle
10
-5.5
20
57.4
40
0.5
100
AcDbArc
50
0
51
90
0
LINE
5
242
100
AcDbEntity
8
0
6
ByLayer
62
256
370
-1
100
AcDbLine
10
-6.1
20
57.9
11
-5.5
21
57.9
0
LINE
5
243
100
AcDbEntity
8
0
6
ByLayer
62
256
370
-1
100
AcDbLine
10
-6.6
20
55.2
11
-6.6
21
57.4
0
ARC
5
244
100
AcDbEntity
8
0
6
ByLayer
62
256
370
-1
100
AcDbCircle
10
-6.1
20
57.4
40
0.5
100
AcDbArc
50
90
51
180
0
LINE
5
245
100
AcDbEntity
8
0
6
ByLayer
62
256
370
-1
100
AcDbLine
10
-5.6
20
57.9
11
-5.6
21
58.15
0
ARC
5
246
100
AcDbEntity
8
0
6
ByLayer
62
256
370
-1
100
AcDbCircle
10
-5.75
20
58.15
40
0.15
100
AcDbArc
50
0
51
90
0
LINE
5
247
100
AcDbEntity
8
0
6
ByLayer
62
256
370
-1
100
AcDbLine
10
-5.75
20
58.3
11
-5.85
21
58.3
0
LINE
5
248
100
AcDbEntity
8
0
6
ByLayer
62
256
370
-1
100
AcDbLine
10
-6
20
57.9
11
-6
21
58.15
0
ARC
5
249
100
AcDbEntity
8
0
6
ByLayer
62
256
370
-1
100
AcDbCircle
10
-5.85
20
58.15
40
0.15
100
AcDbArc
50
90
51
180
0
ENDBLK
5
67
330
65
100
AcDbEntity
8
0
100
AcDbBlockEnd
0
BLOCK
5
69
330
68
100
AcDbEntity
8
0
100
AcDbBlockBegin
2
detctor de inundacion-1
70
0
10
0
20
0
3
detctor de inundacion-1
1

0
LINE
5
24A
100
AcDbEntity
8
0
6
ByLayer
62
256
370
-1
100
AcDbLine
10
100
20
100
11
100
21
100
0
MTEXT
5
24B
100
AcDbEntity
8
0
6
ByLayer
62
256
370
-1
100
AcDbMText
10
-6
20
78
30
0
40
2.5
41
0
71
5
72
5
1

7
standard
210
0
220
0
230
1
50
0
73
2
44
1
0
LINE
5
24C
100
AcDbEntity
8
0
6
ByLayer
62
256
370
-1
100
AcDbLine
10
25.3821989529
20
60.3368237347
11
25.3821989529
21
64.3368237347
0
LINE
5
24D
100
AcDbEntity
8
0
6
ByLayer
62
256
370
-1
100
AcDbLine
10
20.3821989529
20
49.3368237347
11
20.3821989529
21
51.3368237347
0
LINE
5
24E
100
AcDbEntity
8
0
6
ByLayer
62
256
370
-1
100
AcDbLine
10
20.3821989529
20
51.3368237347
11
20.3821989529
21
51.3368237347
0
LINE
5
24F
100
AcDbEntity
8
0
6
ByLayer
62
256
370
-1
100
AcDbLine
10
20.3821989529
20
51.3368237347
11
22.3821989529
21
51.3368237347
0
LINE
5
250
100
AcDbEntity
8
0
6
ByLayer
62
256
370
-1
100
AcDbLine
10
28.3821989529
20
51.3368237347
11
30.3821989529
21
51.3368237347
0
LINE
5
251
100
AcDbEntity
8
0
6
ByLayer
62
256
370
-1
100
AcDbLine
10
30.3821989529
20
51.3368237347
11
30.3821989529
21
49.3368237347
0
LINE
5
252
100
AcDbEntity
8
0
6
ByLayer
62
256
370
-1
100
AcDbLine
10
30.3821989529
20
49.3368237347
11
30.3821989529
21
51.3368237347
0
LINE
5
253
100
AcDbEntity
8
0
6
ByLayer
62
256
370
-1
100
AcDbLine
10
25.3821989529
20
60.3368237347
11
21.3821989529
21
51.3368237347
0
LINE
5
254
100
AcDbEntity
8
0
6
ByLayer
62
256
370
-1
100
AcDbLine
10
17.3821989529
20
58.3368237347
11
13.3821989529
21
58.3368237347
0
LINE
5
255
100
AcDbEntity
8
0
6
ByLayer
62
256
370
-1
100
AcDbLine
10
13.3821989529
20
58.3368237347
11
13.3821989529
21
54.3368237347
0
LINE
5
256
100
AcDbEntity
8
0
6
ByLayer
62
256
370
-1
100
AcDbLine
10
13.3821989529
20
54.3368237347
11
17.3821989529
21
54.3368237347
0
LINE
5
257
100
AcDbEntity
8
0
6
ByLayer
62
256
370
-1
100
AcDbLine
10
17.3821989529
20
54.3368237347
11
17.3821989529
21
58.3368237347
0
LINE
5
258
100
AcDbEntity
8
0
6
ByLayer
62
256
370
-1
100
AcDbLine
10
15.3821989529
20
58.3368237347
11
15.3821989529
21
61.3368237347
0
LINE
5
259
100
AcDbEntity
8
0
6
ByLayer
62
256
370
-1
100
AcDbLine
10
15.3821989529
20
54.3368237347
11
15.3821989529
21
51.3368237347
0
LINE
5
25A
100
AcDbEntity
8
0
6
DASHED2
62
256
370
-1
100
AcDbLine
10
17.3821989529
20
56.3368237347
11
23.3821989529
21
56.3368237347
0
MTEXT
5
25B
100
AcDbEntity
8
0
6
ByLayer
62
256
370
-1
100
AcDbMText
10
26.3821989529
20
63.3368237347
30
0
40
1
41
0.777777777778
71
5
72
5
1
11
7
standard
210
0
220
0
230
1
50
0
73
2
44
1
0
MTEXT
5
25C
100
AcDbEntity
8
0
6
ByLayer
62
256
370
-1
100
AcDbMText
10
21.3821989529
20
50.3368237347
30
0
40
1
41
1
71
5
72
5
1
12
7
standard
210
0
220
0
230
1
50
0
73
2
44
1
0
MTEXT
5
25D
100
AcDbEntity
8
0
6
ByLayer
62
256
370
-1
100
AcDbMText
10
31.3821989529
20
50.3368237347
30
0
40
1
41
1.11111111111
71
5
72
5
1
14
7
standard
210
0
220
0
230
1
50
0
73
2
44
1
0
SPLINE
5
25E
100
AcDbEntity
8
0
6
ByLayer
62
256
370
-1
100
AcDbSpline
210
0
220
0
230
1
70
8
71
3
72
9
73
5
74
0
42
1e-007
43
1e-007
40
0
40
0
40
0
40
0
40
0.5
40
1
40
1
40
1
40
1
10
0
20
0
30
0
10
0
20
0
30
0
10
0
20
0
30
0
10
0
20
0
30
0
10
0
20
0
30
0
0
ARC
5
25F
100
AcDbEntity
8
0
6
ByLayer
62
256
370
-1
100
AcDbCircle
10
15.1
20
55.8
40
1
100
AcDbArc
50
180
51
270
0
LINE
5
260
100
AcDbEntity
8
0
6
ByLayer
62
256
370
-1
100
AcDbLine
10
15.1
20
54.8
11
15.7
21
54.8
0
ARC
5
261
100
AcDbEntity
8
0
6
ByLayer
62
256
370
-1
100
AcDbCircle
10
15.7
20
55.8
40
1
100
AcDbArc
50
270
51
0
0
LINE
5
262
100
AcDbEntity
8
0
6
ByLayer
62
256
370
-1
100
AcDbLine
10
14.1
20
55.9
11
14.1
21
55.8
0
LINE
5
263
100
AcDbEntity
8
0
6
ByLayer
62
256
370
-1
100
AcDbLine
10
16.7
20
55.8
11
16.7
21
55.9
0
ARC
5
264
100
AcDbEntity
8
0
6
ByLayer
62
256
370
-1
100
AcDbCircle
10
16.1
20
55.9
40
2
100
AcDbArc
50
110.487315115
51
180
0
ARC
5
265
100
AcDbEntity
8
0
6
ByLayer
62
256
370
-1
100
AcDbCircle
10
14.7
20
55.9
40
2
100
AcDbArc
50
0
51
69.5126848853
0
ENDBLK
5
6A
330
68
100
AcDbEntity
8
0
100
AcDbBlockEnd
0
BLOCK
5
6C
330
6B
100
AcDbEntity
8
0
100
AcDbBlockBegin
2
detector de presencia pir-6
70
0
10
0
20
0
3
detector de presencia pir-6
1

0
HATCH
5
266
100
AcDbEntity
8
0
6
ByLayer
62
256
370
-1
100
AcDbHatch
10
0
20
0
30
0
210
0
220
0
230
1
2
SOLID
70
1
71
0
91
1
92
0
93
2
72
1
10
67.0091976723
20
78.318985591
11
67.0091976723
21
75.0771472743
72
2
10
70.6085763612
20
76.6980664326
40
3.94751895036
50
155.75638808
51
204.24361192
73
0
97
0
75
0
76
1
98
0
0
LINE
5
267
100
AcDbEntity
8
0
6
ByLayer
62
256
370
-1
100
AcDbLine
10
100
20
100
11
100
21
100
0
MTEXT
5
268
100
AcDbEntity
8
0
6
ByLayer
62
256
370
-1
100
AcDbMText
10
-6
20
78
30
0
40
2.5
41
0
71
5
72
5
1

7
standard
210
0
220
0
230
1
50
0
73
2
44
1
0
LINE
5
269
100
AcDbEntity
8
0
6
ByLayer
62
256
370
-1
100
AcDbLine
10
76.3141361257
20
80.7766143106
11
76.3141361257
21
84.7766143106
0
LINE
5
26A
100
AcDbEntity
8
0
6
ByLayer
62
256
370
-1
100
AcDbLine
10
71.3141361257
20
69.7766143106
11
71.3141361257
21
71.7766143106
0
LINE
5
26B
100
AcDbEntity
8
0
6
ByLayer
62
256
370
-1
100
AcDbLine
10
71.3141361257
20
71.7766143106
11
71.3141361257
21
71.7766143106
0
LINE
5
26C
100
AcDbEntity
8
0
6
ByLayer
62
256
370
-1
100
AcDbLine
10
71.3141361257
20
71.7766143106
11
73.3141361257
21
71.7766143106
0
LINE
5
26D
100
AcDbEntity
8
0
6
ByLayer
62
256
370
-1
100
AcDbLine
10
79.3141361257
20
71.7766143106
11
81.3141361257
21
71.7766143106
0
LINE
5
26E
100
AcDbEntity
8
0
6
ByLayer
62
256
370
-1
100
AcDbLine
10
81.3141361257
20
71.7766143106
11
81.3141361257
21
69.7766143106
0
LINE
5
26F
100
AcDbEntity
8
0
6
ByLayer
62
256
370
-1
100
AcDbLine
10
81.3141361257
20
69.7766143106
11
81.3141361257
21
71.7766143106
0
LINE
5
270
100
AcDbEntity
8
0
6
ByLayer
62
256
370
-1
100
AcDbLine
10
76.3141361257
20
80.7766143106
11
72.3141361257
21
71.7766143106
0
LINE
5
271
100
AcDbEntity
8
0
6
ByLayer
62
256
370
-1
100
AcDbLine
10
68.3141361257
20
78.7766143106
11
64.3141361257
21
78.7766143106
0
LINE
5
272
100
AcDbEntity
8
0
6
ByLayer
62
256
370
-1
100
AcDbLine
10
64.3141361257
20
78.7766143106
11
64.3141361257
21
74.7766143106
0
LINE
5
273
100
AcDbEntity
8
0
6
ByLayer
62
256
370
-1
100
AcDbLine
10
64.3141361257
20
74.7766143106
11
68.3141361257
21
74.7766143106
0
LINE
5
274
100
AcDbEntity
8
0
6
ByLayer
62
256
370
-1
100
AcDbLine
10
68.3141361257
20
74.7766143106
11
68.3141361257
21
78.7766143106
0
LINE
5
275
100
AcDbEntity
8
0
6
ByLayer
62
256
370
-1
100
AcDbLine
10
66.3141361257
20
78.7766143106
11
66.3141361257
21
81.7766143106
0
LINE
5
276
100
AcDbEntity
8
0
6
ByLayer
62
256
370
-1
100
AcDbLine
10
66.3141361257
20
74.7766143106
11
66.3141361257
21
71.7766143106
0
LINE
5
277
100
AcDbEntity
8
0
6
DASHED2
62
256
370
-1
100
AcDbLine
10
68.3141361257
20
76.7766143106
11
74.3141361257
21
76.7766143106
0
MTEXT
5
278
100
AcDbEntity
8
0
6
ByLayer
62
256
370
-1
100
AcDbMText
10
77.3141361257
20
83.7766143106
30
0
40
1
41
0.777777777778
71
5
72
5
1
11
7
standard
210
0
220
0
230
1
50
0
73
2
44
1
0
MTEXT
5
279
100
AcDbEntity
8
0
6
ByLayer
62
256
370
-1
100
AcDbMText
10
72.3141361257
20
70.7766143106
30
0
40
1
41
1
71
5
72
5
1
12
7
standard
210
0
220
0
230
1
50
0
73
2
44
1
0
MTEXT
5
27A
100
AcDbEntity
8
0
6
ByLayer
62
256
370
-1
100
AcDbMText
10
82.3141361257
20
70.7766143106
30
0
40
1
41
1.11111111111
71
5
72
5
1
14
7
standard
210
0
220
0
230
1
50
0
73
2
44
1
0
ARC
5
27B
100
AcDbEntity
8
0
6
ByLayer
62
256
370
-1
100
AcDbCircle
10
71.6765969485
20
76.7167208323
40
5.42721482431
100
AcDbArc
50
162.892505021
51
197.107494979
0
ARC
5
27C
100
AcDbEntity
8
0
6
ByLayer
62
256
370
-1
100
AcDbCircle
10
71.1069328744
20
76.7167208323
40
5.42721482431
100
AcDbArc
50
162.892505021
51
197.107494979
0
ARC
5
27D
100
AcDbEntity
8
0
6
ByLayer
62
256
370
-1
100
AcDbCircle
10
70.5072864805
20
76.746703152
40
5.42721482431
100
AcDbArc
50
162.892505021
51
197.107494979
0
ARC
5
27E
100
AcDbEntity
8
0
6
ByLayer
62
256
370
-1
100
AcDbCircle
10
69.9975870457
20
76.7317119922
40
5.42721482431
100
AcDbArc
50
162.892505021
51
197.107494979
0
LINE
5
27F
100
AcDbEntity
8
0
6
ByLayer
62
256
370
-1
100
AcDbLine
10
67.5151493172
20
78.318985591
11
67.0091976723
21
78.318985591
0
LINE
5
280
100
AcDbEntity
8
0
6
ByLayer
62
256
370
-1
100
AcDbLine
10
67.0091976723
20
78.318985591
11
67.0091976723
21
75.0771472743
0
LINE
5
281
100
AcDbEntity
8
0
6
ByLayer
62
256
370
-1
100
AcDbLine
10
67.0091976723
20
75.0771472743
11
67.5151493172
21
75.0771472743
0
LINE
5
282
100
AcDbEntity
8
0
6
ByLayer
62
256
370
-1
100
AcDbLine
10
67.5151493172
20
75.0771472743
11
67.5151493172
21
78.318985591
0
ARC
5
283
100
AcDbEntity
8
0
6
ByLayer
62
256
370
-1
100
AcDbCircle
10
70.6085763612
20
76.6980664326
40
3.94751895036
100
AcDbArc
50
155.75638808
51
204.24361192
0
SPLINE
5
284
100
AcDbEntity
8
0
6
ByLayer
62
256
370
-1
100
AcDbSpline
210
0
220
0
230
1
70
8
71
3
72
9
73
5
74
0
42
1e-007
43
1e-007
40
0
40
0
40
0
40
0
40
0.5
40
1
40
1
40
1
40
1
10
0
20
0
30
0
10
0
20
0
30
0
10
0
20
0
30
0
10
0
20
0
30
0
10
0
20
0
30
0
0
ENDBLK
5
6D
330
6B
100
AcDbEntity
8
0
100
AcDbBlockEnd
0
BLOCK
5
6F
330
6E
100
AcDbEntity
8
0
100
AcDbBlockBegin
2
anemometro con salida digital-0
70
0
10
0
20
0
3
anemometro con salida digital-0
1

0
LINE
5
285
100
AcDbEntity
8
0
6
ByLayer
62
256
370
-1
100
AcDbLine
10
100
20
100
11
100
21
100
0
LINE
5
286
100
AcDbEntity
8
0
6
ByLayer
62
256
370
-1
100
AcDbLine
10
30
20
81
11
30
21
85
0
LINE
5
287
100
AcDbEntity
8
0
6
ByLayer
62
256
370
-1
100
AcDbLine
10
25
20
70
11
25
21
72
0
LINE
5
288
100
AcDbEntity
8
0
6
ByLayer
62
256
370
-1
100
AcDbLine
10
25
20
72
11
25
21
72
0
LINE
5
289
100
AcDbEntity
8
0
6
ByLayer
62
256
370
-1
100
AcDbLine
10
25
20
72
11
27
21
72
0
LINE
5
28A
100
AcDbEntity
8
0
6
ByLayer
62
256
370
-1
100
AcDbLine
10
33
20
72
11
35
21
72
0
LINE
5
28B
100
AcDbEntity
8
0
6
ByLayer
62
256
370
-1
100
AcDbLine
10
35
20
72
11
35
21
70
0
LINE
5
28C
100
AcDbEntity
8
0
6
ByLayer
62
256
370
-1
100
AcDbLine
10
35
20
70
11
35
21
72
0
LINE
5
28D
100
AcDbEntity
8
0
6
ByLayer
62
256
370
-1
100
AcDbLine
10
30
20
81
11
26
21
72
0
LINE
5
28E
100
AcDbEntity
8
0
6
ByLayer
62
256
370
-1
100
AcDbLine
10
22
20
79
11
18
21
79
0
LINE
5
28F
100
AcDbEntity
8
0
6
ByLayer
62
256
370
-1
100
AcDbLine
10
18
20
79
11
18
21
75
0
LINE
5
290
100
AcDbEntity
8
0
6
ByLayer
62
256
370
-1
100
AcDbLine
10
18
20
75
11
22
21
75
0
LINE
5
291
100
AcDbEntity
8
0
6
ByLayer
62
256
370
-1
100
AcDbLine
10
22
20
75
11
22
21
79
0
LINE
5
292
100
AcDbEntity
8
0
6
ByLayer
62
256
370
-1
100
AcDbLine
10
20
20
79
11
20
21
82
0
LINE
5
293
100
AcDbEntity
8
0
6
ByLayer
62
256
370
-1
100
AcDbLine
10
20
20
75
11
20
21
72
0
LINE
5
294
100
AcDbEntity
8
0
6
DASHED2
62
256
370
-1
100
AcDbLine
10
22
20
77
11
28
21
77
0
MTEXT
5
295
100
AcDbEntity
8
0
6
ByLayer
62
256
370
-1
100
AcDbMText
10
31
20
84
30
0
40
1
41
0.777777777778
71
5
72
5
1
11
7
standard
210
0
220
0
230
1
50
0
73
2
44
1
0
MTEXT
5
296
100
AcDbEntity
8
0
6
ByLayer
62
256
370
-1
100
AcDbMText
10
26
20
71
30
0
40
1
41
1
71
5
72
5
1
12
7
standard
210
0
220
0
230
1
50
0
73
2
44
1
0
MTEXT
5
297
100
AcDbEntity
8
0
6
ByLayer
62
256
370
-1
100
AcDbMText
10
36
20
71
30
0
40
1
41
1.11111111111
71
5
72
5
1
14
7
standard
210
0
220
0
230
1
50
0
73
2
44
1
0
MTEXT
5
298
100
AcDbEntity
8
0
6
ByLayer
62
256
370
-1
100
AcDbMText
10
-6
20
78
30
0
40
2.5
41
0
71
5
72
5
1

7
standard
210
0
220
0
230
1
50
0
73
2
44
1
0
CIRCLE
5
299
100
AcDbEntity
8
0
6
ByLayer
62
256
370
-1
100
AcDbCircle
10
19
20
78
40
0.420553244885
0
CIRCLE
5
29A
100
AcDbEntity
8
0
6
ByLayer
62
256
370
-1
100
AcDbCircle
10
21
20
78
40
0.44716059246
0
LINE
5
29B
100
AcDbEntity
8
0
6
ByLayer
62
256
370
-1
100
AcDbLine
10
20
20
76
11
20
21
78
0
LINE
5
29C
100
AcDbEntity
8
0
6
ByLayer
62
256
370
-1
100
AcDbLine
10
19.4204484165
20
78.0093893995
11
20.552955867
21
78.010204832
0
SPLINE
5
29D
100
AcDbEntity
8
0
6
ByLayer
62
256
370
-1
100
AcDbSpline
210
0
220
0
230
1
70
8
71
3
72
9
73
5
74
0
42
1e-007
43
1e-007
40
0
40
0
40
0
40
0
40
0.5
40
1
40
1
40
1
40
1
10
0
20
0
30
0
10
0
20
0
30
0
10
0
20
0
30
0
10
0
20
0
30
0
10
0
20
0
30
0
0
ENDBLK
5
70
330
6E
100
AcDbEntity
8
0
100
AcDbBlockEnd
0
BLOCK
5
72
330
71
100
AcDbEntity
8
0
100
AcDbBlockBegin
2
pulsador-0
70
0
10
0
20
0
3
pulsador-0
1

0
LINE
5
29E
100
AcDbEntity
8
0
6
ByLayer
62
256
370
-1
100
AcDbLine
10
100
20
100
11
100
21
100
0
MTEXT
5
29F
100
AcDbEntity
8
0
6
ByLayer
62
256
370
-1
100
AcDbMText
10
-6
20
78
30
0
40
2.5
41
0
71
5
72
5
1

7
standard
210
0
220
0
230
1
50
0
73
1
44
0.96
0
SPLINE
5
2A0
100
AcDbEntity
8
0
6
ByLayer
62
256
370
-1
100
AcDbSpline
210
0
220
0
230
1
70
8
71
3
72
9
73
5
74
0
42
1e-007
43
1e-007
40
0
40
0
40
0
40
0
40
0.5
40
1
40
1
40
1
40
1
10
0
20
0
30
0
10
0
20
0
30
0
10
0
20
0
30
0
10
0
20
0
30
0
10
0
20
0
30
0
0
LINE
5
2A1
100
AcDbEntity
8
0
6
ByLayer
62
256
370
-1
100
AcDbLine
10
100
20
60
11
100
21
65
0
LINE
5
2A2
100
AcDbEntity
8
0
6
ByLayer
62
256
370
-1
100
AcDbLine
10
100
20
50
11
100
21
55
0
LINE
5
2A3
100
AcDbEntity
8
0
6
ByLayer
62
256
370
-1
100
AcDbLine
10
97
20
60
11
100
21
55
0
LINE
5
2A4
100
AcDbEntity
8
0
6
ByLayer
62
256
370
-1
100
AcDbLine
10
90
20
56
11
90
21
56
0
LINE
5
2A5
100
AcDbEntity
8
0
6
ByLayer
62
256
370
-1
100
AcDbLine
10
91
20
59
11
91
21
56
0
LINE
5
2A6
100
AcDbEntity
8
0
6
ByLayer
62
256
370
-1
100
AcDbLine
10
91
20
56
11
91
21
56
0
LINE
5
2A7
100
AcDbEntity
8
0
6
ByLayer
62
256
370
-1
100
AcDbLine
10
91
20
56
11
92
21
56
0
LINE
5
2A8
100
AcDbEntity
8
0
6
ByLayer
62
256
370
-1
100
AcDbLine
10
91
20
59
11
92
21
59
0
LINE
5
2A9
100
AcDbEntity
8
0
6
ByLayer
62
256
370
-1
100
AcDbLine
10
91
20
57.5
11
92
21
57.5
0
LINE
5
2AA
100
AcDbEntity
8
0
6
ByLayer
62
256
370
-1
100
AcDbLine
10
98.5
20
57.5
11
97.2
21
57.5
0
LINE
5
2AB
100
AcDbEntity
8
0
6
ByLayer
62
256
370
-1
100
AcDbLine
10
96.1
20
57.5
11
94.8
21
57.5
0
LINE
5
2AC
100
AcDbEntity
8
0
6
ByLayer
62
256
370
-1
100
AcDbLine
10
94.1
20
57.5
11
93
21
57.5
0
ENDBLK
5
73
330
71
100
AcDbEntity
8
0
100
AcDbBlockEnd
0
BLOCK
5
75
330
74
100
AcDbEntity
8
0
100
AcDbBlockBegin
2
detctor de inundacion-2
70
0
10
0
20
0
3
detctor de inundacion-2
1

0
LINE
5
2AD
100
AcDbEntity
8
0
6
ByLayer
62
256
370
-1
100
AcDbLine
10
100
20
100
11
100
21
100
0
MTEXT
5
2AE
100
AcDbEntity
8
0
6
ByLayer
62
256
370
-1
100
AcDbMText
10
-6
20
78
30
0
40
2.5
41
0
71
5
72
5
1

7
standard
210
0
220
0
230
1
50
0
73
1
44
0.96
0
LINE
5
2AF
100
AcDbEntity
8
0
6
ByLayer
62
256
370
-1
100
AcDbLine
10
25.3821989529
20
60.3368237347
11
25.3821989529
21
64.3368237347
0
LINE
5
2B0
100
AcDbEntity
8
0
6
ByLayer
62
256
370
-1
100
AcDbLine
10
20.3821989529
20
49.3368237347
11
20.3821989529
21
51.3368237347
0
LINE
5
2B1
100
AcDbEntity
8
0
6
ByLayer
62
256
370
-1
100
AcDbLine
10
20.3821989529
20
51.3368237347
11
20.3821989529
21
51.3368237347
0
LINE
5
2B2
100
AcDbEntity
8
0
6
ByLayer
62
256
370
-1
100
AcDbLine
10
20.3821989529
20
51.3368237347
11
22.3821989529
21
51.3368237347
0
LINE
5
2B3
100
AcDbEntity
8
0
6
ByLayer
62
256
370
-1
100
AcDbLine
10
28.3821989529
20
51.3368237347
11
30.3821989529
21
51.3368237347
0
LINE
5
2B4
100
AcDbEntity
8
0
6
ByLayer
62
256
370
-1
100
AcDbLine
10
30.3821989529
20
51.3368237347
11
30.3821989529
21
49.3368237347
0
LINE
5
2B5
100
AcDbEntity
8
0
6
ByLayer
62
256
370
-1
100
AcDbLine
10
30.3821989529
20
49.3368237347
11
30.3821989529
21
51.3368237347
0
LINE
5
2B6
100
AcDbEntity
8
0
6
ByLayer
62
256
370
-1
100
AcDbLine
10
25.3821989529
20
60.3368237347
11
21.3821989529
21
51.3368237347
0
LINE
5
2B7
100
AcDbEntity
8
0
6
ByLayer
62
256
370
-1
100
AcDbLine
10
17.3821989529
20
58.3368237347
11
13.3821989529
21
58.3368237347
0
LINE
5
2B8
100
AcDbEntity
8
0
6
ByLayer
62
256
370
-1
100
AcDbLine
10
13.3821989529
20
58.3368237347
11
13.3821989529
21
54.3368237347
0
LINE
5
2B9
100
AcDbEntity
8
0
6
ByLayer
62
256
370
-1
100
AcDbLine
10
13.3821989529
20
54.3368237347
11
17.3821989529
21
54.3368237347
0
LINE
5
2BA
100
AcDbEntity
8
0
6
ByLayer
62
256
370
-1
100
AcDbLine
10
17.3821989529
20
54.3368237347
11
17.3821989529
21
58.3368237347
0
LINE
5
2BB
100
AcDbEntity
8
0
6
ByLayer
62
256
370
-1
100
AcDbLine
10
15.3821989529
20
58.3368237347
11
15.3821989529
21
61.3368237347
0
LINE
5
2BC
100
AcDbEntity
8
0
6
ByLayer
62
256
370
-1
100
AcDbLine
10
15.3821989529
20
54.3368237347
11
15.3821989529
21
51.3368237347
0
LINE
5
2BD
100
AcDbEntity
8
0
6
DASHED2
62
256
370
-1
100
AcDbLine
10
17.3821989529
20
56.3368237347
11
23.3821989529
21
56.3368237347
0
MTEXT
5
2BE
100
AcDbEntity
8
0
6
ByLayer
62
256
370
-1
100
AcDbMText
10
26.3821989529
20
63.3368237347
30
0
40
1
41
0.777777777778
71
5
72
5
1
11
7
standard
210
0
220
0
230
1
50
0
73
1
44
0.96
0
MTEXT
5
2BF
100
AcDbEntity
8
0
6
ByLayer
62
256
370
-1
100
AcDbMText
10
21.3821989529
20
50.3368237347
30
0
40
1
41
1
71
5
72
5
1
12
7
standard
210
0
220
0
230
1
50
0
73
1
44
0.96
0
MTEXT
5
2C0
100
AcDbEntity
8
0
6
ByLayer
62
256
370
-1
100
AcDbMText
10
31.3821989529
20
50.3368237347
30
0
40
1
41
1.11111111111
71
5
72
5
1
14
7
standard
210
0
220
0
230
1
50
0
73
1
44
0.96
0
SPLINE
5
2C1
100
AcDbEntity
8
0
6
ByLayer
62
256
370
-1
100
AcDbSpline
210
0
220
0
230
1
70
8
71
3
72
9
73
5
74
0
42
1e-007
43
1e-007
40
0
40
0
40
0
40
0
40
0.5
40
1
40
1
40
1
40
1
10
0
20
0
30
0
10
0
20
0
30
0
10
0
20
0
30
0
10
0
20
0
30
0
10
0
20
0
30
0
0
ARC
5
2C2
100
AcDbEntity
8
0
6
ByLayer
62
256
370
-1
100
AcDbCircle
10
15.1
20
55.8
40
1
100
AcDbArc
50
180
51
270
0
LINE
5
2C3
100
AcDbEntity
8
0
6
ByLayer
62
256
370
-1
100
AcDbLine
10
15.1
20
54.8
11
15.7
21
54.8
0
ARC
5
2C4
100
AcDbEntity
8
0
6
ByLayer
62
256
370
-1
100
AcDbCircle
10
15.7
20
55.8
40
1
100
AcDbArc
50
270
51
0
0
LINE
5
2C5
100
AcDbEntity
8
0
6
ByLayer
62
256
370
-1
100
AcDbLine
10
14.1
20
55.9
11
14.1
21
55.8
0
LINE
5
2C6
100
AcDbEntity
8
0
6
ByLayer
62
256
370
-1
100
AcDbLine
10
16.7
20
55.8
11
16.7
21
55.9
0
ARC
5
2C7
100
AcDbEntity
8
0
6
ByLayer
62
256
370
-1
100
AcDbCircle
10
16.1
20
55.9
40
2
100
AcDbArc
50
110.487315115
51
180
0
ARC
5
2C8
100
AcDbEntity
8
0
6
ByLayer
62
256
370
-1
100
AcDbCircle
10
14.7
20
55.9
40
2
100
AcDbArc
50
0
51
69.5126848853
0
ENDBLK
5
76
330
74
100
AcDbEntity
8
0
100
AcDbBlockEnd
0
BLOCK
5
78
330
77
100
AcDbEntity
8
0
100
AcDbBlockBegin
2
interruptor de proximidad magnetico (ventana)
70
0
10
0
20
0
3
interruptor de proximidad magnetico (ventana)
1

0
LINE
5
2C9
100
AcDbEntity
8
0
6
ByLayer
62
256
370
15
100
AcDbLine
10
0
20
10
11
0
21
15
0
LINE
5
2CA
100
AcDbEntity
8
0
6
ByLayer
62
256
370
15
100
AcDbLine
10
0
20
0
11
0
21
5
0
LINE
5
2CB
100
AcDbEntity
8
0
6
ByLayer
62
256
370
15
100
AcDbLine
10
-3
20
10
11
0
21
5
0
LINE
5
2CC
100
AcDbEntity
8
0
6
ByLayer
62
256
370
15
100
AcDbLine
10
-10
20
6
11
-10
21
6
0
LINE
5
2CD
100
AcDbEntity
8
0
6
ByLayer
62
256
370
15
100
AcDbLine
10
-9
20
9
11
-9
21
6
0
LINE
5
2CE
100
AcDbEntity
8
0
6
ByLayer
62
256
370
15
100
AcDbLine
10
-9
20
6
11
-9
21
6
0
LINE
5
2CF
100
AcDbEntity
8
0
6
ByLayer
62
256
370
15
100
AcDbLine
10
-1.5
20
7.5
11
-2.8
21
7.5
0
LINE
5
2D0
100
AcDbEntity
8
0
6
ByLayer
62
256
370
15
100
AcDbLine
10
-7.7
20
7.5
11
-5.5
21
5.3
0
LINE
5
2D1
100
AcDbEntity
8
0
6
ByLayer
62
256
370
15
100
AcDbLine
10
-5.5
20
5.3
11
-3.3
21
7.5
0
LINE
5
2D2
100
AcDbEntity
8
0
6
ByLayer
62
256
370
15
100
AcDbLine
10
-3.3
20
7.5
11
-5.5
21
9.7
0
LINE
5
2D3
100
AcDbEntity
8
0
6
ByLayer
62
256
370
15
100
AcDbLine
10
-5.5
20
9.7
11
-7.7
21
7.5
0
LINE
5
2D4
100
AcDbEntity
8
0
6
ByLayer
62
256
370
15
100
AcDbLine
10
-6
20
5.8
11
-6
21
9.2
0
LINE
5
2D5
100
AcDbEntity
8
0
6
ByLayer
62
256
370
15
100
AcDbLine
10
-5
20
9.1
11
-5
21
5.8
0
LINE
5
2D6
100
AcDbEntity
8
0
6
ByLayer
62
256
370
15
100
AcDbLine
10
-8
20
10
11
-9
21
10
0
LINE
5
2D7
100
AcDbEntity
8
0
6
ByLayer
62
256
370
15
100
AcDbLine
10
-9
20
10
11
-9
21
9
0
LINE
5
2D8
100
AcDbEntity
8
0
6
ByLayer
62
256
370
15
100
AcDbLine
10
-9
20
9
11
-9
21
5
0
LINE
5
2D9
100
AcDbEntity
8
0
6
ByLayer
62
256
370
15
100
AcDbLine
10
-9
20
5
11
-8
21
5
0
ENDBLK
5
79
330
77
100
AcDbEntity
8
0
100
AcDbBlockEnd
0
BLOCK
5
7B
330
7A
100
AcDbEntity
8
0
100
AcDbBlockBegin
2
termostato
70
0
10
0
20
0
3
termostato
1

0
LINE
5
2DA
100
AcDbEntity
8
0
6
ByLayer
62
256
370
15
100
AcDbLine
10
-0.0116231107325
20
9.99919411367
11
-0.0116231107325
21
14.9991941137
0
LINE
5
2DB
100
AcDbEntity
8
0
6
ByLayer
62
256
370
15
100
AcDbLine
10
-0.0116231107325
20
-0.000805886326418
11
-0.0116231107325
21
4.99919411367
0
LINE
5
2DC
100
AcDbEntity
8
0
6
ByLayer
62
256
370
15
100
AcDbLine
10
-3.01162311073
20
9.99919411367
11
-0.0116231107325
21
4.99919411367
0
LINE
5
2DD
100
AcDbEntity
8
0
6
ByLayer
62
256
370
15
100
AcDbLine
10
-10.0116231107
20
5.99919411367
11
-10.0116231107
21
5.99919411367
0
LINE
5
2DE
100
AcDbEntity
8
0
6
ByLayer
62
256
370
15
100
AcDbLine
10
-9.01162311073
20
5.99919411367
11
-9.01162311073
21
5.99919411367
0
LINE
5
2DF
100
AcDbEntity
8
0
6
ByLayer
62
256
370
15
100
AcDbLine
10
-1.51162311073
20
7.49919411367
11
-2.81162311073
21
7.49919411367
0
LINE
5
2E0
100
AcDbEntity
8
0
6
ByLayer
62
256
370
15
100
AcDbLine
10
-3.41162311073
20
7.49919411367
11
-4.71162311073
21
7.49919411367
0
LINE
5
2E1
100
AcDbEntity
8
0
6
ByLayer
62
256
370
15
100
AcDbLine
10
-5.31162311073
20
7.49919411367
11
-6.61162311073
21
7.49919411367
0
LINE
5
2E2
100
AcDbEntity
8
0
6
ByLayer
62
256
370
15
100
AcDbLine
10
-7.41162311073
20
9.39919411367
11
-11.2116231107
21
9.39919411367
0
LINE
5
2E3
100
AcDbEntity
8
0
6
ByLayer
62
256
370
15
100
AcDbLine
10
-11.2116231107
20
9.39919411367
11
-11.2116231107
21
5.59919411367
0
LINE
5
2E4
100
AcDbEntity
8
0
6
ByLayer
62
256
370
15
100
AcDbLine
10
-11.2116231107
20
5.59919411367
11
-7.41162311073
21
5.59919411367
0
LINE
5
2E5
100
AcDbEntity
8
0
6
ByLayer
62
256
370
15
100
AcDbLine
10
-7.41162311073
20
5.59919411367
11
-7.41162311073
21
9.39919411367
0
MTEXT
5
2E6
100
AcDbEntity
8
0
6
ByLayer
62
256
370
15
100
AcDbMText
10
-10.6116231107
20
8.69919411367
30
0
40
2
41
2
71
1
72
1
1
t
7
standard
210
0
220
0
230
1
50
0
73
2
44
1
0
LINE
5
2E7
100
AcDbEntity
8
0
6
ByLayer
62
256
370
15
100
AcDbLine
10
-9.31162311073
20
9.39919411367
11
-9.31162311073
21
11.0991941137
0
LINE
5
2E8
100
AcDbEntity
8
0
6
ByLayer
62
256
370
15
100
AcDbLine
10
-9.31208839719
20
5.58302303642
11
-9.31208839719
21
3.59115571025
0
ENDBLK
5
7C
330
7A
100
AcDbEntity
8
0
100
AcDbBlockEnd
0
BLOCK
5
7E
330
7D
100
AcDbEntity
8
0
100
AcDbBlockBegin
2
sensor de presencia
70
0
10
0
20
0
3
sensor de presencia
1

0
HATCH
5
2E9
100
AcDbEntity
8
0
6
ByLayer
62
256
370
15
100
AcDbHatch
10
0
20
0
30
0
210
0
220
0
230
1
2
SOLID
70
1
71
0
91
1
92
0
93
2
72
1
10
-8.6908023277
20
8.718985591
11
-8.6908023277
21
5.4771472743
72
2
10
-5.0914236388
20
7.0980664326
40
3.94751895036
50
155.75638808
51
204.24361192
73
0
97
0
75
0
76
1
98
0
0
LINE
5
2EA
100
AcDbEntity
8
0
6
ByLayer
62
256
370
15
100
AcDbLine
10
0
20
10
11
0
21
15
0
LINE
5
2EB
100
AcDbEntity
8
0
6
ByLayer
62
256
370
15
100
AcDbLine
10
0
20
0
11
0
21
5
0
LINE
5
2EC
100
AcDbEntity
8
0
6
ByLayer
62
256
370
15
100
AcDbLine
10
-3
20
10
11
0
21
5
0
LINE
5
2ED
100
AcDbEntity
8
0
6
ByLayer
62
256
370
15
100
AcDbLine
10
-10
20
6
11
-10
21
6
0
LINE
5
2EE
100
AcDbEntity
8
0
6
ByLayer
62
256
370
15
100
AcDbLine
10
-9
20
6
11
-9
21
6
0
LINE
5
2EF
100
AcDbEntity
8
0
6
ByLayer
62
256
370
15
100
AcDbLine
10
-4.3858638743
20
2.1766143106
11
-4.3858638743
21
2.1766143106
0
LINE
5
2F0
100
AcDbEntity
8
0
6
ByLayer
62
256
370
15
100
AcDbLine
10
-7.3858638743
20
9.1766143106
11
-11.3858638743
21
9.1766143106
0
LINE
5
2F1
100
AcDbEntity
8
0
6
ByLayer
62
256
370
15
100
AcDbLine
10
-11.3858638743
20
9.1766143106
11
-11.3858638743
21
5.1766143106
0
LINE
5
2F2
100
AcDbEntity
8
0
6
ByLayer
62
256
370
15
100
AcDbLine
10
-11.3858638743
20
5.1766143106
11
-7.3858638743
21
5.1766143106
0
LINE
5
2F3
100
AcDbEntity
8
0
6
ByLayer
62
256
370
15
100
AcDbLine
10
-7.3858638743
20
5.1766143106
11
-7.3858638743
21
9.1766143106
0
LINE
5
2F4
100
AcDbEntity
8
0
6
ByLayer
62
256
370
15
100
AcDbLine
10
-9.3858638743
20
9.1766143106
11
-9.3858638743
21
12.1766143106
0
LINE
5
2F5
100
AcDbEntity
8
0
6
ByLayer
62
256
370
15
100
AcDbLine
10
-9.3858638743
20
5.1766143106
11
-9.3858638743
21
2.1766143106
0
LINE
5
2F6
100
AcDbEntity
8
0
6
ByLayer
62
256
370
15
100
AcDbLine
10
-7.3858638743
20
7.1766143106
11
-1.3858638743
21
7.1766143106
0
ARC
5
2F7
100
AcDbEntity
8
0
6
ByLayer
62
256
370
15
100
AcDbCircle
10
-4.0234030515
20
7.1167208323
40
5.42721482431
100
AcDbArc
50
162.892505021
51
197.107494979
0
ARC
5
2F8
100
AcDbEntity
8
0
6
ByLayer
62
256
370
15
100
AcDbCircle
10
-4.5930671256
20
7.1167208323
40
5.42721482431
100
AcDbArc
50
162.892505021
51
197.107494979
0
ARC
5
2F9
100
AcDbEntity
8
0
6
ByLayer
62
256
370
15
100
AcDbCircle
10
-5.1927135195
20
7.146703152
40
5.42721482431
100
AcDbArc
50
162.892505021
51
197.107494979
0
ARC
5
2FA
100
AcDbEntity
8
0
6
ByLayer
62
256
370
15
100
AcDbCircle
10
-5.7024129543
20
7.1317119922
40
5.42721482431
100
AcDbArc
50
162.892505021
51
197.107494979
0
LINE
5
2FB
100
AcDbEntity
8
0
6
ByLayer
62
256
370
15
100
AcDbLine
10
-8.1848506828
20
8.718985591
11
-8.6908023277
21
8.718985591
0
LINE
5
2FC
100
AcDbEntity
8
0
6
ByLayer
62
256
370
15
100
AcDbLine
10
-8.6908023277
20
8.718985591
11
-8.6908023277
21
5.4771472743
0
LINE
5
2FD
100
AcDbEntity
8
0
6
ByLayer
62
256
370
15
100
AcDbLine
10
-8.6908023277
20
5.4771472743
11
-8.1848506828
21
5.4771472743
0
LINE
5
2FE
100
AcDbEntity
8
0
6
ByLayer
62
256
370
15
100
AcDbLine
10
-8.1848506828
20
5.4771472743
11
-8.1848506828
21
8.718985591
0
ARC
5
2FF
100
AcDbEntity
8
0
6
ByLayer
62
256
370
15
100
AcDbCircle
10
-5.0914236388
20
7.0980664326
40
3.94751895036
100
AcDbArc
50
155.75638808
51
204.24361192
0
ENDBLK
5
7F
330
7D
100
AcDbEntity
8
0
100
AcDbBlockEnd
0
BLOCK
5
81
330
80
100
AcDbEntity
8
0
100
AcDbBlockBegin
2
PULSADOR 1
70
0
10
0
20
0
3
PULSADOR 1
1

0
LINE
5
300
100
AcDbEntity
8
0
6
ByLayer
62
256
370
15
100
AcDbLine
10
-9
20
10.5
11
-8
21
10.5
0
LINE
5
301
100
AcDbEntity
8
0
6
ByLayer
62
256
370
15
100
AcDbLine
10
-3.9
20
10.5
11
-5.2
21
10.5
0
LINE
5
302
100
AcDbEntity
8
0
6
ByLayer
62
256
370
15
100
AcDbLine
10
-5.9
20
10.5
11
-7
21
10.5
0
LINE
5
303
100
AcDbEntity
8
0
6
ByLayer
62
256
370
15
100
AcDbLine
10
-8
20
15
11
-11
21
15
0
LINE
5
304
100
AcDbEntity
8
0
6
ByLayer
62
256
370
15
100
AcDbLine
10
-11
20
15
11
-11
21
6
0
LINE
5
305
100
AcDbEntity
8
0
6
ByLayer
62
256
370
15
100
AcDbLine
10
-11
20
6
11
-8
21
6
0
LINE
5
306
100
AcDbEntity
8
0
6
ByLayer
62
256
370
15
100
AcDbLine
10
-5
20
13
11
0
21
8
0
LINE
5
307
100
AcDbEntity
8
0
6
ByLayer
62
256
370
15
100
AcDbLine
10
0
20
8
11
0
21
-2.84217094304e-014
0
LINE
5
308
100
AcDbEntity
8
0
6
ByLayer
62
256
370
15
100
AcDbLine
10
0
20
13
11
0
21
21
0
ENDBLK
5
82
330
80
100
AcDbEntity
8
0
100
AcDbBlockEnd
0
BLOCK
5
84
330
83
100
AcDbEntity
8
0
100
AcDbBlockBegin
2
TERMOSTATO
70
0
10
0
20
0
3
TERMOSTATO
1

0
LINE
5
309
100
AcDbEntity
8
0
6
ByLayer
62
256
370
15
100
AcDbLine
10
-0.00162311100001
20
9.979194114
11
-0.00162311100001
21
14.979194114
0
LINE
5
30A
100
AcDbEntity
8
0
6
ByLayer
62
256
370
15
100
AcDbLine
10
-0.00162311100001
20
-0.020805886
11
-0.00162311100001
21
4.979194114
0
LINE
5
30B
100
AcDbEntity
8
0
6
ByLayer
62
256
370
15
100
AcDbLine
10
-3.001623111
20
9.979194114
11
-0.00162311100001
21
4.979194114
0
LINE
5
30C
100
AcDbEntity
8
0
6
ByLayer
62
256
370
15
100
AcDbLine
10
-1.501623111
20
7.479194114
11
-2.801623111
21
7.479194114
0
LINE
5
30D
100
AcDbEntity
8
0
6
ByLayer
62
256
370
15
100
AcDbLine
10
-3.401623111
20
7.479194114
11
-4.701623111
21
7.479194114
0
LINE
5
30E
100
AcDbEntity
8
0
6
ByLayer
62
256
370
15
100
AcDbLine
10
-5.301623111
20
7.479194114
11
-6.601623111
21
7.479194114
0
LINE
5
30F
100
AcDbEntity
8
0
6
ByLayer
62
256
370
15
100
AcDbLine
10
-7.1574346665
20
10.678791171
11
-12.8574346665
21
10.678791171
0
LINE
5
310
100
AcDbEntity
8
0
6
ByLayer
62
256
370
15
100
AcDbLine
10
-12.8574346665
20
10.678791171
11
-12.8574346665
21
4.978791171
0
LINE
5
311
100
AcDbEntity
8
0
6
ByLayer
62
256
370
15
100
AcDbLine
10
-12.8574346665
20
4.978791171
11
-7.1574346665
21
4.978791171
0
LINE
5
312
100
AcDbEntity
8
0
6
ByLayer
62
256
370
15
100
AcDbLine
10
-7.1574346665
20
4.978791171
11
-7.1574346665
21
10.678791171
0
MTEXT
5
313
100
AcDbEntity
8
0
6
ByLayer
62
256
370
15
100
AcDbMText
10
-11.9574346665
20
9.628791171
30
0
40
3
41
3
71
1
72
1
1
t
7
standard
210
0
220
0
230
1
50
0
73
2
44
1
0
LINE
5
314
100
AcDbEntity
8
0
6
ByLayer
62
256
370
15
100
AcDbLine
10
-10.0074346665
20
10.678791171
11
-10.0074346665
21
13.228791171
0
LINE
5
315
100
AcDbEntity
8
0
6
ByLayer
62
256
370
15
100
AcDbLine
10
-10.0081325955
20
4.954534554
11
-10.0081325955
21
1.966733565
0
ENDBLK
5
85
330
83
100
AcDbEntity
8
0
100
AcDbBlockEnd
0
BLOCK
5
87
330
86
100
AcDbEntity
8
0
100
AcDbBlockBegin
2
DET VENTANA
70
0
10
0
20
0
3
DET VENTANA
1

0
LINE
5
316
100
AcDbEntity
8
0
6
ByLayer
62
256
370
15
100
AcDbLine
10
-2.84217094304e-014
20
9.9
11
-2.84217094304e-014
21
14.9
0
LINE
5
317
100
AcDbEntity
8
0
6
ByLayer
62
256
370
15
100
AcDbLine
10
-2.84217094304e-014
20
-0.1
11
-2.84217094304e-014
21
4.9
0
LINE
5
318
100
AcDbEntity
8
0
6
ByLayer
62
256
370
15
100
AcDbLine
10
-3
20
9.9
11
-2.84217094304e-014
21
4.9
0
LINE
5
319
100
AcDbEntity
8
0
6
ByLayer
62
256
370
15
100
AcDbLine
10
-1.5
20
7.4
11
-2.8
21
7.4
0
LINE
5
31A
100
AcDbEntity
8
0
6
ByLayer
62
256
370
15
100
AcDbLine
10
-11.85
20
9.65
11
-11.85
21
5.15
0
LINE
5
31B
100
AcDbEntity
8
0
6
ByLayer
62
256
370
15
100
AcDbLine
10
-9.9
20
7.4
11
-6.6
21
4.1
0
LINE
5
31C
100
AcDbEntity
8
0
6
ByLayer
62
256
370
15
100
AcDbLine
10
-6.6
20
4.1
11
-3.3
21
7.4
0
LINE
5
31D
100
AcDbEntity
8
0
6
ByLayer
62
256
370
15
100
AcDbLine
10
-3.3
20
7.4
11
-6.6
21
10.7
0
LINE
5
31E
100
AcDbEntity
8
0
6
ByLayer
62
256
370
15
100
AcDbLine
10
-6.6
20
10.7
11
-9.9
21
7.4
0
LINE
5
31F
100
AcDbEntity
8
0
6
ByLayer
62
256
370
15
100
AcDbLine
10
-7.35
20
4.85
11
-7.35
21
9.95
0
LINE
5
320
100
AcDbEntity
8
0
6
ByLayer
62
256
370
15
100
AcDbLine
10
-5.85
20
9.8
11
-5.85
21
4.85
0
LINE
5
321
100
AcDbEntity
8
0
6
ByLayer
62
256
370
15
100
AcDbLine
10
-10.35
20
11.15
11
-11.85
21
11.15
0
LINE
5
322
100
AcDbEntity
8
0
6
ByLayer
62
256
370
15
100
AcDbLine
10
-11.85
20
3.65
11
-10.35
21
3.65
0
LINE
5
323
100
AcDbEntity
8
0
6
ByLayer
62
256
370
15
100
AcDbLine
10
-11.85
20
9.67
11
-11.85
21
11.14
0
LINE
5
324
100
AcDbEntity
8
0
6
ByLayer
62
256
370
15
100
AcDbLine
10
-11.85
20
5.14
11
-11.85
21
3.67
0
ENDBLK
5
88
330
86
100
AcDbEntity
8
0
100
AcDbBlockEnd
0
BLOCK
5
8A
330
89
100
AcDbEntity
8
0
100
AcDbBlockBegin
2
DET GAS
70
0
10
0
20
0
3
DET GAS
1

0
LINE
5
325
100
AcDbEntity
8
0
6
ByLayer
62
256
370
15
100
AcDbLine
10
1.42108547152e-014
20
10
11
1.42108547152e-014
21
15
0
LINE
5
326
100
AcDbEntity
8
0
6
ByLayer
62
256
370
15
100
AcDbLine
10
1.42108547152e-014
20
0
11
1.42108547152e-014
21
5
0
LINE
5
327
100
AcDbEntity
8
0
6
ByLayer
62
256
370
15
100
AcDbLine
10
-3
20
10
11
1.42108547152e-014
21
5
0
LINE
5
328
100
AcDbEntity
8
0
6
ByLayer
62
256
370
15
100
AcDbLine
10
-6.47879581145
20
10.4649214659
11
-12.4787958115
21
10.4649214659
0
LINE
5
329
100
AcDbEntity
8
0
6
ByLayer
62
256
370
15
100
AcDbLine
10
-12.4787958115
20
10.4649214659
11
-12.4787958115
21
4.4649214659
0
LINE
5
32A
100
AcDbEntity
8
0
6
ByLayer
62
256
370
15
100
AcDbLine
10
-12.4787958115
20
4.4649214659
11
-6.47879581145
21
4.4649214659
0
LINE
5
32B
100
AcDbEntity
8
0
6
ByLayer
62
256
370
15
100
AcDbLine
10
-6.47879581145
20
4.4649214659
11
-6.47879581145
21
10.4649214659
0
LINE
5
32C
100
AcDbEntity
8
0
6
ByLayer
62
256
370
15
100
AcDbLine
10
-9.47879581145
20
10.4649214659
11
-9.47879581145
21
14.9649214659
0
LINE
5
32D
100
AcDbEntity
8
0
6
ByLayer
62
256
370
15
100
AcDbLine
10
-9.47879581145
20
4.4649214659
11
-9.47879581145
21
-0.0350785341
0
LINE
5
32E
100
AcDbEntity
8
0
6
ByLayer
62
256
370
15
100
AcDbLine
10
-6.4
20
7.5
11
-1.6
21
7.5
0
LINE
5
32F
100
AcDbEntity
8
0
6
ByLayer
62
256
370
15
100
AcDbLine
10
-10.6
20
5
11
-8.4
21
5
0
LINE
5
330
100
AcDbEntity
8
0
6
ByLayer
62
256
370
15
100
AcDbLine
10
-8.4
20
5
11
-8.4
21
5.4
0
LINE
5
331
100
AcDbEntity
8
0
6
ByLayer
62
256
370
15
100
AcDbLine
10
-8.4
20
5.4
11
-10.6
21
5.4
0
LINE
5
332
100
AcDbEntity
8
0
6
ByLayer
62
256
370
15
100
AcDbLine
10
-10.6
20
5.4
11
-10.6
21
5
0
LINE
5
333
100
AcDbEntity
8
0
6
ByLayer
62
256
370
15
100
AcDbLine
10
-10.6
20
5.5
11
-10.6
21
7.9
0
LINE
5
334
100
AcDbEntity
8
0
6
ByLayer
62
256
370
15
100
AcDbLine
10
-8.4
20
5.5
11
-8.4
21
7.9
0
ARC
5
335
100
AcDbEntity
8
0
6
ByLayer
62
256
370
15
100
AcDbCircle
10
-9.5
20
8
40
1.10453610172
100
AcDbArc
50
0
51
180
0
LINE
5
336
100
AcDbEntity
8
0
6
ByLayer
62
256
370
15
100
AcDbLine
10
-9.7
20
9.1
11
-9.7
21
9.8
0
LINE
5
337
100
AcDbEntity
8
0
6
ByLayer
62
256
370
15
100
AcDbLine
10
-9.7
20
9.8
11
-9.3
21
9.8
0
LINE
5
338
100
AcDbEntity
8
0
6
ByLayer
62
256
370
15
100
AcDbLine
10
-9.3
20
9.8
11
-9.3
21
9.2
0
LINE
5
339
100
AcDbEntity
8
0
6
ByLayer
62
256
370
15
100
AcDbLine
10
-8.7
20
8.9
11
-8.5
21
9.1
0
LINE
5
33A
100
AcDbEntity
8
0
6
ByLayer
62
256
370
15
100
AcDbLine
10
-8.5
20
9.1
11
-8.4
21
8.9
0
LINE
5
33B
100
AcDbEntity
8
0
6
ByLayer
62
256
370
15
100
AcDbLine
10
-8.4
20
8.9
11
-8.6
21
8.7
0
LINE
5
33C
100
AcDbEntity
8
0
6
ByLayer
62
256
370
15
100
AcDbLine
10
-10.3
20
8.8
11
-10.6
21
9.1
0
LINE
5
33D
100
AcDbEntity
8
0
6
ByLayer
62
256
370
15
100
AcDbLine
10
-10.6
20
9.1
11
-10.7
21
8.9
0
LINE
5
33E
100
AcDbEntity
8
0
6
ByLayer
62
256
370
15
100
AcDbLine
10
-10.7
20
8.9
11
-10.5
21
8.7
0
ENDBLK
5
8B
330
89
100
AcDbEntity
8
0
100
AcDbBlockEnd
0
BLOCK
5
8D
330
8C
100
AcDbEntity
8
0
100
AcDbBlockBegin
2
DET AGUA
70
0
10
0
20
0
3
DET AGUA
1

0
LINE
5
33F
100
AcDbEntity
8
0
6
ByLayer
62
256
370
15
100
AcDbLine
10
-2.84217094304e-014
20
10
11
-2.84217094304e-014
21
15
0
LINE
5
340
100
AcDbEntity
8
0
6
ByLayer
62
256
370
15
100
AcDbLine
10
-2.84217094304e-014
20
2.84217094304e-014
11
-2.84217094304e-014
21
5
0
LINE
5
341
100
AcDbEntity
8
0
6
ByLayer
62
256
370
15
100
AcDbLine
10
-3
20
10
11
-2.84217094304e-014
21
5
0
LINE
5
342
100
AcDbEntity
8
0
6
ByLayer
62
256
370
15
100
AcDbLine
10
-6.47879581145
20
10.4649214659
11
-12.4787958115
21
10.4649214659
0
LINE
5
343
100
AcDbEntity
8
0
6
ByLayer
62
256
370
15
100
AcDbLine
10
-12.4787958115
20
10.4649214659
11
-12.4787958115
21
4.4649214659
0
LINE
5
344
100
AcDbEntity
8
0
6
ByLayer
62
256
370
15
100
AcDbLine
10
-12.4787958115
20
4.4649214659
11
-6.47879581145
21
4.4649214659
0
LINE
5
345
100
AcDbEntity
8
0
6
ByLayer
62
256
370
15
100
AcDbLine
10
-6.47879581145
20
4.4649214659
11
-6.47879581145
21
10.4649214659
0
LINE
5
346
100
AcDbEntity
8
0
6
ByLayer
62
256
370
15
100
AcDbLine
10
-9.47879581145
20
10.4649214659
11
-9.47879581145
21
14.9649214659
0
LINE
5
347
100
AcDbEntity
8
0
6
ByLayer
62
256
370
15
100
AcDbLine
10
-9.47879581145
20
4.4649214659
11
-9.47879581145
21
-0.0350785341
0
LINE
5
348
100
AcDbEntity
8
0
6
ByLayer
62
256
370
15
100
AcDbLine
10
-6.4
20
7.5
11
-1.6
21
7.5
0
SPLINE
5
349
100
AcDbEntity
8
0
6
ByLayer
62
256
370
15
100
AcDbSpline
210
0
220
0
230
1
70
8
71
3
72
11
73
7
74
0
42
1e-007
43
1e-007
40
0
40
0
40
0
40
0
40
0.25
40
0.5
40
0.75
40
1
40
1
40
1
40
1
10
-9.6
20
10
30
0
10
-11.6
20
7
30
0
10
-10.6
20
5
30
0
10
-9.6
20
5
30
0
10
-9.6
20
5
30
0
10
-9.6
20
5
30
0
10
-9.6
20
5
30
0
0
SPLINE
5
34A
100
AcDbEntity
8
0
6
ByLayer
62
256
370
15
100
AcDbSpline
210
0
220
0
230
1
70
8
71
3
72
11
73
7
74
0
42
1e-007
43
1e-007
40
0
40
0
40
0
40
0
40
0.25
40
0.5
40
0.75
40
1
40
1
40
1
40
1
10
-9.6
20
10
30
0
10
-7.6
20
7
30
0
10
-8.6
20
5
30
0
10
-9.6
20
5
30
0
10
-9.6
20
5
30
0
10
-9.6
20
5
30
0
10
-9.6
20
5
30
0
0
ENDBLK
5
8E
330
8C
100
AcDbEntity
8
0
100
AcDbBlockEnd
0
BLOCK
5
90
330
8F
100
AcDbEntity
8
0
100
AcDbBlockBegin
2
BOMBILLA
70
0
10
0
20
0
3
BOMBILLA
1

0
LINE
5
34B
100
AcDbEntity
8
0
6
ByLayer
62
256
370
15
100
AcDbLine
10
0
20
-0.0990195136
11
0
21
-12
0
LINE
5
34C
100
AcDbEntity
8
0
6
ByLayer
62
256
370
15
100
AcDbLine
10
-7
20
-29
11
7
21
-15
0
LINE
5
34D
100
AcDbEntity
8
0
6
ByLayer
62
256
370
15
100
AcDbLine
10
-7
20
-15
11
7
21
-29
0
CIRCLE
5
34E
100
AcDbEntity
8
0
6
ByLayer
62
256
370
15
100
AcDbCircle
10
-1.42108547152e-014
20
-22
40
10
0
ENDBLK
5
91
330
8F
100
AcDbEntity
8
0
100
AcDbBlockEnd
0
BLOCK
5
93
330
92
100
AcDbEntity
8
0
100
AcDbBlockBegin
2
MOT PERSIAMNA
70
0
10
0
20
0
3
MOT PERSIAMNA
1

0
LINE
5
34F
100
AcDbEntity
8
0
6
ByLayer
62
256
370
15
100
AcDbLine
10
0
20
0.000980486399989
11
0
21
-11.9
0
CIRCLE
5
350
100
AcDbEntity
8
0
6
ByLayer
62
256
370
15
100
AcDbCircle
10
0
20
-22
40
10
0
MTEXT
5
351
100
AcDbEntity
8
0
6
ByLayer
62
256
370
15
100
AcDbMText
10
-1.5
20
-19.9
30
0
40
4
41
2.66666666667
71
1
72
1
1
M
7
standard
210
0
220
0
230
1
50
0
73
2
44
1
0
ENDBLK
5
94
330
92
100
AcDbEntity
8
0
100
AcDbBlockEnd
0
BLOCK
5
96
330
95
100
AcDbEntity
8
0
100
AcDbBlockBegin
2
ELECTROVALVULA
70
0
10
0
20
0
3
ELECTROVALVULA
1

0
LINE
5
352
100
AcDbEntity
8
0
6
ByLayer
62
256
370
15
100
AcDbLine
10
-10
20
-7
11
11
21
-7
0
LINE
5
353
100
AcDbEntity
8
0
6
ByLayer
62
256
370
15
100
AcDbLine
10
11
20
-7
11
11
21
-17
0
LINE
5
354
100
AcDbEntity
8
0
6
ByLayer
62
256
370
15
100
AcDbLine
10
11
20
-17
11
-10
21
-17
0
LINE
5
355
100
AcDbEntity
8
0
6
ByLayer
62
256
370
15
100
AcDbLine
10
-10
20
-17
11
-10
21
-7
0
LINE
5
356
100
AcDbEntity
8
0
6
ByLayer
62
256
370
15
100
AcDbLine
10
11
20
-11
11
16
21
-11
0
LINE
5
357
100
AcDbEntity
8
0
6
ByLayer
62
256
370
15
100
AcDbLine
10
16
20
-13
11
11
21
-13
0
LINE
5
358
100
AcDbEntity
8
0
6
ByLayer
62
256
370
15
100
AcDbLine
10
16
20
-11
11
18
21
-11
0
LINE
5
359
100
AcDbEntity
8
0
6
ByLayer
62
256
370
15
100
AcDbLine
10
16
20
-13
11
18
21
-13
0
LINE
5
35A
100
AcDbEntity
8
0
6
ByLayer
62
256
370
15
100
AcDbLine
10
24
20
-17
11
14
21
-17
0
LINE
5
35B
100
AcDbEntity
8
0
6
ByLayer
62
256
370
15
100
AcDbLine
10
14
20
-17
11
24
21
-7
0
LINE
5
35C
100
AcDbEntity
8
0
6
ByLayer
62
256
370
15
100
AcDbLine
10
24
20
-7
11
14
21
-7
0
LINE
5
35D
100
AcDbEntity
8
0
6
ByLayer
62
256
370
15
100
AcDbLine
10
14
20
-7
11
24
21
-17
0
MTEXT
5
35E
100
AcDbEntity
8
0
6
ByLayer
62
256
370
15
100
AcDbMText
10
-7
20
-1
30
0
40
4
41
4.88888888889
71
1
72
1
1
A1
7
standard
210
0
220
0
230
1
50
0
73
2
44
1
0
MTEXT
5
35F
100
AcDbEntity
8
0
6
ByLayer
62
256
370
15
100
AcDbMText
10
-7
20
-19
30
0
40
4
41
5.77777777778
71
1
72
1
1
A2
7
standard
210
0
220
0
230
1
50
0
73
2
44
1
0
LINE
5
360
100
AcDbEntity
8
0
6
ByLayer
62
5
370
15
100
AcDbLine
10
0
20
-17
11
0
21
-23
0
LINE
5
361
100
AcDbEntity
8
0
6
ByLayer
62
256
370
15
100
AcDbLine
10
0
20
-7
11
0
21
0
0
ENDBLK
5
97
330
95
100
AcDbEntity
8
0
100
AcDbBlockEnd
0
BLOCK
5
99
330
98
100
AcDbEntity
8
0
100
AcDbBlockBegin
2
ZUMBADOR
70
0
10
0
20
0
3
ZUMBADOR
1

0
LINE
5
362
100
AcDbEntity
8
0
6
ByLayer
62
256
370
15
100
AcDbLine
10
13
20
-16
11
13
21
6
0
ARC
5
363
100
AcDbEntity
8
0
6
ByLayer
62
256
370
15
100
AcDbCircle
10
13
20
-5
40
11
100
AcDbArc
50
90
51
270
0
LINE
5
364
100
AcDbEntity
8
0
6
ByLayer
62
256
370
15
100
AcDbLine
10
0
20
0
11
3
21
0
0
LINE
5
365
100
AcDbEntity
8
0
6
ByLayer
62
5
370
15
100
AcDbLine
10
0
20
-14
11
0
21
-11
0
LINE
5
366
100
AcDbEntity
8
0
6
ByLayer
62
5
370
15
100
AcDbLine
10
0
20
-11
11
4
21
-11
0
ENDBLK
5
9A
330
98
100
AcDbEntity
8
0
100
AcDbBlockEnd
0
ENDSEC
0
SECTION
2
ENTITIES
0
HATCH
5
367
100
AcDbEntity
8
0
6
ByLayer
62
256
370
15
100
AcDbHatch
10
0
20
0
30
0
210
0
220
0
230
1
2
SOLID
70
1
71
0
91
1
92
0
93
2
72
1
10
149.563796508
20
219.778478386
11
149.563796508
21
214.915720911
72
2
10
154.962864542
20
217.347099649
40
5.92127842554
50
155.75638808
51
204.24361192
73
0
97
0
75
0
76
1
98
0
0
HATCH
5
368
100
AcDbEntity
8
0
6
ByLayer
62
256
370
15
100
AcDbHatch
10
0
20
0
30
0
210
0
220
0
230
1
2
SOLID
70
1
71
0
91
1
92
0
93
2
72
1
10
135.063796508
20
219.778478386
11
135.063796508
21
214.915720911
72
2
10
140.462864542
20
217.347099649
40
5.92127842554
50
155.75638808
51
204.24361192
73
0
97
0
75
0
76
1
98
0
0
MTEXT
5
369
100
AcDbEntity
8
0
6
ByLayer
62
256
370
-1
100
AcDbMText
10
20.5559940342
20
277.278544518
30
0
40
2.5
41
0
71
5
72
5
1

7
standard
210
0
220
0
230
1
50
0
73
2
44
1
0
LINE
5
36A
100
AcDbEntity
8
0
6
ByLayer
62
256
370
-1
100
AcDbLine
10
0
20
0
11
210
21
0
0
LINE
5
36B
100
AcDbEntity
8
0
6
ByLayer
62
256
370
-1
100
AcDbLine
10
0
20
0
11
1.81854043543e-014
21
297
0
LINE
5
36C
100
AcDbEntity
8
0
6
ByLayer
62
256
370
-1
100
AcDbLine
10
1.81854043543e-014
20
297
11
210
21
297
0
LINE
5
36D
100
AcDbEntity
8
0
6
ByLayer
62
256
370
-1
100
AcDbLine
10
210
20
-5.14334668605e-014
11
210
21
297
0
LINE
5
36E
100
AcDbEntity
8
0
6
ByLayer
62
256
370
15
100
AcDbLine
10
44.8
20
63.6
11
78.4
21
63.6
0
LINE
5
36F
100
AcDbEntity
8
0
6
ByLayer
62
256
370
15
100
AcDbLine
10
78.4
20
63.6
11
112
21
63.6
0
LINE
5
370
100
AcDbEntity
8
0
6
ByLayer
62
256
370
15
100
AcDbLine
10
112
20
63.6
11
145.6
21
63.6
0
INSERT
5
371
100
AcDbEntity
8
0
6
ByLayer
62
256
370
15
100
AcDbBlockReference
2
LOGO ANGEL Y HUGO-0
10
18.4
20
58.8
30
0
41
1.44
42
1.44
43
0
50
0
70
1
71
1
44
0
45
0
0
LINE
5
372
100
AcDbEntity
8
0
6
ByLayer
62
256
370
15
100
AcDbLine
10
140.8
20
63.6
11
168.4
21
63.6
0
LINE
5
373
100
AcDbEntity
8
0
6
ByLayer
62
256
370
15
100
AcDbLine
10
168.4
20
63.6
11
168.4
21
87.6
0
LINE
5
374
100
AcDbEntity
8
0
6
ByLayer
62
256
370
15
100
AcDbLine
10
127.6
20
63.6
11
127.6
21
87.6
0
LINE
5
375
100
AcDbEntity
8
0
6
ByLayer
62
256
370
15
100
AcDbLine
10
88
20
63.6
11
88
21
87.6
0
LINE
5
376
100
AcDbEntity
8
0
6
ByLayer
62
256
370
15
100
AcDbLine
10
47.2
20
63.6
11
47.2
21
87.6
0
LINE
5
377
100
AcDbEntity
8
0
6
ByLayer
62
256
370
15
100
AcDbLine
10
43
20
195.6
11
43
21
243.6
0
LINE
5
378
100
AcDbEntity
8
0
6
ByLayer
62
5
370
15
100
AcDbLine
10
57.4
20
251.021590126
11
57.4
21
267.6
0
ARC
5
379
100
AcDbEntity
8
0
6
ByLayer
62
5
370
15
100
AcDbCircle
10
57.4
20
243.6
40
7.42159012612
100
AcDbArc
50
270
51
90
0
LINE
5
37A
100
AcDbEntity
8
0
6
ByLayer
62
5
370
15
100
AcDbLine
10
57.4
20
195.6
11
57.4
21
236.178409874
0
LINE
5
37B
100
AcDbEntity
8
0
6
ByLayer
62
5
370
15
100
AcDbLine
10
10
20
267.6
11
188.8
21
267.6
0
LINE
5
37C
100
AcDbEntity
8
0
6
ByLayer
62
256
370
15
100
AcDbLine
10
86
20
225
11
86
21
243.6
0
LINE
5
37D
100
AcDbEntity
8
0
6
ByLayer
62
256
370
15
100
AcDbLine
10
86
20
195.6
11
86
21
210
0
LINE
5
37E
100
AcDbEntity
8
0
6
ByLayer
62
256
370
15
100
AcDbLine
10
650
20
330
11
650
21
330
0
MTEXT
5
37F
100
AcDbEntity
8
0
6
ByLayer
62
256
370
15
100
AcDbMText
10
544
20
308
30
0
40
2.5
41
0
71
5
72
5
1

7
standard
210
0
220
0
230
1
50
0
73
1
44
0.96
0
SPLINE
5
380
100
AcDbEntity
8
0
6
ByLayer
62
256
370
15
100
AcDbSpline
210
0
220
0
230
1
70
8
71
3
72
9
73
5
74
0
42
1e-007
43
1e-007
40
0
40
0
40
0
40
0
40
0.5
40
1
40
1
40
1
40
1
10
550
20
230
30
0
10
550
20
230
30
0
10
550
20
230
30
0
10
550
20
230
30
0
10
550
20
230
30
0
0
LINE
5
381
100
AcDbEntity
8
0
6
ByLayer
62
256
370
15
100
AcDbLine
10
187
20
225
11
187
21
243.6
0
LINE
5
382
100
AcDbEntity
8
0
6
ByLayer
62
256
370
15
100
AcDbLine
10
187
20
195.6
11
187
21
210
0
MTEXT
5
383
100
AcDbEntity
8
0
6
ByLayer
62
256
370
15
100
AcDbMText
10
224
20
298
30
0
40
2.5
41
0
71
5
72
5
1

7
standard
210
0
220
0
230
1
50
0
73
2
44
1
0
LINE
5
384
100
AcDbEntity
8
0
6
ByLayer
62
256
370
15
100
AcDbLine
10
143.5
20
195.6
11
143.5
21
210
0
LINE
5
385
100
AcDbEntity
8
0
6
ByLayer
62
256
370
15
100
AcDbLine
10
143.5
20
225
11
143.5
21
243.5
0
LINE
5
386
100
AcDbEntity
8
0
6
ByLayer
62
256
370
15
100
AcDbLine
10
66
20
87.6
11
66
21
69.0990195136
0
ARC
5
387
100
AcDbEntity
8
0
6
ByLayer
62
256
370
15
100
AcDbCircle
10
66
20
64
40
5.09901951359
100
AcDbArc
50
270
51
90
0
LINE
5
388
100
AcDbEntity
8
0
6
ByLayer
62
256
370
15
100
AcDbLine
10
106.2
20
87.6
11
106.2
21
69.0990195136
0
LINE
5
389
100
AcDbEntity
8
0
6
ByLayer
62
5
370
15
100
AcDbLine
10
205
20
267
11
205
21
37
0
LINE
5
38A
100
AcDbEntity
8
0
6
ByLayer
62
5
370
15
100
AcDbLine
10
188.8
20
267.6
11
191.7
21
267.6
0
LINE
5
38B
100
AcDbEntity
8
0
6
ByLayer
62
5
370
15
100
AcDbLine
10
191.7
20
267.6
11
197.6
21
267.6
0
LINE
5
38C
100
AcDbEntity
8
0
6
ByLayer
62
5
370
15
100
AcDbLine
10
197.6
20
267.6
11
205
21
267.6
0
LINE
5
38D
100
AcDbEntity
8
0
6
ByLayer
62
5
370
15
100
AcDbLine
10
205
20
267.6
11
205
21
267
0
LINE
5
38E
100
AcDbEntity
8
0
6
ByLayer
62
256
370
15
100
AcDbLine
10
146.5
20
87.6
11
146.5
21
69.0990195136
0
ARC
5
38F
100
AcDbEntity
8
0
6
ByLayer
62
256
370
15
100
AcDbCircle
10
146.5
20
64
40
5.09901951359
100
AcDbArc
50
270
51
90
0
LINE
5
390
100
AcDbEntity
8
0
6
ByLayer
62
256
370
15
100
AcDbLine
10
186.8
20
87.6
11
186.8
21
69.0990195136
0
ARC
5
391
100
AcDbEntity
8
0
6
ByLayer
62
256
370
15
100
AcDbCircle
10
186.8
20
64
40
5.09901951359
100
AcDbArc
50
270
51
90
0
LINE
5
392
100
AcDbEntity
8
0
6
ByLayer
62
5
370
15
100
AcDbLine
10
70
20
10
11
200
21
10
0
LINE
5
393
100
AcDbEntity
8
0
6
ByLayer
62
5
370
15
100
AcDbLine
10
200
20
10
11
205
21
10
0
LINE
5
394
100
AcDbEntity
8
0
6
ByLayer
62
5
370
15
100
AcDbLine
10
205
20
10
11
205
21
38
0
LINE
5
395
100
AcDbEntity
8
0
6
ByLayer
62
5
370
15
100
AcDbLine
10
66
20
27
11
66
21
10
0
LINE
5
396
100
AcDbEntity
8
0
6
ByLayer
62
5
370
15
100
AcDbLine
10
66
20
10
11
72
21
10
0
LINE
5
397
100
AcDbEntity
8
0
6
ByLayer
62
256
370
15
100
AcDbLine
10
20
20
63.6
11
20
21
243.6
0
LINE
5
398
100
AcDbEntity
8
0
6
ByLayer
62
256
370
15
100
AcDbLine
10
20
20
63.6
11
44.8
21
63.6
0
MTEXT
5
399
100
AcDbEntity
8
0
6
ByLayer
62
256
370
15
100
AcDbMText
10
7
20
270
30
0
40
4
41
2.22222222222
71
1
72
1
1
N
7
standard
210
0
220
0
230
1
50
0
73
2
44
1
0
MTEXT
5
39A
100
AcDbEntity
8
0
6
ByLayer
62
256
370
15
100
AcDbMText
10
7
20
249
30
0
40
4
41
1.77777777778
71
1
72
1
1
F
7
standard
210
0
220
0
230
1
50
0
73
2
44
1
0
MTEXT
5
39B
100
AcDbEntity
8
0
6
ByLayer
62
256
370
15
100
AcDbMText
10
-20
20
238
30
0
40
2.5
41
0
71
5
72
5
1

7
standard
210
0
220
0
230
1
50
0
73
1
44
0.96
0
INSERT
5
39C
100
AcDbEntity
8
0
6
ByLayer
62
256
370
15
100
AcDbBlockReference
2
PULSADOR 1
10
86
20
207
30
0
41
1
42
1
43
0
50
0
70
1
71
1
44
0
45
0
0
INSERT
5
39D
100
AcDbEntity
8
0
6
ByLayer
62
256
370
15
100
AcDbBlockReference
2
PULSADOR 1
10
187
20
207
30
0
41
1
42
1
43
0
50
0
70
1
71
1
44
0
45
0
0
LINE
5
39E
100
AcDbEntity
8
0
6
ByLayer
62
256
370
15
100
AcDbLine
10
143.5
20
220
11
143.5
21
225
0
LINE
5
39F
100
AcDbEntity
8
0
6
ByLayer
62
256
370
15
100
AcDbLine
10
143.5
20
210
11
143.5
21
215
0
LINE
5
3A0
100
AcDbEntity
8
0
6
ByLayer
62
256
370
15
100
AcDbLine
10
140.5
20
220
11
143.5
21
215
0
LINE
5
3A1
100
AcDbEntity
8
0
6
ByLayer
62
256
370
15
100
AcDbLine
10
137.021204189
20
220.464921466
11
131.021204189
21
220.464921466
0
LINE
5
3A2
100
AcDbEntity
8
0
6
ByLayer
62
256
370
15
100
AcDbLine
10
131.021204189
20
220.464921466
11
131.021204189
21
214.464921466
0
LINE
5
3A3
100
AcDbEntity
8
0
6
ByLayer
62
256
370
15
100
AcDbLine
10
131.021204189
20
214.464921466
11
137.021204189
21
214.464921466
0
LINE
5
3A4
100
AcDbEntity
8
0
6
ByLayer
62
256
370
15
100
AcDbLine
10
137.021204189
20
214.464921466
11
137.021204189
21
220.464921466
0
LINE
5
3A5
100
AcDbEntity
8
0
6
ByLayer
62
256
370
15
100
AcDbLine
10
134.021204189
20
220.464921466
11
134.021204189
21
224.964921466
0
LINE
5
3A6
100
AcDbEntity
8
0
6
ByLayer
62
256
370
15
100
AcDbLine
10
134.021204189
20
214.464921466
11
134.021204189
21
209.964921466
0
ARC
5
3A7
100
AcDbEntity
8
0
6
ByLayer
62
256
370
15
100
AcDbCircle
10
142.064895423
20
217.375081248
40
8.14082223647
100
AcDbArc
50
162.892505021
51
197.107494979
0
ARC
5
3A8
100
AcDbEntity
8
0
6
ByLayer
62
256
370
15
100
AcDbCircle
10
141.210399312
20
217.375081248
40
8.14082223647
100
AcDbArc
50
162.892505021
51
197.107494979
0
ARC
5
3A9
100
AcDbEntity
8
0
6
ByLayer
62
256
370
15
100
AcDbCircle
10
140.310929721
20
217.420054728
40
8.14082223647
100
AcDbArc
50
162.892505021
51
197.107494979
0
ARC
5
3AA
100
AcDbEntity
8
0
6
ByLayer
62
256
370
15
100
AcDbCircle
10
139.546380569
20
217.397567988
40
8.14082223647
100
AcDbArc
50
162.892505021
51
197.107494979
0
LINE
5
3AB
100
AcDbEntity
8
0
6
ByLayer
62
256
370
15
100
AcDbLine
10
135.822723976
20
219.778478386
11
135.063796508
21
219.778478386
0
LINE
5
3AC
100
AcDbEntity
8
0
6
ByLayer
62
256
370
15
100
AcDbLine
10
135.063796508
20
219.778478386
11
135.063796508
21
214.915720911
0
LINE
5
3AD
100
AcDbEntity
8
0
6
ByLayer
62
256
370
15
100
AcDbLine
10
135.063796508
20
214.915720911
11
135.822723976
21
214.915720911
0
LINE
5
3AE
100
AcDbEntity
8
0
6
ByLayer
62
256
370
15
100
AcDbLine
10
135.822723976
20
214.915720911
11
135.822723976
21
219.778478386
0
ARC
5
3AF
100
AcDbEntity
8
0
6
ByLayer
62
256
370
15
100
AcDbCircle
10
140.462864542
20
217.347099649
40
5.92127842554
100
AcDbArc
50
155.75638808
51
204.24361192
0
LINE
5
3B0
100
AcDbEntity
8
0
6
ByLayer
62
256
370
15
100
AcDbLine
10
137.1
20
217.5
11
141.9
21
217.5
0
LINE
5
3B1
100
AcDbEntity
8
0
6
ByLayer
62
256
370
15
100
AcDbLine
10
158
20
195.6
11
158
21
210
0
LINE
5
3B2
100
AcDbEntity
8
0
6
ByLayer
62
256
370
15
100
AcDbLine
10
158
20
225
11
158
21
243.5
0
LINE
5
3B3
100
AcDbEntity
8
0
6
ByLayer
62
256
370
15
100
AcDbLine
10
158
20
220
11
158
21
225
0
LINE
5
3B4
100
AcDbEntity
8
0
6
ByLayer
62
256
370
15
100
AcDbLine
10
158
20
210
11
158
21
215
0
LINE
5
3B5
100
AcDbEntity
8
0
6
ByLayer
62
256
370
15
100
AcDbLine
10
155
20
220
11
158
21
215
0
LINE
5
3B6
100
AcDbEntity
8
0
6
ByLayer
62
256
370
15
100
AcDbLine
10
151.521204189
20
220.464921466
11
145.521204189
21
220.464921466
0
LINE
5
3B7
100
AcDbEntity
8
0
6
ByLayer
62
256
370
15
100
AcDbLine
10
145.521204189
20
220.464921466
11
145.521204189
21
214.464921466
0
LINE
5
3B8
100
AcDbEntity
8
0
6
ByLayer
62
256
370
15
100
AcDbLine
10
145.521204189
20
214.464921466
11
151.521204189
21
214.464921466
0
LINE
5
3B9
100
AcDbEntity
8
0
6
ByLayer
62
256
370
15
100
AcDbLine
10
151.521204189
20
214.464921466
11
151.521204189
21
220.464921466
0
LINE
5
3BA
100
AcDbEntity
8
0
6
ByLayer
62
256
370
15
100
AcDbLine
10
148.521204189
20
220.464921466
11
148.521204189
21
224.964921466
0
LINE
5
3BB
100
AcDbEntity
8
0
6
ByLayer
62
256
370
15
100
AcDbLine
10
148.521204189
20
214.464921466
11
148.521204189
21
209.964921466
0
ARC
5
3BC
100
AcDbEntity
8
0
6
ByLayer
62
256
370
15
100
AcDbCircle
10
156.564895423
20
217.375081248
40
8.14082223647
100
AcDbArc
50
162.892505021
51
197.107494979
0
ARC
5
3BD
100
AcDbEntity
8
0
6
ByLayer
62
256
370
15
100
AcDbCircle
10
155.710399312
20
217.375081248
40
8.14082223647
100
AcDbArc
50
162.892505021
51
197.107494979
0
ARC
5
3BE
100
AcDbEntity
8
0
6
ByLayer
62
256
370
15
100
AcDbCircle
10
154.810929721
20
217.420054728
40
8.14082223647
100
AcDbArc
50
162.892505021
51
197.107494979
0
ARC
5
3BF
100
AcDbEntity
8
0
6
ByLayer
62
256
370
15
100
AcDbCircle
10
154.046380569
20
217.397567988
40
8.14082223647
100
AcDbArc
50
162.892505021
51
197.107494979
0
LINE
5
3C0
100
AcDbEntity
8
0
6
ByLayer
62
256
370
15
100
AcDbLine
10
150.322723976
20
219.778478386
11
149.563796508
21
219.778478386
0
LINE
5
3C1
100
AcDbEntity
8
0
6
ByLayer
62
256
370
15
100
AcDbLine
10
149.563796508
20
219.778478386
11
149.563796508
21
214.915720911
0
LINE
5
3C2
100
AcDbEntity
8
0
6
ByLayer
62
256
370
15
100
AcDbLine
10
149.563796508
20
214.915720911
11
150.322723976
21
214.915720911
0
LINE
5
3C3
100
AcDbEntity
8
0
6
ByLayer
62
256
370
15
100
AcDbLine
10
150.322723976
20
214.915720911
11
150.322723976
21
219.778478386
0
ARC
5
3C4
100
AcDbEntity
8
0
6
ByLayer
62
256
370
15
100
AcDbCircle
10
154.962864542
20
217.347099649
40
5.92127842554
100
AcDbArc
50
155.75638808
51
204.24361192
0
LINE
5
3C5
100
AcDbEntity
8
0
6
ByLayer
62
256
370
15
100
AcDbLine
10
151.6
20
217.5
11
156.4
21
217.5
0
LINE
5
3C6
100
AcDbEntity
8
0
6
ByLayer
62
256
370
15
100
AcDbLine
10
172.5
20
195.6
11
172.5
21
210
0
INSERT
5
3C7
100
AcDbEntity
8
0
6
ByLayer
62
256
370
15
100
AcDbBlockReference
2
DET VENTANA
10
172.5
20
210.1
30
0
41
1
42
1
43
0
50
0
70
1
71
1
44
1
45
1
0
LINE
5
3C8
100
AcDbEntity
8
0
6
ByLayer
62
256
370
15
100
AcDbLine
10
172.5
20
225
11
172.5
21
243.6
0
LINE
5
3C9
100
AcDbEntity
8
0
6
ByLayer
62
256
370
15
100
AcDbLine
10
7
20
243.6
11
187
21
243.6
0
LINE
5
3CA
100
AcDbEntity
8
0
6
ByLayer
62
256
370
15
100
AcDbLine
10
100.5
20
195.6
11
100.5
21
210
0
LINE
5
3CB
100
AcDbEntity
8
0
6
ByLayer
62
256
370
15
100
AcDbLine
10
100.5
20
225
11
100.5
21
243.5
0
LINE
5
3CC
100
AcDbEntity
8
0
6
ByLayer
62
256
370
15
100
AcDbLine
10
129.5
20
195.6
11
129.5
21
210
0
LINE
5
3CD
100
AcDbEntity
8
0
6
ByLayer
62
256
370
15
100
AcDbLine
10
129.5
20
225
11
129.5
21
243.5
0
LINE
5
3CE
100
AcDbEntity
8
0
6
ByLayer
62
256
370
15
100
AcDbLine
10
115
20
195.6
11
115
21
210
0
LINE
5
3CF
100
AcDbEntity
8
0
6
ByLayer
62
256
370
15
100
AcDbLine
10
115
20
225
11
115
21
243.5
0
INSERT
5
3D0
100
AcDbEntity
8
0
6
ByLayer
62
256
370
15
100
AcDbBlockReference
2
BOMBILLA
10
66
20
58.9
30
0
41
1
42
1
43
0
50
0
70
1
71
1
44
0
45
0
0
LINE
5
3D1
100
AcDbEntity
8
0
6
ByLayer
62
256
370
15
100
AcDbLine
10
186.8
20
58.9
11
186.8
21
48.1
0
LINE
5
3D2
100
AcDbEntity
8
0
6
ByLayer
62
256
370
15
100
AcDbLine
10
177
20
48
11
197
21
48
0
LINE
5
3D3
100
AcDbEntity
8
0
6
ByLayer
62
256
370
15
100
AcDbLine
10
197
20
48
11
197
21
28
0
LINE
5
3D4
100
AcDbEntity
8
0
6
ByLayer
62
256
370
15
100
AcDbLine
10
197
20
28
11
177
21
28
0
LINE
5
3D5
100
AcDbEntity
8
0
6
ByLayer
62
256
370
15
100
AcDbLine
10
177
20
28
11
177
21
48
0
LINE
5
3D6
100
AcDbEntity
8
0
6
ByLayer
62
256
370
15
100
AcDbLine
10
180
20
45
11
180
21
30
0
LINE
5
3D7
100
AcDbEntity
8
0
6
ByLayer
62
256
370
15
100
AcDbLine
10
180
20
30
11
181
21
30
0
LINE
5
3D8
100
AcDbEntity
8
0
6
ByLayer
62
256
370
15
100
AcDbLine
10
181
20
30
11
181
21
31
0
LINE
5
3D9
100
AcDbEntity
8
0
6
ByLayer
62
256
370
15
100
AcDbLine
10
181
20
31
11
180
21
31
0
LINE
5
3DA
100
AcDbEntity
8
0
6
ByLayer
62
256
370
15
100
AcDbLine
10
181
20
45
11
182
21
45
0
LINE
5
3DB
100
AcDbEntity
8
0
6
ByLayer
62
256
370
15
100
AcDbLine
10
182
20
45
11
182
21
30
0
LINE
5
3DC
100
AcDbEntity
8
0
6
ByLayer
62
256
370
15
100
AcDbLine
10
182
20
30
11
181
21
30
0
LINE
5
3DD
100
AcDbEntity
8
0
6
ByLayer
62
256
370
15
100
AcDbLine
10
181
20
30
11
181
21
45
0
LINE
5
3DE
100
AcDbEntity
8
0
6
ByLayer
62
256
370
15
100
AcDbLine
10
183
20
45
11
184
21
45
0
LINE
5
3DF
100
AcDbEntity
8
0
6
ByLayer
62
256
370
15
100
AcDbLine
10
184
20
45
11
184
21
30
0
LINE
5
3E0
100
AcDbEntity
8
0
6
ByLayer
62
256
370
15
100
AcDbLine
10
184
20
30
11
183
21
30
0
LINE
5
3E1
100
AcDbEntity
8
0
6
ByLayer
62
256
370
15
100
AcDbLine
10
183
20
30
11
183
21
45
0
LINE
5
3E2
100
AcDbEntity
8
0
6
ByLayer
62
256
370
15
100
AcDbLine
10
182
20
31
11
183
21
31
0
LINE
5
3E3
100
AcDbEntity
8
0
6
ByLayer
62
256
370
15
100
AcDbLine
10
183
20
31
11
183
21
30
0
LINE
5
3E4
100
AcDbEntity
8
0
6
ByLayer
62
256
370
15
100
AcDbLine
10
183
20
30
11
182
21
30
0
LINE
5
3E5
100
AcDbEntity
8
0
6
ByLayer
62
256
370
15
100
AcDbLine
10
182
20
45
11
183
21
45
0
LINE
5
3E6
100
AcDbEntity
8
0
6
ByLayer
62
256
370
15
100
AcDbLine
10
183
20
45
11
183
21
44
0
LINE
5
3E7
100
AcDbEntity
8
0
6
ByLayer
62
256
370
15
100
AcDbLine
10
183
20
44
11
182
21
44
0
LINE
5
3E8
100
AcDbEntity
8
0
6
ByLayer
62
256
370
15
100
AcDbLine
10
181
20
45
11
180
21
45
0
LINE
5
3E9
100
AcDbEntity
8
0
6
ByLayer
62
256
370
15
100
AcDbLine
10
180
20
45
11
180
21
44
0
LINE
5
3EA
100
AcDbEntity
8
0
6
ByLayer
62
256
370
15
100
AcDbLine
10
180
20
44
11
181
21
44
0
LINE
5
3EB
100
AcDbEntity
8
0
6
ByLayer
62
256
370
15
100
AcDbLine
10
189
20
30
11
189
21
45
0
LINE
5
3EC
100
AcDbEntity
8
0
6
ByLayer
62
256
370
15
100
AcDbLine
10
189
20
45
11
188
21
45
0
LINE
5
3ED
100
AcDbEntity
8
0
6
ByLayer
62
256
370
15
100
AcDbLine
10
188
20
45
11
188
21
30
0
LINE
5
3EE
100
AcDbEntity
8
0
6
ByLayer
62
256
370
15
100
AcDbLine
10
188
20
30
11
189
21
30
0
LINE
5
3EF
100
AcDbEntity
8
0
6
ByLayer
62
256
370
15
100
AcDbLine
10
188
20
30
11
187
21
30
0
LINE
5
3F0
100
AcDbEntity
8
0
6
ByLayer
62
256
370
15
100
AcDbLine
10
187
20
30
11
187
21
31
0
LINE
5
3F1
100
AcDbEntity
8
0
6
ByLayer
62
256
370
15
100
AcDbLine
10
187
20
45
11
186
21
45
0
LINE
5
3F2
100
AcDbEntity
8
0
6
ByLayer
62
256
370
15
100
AcDbLine
10
186
20
45
11
186
21
30
0
LINE
5
3F3
100
AcDbEntity
8
0
6
ByLayer
62
256
370
15
100
AcDbLine
10
186
20
30
11
187
21
30
0
LINE
5
3F4
100
AcDbEntity
8
0
6
ByLayer
62
256
370
15
100
AcDbLine
10
187
20
30
11
187
21
45
0
LINE
5
3F5
100
AcDbEntity
8
0
6
ByLayer
62
256
370
15
100
AcDbLine
10
185
20
45
11
184
21
45
0
LINE
5
3F6
100
AcDbEntity
8
0
6
ByLayer
62
256
370
15
100
AcDbLine
10
184
20
45
11
184
21
30
0
LINE
5
3F7
100
AcDbEntity
8
0
6
ByLayer
62
256
370
15
100
AcDbLine
10
184
20
30
11
185
21
30
0
LINE
5
3F8
100
AcDbEntity
8
0
6
ByLayer
62
256
370
15
100
AcDbLine
10
185
20
30
11
185
21
45
0
LINE
5
3F9
100
AcDbEntity
8
0
6
ByLayer
62
256
370
15
100
AcDbLine
10
185
20
31
11
185
21
30
0
LINE
5
3FA
100
AcDbEntity
8
0
6
ByLayer
62
256
370
15
100
AcDbLine
10
185
20
30
11
186
21
30
0
LINE
5
3FB
100
AcDbEntity
8
0
6
ByLayer
62
256
370
15
100
AcDbLine
10
186
20
45
11
185
21
45
0
LINE
5
3FC
100
AcDbEntity
8
0
6
ByLayer
62
256
370
15
100
AcDbLine
10
185
20
45
11
185
21
44
0
LINE
5
3FD
100
AcDbEntity
8
0
6
ByLayer
62
256
370
15
100
AcDbLine
10
187
20
45
11
188
21
45
0
LINE
5
3FE
100
AcDbEntity
8
0
6
ByLayer
62
256
370
15
100
AcDbLine
10
188
20
45
11
188
21
44
0
LINE
5
3FF
100
AcDbEntity
8
0
6
ByLayer
62
256
370
15
100
AcDbLine
10
184
20
31
11
185
21
31
0
LINE
5
400
100
AcDbEntity
8
0
6
ByLayer
62
256
370
15
100
AcDbLine
10
186
20
31
11
187
21
31
0
LINE
5
401
100
AcDbEntity
8
0
6
ByLayer
62
256
370
15
100
AcDbLine
10
188
20
31
11
189
21
31
0
LINE
5
402
100
AcDbEntity
8
0
6
ByLayer
62
256
370
15
100
AcDbLine
10
184
20
44
11
185
21
44
0
LINE
5
403
100
AcDbEntity
8
0
6
ByLayer
62
256
370
15
100
AcDbLine
10
186
20
44
11
187
21
44
0
LINE
5
404
100
AcDbEntity
8
0
6
ByLayer
62
256
370
15
100
AcDbLine
10
188
20
44
11
189
21
44
0
LINE
5
405
100
AcDbEntity
8
0
6
ByLayer
62
256
370
15
100
AcDbLine
10
195
20
45
11
194
21
45
0
LINE
5
406
100
AcDbEntity
8
0
6
ByLayer
62
256
370
15
100
AcDbLine
10
194
20
45
11
194
21
30
0
LINE
5
407
100
AcDbEntity
8
0
6
ByLayer
62
256
370
15
100
AcDbLine
10
189
20
30
11
189
21
45
0
LINE
5
408
100
AcDbEntity
8
0
6
ByLayer
62
256
370
15
100
AcDbLine
10
189
20
45
11
190
21
45
0
LINE
5
409
100
AcDbEntity
8
0
6
ByLayer
62
256
370
15
100
AcDbLine
10
190
20
30
11
189
21
30
0
LINE
5
40A
100
AcDbEntity
8
0
6
ByLayer
62
256
370
15
100
AcDbLine
10
190
20
30
11
191
21
30
0
LINE
5
40B
100
AcDbEntity
8
0
6
ByLayer
62
256
370
15
100
AcDbLine
10
191
20
30
11
191
21
31
0
LINE
5
40C
100
AcDbEntity
8
0
6
ByLayer
62
256
370
15
100
AcDbLine
10
191
20
45
11
192
21
45
0
LINE
5
40D
100
AcDbEntity
8
0
6
ByLayer
62
256
370
15
100
AcDbLine
10
192
20
45
11
192
21
30
0
LINE
5
40E
100
AcDbEntity
8
0
6
ByLayer
62
256
370
15
100
AcDbLine
10
192
20
30
11
191
21
30
0
LINE
5
40F
100
AcDbEntity
8
0
6
ByLayer
62
256
370
15
100
AcDbLine
10
191
20
30
11
191
21
45
0
LINE
5
410
100
AcDbEntity
8
0
6
ByLayer
62
256
370
15
100
AcDbLine
10
193
20
45
11
194
21
45
0
LINE
5
411
100
AcDbEntity
8
0
6
ByLayer
62
256
370
15
100
AcDbLine
10
194
20
30
11
193
21
30
0
LINE
5
412
100
AcDbEntity
8
0
6
ByLayer
62
256
370
15
100
AcDbLine
10
193
20
30
11
193
21
45
0
LINE
5
413
100
AcDbEntity
8
0
6
ByLayer
62
256
370
15
100
AcDbLine
10
193
20
30
11
192
21
30
0
LINE
5
414
100
AcDbEntity
8
0
6
ByLayer
62
256
370
15
100
AcDbLine
10
192
20
45
11
193
21
45
0
LINE
5
415
100
AcDbEntity
8
0
6
ByLayer
62
256
370
15
100
AcDbLine
10
191
20
45
11
190
21
45
0
LINE
5
416
100
AcDbEntity
8
0
6
ByLayer
62
256
370
15
100
AcDbLine
10
190
20
45
11
190
21
30
0
LINE
5
417
100
AcDbEntity
8
0
6
ByLayer
62
256
370
15
100
AcDbLine
10
194
20
30
11
195
21
30
0
LINE
5
418
100
AcDbEntity
8
0
6
ByLayer
62
256
370
15
100
AcDbLine
10
195
20
30
11
195
21
45
0
LINE
5
419
100
AcDbEntity
8
0
6
ByLayer
62
256
370
15
100
AcDbLine
10
190
20
44
11
191
21
44
0
LINE
5
41A
100
AcDbEntity
8
0
6
ByLayer
62
256
370
15
100
AcDbLine
10
192
20
44
11
193
21
44
0
LINE
5
41B
100
AcDbEntity
8
0
6
ByLayer
62
256
370
15
100
AcDbLine
10
194
20
44
11
195
21
44
0
LINE
5
41C
100
AcDbEntity
8
0
6
ByLayer
62
256
370
15
100
AcDbLine
10
195
20
31
11
194
21
31
0
LINE
5
41D
100
AcDbEntity
8
0
6
ByLayer
62
256
370
15
100
AcDbLine
10
193
20
31
11
192
21
31
0
LINE
5
41E
100
AcDbEntity
8
0
6
ByLayer
62
256
370
15
100
AcDbLine
10
191
20
31
11
190
21
31
0
ARC
5
41F
100
AcDbEntity
8
0
6
ByLayer
62
256
370
15
100
AcDbCircle
10
167.5
20
37.5
40
28.5043856275
100
AcDbArc
50
344.744881297
51
15.2551187031
0
ARC
5
420
100
AcDbEntity
8
0
6
ByLayer
62
256
370
15
100
AcDbCircle
10
207.5
20
37.5
40
28.5043856275
100
AcDbArc
50
164.744881297
51
195.255118703
0
LINE
5
421
100
AcDbEntity
8
0
6
ByLayer
62
256
370
15
100
AcDbLine
10
180
20
45
11
178
21
45
0
LINE
5
422
100
AcDbEntity
8
0
6
ByLayer
62
256
370
15
100
AcDbLine
10
178
20
45
11
178
21
44
0
LINE
5
423
100
AcDbEntity
8
0
6
ByLayer
62
256
370
15
100
AcDbLine
10
178
20
44
11
179
21
44
0
LINE
5
424
100
AcDbEntity
8
0
6
ByLayer
62
256
370
15
100
AcDbLine
10
179
20
44
11
180
21
44
0
LINE
5
425
100
AcDbEntity
8
0
6
ByLayer
62
5
370
15
100
AcDbLine
10
187
20
28
11
187
21
10
0
INSERT
5
426
100
AcDbEntity
8
0
6
ByLayer
62
5
370
15
100
AcDbBlockReference
2
TERMOSTATO
10
129.5
20
210
30
0
41
1
42
1
43
0
50
0
70
1
71
1
44
1
45
1
0
INSERT
5
427
100
AcDbEntity
8
0
6
ByLayer
62
5
370
15
100
AcDbBlockReference
2
PULSADOR 1
10
100.5
20
207
30
0
41
1
42
1
43
0
50
0
70
1
71
1
44
1
45
1
0
INSERT
5
428
100
AcDbEntity
8
0
6
ByLayer
62
5
370
15
100
AcDbBlockReference
2
PULSADOR 1
10
115
20
207
30
0
41
1
42
1
43
0
50
0
70
1
71
1
44
1
45
1
0
CIRCLE
5
429
100
AcDbEntity
8
0
6
ByLayer
62
256
370
15
100
AcDbCircle
10
130
20
40
40
10
0
MTEXT
5
42A
100
AcDbEntity
8
0
6
ByLayer
62
256
370
15
100
AcDbMText
10
128.5
20
42.1
30
0
40
4
41
2.66666666667
71
1
72
1
1
M
7
standard
210
0
220
0
230
1
50
0
73
2
44
1
0
LINE
5
42B
100
AcDbEntity
8
0
6
ByLayer
62
5
370
15
100
AcDbLine
10
130
20
10
11
130
21
27
0
LINE
5
42C
100
AcDbEntity
8
0
6
ByLayer
62
5
370
15
100
AcDbLine
10
130
20
27
11
130
21
30
0
LINE
5
42D
100
AcDbEntity
8
0
6
ByLayer
62
256
370
15
100
AcDbLine
10
136
20
48
11
136
21
59
0
LINE
5
42E
100
AcDbEntity
8
0
6
ByLayer
62
256
370
15
100
AcDbLine
10
136
20
59
11
147
21
59
0
ARC
5
42F
100
AcDbEntity
8
0
6
ByLayer
62
256
370
15
100
AcDbCircle
10
106.098992879
20
63.9970211312
40
5.09901951359
100
AcDbArc
50
91.134
51
271.134
0
LINE
5
430
100
AcDbEntity
8
0
6
ByLayer
62
256
370
15
100
AcDbLine
10
106.198020926
20
69.0999804144
11
105.798099268
21
69.0920641178
0
LINE
5
431
100
AcDbEntity
8
0
6
ByLayer
62
256
370
15
100
AcDbLine
10
122
20
46
11
122
21
59
0
LINE
5
432
100
AcDbEntity
8
0
6
ByLayer
62
256
370
15
100
AcDbLine
10
106.2
20
58.9
11
122
21
58.9
0
ENDSEC
0
SECTION
2
OBJECTS
0
DICTIONARY
5
C
330
0
100
AcDbDictionary
281
1
3
ACAD_GROUP
350
D
0
DICTIONARY
5
D
330
C
100
AcDbDictionary
281
1
0
ENDSEC
0
EOF
