999
dxfrw 0.5.10
0
SECTION
2
HEADER
9
$ACADVER
1
AC1021
9
$HANDSEED
5
20000
9
$DWGCODEPAGE
3
ANSI_1252
9
$INSBASE
10
0
20
0
30
0
9
$EXTMIN
10
-100
20
-120
30
0
9
$EXTMAX
10
400
20
200
30
0
9
$LIMMIN
10
0
20
0
9
$LIMMAX
10
420
20
297
9
$ORTHOMODE
70
0
9
$LTSCALE
40
1
9
$TEXTSTYLE
7
STANDARD
9
$DIMASZ
40
2.5
9
$DIMSCALE
40
1
9
$DIMEXO
40
0.625
9
$DIMEXE
40
1.25
9
$DIMTXT
40
2.5
9
$DIMTSZ
40
0
9
$DIMAUNIT
70
0
9
$DIMADEC
70
0
9
$DIMLUNIT
70
2
9
$DIMSTYLE
2
Standard
9
$DIMGAP
40
0.625
9
$DIMTIH
70
0
9
$LUNITS
70
2
9
$LUPREC
70
4
9
$AUNITS
70
0
9
$AUPREC
70
2
9
$SPLINESEGS
70
8
9
$GRIDMODE
70
1
9
$SNAPSTYLE
70
0
9
$PINSBASE
10
0
20
0
30
0
9
$PLIMMIN
10
0
20
0
9
$PLIMMAX
10
210
20
297
9
$INSUNITS
70
0
9
$PSVPSCALE
40
1
0
ENDSEC
0
SECTION
2
CLASSES
0
ENDSEC
0
SECTION
2
TABLES
0
TABLE
2
VPORT
5
8
330
0
100
AcDbSymbolTable
70
1
0
VPORT
5
31
330
2
100
AcDbSymbolTableRecord
100
AcDbViewportTableRecord
2
*ACTIVE
70
0
10
0
20
0
11
1
21
1
12
107.240727273
22
132.91608658
13
0
23
0
14
10
24
10
15
10
25
10
16
0
26
0
36
1
17
0
27
0
37
0
40
136.746112554
41
1.55601659751
42
50
43
0
44
0
50
0
51
0
71
0
72
100
73
1
74
3
75
0
76
1
77
0
78
0
281
0
65
1
110
0
120
0
130
0
111
1
121
0
131
0
112
0
122
1
132
0
79
0
146
0
348
10020
60
7
61
5
292
1
282
1
141
0
142
0
63
250
421
3358443
0
ENDTAB
0
TABLE
2
LTYPE
5
5
330
0
100
AcDbSymbolTable
70
4
0
LTYPE
5
14
330
5
100
AcDbSymbolTableRecord
100
AcDbLinetypeTableRecord
2
ByBlock
70
0
3

72
65
73
0
40
0
0
LTYPE
5
15
330
5
100
AcDbSymbolTableRecord
100
AcDbLinetypeTableRecord
2
ByLayer
70
0
3

72
65
73
0
40
0
0
LTYPE
5
16
330
5
100
AcDbSymbolTableRecord
100
AcDbLinetypeTableRecord
2
Continuous
70
0
3
Solid line
72
65
73
0
40
0
0
LTYPE
5
32
330
5
100
AcDbSymbolTableRecord
100
AcDbLinetypeTableRecord
2
DOT
70
0
3
Dot . . . . . . . . . . . . . . . . . . . . . .
72
65
73
2
40
6.35
49
0
74
0
49
-6.35
74
0
0
LTYPE
5
33
330
5
100
AcDbSymbolTableRecord
100
AcDbLinetypeTableRecord
2
DOT2
70
0
3
Dot (.5x) .....................................
72
65
73
2
40
3.175
49
0
74
0
49
-3.175
74
0
0
LTYPE
5
34
330
5
100
AcDbSymbolTableRecord
100
AcDbLinetypeTableRecord
2
DOTX2
70
0
3
Dot (2x) .  .  .  .  .  .  .  .  .  .  .  .  .
72
65
73
2
40
12.7
49
0
74
0
49
-12.7
74
0
0
LTYPE
5
35
330
5
100
AcDbSymbolTableRecord
100
AcDbLinetypeTableRecord
2
DASHED
70
0
3
Dot . . . . . . . . . . . . . . . . . . . . . .
72
65
73
2
40
19.05
49
12.7
74
0
49
-6.35
74
0
0
LTYPE
5
36
330
5
100
AcDbSymbolTableRecord
100
AcDbLinetypeTableRecord
2
DASHED2
70
0
3
Dashed (.5x) _ _ _ _ _ _ _ _ _ _ _ _ _ _ _ _ _
72
65
73
2
40
9.525
49
6.35
74
0
49
-3.175
74
0
0
LTYPE
5
37
330
5
100
AcDbSymbolTableRecord
100
AcDbLinetypeTableRecord
2
DASHEDX2
70
0
3
Dashed (2x) ____  ____  ____  ____  ____  ___
72
65
73
2
40
38.1
49
25.4
74
0
49
-12.7
74
0
0
LTYPE
5
38
330
5
100
AcDbSymbolTableRecord
100
AcDbLinetypeTableRecord
2
DASHDOT
70
0
3
Dash dot __ . __ . __ . __ . __ . __ . __ . __
72
65
73
4
40
25.4
49
12.7
74
0
49
-6.35
74
0
49
0
74
0
49
-6.35
74
0
0
LTYPE
5
39
330
5
100
AcDbSymbolTableRecord
100
AcDbLinetypeTableRecord
2
DASHDOT2
70
0
3
Dash dot (.5x) _._._._._._._._._._._._._._._.
72
65
73
4
40
12.7
49
6.35
74
0
49
-3.175
74
0
49
0
74
0
49
-3.175
74
0
0
LTYPE
5
3A
330
5
100
AcDbSymbolTableRecord
100
AcDbLinetypeTableRecord
2
DASHDOTX2
70
0
3
Dash dot (2x) ____  .  ____  .  ____  .  ___
72
65
73
4
40
50.8
49
25.4
74
0
49
-12.7
74
0
49
0
74
0
49
-12.7
74
0
0
LTYPE
5
3B
330
5
100
AcDbSymbolTableRecord
100
AcDbLinetypeTableRecord
2
DIVIDE
70
0
3
Divide ____ . . ____ . . ____ . . ____ . . ____
72
65
73
6
40
31.75
49
12.7
74
0
49
-6.35
74
0
49
0
74
0
49
-6.35
74
0
49
0
74
0
49
-6.35
74
0
0
LTYPE
5
3C
330
5
100
AcDbSymbolTableRecord
100
AcDbLinetypeTableRecord
2
DIVIDE2
70
0
3
Divide (.5x) __..__..__..__..__..__..__..__.._
72
65
73
6
40
15.875
49
6.35
74
0
49
-3.175
74
0
49
0
74
0
49
-3.175
74
0
49
0
74
0
49
-3.175
74
0
0
LTYPE
5
3D
330
5
100
AcDbSymbolTableRecord
100
AcDbLinetypeTableRecord
2
DIVIDEX2
70
0
3
Divide (2x) ________  .  .  ________  .  .  _
72
65
73
6
40
63.5
49
25.4
74
0
49
-12.7
74
0
49
0
74
0
49
-12.7
74
0
49
0
74
0
49
-12.7
74
0
0
LTYPE
5
3E
330
5
100
AcDbSymbolTableRecord
100
AcDbLinetypeTableRecord
2
BORDER
70
0
3
Border __ __ . __ __ . __ __ . __ __ . __ __ .
72
65
73
6
40
44.45
49
12.7
74
0
49
-6.35
74
0
49
12.7
74
0
49
-6.35
74
0
49
0
74
0
49
-6.35
74
0
0
LTYPE
5
3F
330
5
100
AcDbSymbolTableRecord
100
AcDbLinetypeTableRecord
2
BORDER2
70
0
3
Border (.5x) __.__.__.__.__.__.__.__.__.__.__.
72
65
73
6
40
22.225
49
6.35
74
0
49
-3.175
74
0
49
6.35
74
0
49
-3.175
74
0
49
0
74
0
49
-3.175
74
0
0
LTYPE
5
40
330
5
100
AcDbSymbolTableRecord
100
AcDbLinetypeTableRecord
2
BORDERX2
70
0
3
Border (2x) ____  ____  .  ____  ____  .  ___
72
65
73
6
40
88.9
49
25.4
74
0
49
-12.7
74
0
49
25.4
74
0
49
-12.7
74
0
49
0
74
0
49
-12.7
74
0
0
LTYPE
5
41
330
5
100
AcDbSymbolTableRecord
100
AcDbLinetypeTableRecord
2
CENTER
70
0
3
Center ____ _ ____ _ ____ _ ____ _ ____ _ ____
72
65
73
4
40
50.8
49
31.75
74
0
49
-6.35
74
0
49
6.35
74
0
49
-6.35
74
0
0
LTYPE
5
42
330
5
100
AcDbSymbolTableRecord
100
AcDbLinetypeTableRecord
2
CENTER2
70
0
3
Center (.5x) ___ _ ___ _ ___ _ ___ _ ___ _ ___
72
65
73
4
40
28.575
49
19.05
74
0
49
-3.175
74
0
49
3.175
74
0
49
-3.175
74
0
0
LTYPE
5
43
330
5
100
AcDbSymbolTableRecord
100
AcDbLinetypeTableRecord
2
CENTERX2
70
0
3
Center (2x) ________  __  ________  __  _____
72
65
73
4
40
101.6
49
63.5
74
0
49
-12.7
74
0
49
12.7
74
0
49
-12.7
74
0
0
ENDTAB
0
TABLE
2
LAYER
5
2
330
0
100
AcDbSymbolTable
70
1
0
LAYER
5
10
330
2
100
AcDbSymbolTableRecord
100
AcDbLayerTableRecord
2
0
70
0
62
7
6
CONTINUOUS
370
0
390
F
0
LAYER
5
44
330
2
100
AcDbSymbolTableRecord
100
AcDbLayerTableRecord
2
TEXTO
70
0
62
7
6
CONTINUOUS
370
20
390
F
0
LAYER
5
45
330
2
100
AcDbSymbolTableRecord
100
AcDbLayerTableRecord
2
aparatos
70
0
62
7
6
CONTINUOUS
370
20
390
F
0
LAYER
5
46
330
2
100
AcDbSymbolTableRecord
100
AcDbLayerTableRecord
2
cables
70
0
62
7
6
CONTINUOUS
370
20
390
F
0
LAYER
5
47
330
2
100
AcDbSymbolTableRecord
100
AcDbLayerTableRecord
2
cables230
70
0
62
7
6
CONTINUOUS
370
20
390
F
0
ENDTAB
0
TABLE
2
STYLE
5
3
330
0
100
AcDbSymbolTable
70
3
0
STYLE
5
48
330
2
100
AcDbSymbolTableRecord
100
AcDbTextStyleTableRecord
2
romancs
70
0
40
0
41
1
50
0
71
0
42
1
3
romancs
4

0
STYLE
5
49
330
2
100
AcDbSymbolTableRecord
100
AcDbTextStyleTableRecord
2
courier
70
0
40
0
41
1
50
0
71
0
42
1
3
courier
4

0
STYLE
5
4A
330
2
100
AcDbSymbolTableRecord
100
AcDbTextStyleTableRecord
2
standard
70
0
40
0
41
1
50
0
71
0
42
1
3
standard
4

0
STYLE
5
4B
330
2
100
AcDbSymbolTableRecord
100
AcDbTextStyleTableRecord
2
romans
70
0
40
0
41
1
50
0
71
0
42
1
3
romans
4

0
ENDTAB
0
TABLE
2
VIEW
5
6
330
0
100
AcDbSymbolTable
70
0
0
ENDTAB
0
TABLE
2
UCS
5
7
330
0
100
AcDbSymbolTable
70
0
0
ENDTAB
0
TABLE
2
APPID
5
9
330
0
100
AcDbSymbolTable
70
1
0
APPID
5
12
330
9
100
AcDbSymbolTableRecord
100
AcDbRegAppTableRecord
2
ACAD
70
0
0
ENDTAB
0
TABLE
2
DIMSTYLE
5
A
330
0
100
AcDbSymbolTable
70
1
100
AcDbDimStyleTable
71
1
0
DIMSTYLE
105
4C
330
A
100
AcDbSymbolTableRecord
100
AcDbDimStyleTableRecord
2
Standard
70
0
40
1
41
2.5
42
0.625
43
0.38
44
1.25
45
0
46
0
47
0
48
0
140
2.5
141
0.09
142
0
143
25.4
144
1
145
0
146
1
147
0.625
148
0
71
0
72
0
73
0
74
1
75
0
76
0
77
0
78
0
79
0
170
0
171
2
172
0
173
0
174
0
175
0
176
0
177
0
178
0
179
0
271
4
272
4
273
2
274
2
275
0
276
0
277
2
278
46
279
0
280
0
281
0
282
0
283
1
284
0
285
0
286
0
288
0
289
3
340
Standard
341

371
-2
372
-2
0
ENDTAB
0
TABLE
2
BLOCK_RECORD
5
1
330
0
100
AcDbSymbolTable
70
2
0
BLOCK_RECORD
5
1F
330
1
100
AcDbSymbolTableRecord
100
AcDbBlockTableRecord
2
*Model_Space
70
0
280
1
281
0
0
BLOCK_RECORD
5
1E
330
1
100
AcDbSymbolTableRecord
100
AcDbBlockTableRecord
2
*Paper_Space
70
0
280
1
281
0
0
ENDTAB
0
ENDSEC
0
SECTION
2
BLOCKS
0
BLOCK
5
20
330
1F
100
AcDbEntity
8
0
100
AcDbBlockBegin
2
*Model_Space
70
0
10
0
20
0
30
0
3
*Model_Space
1

0
ENDBLK
5
21
330
1F
100
AcDbEntity
8
0
100
AcDbBlockEnd
0
BLOCK
5
1C
330
1B
100
AcDbEntity
8
0
100
AcDbBlockBegin
2
*Paper_Space
70
0
10
0
20
0
30
0
3
*Paper_Space
1

0
ENDBLK
5
1D
330
1F
100
AcDbEntity
8
0
100
AcDbBlockEnd
0
ENDSEC
0
SECTION
2
ENTITIES
0
HATCH
5
4D
100
AcDbEntity
8
cables230
6
ByLayer
62
253
420
10526884
370
-1
100
AcDbHatch
10
0
20
0
30
0
210
0
220
0
230
1
2
SOLID
70
1
71
0
91
1
92
0
93
1
72
2
10
114
20
190
40
1
50
0
51
360
73
1
97
0
75
0
76
1
98
0
0
HATCH
5
4E
100
AcDbEntity
8
cables230
6
ByLayer
62
5
370
-1
100
AcDbHatch
10
0
20
0
30
0
210
0
220
0
230
1
2
SOLID
70
1
71
0
91
1
92
0
93
1
72
2
10
122
20
200
40
1
50
0
51
360
73
1
97
0
75
0
76
1
98
0
0
HATCH
5
4F
100
AcDbEntity
8
cables
6
ByLayer
62
1
370
-1
100
AcDbHatch
10
0
20
0
30
0
210
0
220
0
230
1
2
SOLID
70
1
71
0
91
1
92
0
93
1
72
2
10
264
20
90
40
1
50
0
51
360
73
1
97
0
75
0
76
1
98
0
0
HATCH
5
50
100
AcDbEntity
8
aparatos
6
ByLayer
62
256
370
-1
100
AcDbHatch
10
0
20
0
30
0
210
0
220
0
230
1
2
SOLID
70
1
71
0
91
1
92
0
93
3
72
1
10
180
20
-36
11
176
21
-38
72
1
10
176
20
-38
11
179
21
-40
72
1
10
179
20
-40
11
180
21
-36
97
0
75
0
76
1
98
0
0
HATCH
5
51
100
AcDbEntity
8
aparatos
6
ByLayer
62
256
370
-1
100
AcDbHatch
10
0
20
0
30
0
210
0
220
0
230
1
2
SOLID
70
1
71
0
91
1
92
0
93
1
72
2
10
165
20
-31
40
0.460934411143
50
0
51
360
73
1
97
0
75
0
76
1
98
0
0
LINE
5
52
100
AcDbEntity
8
0
6
ByLayer
62
256
370
-1
100
AcDbLine
10
0
20
0
11
110
21
0
0
LINE
5
53
100
AcDbEntity
8
0
6
ByLayer
62
256
370
-1
100
AcDbLine
10
110
20
0
11
110
21
75
0
LINE
5
54
100
AcDbEntity
8
0
6
ByLayer
62
256
370
-1
100
AcDbLine
10
110
20
75
11
0
21
75
0
LINE
5
55
100
AcDbEntity
8
0
6
ByLayer
62
256
370
-1
100
AcDbLine
10
0
20
75
11
0
21
0
0
LINE
5
56
100
AcDbEntity
8
0
6
ByLayer
62
256
370
-1
100
AcDbLine
10
9
20
21
11
59
21
21
0
LINE
5
57
100
AcDbEntity
8
0
6
ByLayer
62
256
370
-1
100
AcDbLine
10
9
20
21
11
9
21
51
0
LINE
5
58
100
AcDbEntity
8
0
6
ByLayer
62
256
370
-1
100
AcDbLine
10
59
20
21
11
59
21
51
0
LINE
5
59
100
AcDbEntity
8
0
6
ByLayer
62
256
370
-1
100
AcDbLine
10
9
20
51
11
59
21
51
0
LINE
5
5A
100
AcDbEntity
8
0
6
ByLayer
62
256
370
-1
100
AcDbLine
10
80
20
47
11
80
21
57
0
LINE
5
5B
100
AcDbEntity
8
0
6
ByLayer
62
256
370
-1
100
AcDbLine
10
80
20
47
11
105
21
47
0
LINE
5
5C
100
AcDbEntity
8
0
6
ByLayer
62
256
370
-1
100
AcDbLine
10
105
20
47
11
105
21
57
0
LINE
5
5D
100
AcDbEntity
8
0
6
ByLayer
62
256
370
-1
100
AcDbLine
10
80
20
57
11
105
21
57
0
MTEXT
5
5E
100
AcDbEntity
8
0
6
ByLayer
62
256
370
-1
100
AcDbMText
10
5
20
58
30
0
40
4
41
24
71
1
72
5
1
SIEMENS\P
7
romans
210
0
220
0
230
1
50
0
73
1
44
0.96
0
LINE
5
5F
100
AcDbEntity
8
0
6
ByLayer
62
256
370
-1
100
AcDbLine
10
90
20
40
11
95
21
40
0
LINE
5
60
100
AcDbEntity
8
0
6
ByLayer
62
256
370
-1
100
AcDbLine
10
90
20
40
11
92.5
21
44.5
0
LINE
5
61
100
AcDbEntity
8
0
6
ByLayer
62
256
370
-1
100
AcDbLine
10
92.5
20
44.5
11
95
21
40
0
LINE
5
62
100
AcDbEntity
8
0
6
ByLayer
62
256
370
-1
100
AcDbLine
10
98
20
38
11
98
21
33
0
LINE
5
63
100
AcDbEntity
8
0
6
ByLayer
62
256
370
-1
100
AcDbLine
10
98
20
38
11
102.5
21
35.5
0
LINE
5
64
100
AcDbEntity
8
0
6
ByLayer
62
256
370
-1
100
AcDbLine
10
102.5
20
35.5
11
98
21
33
0
LINE
5
65
100
AcDbEntity
8
0
6
ByLayer
62
256
370
-1
100
AcDbLine
10
95
20
30
11
90
21
30
0
LINE
5
66
100
AcDbEntity
8
0
6
ByLayer
62
256
370
-1
100
AcDbLine
10
95
20
30
11
92.5
21
25.5
0
LINE
5
67
100
AcDbEntity
8
0
6
ByLayer
62
256
370
-1
100
AcDbLine
10
92.5
20
25.5
11
90
21
30
0
LINE
5
68
100
AcDbEntity
8
0
6
ByLayer
62
256
370
-1
100
AcDbLine
10
87
20
33
11
87
21
38
0
LINE
5
69
100
AcDbEntity
8
0
6
ByLayer
62
256
370
-1
100
AcDbLine
10
87
20
33
11
82.5
21
35.5
0
LINE
5
6A
100
AcDbEntity
8
0
6
ByLayer
62
256
370
-1
100
AcDbLine
10
82.5
20
35.5
11
87
21
38
0
LINE
5
6B
100
AcDbEntity
8
0
6
ByLayer
62
256
370
-1
100
AcDbLine
10
94
20
23
11
104
21
23
0
LINE
5
6C
100
AcDbEntity
8
0
6
ByLayer
62
256
370
-1
100
AcDbLine
10
94
20
23
11
94
21
18
0
LINE
5
6D
100
AcDbEntity
8
0
6
ByLayer
62
256
370
-1
100
AcDbLine
10
104
20
23
11
104
21
18
0
LINE
5
6E
100
AcDbEntity
8
0
6
ByLayer
62
256
370
-1
100
AcDbLine
10
94
20
18
11
104
21
18
0
LINE
5
6F
100
AcDbEntity
8
0
6
ByLayer
62
256
370
-1
100
AcDbLine
10
77
20
23
11
87
21
23
0
LINE
5
70
100
AcDbEntity
8
0
6
ByLayer
62
256
370
-1
100
AcDbLine
10
77
20
23
11
77
21
18
0
LINE
5
71
100
AcDbEntity
8
0
6
ByLayer
62
256
370
-1
100
AcDbLine
10
87
20
23
11
87
21
18
0
LINE
5
72
100
AcDbEntity
8
0
6
ByLayer
62
256
370
-1
100
AcDbLine
10
77
20
18
11
87
21
18
0
CIRCLE
5
73
100
AcDbEntity
8
0
6
ByLayer
62
256
370
-1
100
AcDbCircle
10
6.20104210386
20
69.3996273637
40
3
0
LINE
5
74
100
AcDbEntity
8
0
6
ByLayer
62
256
370
-1
100
AcDbLine
10
4.20132260527
20
67.1633085298
11
7.1989055939
21
72.2288089513
0
LINE
5
75
100
AcDbEntity
8
0
6
ByLayer
62
256
370
-1
100
AcDbLine
10
7.90756294349
20
71.8669714062
11
4.90387037222
21
66.6945681225
0
CIRCLE
5
76
100
AcDbEntity
8
0
6
ByLayer
62
256
370
-1
100
AcDbCircle
10
16.2010421039
20
69.3996273637
40
3
0
LINE
5
77
100
AcDbEntity
8
0
6
ByLayer
62
256
370
-1
100
AcDbLine
10
14.2013226053
20
67.1633085298
11
17.1989055939
21
72.2288089513
0
LINE
5
78
100
AcDbEntity
8
0
6
ByLayer
62
256
370
-1
100
AcDbLine
10
17.9075629435
20
71.8669714062
11
14.9038703722
21
66.6945681225
0
CIRCLE
5
79
100
AcDbEntity
8
0
6
ByLayer
62
256
370
-1
100
AcDbCircle
10
32.2010421039
20
69.3996273637
40
3
0
LINE
5
7A
100
AcDbEntity
8
0
6
ByLayer
62
256
370
-1
100
AcDbLine
10
30.2013226053
20
67.1633085298
11
33.1989055939
21
72.2288089513
0
LINE
5
7B
100
AcDbEntity
8
0
6
ByLayer
62
256
370
-1
100
AcDbLine
10
33.9075629435
20
71.8669714062
11
30.9038703722
21
66.6945681225
0
CIRCLE
5
7C
100
AcDbEntity
8
0
6
ByLayer
62
256
370
-1
100
AcDbCircle
10
42.2010421039
20
69.3996273637
40
3
0
LINE
5
7D
100
AcDbEntity
8
0
6
ByLayer
62
256
370
-1
100
AcDbLine
10
40.2013226053
20
67.1633085298
11
43.1989055939
21
72.2288089513
0
LINE
5
7E
100
AcDbEntity
8
0
6
ByLayer
62
256
370
-1
100
AcDbLine
10
43.9075629435
20
71.8669714062
11
40.9038703722
21
66.6945681225
0
CIRCLE
5
7F
100
AcDbEntity
8
0
6
ByLayer
62
256
370
-1
100
AcDbCircle
10
52.2010421039
20
69.3996273637
40
3
0
LINE
5
80
100
AcDbEntity
8
0
6
ByLayer
62
256
370
-1
100
AcDbLine
10
50.2013226053
20
67.1633085298
11
53.1989055939
21
72.2288089513
0
LINE
5
81
100
AcDbEntity
8
0
6
ByLayer
62
256
370
-1
100
AcDbLine
10
53.9075629435
20
71.8669714062
11
50.9038703722
21
66.6945681225
0
CIRCLE
5
82
100
AcDbEntity
8
0
6
ByLayer
62
256
370
-1
100
AcDbCircle
10
62.2010421039
20
69.3996273637
40
3
0
LINE
5
83
100
AcDbEntity
8
0
6
ByLayer
62
256
370
-1
100
AcDbLine
10
60.2013226053
20
67.1633085298
11
63.1989055939
21
72.2288089513
0
LINE
5
84
100
AcDbEntity
8
0
6
ByLayer
62
256
370
-1
100
AcDbLine
10
63.9075629435
20
71.8669714062
11
60.9038703722
21
66.6945681225
0
CIRCLE
5
85
100
AcDbEntity
8
0
6
ByLayer
62
256
370
-1
100
AcDbCircle
10
72.2010421039
20
69.3996273637
40
3
0
LINE
5
86
100
AcDbEntity
8
0
6
ByLayer
62
256
370
-1
100
AcDbLine
10
70.2013226053
20
67.1633085298
11
73.1989055939
21
72.2288089513
0
LINE
5
87
100
AcDbEntity
8
0
6
ByLayer
62
256
370
-1
100
AcDbLine
10
73.9075629435
20
71.8669714062
11
70.9038703722
21
66.6945681225
0
CIRCLE
5
88
100
AcDbEntity
8
0
6
ByLayer
62
256
370
-1
100
AcDbCircle
10
82.2010421039
20
69.3996273637
40
3
0
LINE
5
89
100
AcDbEntity
8
0
6
ByLayer
62
256
370
-1
100
AcDbLine
10
80.2013226053
20
67.1633085298
11
83.1989055939
21
72.2288089513
0
LINE
5
8A
100
AcDbEntity
8
0
6
ByLayer
62
256
370
-1
100
AcDbLine
10
83.9075629435
20
71.8669714062
11
80.9038703722
21
66.6945681225
0
CIRCLE
5
8B
100
AcDbEntity
8
0
6
ByLayer
62
256
370
-1
100
AcDbCircle
10
92.2010421039
20
69.3996273637
40
3
0
LINE
5
8C
100
AcDbEntity
8
0
6
ByLayer
62
256
370
-1
100
AcDbLine
10
90.2013226053
20
67.1633085298
11
93.1989055939
21
72.2288089513
0
LINE
5
8D
100
AcDbEntity
8
0
6
ByLayer
62
256
370
-1
100
AcDbLine
10
93.9075629435
20
71.8669714062
11
90.9038703722
21
66.6945681225
0
CIRCLE
5
8E
100
AcDbEntity
8
0
6
ByLayer
62
256
370
-1
100
AcDbCircle
10
102.201042104
20
69.3996273637
40
3
0
LINE
5
8F
100
AcDbEntity
8
0
6
ByLayer
62
256
370
-1
100
AcDbLine
10
100.201322605
20
67.1633085298
11
103.198905594
21
72.2288089513
0
LINE
5
90
100
AcDbEntity
8
0
6
ByLayer
62
256
370
-1
100
AcDbLine
10
103.907562943
20
71.8669714062
11
100.903870372
21
66.6945681225
0
LINE
5
91
100
AcDbEntity
8
0
6
ByLayer
62
256
370
-1
100
AcDbLine
10
112.201322605
20
67.1633085298
11
115.198905594
21
72.2288089513
0
LINE
5
92
100
AcDbEntity
8
0
6
ByLayer
62
256
370
-1
100
AcDbLine
10
115.907562943
20
71.8669714062
11
112.903870372
21
66.6945681225
0
CIRCLE
5
93
100
AcDbEntity
8
0
6
ByLayer
62
256
370
-1
100
AcDbCircle
10
122.201042104
20
69.3996273637
40
3
0
LINE
5
94
100
AcDbEntity
8
0
6
ByLayer
62
256
370
-1
100
AcDbLine
10
120.201322605
20
67.1633085298
11
123.198905594
21
72.2288089513
0
LINE
5
95
100
AcDbEntity
8
0
6
ByLayer
62
256
370
-1
100
AcDbLine
10
123.907562943
20
71.8669714062
11
120.903870372
21
66.6945681225
0
MTEXT
5
96
100
AcDbEntity
8
0
6
ByLayer
62
256
370
-1
100
AcDbMText
10
3.20558958652
20
63.6006891271
30
0
40
4
41
4.57143111111
71
1
72
5
1
L1
7
romans
210
0
220
0
230
1
50
0
73
2
44
0.96
0
MTEXT
5
97
100
AcDbEntity
8
0
6
ByLayer
62
256
370
-1
100
AcDbMText
10
14.2055895865
20
63.6006891271
30
0
40
4
41
2.66666666667
71
1
72
5
1
N
7
romans
210
0
220
0
230
1
50
0
73
2
44
0.96
0
MTEXT
5
98
100
AcDbEntity
8
0
6
ByLayer
62
256
370
-1
100
AcDbMText
10
30.2055895865
20
63.6006891271
30
0
40
4
41
2.28571555556
71
1
72
5
1
l1
7
romans
210
0
220
0
230
1
50
0
73
2
44
0.96
0
MTEXT
5
99
100
AcDbEntity
8
0
6
ByLayer
62
256
370
-1
100
AcDbMText
10
39.2055895865
20
63.6006891271
30
0
40
4
41
4
71
1
72
5
1
l2
7
romans
210
0
220
0
230
1
50
0
73
2
44
0.96
0
MTEXT
5
9A
100
AcDbEntity
8
0
6
ByLayer
62
256
370
-1
100
AcDbMText
10
49.2055895865
20
63.6006891271
30
0
40
4
41
4
71
1
72
5
1
l3
7
romans
210
0
220
0
230
1
50
0
73
2
44
0.96
0
MTEXT
5
9B
100
AcDbEntity
8
0
6
ByLayer
62
256
370
-1
100
AcDbMText
10
69.2055895865
20
63.6006891271
30
0
40
4
41
4
71
1
72
5
1
l5
7
romans
210
0
220
0
230
1
50
0
73
2
44
0.96
0
MTEXT
5
9C
100
AcDbEntity
8
0
6
ByLayer
62
256
370
-1
100
AcDbMText
10
79.2055895865
20
63.6006891271
30
0
40
4
41
3.80952444444
71
1
72
5
1
l6
7
romans
210
0
220
0
230
1
50
0
73
2
44
0.96
0
MTEXT
5
9D
100
AcDbEntity
8
0
6
ByLayer
62
256
370
-1
100
AcDbMText
10
89.2055895865
20
63.6006891271
30
0
40
4
41
4
71
1
72
5
1
l7
7
romans
210
0
220
0
230
1
50
0
73
2
44
0.96
0
MTEXT
5
9E
100
AcDbEntity
8
0
6
ByLayer
62
256
370
-1
100
AcDbMText
10
99.2055895865
20
63.6006891271
30
0
40
4
41
4
71
1
72
5
1
l8
7
romans
210
0
220
0
230
1
50
0
73
2
44
0.96
0
MTEXT
5
9F
100
AcDbEntity
8
0
6
ByLayer
62
256
370
-1
100
AcDbMText
10
11.6151296899
20
17.3852053025
30
0
40
4
41
5.33333333333
71
1
72
5
1
Q1
7
romans
210
0
220
0
230
1
50
0
73
2
44
0.96
0
MTEXT
5
A0
100
AcDbEntity
8
0
6
ByLayer
62
256
370
-1
100
AcDbMText
10
38.6151296899
20
17.3852053025
30
0
40
4
41
7.04761777778
71
1
72
5
1
Q2
7
romans
210
0
220
0
230
1
50
0
73
2
44
0.96
0
MTEXT
5
A1
100
AcDbEntity
8
0
6
ByLayer
62
256
370
-1
100
AcDbMText
10
65.6151296899
20
17.3852053025
30
0
40
4
41
7.04761777778
71
1
72
5
1
Q3
7
romans
210
0
220
0
230
1
50
0
73
2
44
0.96
0
MTEXT
5
A2
100
AcDbEntity
8
0
6
ByLayer
62
256
370
-1
100
AcDbMText
10
92.6151296899
20
17.3852053025
30
0
40
4
41
7.23809333333
71
1
72
5
1
Q4
7
romans
210
0
220
0
230
1
50
0
73
2
44
0.96
0
CIRCLE
5
A3
100
AcDbEntity
8
0
6
ByLayer
62
256
370
-1
100
AcDbCircle
10
9.47246366779
20
4.29572701033
40
3
0
LINE
5
A4
100
AcDbEntity
8
0
6
ByLayer
62
256
370
-1
100
AcDbLine
10
7.47274416921
20
6.53204584426
11
10.4703271578
21
1.4665454228
0
LINE
5
A5
100
AcDbEntity
8
0
6
ByLayer
62
256
370
-1
100
AcDbLine
10
11.1789845074
20
1.82838296786
11
8.17529193615
21
7.00078625157
0
CIRCLE
5
A6
100
AcDbEntity
8
0
6
ByLayer
62
256
370
-1
100
AcDbCircle
10
19.4724636678
20
4.29572701033
40
3
0
LINE
5
A7
100
AcDbEntity
8
0
6
ByLayer
62
256
370
-1
100
AcDbLine
10
17.4727441692
20
6.53204584426
11
20.4703271578
21
1.4665454228
0
LINE
5
A8
100
AcDbEntity
8
0
6
ByLayer
62
256
370
-1
100
AcDbLine
10
21.1789845074
20
1.82838296786
11
18.1752919361
21
7.00078625157
0
LINE
5
A9
100
AcDbEntity
8
0
6
ByLayer
62
256
370
-1
100
AcDbLine
10
9.47973220333
20
7.29571820505
11
9.48971425069
21
7.29567741282
0
LINE
5
AA
100
AcDbEntity
8
0
6
ByLayer
62
256
370
-1
100
AcDbLine
10
9.37027093846
20
10.2939110356
11
12.3682439223
21
10.2939110356
0
LINE
5
AB
100
AcDbEntity
8
0
6
ByLayer
62
256
370
-1
100
AcDbLine
10
9.37027093846
20
7.29408344149
11
9.37027093846
21
10.2939110356
0
LINE
5
AC
100
AcDbEntity
8
0
6
ByLayer
62
256
370
-1
100
AcDbLine
10
19.4724707954
20
10.2939110356
11
16.4682439223
21
10.2939110356
0
LINE
5
AD
100
AcDbEntity
8
0
6
ByLayer
62
256
370
-1
100
AcDbLine
10
19.4724707954
20
7.29408344149
11
19.4724707954
21
10.2939110356
0
LINE
5
AE
100
AcDbEntity
8
0
6
ByLayer
62
256
370
-1
100
AcDbLine
10
12.3682439223
20
10.2939110356
11
16.1682439223
21
9.1539110356
0
CIRCLE
5
AF
100
AcDbEntity
8
0
6
ByLayer
62
256
370
-1
100
AcDbCircle
10
36.4724636678
20
4.29572701033
40
3
0
LINE
5
B0
100
AcDbEntity
8
0
6
ByLayer
62
256
370
-1
100
AcDbLine
10
34.4727441692
20
6.53204584426
11
37.4703271578
21
1.4665454228
0
LINE
5
B1
100
AcDbEntity
8
0
6
ByLayer
62
256
370
-1
100
AcDbLine
10
38.1789845074
20
1.82838296786
11
35.1752919361
21
7.00078625157
0
CIRCLE
5
B2
100
AcDbEntity
8
0
6
ByLayer
62
256
370
-1
100
AcDbCircle
10
46.4724636678
20
4.29572701033
40
3
0
LINE
5
B3
100
AcDbEntity
8
0
6
ByLayer
62
256
370
-1
100
AcDbLine
10
44.4727441692
20
6.53204584426
11
47.4703271578
21
1.4665454228
0
LINE
5
B4
100
AcDbEntity
8
0
6
ByLayer
62
256
370
-1
100
AcDbLine
10
48.1789845074
20
1.82838296786
11
45.1752919361
21
7.00078625157
0
LINE
5
B5
100
AcDbEntity
8
0
6
ByLayer
62
256
370
-1
100
AcDbLine
10
36.4797322033
20
7.29571820505
11
36.4897142507
21
7.29567741282
0
LINE
5
B6
100
AcDbEntity
8
0
6
ByLayer
62
256
370
-1
100
AcDbLine
10
36.3702709385
20
10.2939110356
11
39.3682439223
21
10.2939110356
0
LINE
5
B7
100
AcDbEntity
8
0
6
ByLayer
62
256
370
-1
100
AcDbLine
10
36.3702709385
20
7.29408344149
11
36.3702709385
21
10.2939110356
0
LINE
5
B8
100
AcDbEntity
8
0
6
ByLayer
62
256
370
-1
100
AcDbLine
10
46.4724707954
20
10.2939110356
11
43.4682439223
21
10.2939110356
0
LINE
5
B9
100
AcDbEntity
8
0
6
ByLayer
62
256
370
-1
100
AcDbLine
10
46.4724707954
20
7.29408344149
11
46.4724707954
21
10.2939110356
0
LINE
5
BA
100
AcDbEntity
8
0
6
ByLayer
62
256
370
-1
100
AcDbLine
10
39.3682439223
20
10.2939110356
11
43.1682439223
21
9.1539110356
0
CIRCLE
5
BB
100
AcDbEntity
8
0
6
ByLayer
62
256
370
-1
100
AcDbCircle
10
63.4724636678
20
4.29572701033
40
3
0
LINE
5
BC
100
AcDbEntity
8
0
6
ByLayer
62
256
370
-1
100
AcDbLine
10
61.4727441692
20
6.53204584426
11
64.4703271578
21
1.4665454228
0
LINE
5
BD
100
AcDbEntity
8
0
6
ByLayer
62
256
370
-1
100
AcDbLine
10
65.1789845074
20
1.82838296786
11
62.1752919361
21
7.00078625157
0
CIRCLE
5
BE
100
AcDbEntity
8
0
6
ByLayer
62
256
370
-1
100
AcDbCircle
10
73.4724636678
20
4.29572701033
40
3
0
LINE
5
BF
100
AcDbEntity
8
0
6
ByLayer
62
256
370
-1
100
AcDbLine
10
71.4727441692
20
6.53204584426
11
74.4703271578
21
1.4665454228
0
LINE
5
C0
100
AcDbEntity
8
0
6
ByLayer
62
256
370
-1
100
AcDbLine
10
75.1789845074
20
1.82838296786
11
72.1752919361
21
7.00078625157
0
LINE
5
C1
100
AcDbEntity
8
0
6
ByLayer
62
256
370
-1
100
AcDbLine
10
63.4797322033
20
7.29571820505
11
63.4897142507
21
7.29567741282
0
LINE
5
C2
100
AcDbEntity
8
0
6
ByLayer
62
256
370
-1
100
AcDbLine
10
63.3702709385
20
10.2939110356
11
66.3682439223
21
10.2939110356
0
LINE
5
C3
100
AcDbEntity
8
0
6
ByLayer
62
256
370
-1
100
AcDbLine
10
63.3702709385
20
7.29408344149
11
63.3702709385
21
10.2939110356
0
LINE
5
C4
100
AcDbEntity
8
0
6
ByLayer
62
256
370
-1
100
AcDbLine
10
73.4724707954
20
10.2939110356
11
70.4682439223
21
10.2939110356
0
LINE
5
C5
100
AcDbEntity
8
0
6
ByLayer
62
256
370
-1
100
AcDbLine
10
73.4724707954
20
7.29408344149
11
73.4724707954
21
10.2939110356
0
LINE
5
C6
100
AcDbEntity
8
0
6
ByLayer
62
256
370
-1
100
AcDbLine
10
66.3682439223
20
10.2939110356
11
70.1682439223
21
9.1539110356
0
CIRCLE
5
C7
100
AcDbEntity
8
0
6
ByLayer
62
256
370
-1
100
AcDbCircle
10
90.4724636678
20
4.29572701033
40
3
0
LINE
5
C8
100
AcDbEntity
8
0
6
ByLayer
62
256
370
-1
100
AcDbLine
10
88.4727441692
20
6.53204584426
11
91.4703271578
21
1.4665454228
0
LINE
5
C9
100
AcDbEntity
8
0
6
ByLayer
62
256
370
-1
100
AcDbLine
10
92.1789845074
20
1.82838296786
11
89.1752919361
21
7.00078625157
0
CIRCLE
5
CA
100
AcDbEntity
8
0
6
ByLayer
62
256
370
-1
100
AcDbCircle
10
100.472463668
20
4.29572701033
40
3
0
LINE
5
CB
100
AcDbEntity
8
0
6
ByLayer
62
256
370
-1
100
AcDbLine
10
98.4727441692
20
6.53204584426
11
101.470327158
21
1.4665454228
0
LINE
5
CC
100
AcDbEntity
8
0
6
ByLayer
62
256
370
-1
100
AcDbLine
10
102.178984507
20
1.82838296786
11
99.1752919361
21
7.00078625157
0
LINE
5
CD
100
AcDbEntity
8
0
6
ByLayer
62
256
370
-1
100
AcDbLine
10
90.4797322033
20
7.29571820505
11
90.4897142507
21
7.29567741282
0
LINE
5
CE
100
AcDbEntity
8
0
6
ByLayer
62
256
370
-1
100
AcDbLine
10
90.3702709385
20
10.2939110356
11
93.3682439223
21
10.2939110356
0
LINE
5
CF
100
AcDbEntity
8
0
6
ByLayer
62
256
370
-1
100
AcDbLine
10
90.3702709385
20
7.29408344149
11
90.3702709385
21
10.2939110356
0
LINE
5
D0
100
AcDbEntity
8
0
6
ByLayer
62
256
370
-1
100
AcDbLine
10
100.472470795
20
10.2939110356
11
97.4682439223
21
10.2939110356
0
LINE
5
D1
100
AcDbEntity
8
0
6
ByLayer
62
256
370
-1
100
AcDbLine
10
100.472470795
20
7.29408344149
11
100.472470795
21
10.2939110356
0
LINE
5
D2
100
AcDbEntity
8
0
6
ByLayer
62
256
370
-1
100
AcDbLine
10
93.3682439223
20
10.2939110356
11
97.1682439223
21
9.1539110356
0
LINE
5
D3
100
AcDbEntity
8
0
6
ByLayer
62
256
370
-1
100
AcDbLine
10
110
20
75
11
160
21
75
0
LINE
5
D4
100
AcDbEntity
8
0
6
ByLayer
62
256
370
-1
100
AcDbLine
10
160
20
0
11
160
21
75
0
LINE
5
D5
100
AcDbEntity
8
0
6
ByLayer
62
256
370
-1
100
AcDbLine
10
160
20
0
11
110
21
0
0
LINE
5
D6
100
AcDbEntity
8
TEXTO
6
ByLayer
62
256
370
-1
100
AcDbLine
10
113
20
37
11
118
21
37
0
LINE
5
D7
100
AcDbEntity
8
TEXTO
6
ByLayer
62
256
370
-1
100
AcDbLine
10
118
20
37
11
118
21
32
0
LINE
5
D8
100
AcDbEntity
8
TEXTO
6
ByLayer
62
256
370
-1
100
AcDbLine
10
118
20
32
11
113
21
32
0
LINE
5
D9
100
AcDbEntity
8
TEXTO
6
ByLayer
62
256
370
-1
100
AcDbLine
10
113
20
32
11
113
21
37
0
MTEXT
5
DA
100
AcDbEntity
8
TEXTO
6
ByLayer
62
256
370
-1
100
AcDbMText
10
121
20
38
30
0
40
2
41
17.8974444444
71
1
72
5
1
RUN/STOP
7
romancs
210
0
220
0
230
1
50
0
73
2
44
0.96
0
LINE
5
DB
100
AcDbEntity
8
0
6
ByLayer
62
256
370
-1
100
AcDbLine
10
160
20
0
11
160
21
75
0
CIRCLE
5
DC
100
AcDbEntity
8
0
6
ByLayer
62
256
370
-1
100
AcDbCircle
10
164.201042104
20
69.3996273637
40
3
0
LINE
5
DD
100
AcDbEntity
8
0
6
ByLayer
62
256
370
-1
100
AcDbLine
10
162.201322605
20
67.1633085298
11
165.198905594
21
72.2288089513
0
LINE
5
DE
100
AcDbEntity
8
0
6
ByLayer
62
256
370
-1
100
AcDbLine
10
165.907562943
20
71.8669714062
11
162.903870372
21
66.6945681225
0
CIRCLE
5
DF
100
AcDbEntity
8
0
6
ByLayer
62
256
370
-1
100
AcDbCircle
10
172.201042104
20
69.3996273637
40
3
0
LINE
5
E0
100
AcDbEntity
8
0
6
ByLayer
62
256
370
-1
100
AcDbLine
10
170.201322605
20
67.1633085298
11
173.198905594
21
72.2288089513
0
LINE
5
E1
100
AcDbEntity
8
0
6
ByLayer
62
256
370
-1
100
AcDbLine
10
173.907562943
20
71.8669714062
11
170.903870372
21
66.6945681225
0
CIRCLE
5
E2
100
AcDbEntity
8
0
6
ByLayer
62
256
370
-1
100
AcDbCircle
10
180.201042104
20
69.3996273637
40
3
0
CIRCLE
5
E3
100
AcDbEntity
8
0
6
ByLayer
62
256
370
-1
100
AcDbCircle
10
188.201042104
20
69.3996273637
40
3
0
LINE
5
E4
100
AcDbEntity
8
0
6
ByLayer
62
256
370
-1
100
AcDbLine
10
186.201322605
20
67.1633085298
11
189.198905594
21
72.2288089513
0
LINE
5
E5
100
AcDbEntity
8
0
6
ByLayer
62
256
370
-1
100
AcDbLine
10
189.907562943
20
71.8669714062
11
186.903870372
21
66.6945681225
0
CIRCLE
5
E6
100
AcDbEntity
8
0
6
ByLayer
62
256
370
-1
100
AcDbCircle
10
196.201042104
20
69.3996273637
40
3
0
LINE
5
E7
100
AcDbEntity
8
0
6
ByLayer
62
256
370
-1
100
AcDbLine
10
194.201322605
20
67.1633085298
11
197.198905594
21
72.2288089513
0
LINE
5
E8
100
AcDbEntity
8
0
6
ByLayer
62
256
370
-1
100
AcDbLine
10
197.907562943
20
71.8669714062
11
194.903870372
21
66.6945681225
0
CIRCLE
5
E9
100
AcDbEntity
8
0
6
ByLayer
62
256
370
-1
100
AcDbCircle
10
204.201042104
20
69.3996273637
40
3
0
CIRCLE
5
EA
100
AcDbEntity
8
0
6
ByLayer
62
256
370
-1
100
AcDbCircle
10
164.770439357
20
5.5997075226
40
3
0
LINE
5
EB
100
AcDbEntity
8
0
6
ByLayer
62
256
370
-1
100
AcDbLine
10
162.770719858
20
3.36338868867
11
165.768302847
21
8.42888911014
0
LINE
5
EC
100
AcDbEntity
8
0
6
ByLayer
62
256
370
-1
100
AcDbLine
10
166.476960197
20
8.06705156507
11
163.473267625
21
2.89464828136
0
CIRCLE
5
ED
100
AcDbEntity
8
0
6
ByLayer
62
256
370
-1
100
AcDbCircle
10
172.770439357
20
5.5997075226
40
3
0
LINE
5
EE
100
AcDbEntity
8
0
6
ByLayer
62
256
370
-1
100
AcDbLine
10
170.770719858
20
3.36338868867
11
173.768302847
21
8.42888911014
0
LINE
5
EF
100
AcDbEntity
8
0
6
ByLayer
62
256
370
-1
100
AcDbLine
10
174.476960197
20
8.06705156507
11
171.473267625
21
2.89464828136
0
CIRCLE
5
F0
100
AcDbEntity
8
0
6
ByLayer
62
256
370
-1
100
AcDbCircle
10
180.770439357
20
5.5997075226
40
3
0
LINE
5
F1
100
AcDbEntity
8
0
6
ByLayer
62
256
370
-1
100
AcDbLine
10
178.770719858
20
3.36338868867
11
181.768302847
21
8.42888911014
0
LINE
5
F2
100
AcDbEntity
8
0
6
ByLayer
62
256
370
-1
100
AcDbLine
10
182.476960197
20
8.06705156507
11
179.473267625
21
2.89464828136
0
CIRCLE
5
F3
100
AcDbEntity
8
0
6
ByLayer
62
256
370
-1
100
AcDbCircle
10
188.770439357
20
5.5997075226
40
3
0
LINE
5
F4
100
AcDbEntity
8
0
6
ByLayer
62
256
370
-1
100
AcDbLine
10
186.770719858
20
3.36338868867
11
189.768302847
21
8.42888911014
0
LINE
5
F5
100
AcDbEntity
8
0
6
ByLayer
62
256
370
-1
100
AcDbLine
10
190.476960197
20
8.06705156507
11
187.473267625
21
2.89464828136
0
CIRCLE
5
F6
100
AcDbEntity
8
0
6
ByLayer
62
256
370
-1
100
AcDbCircle
10
196.770439357
20
5.5997075226
40
3
0
LINE
5
F7
100
AcDbEntity
8
0
6
ByLayer
62
256
370
-1
100
AcDbLine
10
194.770719858
20
3.36338868867
11
197.768302847
21
8.42888911014
0
LINE
5
F8
100
AcDbEntity
8
0
6
ByLayer
62
256
370
-1
100
AcDbLine
10
198.476960197
20
8.06705156507
11
195.473267625
21
2.89464828136
0
CIRCLE
5
F9
100
AcDbEntity
8
0
6
ByLayer
62
256
370
-1
100
AcDbCircle
10
204.770439357
20
5.5997075226
40
3
0
LINE
5
FA
100
AcDbEntity
8
0
6
ByLayer
62
256
370
-1
100
AcDbLine
10
202.770719858
20
3.36338868867
11
205.768302847
21
8.42888911014
0
LINE
5
FB
100
AcDbEntity
8
0
6
ByLayer
62
256
370
-1
100
AcDbLine
10
206.476960197
20
8.06705156507
11
203.473267625
21
2.89464828136
0
LINE
5
FC
100
AcDbEntity
8
0
6
ByLayer
62
256
370
-1
100
AcDbLine
10
160
20
75
11
210
21
75
0
LINE
5
FD
100
AcDbEntity
8
0
6
ByLayer
62
256
370
-1
100
AcDbLine
10
210
20
0
11
210
21
75
0
LINE
5
FE
100
AcDbEntity
8
0
6
ByLayer
62
256
370
-1
100
AcDbLine
10
210
20
0
11
160
21
0
0
CIRCLE
5
FF
100
AcDbEntity
8
0
6
ByLayer
62
256
370
-1
100
AcDbCircle
10
167.34159532
20
20.7210525169
40
3
0
LINE
5
100
100
AcDbEntity
8
0
6
ByLayer
62
256
370
-1
100
AcDbLine
10
165.341875821
20
18.4847336829
11
168.33945881
21
23.5502341044
0
LINE
5
101
100
AcDbEntity
8
0
6
ByLayer
62
256
370
-1
100
AcDbLine
10
169.048116159
20
23.1883965593
11
166.044423588
21
18.0159932756
0
CIRCLE
5
102
100
AcDbEntity
8
0
6
ByLayer
62
256
370
-1
100
AcDbCircle
10
175.34159532
20
20.7210525169
40
3
0
LINE
5
103
100
AcDbEntity
8
0
6
ByLayer
62
256
370
-1
100
AcDbLine
10
173.341875821
20
18.4847336829
11
176.33945881
21
23.5502341044
0
LINE
5
104
100
AcDbEntity
8
0
6
ByLayer
62
256
370
-1
100
AcDbLine
10
177.048116159
20
23.1883965593
11
174.044423588
21
18.0159932756
0
CIRCLE
5
105
100
AcDbEntity
8
0
6
ByLayer
62
256
370
-1
100
AcDbCircle
10
183.34159532
20
20.7210525169
40
3
0
CIRCLE
5
106
100
AcDbEntity
8
0
6
ByLayer
62
256
370
-1
100
AcDbCircle
10
191.34159532
20
20.7210525169
40
3
0
LINE
5
107
100
AcDbEntity
8
0
6
ByLayer
62
256
370
-1
100
AcDbLine
10
189.341875821
20
18.4847336829
11
192.33945881
21
23.5502341044
0
LINE
5
108
100
AcDbEntity
8
0
6
ByLayer
62
256
370
-1
100
AcDbLine
10
193.048116159
20
23.1883965593
11
190.044423588
21
18.0159932756
0
CIRCLE
5
109
100
AcDbEntity
8
0
6
ByLayer
62
256
370
-1
100
AcDbCircle
10
199.34159532
20
20.7210525169
40
3
0
LINE
5
10A
100
AcDbEntity
8
0
6
ByLayer
62
256
370
-1
100
AcDbLine
10
197.341875821
20
18.4847336829
11
200.33945881
21
23.5502341044
0
LINE
5
10B
100
AcDbEntity
8
0
6
ByLayer
62
256
370
-1
100
AcDbLine
10
201.048116159
20
23.1883965593
11
198.044423588
21
18.0159932756
0
MTEXT
5
10C
100
AcDbEntity
8
TEXTO
6
ByLayer
62
256
370
-1
100
AcDbMText
10
161.489639165
20
27.5920032542
30
0
40
4
41
7.79487111111
71
1
72
5
1
PE
7
romancs
210
0
220
0
230
1
50
0
73
2
44
0.96
0
LINE
5
10D
100
AcDbEntity
8
TEXTO
6
ByLayer
62
256
370
-1
100
AcDbLine
10
163
20
37
11
168
21
37
0
LINE
5
10E
100
AcDbEntity
8
TEXTO
6
ByLayer
62
256
370
-1
100
AcDbLine
10
168
20
37
11
168
21
32
0
LINE
5
10F
100
AcDbEntity
8
TEXTO
6
ByLayer
62
256
370
-1
100
AcDbLine
10
168
20
32
11
163
21
32
0
LINE
5
110
100
AcDbEntity
8
TEXTO
6
ByLayer
62
256
370
-1
100
AcDbLine
10
163
20
32
11
163
21
37
0
MTEXT
5
111
100
AcDbEntity
8
TEXTO
6
ByLayer
62
256
370
-1
100
AcDbMText
10
171
20
38
30
0
40
2
41
17.8974444444
71
1
72
5
1
RUN/STOP
7
romancs
210
0
220
0
230
1
50
0
73
2
44
0.96
0
LINE
5
112
100
AcDbEntity
8
0
6
ByLayer
62
256
370
-1
100
AcDbLine
10
210
20
0
11
210
21
75
0
CIRCLE
5
113
100
AcDbEntity
8
0
6
ByLayer
62
256
370
-1
100
AcDbCircle
10
214.201042104
20
69.3996273637
40
3
0
LINE
5
114
100
AcDbEntity
8
0
6
ByLayer
62
256
370
-1
100
AcDbLine
10
212.201322605
20
67.1633085298
11
215.198905594
21
72.2288089513
0
LINE
5
115
100
AcDbEntity
8
0
6
ByLayer
62
256
370
-1
100
AcDbLine
10
215.907562943
20
71.8669714062
11
212.903870372
21
66.6945681225
0
CIRCLE
5
116
100
AcDbEntity
8
0
6
ByLayer
62
256
370
-1
100
AcDbCircle
10
222.201042104
20
69.3996273637
40
3
0
LINE
5
117
100
AcDbEntity
8
0
6
ByLayer
62
256
370
-1
100
AcDbLine
10
220.201322605
20
67.1633085298
11
223.198905594
21
72.2288089513
0
LINE
5
118
100
AcDbEntity
8
0
6
ByLayer
62
256
370
-1
100
AcDbLine
10
223.907562943
20
71.8669714062
11
220.903870372
21
66.6945681225
0
CIRCLE
5
119
100
AcDbEntity
8
0
6
ByLayer
62
256
370
-1
100
AcDbCircle
10
230.201042104
20
69.3996273637
40
3
0
CIRCLE
5
11A
100
AcDbEntity
8
0
6
ByLayer
62
256
370
-1
100
AcDbCircle
10
238.201042104
20
69.3996273637
40
3
0
LINE
5
11B
100
AcDbEntity
8
0
6
ByLayer
62
256
370
-1
100
AcDbLine
10
236.201322605
20
67.1633085298
11
239.198905594
21
72.2288089513
0
LINE
5
11C
100
AcDbEntity
8
0
6
ByLayer
62
256
370
-1
100
AcDbLine
10
239.907562943
20
71.8669714062
11
236.903870372
21
66.6945681225
0
CIRCLE
5
11D
100
AcDbEntity
8
0
6
ByLayer
62
256
370
-1
100
AcDbCircle
10
246.201042104
20
69.3996273637
40
3
0
LINE
5
11E
100
AcDbEntity
8
0
6
ByLayer
62
256
370
-1
100
AcDbLine
10
244.201322605
20
67.1633085298
11
247.198905594
21
72.2288089513
0
LINE
5
11F
100
AcDbEntity
8
0
6
ByLayer
62
256
370
-1
100
AcDbLine
10
247.907562943
20
71.8669714062
11
244.903870372
21
66.6945681225
0
CIRCLE
5
120
100
AcDbEntity
8
0
6
ByLayer
62
256
370
-1
100
AcDbCircle
10
254.201042104
20
69.3996273637
40
3
0
CIRCLE
5
121
100
AcDbEntity
8
0
6
ByLayer
62
256
370
-1
100
AcDbCircle
10
214.770439357
20
5.5997075226
40
3
0
LINE
5
122
100
AcDbEntity
8
0
6
ByLayer
62
256
370
-1
100
AcDbLine
10
212.770719858
20
3.36338868867
11
215.768302847
21
8.42888911014
0
LINE
5
123
100
AcDbEntity
8
0
6
ByLayer
62
256
370
-1
100
AcDbLine
10
216.476960197
20
8.06705156507
11
213.473267625
21
2.89464828136
0
CIRCLE
5
124
100
AcDbEntity
8
0
6
ByLayer
62
256
370
-1
100
AcDbCircle
10
222.770439357
20
5.5997075226
40
3
0
LINE
5
125
100
AcDbEntity
8
0
6
ByLayer
62
256
370
-1
100
AcDbLine
10
220.770719858
20
3.36338868867
11
223.768302847
21
8.42888911014
0
LINE
5
126
100
AcDbEntity
8
0
6
ByLayer
62
256
370
-1
100
AcDbLine
10
224.476960197
20
8.06705156507
11
221.473267625
21
2.89464828136
0
CIRCLE
5
127
100
AcDbEntity
8
0
6
ByLayer
62
256
370
-1
100
AcDbCircle
10
230.770439357
20
5.5997075226
40
3
0
LINE
5
128
100
AcDbEntity
8
0
6
ByLayer
62
256
370
-1
100
AcDbLine
10
228.770719858
20
3.36338868867
11
231.768302847
21
8.42888911014
0
LINE
5
129
100
AcDbEntity
8
0
6
ByLayer
62
256
370
-1
100
AcDbLine
10
232.476960197
20
8.06705156507
11
229.473267625
21
2.89464828136
0
CIRCLE
5
12A
100
AcDbEntity
8
0
6
ByLayer
62
256
370
-1
100
AcDbCircle
10
238.770439357
20
5.5997075226
40
3
0
LINE
5
12B
100
AcDbEntity
8
0
6
ByLayer
62
256
370
-1
100
AcDbLine
10
236.770719858
20
3.36338868867
11
239.768302847
21
8.42888911014
0
LINE
5
12C
100
AcDbEntity
8
0
6
ByLayer
62
256
370
-1
100
AcDbLine
10
240.476960197
20
8.06705156507
11
237.473267625
21
2.89464828136
0
CIRCLE
5
12D
100
AcDbEntity
8
0
6
ByLayer
62
256
370
-1
100
AcDbCircle
10
246.770439357
20
5.5997075226
40
3
0
LINE
5
12E
100
AcDbEntity
8
0
6
ByLayer
62
256
370
-1
100
AcDbLine
10
244.770719858
20
3.36338868867
11
247.768302847
21
8.42888911014
0
LINE
5
12F
100
AcDbEntity
8
0
6
ByLayer
62
256
370
-1
100
AcDbLine
10
248.476960197
20
8.06705156507
11
245.473267625
21
2.89464828136
0
CIRCLE
5
130
100
AcDbEntity
8
0
6
ByLayer
62
256
370
-1
100
AcDbCircle
10
254.770439357
20
5.5997075226
40
3
0
LINE
5
131
100
AcDbEntity
8
0
6
ByLayer
62
256
370
-1
100
AcDbLine
10
252.770719858
20
3.36338868867
11
255.768302847
21
8.42888911014
0
LINE
5
132
100
AcDbEntity
8
0
6
ByLayer
62
256
370
-1
100
AcDbLine
10
256.476960197
20
8.06705156507
11
253.473267625
21
2.89464828136
0
LINE
5
133
100
AcDbEntity
8
0
6
ByLayer
62
256
370
-1
100
AcDbLine
10
210
20
75
11
260
21
75
0
LINE
5
134
100
AcDbEntity
8
0
6
ByLayer
62
256
370
-1
100
AcDbLine
10
260
20
0
11
260
21
75
0
LINE
5
135
100
AcDbEntity
8
0
6
ByLayer
62
256
370
-1
100
AcDbLine
10
260
20
0
11
210
21
0
0
CIRCLE
5
136
100
AcDbEntity
8
0
6
ByLayer
62
256
370
-1
100
AcDbCircle
10
217.34159532
20
20.7210525169
40
3
0
LINE
5
137
100
AcDbEntity
8
0
6
ByLayer
62
256
370
-1
100
AcDbLine
10
215.341875821
20
18.4847336829
11
218.33945881
21
23.5502341044
0
LINE
5
138
100
AcDbEntity
8
0
6
ByLayer
62
256
370
-1
100
AcDbLine
10
219.048116159
20
23.1883965593
11
216.044423588
21
18.0159932756
0
CIRCLE
5
139
100
AcDbEntity
8
0
6
ByLayer
62
256
370
-1
100
AcDbCircle
10
225.34159532
20
20.7210525169
40
3
0
LINE
5
13A
100
AcDbEntity
8
0
6
ByLayer
62
256
370
-1
100
AcDbLine
10
223.341875821
20
18.4847336829
11
226.33945881
21
23.5502341044
0
LINE
5
13B
100
AcDbEntity
8
0
6
ByLayer
62
256
370
-1
100
AcDbLine
10
227.048116159
20
23.1883965593
11
224.044423588
21
18.0159932756
0
CIRCLE
5
13C
100
AcDbEntity
8
0
6
ByLayer
62
256
370
-1
100
AcDbCircle
10
233.34159532
20
20.7210525169
40
3
0
CIRCLE
5
13D
100
AcDbEntity
8
0
6
ByLayer
62
256
370
-1
100
AcDbCircle
10
241.34159532
20
20.7210525169
40
3
0
LINE
5
13E
100
AcDbEntity
8
0
6
ByLayer
62
256
370
-1
100
AcDbLine
10
239.341875821
20
18.4847336829
11
242.33945881
21
23.5502341044
0
LINE
5
13F
100
AcDbEntity
8
0
6
ByLayer
62
256
370
-1
100
AcDbLine
10
243.048116159
20
23.1883965593
11
240.044423588
21
18.0159932756
0
CIRCLE
5
140
100
AcDbEntity
8
0
6
ByLayer
62
256
370
-1
100
AcDbCircle
10
249.34159532
20
20.7210525169
40
3
0
LINE
5
141
100
AcDbEntity
8
0
6
ByLayer
62
256
370
-1
100
AcDbLine
10
247.341875821
20
18.4847336829
11
250.33945881
21
23.5502341044
0
LINE
5
142
100
AcDbEntity
8
0
6
ByLayer
62
256
370
-1
100
AcDbLine
10
251.048116159
20
23.1883965593
11
248.044423588
21
18.0159932756
0
MTEXT
5
143
100
AcDbEntity
8
TEXTO
6
ByLayer
62
256
370
-1
100
AcDbMText
10
211.489639165
20
27.5920032542
30
0
40
4
41
7.79487111111
71
1
72
5
1
PE
7
romancs
210
0
220
0
230
1
50
0
73
2
44
0.96
0
LINE
5
144
100
AcDbEntity
8
TEXTO
6
ByLayer
62
256
370
-1
100
AcDbLine
10
213
20
37
11
218
21
37
0
LINE
5
145
100
AcDbEntity
8
TEXTO
6
ByLayer
62
256
370
-1
100
AcDbLine
10
218
20
37
11
218
21
32
0
LINE
5
146
100
AcDbEntity
8
TEXTO
6
ByLayer
62
256
370
-1
100
AcDbLine
10
218
20
32
11
213
21
32
0
LINE
5
147
100
AcDbEntity
8
TEXTO
6
ByLayer
62
256
370
-1
100
AcDbLine
10
213
20
32
11
213
21
37
0
MTEXT
5
148
100
AcDbEntity
8
TEXTO
6
ByLayer
62
256
370
-1
100
AcDbMText
10
221
20
38
30
0
40
2
41
17.8974444444
71
1
72
5
1
RUN/STOP
7
romancs
210
0
220
0
230
1
50
0
73
2
44
0.96
0
MTEXT
5
149
100
AcDbEntity
8
TEXTO
6
ByLayer
62
256
370
-1
100
AcDbMText
10
212
20
58
30
0
40
2
41
32
71
1
72
5
1
L   = 10.8 ... 28.8 V DC\PI24dc= 25 ... mA\P\PI1, I2= 0/4 ... 20mA\PU1, U2= 0 ... 10V
7
courier
210
0
220
0
230
1
50
0
73
2
44
0.96
0
LINE
5
14A
100
AcDbEntity
8
TEXTO
6
ByLayer
62
256
370
-1
100
AcDbLine
10
216
20
58
11
216
21
56
0
LINE
5
14B
100
AcDbEntity
8
TEXTO
6
ByLayer
62
256
370
-1
100
AcDbLine
10
215
20
57
11
217
21
57
0
LINE
5
14C
100
AcDbEntity
8
0
6
ByLayer
62
256
370
-1
100
AcDbLine
10
260
20
0
11
260
21
75
0
CIRCLE
5
14D
100
AcDbEntity
8
0
6
ByLayer
62
256
370
-1
100
AcDbCircle
10
264.201042104
20
69.3996273637
40
3
0
LINE
5
14E
100
AcDbEntity
8
0
6
ByLayer
62
256
370
-1
100
AcDbLine
10
262.201322605
20
67.1633085298
11
265.198905594
21
72.2288089513
0
LINE
5
14F
100
AcDbEntity
8
0
6
ByLayer
62
256
370
-1
100
AcDbLine
10
265.907562943
20
71.8669714062
11
262.903870372
21
66.6945681225
0
CIRCLE
5
150
100
AcDbEntity
8
0
6
ByLayer
62
256
370
-1
100
AcDbCircle
10
272.201042104
20
69.3996273637
40
3
0
LINE
5
151
100
AcDbEntity
8
0
6
ByLayer
62
256
370
-1
100
AcDbLine
10
270.201322605
20
67.1633085298
11
273.198905594
21
72.2288089513
0
LINE
5
152
100
AcDbEntity
8
0
6
ByLayer
62
256
370
-1
100
AcDbLine
10
273.907562943
20
71.8669714062
11
270.903870372
21
66.6945681225
0
CIRCLE
5
153
100
AcDbEntity
8
0
6
ByLayer
62
256
370
-1
100
AcDbCircle
10
280.201042104
20
69.3996273637
40
3
0
CIRCLE
5
154
100
AcDbEntity
8
0
6
ByLayer
62
256
370
-1
100
AcDbCircle
10
288.201042104
20
69.3996273637
40
3
0
LINE
5
155
100
AcDbEntity
8
0
6
ByLayer
62
256
370
-1
100
AcDbLine
10
286.201322605
20
67.1633085298
11
289.198905594
21
72.2288089513
0
LINE
5
156
100
AcDbEntity
8
0
6
ByLayer
62
256
370
-1
100
AcDbLine
10
289.907562943
20
71.8669714062
11
286.903870372
21
66.6945681225
0
CIRCLE
5
157
100
AcDbEntity
8
0
6
ByLayer
62
256
370
-1
100
AcDbCircle
10
296.201042104
20
69.3996273637
40
3
0
LINE
5
158
100
AcDbEntity
8
0
6
ByLayer
62
256
370
-1
100
AcDbLine
10
294.201322605
20
67.1633085298
11
297.198905594
21
72.2288089513
0
LINE
5
159
100
AcDbEntity
8
0
6
ByLayer
62
256
370
-1
100
AcDbLine
10
297.907562943
20
71.8669714062
11
294.903870372
21
66.6945681225
0
CIRCLE
5
15A
100
AcDbEntity
8
0
6
ByLayer
62
256
370
-1
100
AcDbCircle
10
304.201042104
20
69.3996273637
40
3
0
CIRCLE
5
15B
100
AcDbEntity
8
0
6
ByLayer
62
256
370
-1
100
AcDbCircle
10
264.770439357
20
5.5997075226
40
3
0
LINE
5
15C
100
AcDbEntity
8
0
6
ByLayer
62
256
370
-1
100
AcDbLine
10
262.770719858
20
3.36338868867
11
265.768302847
21
8.42888911014
0
LINE
5
15D
100
AcDbEntity
8
0
6
ByLayer
62
256
370
-1
100
AcDbLine
10
266.476960197
20
8.06705156507
11
263.473267625
21
2.89464828136
0
CIRCLE
5
15E
100
AcDbEntity
8
0
6
ByLayer
62
256
370
-1
100
AcDbCircle
10
272.770439357
20
5.5997075226
40
3
0
LINE
5
15F
100
AcDbEntity
8
0
6
ByLayer
62
256
370
-1
100
AcDbLine
10
270.770719858
20
3.36338868867
11
273.768302847
21
8.42888911014
0
LINE
5
160
100
AcDbEntity
8
0
6
ByLayer
62
256
370
-1
100
AcDbLine
10
274.476960197
20
8.06705156507
11
271.473267625
21
2.89464828136
0
CIRCLE
5
161
100
AcDbEntity
8
0
6
ByLayer
62
256
370
-1
100
AcDbCircle
10
280.770439357
20
5.5997075226
40
3
0
LINE
5
162
100
AcDbEntity
8
0
6
ByLayer
62
256
370
-1
100
AcDbLine
10
278.770719858
20
3.36338868867
11
281.768302847
21
8.42888911014
0
LINE
5
163
100
AcDbEntity
8
0
6
ByLayer
62
256
370
-1
100
AcDbLine
10
282.476960197
20
8.06705156507
11
279.473267625
21
2.89464828136
0
CIRCLE
5
164
100
AcDbEntity
8
0
6
ByLayer
62
256
370
-1
100
AcDbCircle
10
288.770439357
20
5.5997075226
40
3
0
LINE
5
165
100
AcDbEntity
8
0
6
ByLayer
62
256
370
-1
100
AcDbLine
10
286.770719858
20
3.36338868867
11
289.768302847
21
8.42888911014
0
LINE
5
166
100
AcDbEntity
8
0
6
ByLayer
62
256
370
-1
100
AcDbLine
10
290.476960197
20
8.06705156507
11
287.473267625
21
2.89464828136
0
CIRCLE
5
167
100
AcDbEntity
8
0
6
ByLayer
62
256
370
-1
100
AcDbCircle
10
296.770439357
20
5.5997075226
40
3
0
LINE
5
168
100
AcDbEntity
8
0
6
ByLayer
62
256
370
-1
100
AcDbLine
10
294.770719858
20
3.36338868867
11
297.768302847
21
8.42888911014
0
LINE
5
169
100
AcDbEntity
8
0
6
ByLayer
62
256
370
-1
100
AcDbLine
10
298.476960197
20
8.06705156507
11
295.473267625
21
2.89464828136
0
CIRCLE
5
16A
100
AcDbEntity
8
0
6
ByLayer
62
256
370
-1
100
AcDbCircle
10
304.770439357
20
5.5997075226
40
3
0
LINE
5
16B
100
AcDbEntity
8
0
6
ByLayer
62
256
370
-1
100
AcDbLine
10
302.770719858
20
3.36338868867
11
305.768302847
21
8.42888911014
0
LINE
5
16C
100
AcDbEntity
8
0
6
ByLayer
62
256
370
-1
100
AcDbLine
10
306.476960197
20
8.06705156507
11
303.473267625
21
2.89464828136
0
LINE
5
16D
100
AcDbEntity
8
0
6
ByLayer
62
256
370
-1
100
AcDbLine
10
260
20
75
11
310
21
75
0
LINE
5
16E
100
AcDbEntity
8
0
6
ByLayer
62
256
370
-1
100
AcDbLine
10
310
20
0
11
310
21
75
0
LINE
5
16F
100
AcDbEntity
8
0
6
ByLayer
62
256
370
-1
100
AcDbLine
10
310
20
0
11
260
21
0
0
CIRCLE
5
170
100
AcDbEntity
8
0
6
ByLayer
62
256
370
-1
100
AcDbCircle
10
267.34159532
20
20.7210525169
40
3
0
LINE
5
171
100
AcDbEntity
8
0
6
ByLayer
62
256
370
-1
100
AcDbLine
10
265.341875821
20
18.4847336829
11
268.33945881
21
23.5502341044
0
LINE
5
172
100
AcDbEntity
8
0
6
ByLayer
62
256
370
-1
100
AcDbLine
10
269.048116159
20
23.1883965593
11
266.044423588
21
18.0159932756
0
CIRCLE
5
173
100
AcDbEntity
8
0
6
ByLayer
62
256
370
-1
100
AcDbCircle
10
275.34159532
20
20.7210525169
40
3
0
LINE
5
174
100
AcDbEntity
8
0
6
ByLayer
62
256
370
-1
100
AcDbLine
10
273.341875821
20
18.4847336829
11
276.33945881
21
23.5502341044
0
LINE
5
175
100
AcDbEntity
8
0
6
ByLayer
62
256
370
-1
100
AcDbLine
10
277.048116159
20
23.1883965593
11
274.044423588
21
18.0159932756
0
CIRCLE
5
176
100
AcDbEntity
8
0
6
ByLayer
62
256
370
-1
100
AcDbCircle
10
283.34159532
20
20.7210525169
40
3
0
CIRCLE
5
177
100
AcDbEntity
8
0
6
ByLayer
62
256
370
-1
100
AcDbCircle
10
291.34159532
20
20.7210525169
40
3
0
LINE
5
178
100
AcDbEntity
8
0
6
ByLayer
62
256
370
-1
100
AcDbLine
10
289.341875821
20
18.4847336829
11
292.33945881
21
23.5502341044
0
LINE
5
179
100
AcDbEntity
8
0
6
ByLayer
62
256
370
-1
100
AcDbLine
10
293.048116159
20
23.1883965593
11
290.044423588
21
18.0159932756
0
CIRCLE
5
17A
100
AcDbEntity
8
0
6
ByLayer
62
256
370
-1
100
AcDbCircle
10
299.34159532
20
20.7210525169
40
3
0
LINE
5
17B
100
AcDbEntity
8
0
6
ByLayer
62
256
370
-1
100
AcDbLine
10
297.341875821
20
18.4847336829
11
300.33945881
21
23.5502341044
0
LINE
5
17C
100
AcDbEntity
8
0
6
ByLayer
62
256
370
-1
100
AcDbLine
10
301.048116159
20
23.1883965593
11
298.044423588
21
18.0159932756
0
MTEXT
5
17D
100
AcDbEntity
8
TEXTO
6
ByLayer
62
256
370
-1
100
AcDbMText
10
261.489639165
20
27.5920032542
30
0
40
4
41
7.79487111111
71
1
72
5
1
PE
7
romancs
210
0
220
0
230
1
50
0
73
2
44
0.96
0
LINE
5
17E
100
AcDbEntity
8
TEXTO
6
ByLayer
62
256
370
-1
100
AcDbLine
10
263
20
37
11
268
21
37
0
LINE
5
17F
100
AcDbEntity
8
TEXTO
6
ByLayer
62
256
370
-1
100
AcDbLine
10
268
20
37
11
268
21
32
0
LINE
5
180
100
AcDbEntity
8
TEXTO
6
ByLayer
62
256
370
-1
100
AcDbLine
10
268
20
32
11
263
21
32
0
LINE
5
181
100
AcDbEntity
8
TEXTO
6
ByLayer
62
256
370
-1
100
AcDbLine
10
263
20
32
11
263
21
37
0
MTEXT
5
182
100
AcDbEntity
8
TEXTO
6
ByLayer
62
256
370
-1
100
AcDbMText
10
271
20
38
30
0
40
2
41
17.8974444444
71
1
72
5
1
RUN/STOP
7
romancs
210
0
220
0
230
1
50
0
73
2
44
0.96
0
LINE
5
183
100
AcDbEntity
8
TEXTO
6
ByLayer
62
256
370
-1
100
AcDbLine
10
266
20
58
11
266
21
56
0
LINE
5
184
100
AcDbEntity
8
TEXTO
6
ByLayer
62
256
370
-1
100
AcDbLine
10
265
20
57
11
267
21
57
0
CIRCLE
5
185
100
AcDbEntity
8
0
6
ByLayer
62
256
370
-1
100
AcDbCircle
10
131.308819908
20
69.6669931275
40
3
0
LINE
5
186
100
AcDbEntity
8
0
6
ByLayer
62
256
370
-1
100
AcDbLine
10
129.30910041
20
67.4306742936
11
132.306683398
21
72.496174715
0
LINE
5
187
100
AcDbEntity
8
0
6
ByLayer
62
256
370
-1
100
AcDbLine
10
133.015340748
20
72.13433717
11
130.011648177
21
66.9619338863
0
CIRCLE
5
188
100
AcDbEntity
8
0
6
ByLayer
62
256
370
-1
100
AcDbCircle
10
139.308819908
20
69.6669931275
40
3
0
LINE
5
189
100
AcDbEntity
8
0
6
ByLayer
62
256
370
-1
100
AcDbLine
10
137.30910041
20
67.4306742936
11
140.306683398
21
72.496174715
0
LINE
5
18A
100
AcDbEntity
8
0
6
ByLayer
62
256
370
-1
100
AcDbLine
10
141.015340748
20
72.13433717
11
138.011648177
21
66.9619338863
0
CIRCLE
5
18B
100
AcDbEntity
8
0
6
ByLayer
62
256
370
-1
100
AcDbCircle
10
147.308819908
20
69.6669931275
40
3
0
LINE
5
18C
100
AcDbEntity
8
0
6
ByLayer
62
256
370
-1
100
AcDbLine
10
145.30910041
20
67.4306742936
11
148.306683398
21
72.496174715
0
LINE
5
18D
100
AcDbEntity
8
0
6
ByLayer
62
256
370
-1
100
AcDbLine
10
149.015340748
20
72.13433717
11
146.011648177
21
66.9619338863
0
CIRCLE
5
18E
100
AcDbEntity
8
0
6
ByLayer
62
256
370
-1
100
AcDbCircle
10
155.308819908
20
69.6669931275
40
3
0
LINE
5
18F
100
AcDbEntity
8
0
6
ByLayer
62
256
370
-1
100
AcDbLine
10
153.30910041
20
67.4306742936
11
156.306683398
21
72.496174715
0
LINE
5
190
100
AcDbEntity
8
0
6
ByLayer
62
256
370
-1
100
AcDbLine
10
157.015340748
20
72.13433717
11
154.011648177
21
66.9619338863
0
CIRCLE
5
191
100
AcDbEntity
8
0
6
ByLayer
62
256
370
-1
100
AcDbCircle
10
114.923913706
20
4.74437746975
40
3
0
LINE
5
192
100
AcDbEntity
8
0
6
ByLayer
62
256
370
-1
100
AcDbLine
10
112.924194207
20
6.98069630368
11
115.921777196
21
1.91519588222
0
LINE
5
193
100
AcDbEntity
8
0
6
ByLayer
62
256
370
-1
100
AcDbLine
10
116.630434546
20
2.27703342728
11
113.626741974
21
7.44943671099
0
CIRCLE
5
194
100
AcDbEntity
8
0
6
ByLayer
62
256
370
-1
100
AcDbCircle
10
124.923913706
20
4.74437746975
40
3
0
LINE
5
195
100
AcDbEntity
8
0
6
ByLayer
62
256
370
-1
100
AcDbLine
10
122.924194207
20
6.98069630368
11
125.921777196
21
1.91519588222
0
LINE
5
196
100
AcDbEntity
8
0
6
ByLayer
62
256
370
-1
100
AcDbLine
10
126.630434546
20
2.27703342728
11
123.626741974
21
7.44943671099
0
LINE
5
197
100
AcDbEntity
8
0
6
ByLayer
62
256
370
-1
100
AcDbLine
10
114.931182242
20
7.74436866447
11
114.941164289
21
7.74432787224
0
LINE
5
198
100
AcDbEntity
8
0
6
ByLayer
62
256
370
-1
100
AcDbLine
10
114.821720977
20
10.742561495
11
117.819693961
21
10.742561495
0
LINE
5
199
100
AcDbEntity
8
0
6
ByLayer
62
256
370
-1
100
AcDbLine
10
114.821720977
20
7.74273390091
11
114.821720977
21
10.742561495
0
LINE
5
19A
100
AcDbEntity
8
0
6
ByLayer
62
256
370
-1
100
AcDbLine
10
124.923920834
20
10.742561495
11
121.919693961
21
10.742561495
0
LINE
5
19B
100
AcDbEntity
8
0
6
ByLayer
62
256
370
-1
100
AcDbLine
10
124.923920834
20
7.74273390091
11
124.923920834
21
10.742561495
0
LINE
5
19C
100
AcDbEntity
8
0
6
ByLayer
62
256
370
-1
100
AcDbLine
10
117.819693961
20
10.742561495
11
121.619693961
21
9.60256149502
0
CIRCLE
5
19D
100
AcDbEntity
8
0
6
ByLayer
62
256
370
-1
100
AcDbCircle
10
121.205020138
20
20.6714687791
40
3
0
LINE
5
19E
100
AcDbEntity
8
0
6
ByLayer
62
256
370
-1
100
AcDbLine
10
119.205300639
20
22.907787613
11
122.202883628
21
17.8422871916
0
LINE
5
19F
100
AcDbEntity
8
0
6
ByLayer
62
256
370
-1
100
AcDbLine
10
122.911540978
20
18.2041247366
11
119.907848406
21
23.3765280203
0
CIRCLE
5
1A0
100
AcDbEntity
8
0
6
ByLayer
62
256
370
-1
100
AcDbCircle
10
131.205020138
20
20.6714687791
40
3
0
LINE
5
1A1
100
AcDbEntity
8
0
6
ByLayer
62
256
370
-1
100
AcDbLine
10
129.205300639
20
22.907787613
11
132.202883628
21
17.8422871916
0
LINE
5
1A2
100
AcDbEntity
8
0
6
ByLayer
62
256
370
-1
100
AcDbLine
10
132.911540978
20
18.2041247366
11
129.907848406
21
23.3765280203
0
LINE
5
1A3
100
AcDbEntity
8
0
6
ByLayer
62
256
370
-1
100
AcDbLine
10
121.212288673
20
23.6714599738
11
121.222270721
21
23.6714191816
0
LINE
5
1A4
100
AcDbEntity
8
0
6
ByLayer
62
256
370
-1
100
AcDbLine
10
121.102827409
20
26.6696528044
11
124.100800392
21
26.6696528044
0
LINE
5
1A5
100
AcDbEntity
8
0
6
ByLayer
62
256
370
-1
100
AcDbLine
10
121.102827409
20
23.6698252102
11
121.102827409
21
26.6696528044
0
LINE
5
1A6
100
AcDbEntity
8
0
6
ByLayer
62
256
370
-1
100
AcDbLine
10
131.205027266
20
26.6696528044
11
128.200800392
21
26.6696528044
0
LINE
5
1A7
100
AcDbEntity
8
0
6
ByLayer
62
256
370
-1
100
AcDbLine
10
131.205027266
20
23.6698252102
11
131.205027266
21
26.6696528044
0
LINE
5
1A8
100
AcDbEntity
8
0
6
ByLayer
62
256
370
-1
100
AcDbLine
10
124.100800392
20
26.6696528044
11
127.900800392
21
25.5296528044
0
CIRCLE
5
1A9
100
AcDbEntity
8
0
6
ByLayer
62
256
370
-1
100
AcDbCircle
10
140.272664663
20
20.8957940088
40
3
0
LINE
5
1AA
100
AcDbEntity
8
0
6
ByLayer
62
256
370
-1
100
AcDbLine
10
138.272945165
20
23.1321128427
11
141.270528153
21
18.0666124213
0
LINE
5
1AB
100
AcDbEntity
8
0
6
ByLayer
62
256
370
-1
100
AcDbLine
10
141.979185503
20
18.4284499663
11
138.975492932
21
23.60085325
0
CIRCLE
5
1AC
100
AcDbEntity
8
0
6
ByLayer
62
256
370
-1
100
AcDbCircle
10
150.272664663
20
20.8957940088
40
3
0
LINE
5
1AD
100
AcDbEntity
8
0
6
ByLayer
62
256
370
-1
100
AcDbLine
10
148.272945165
20
23.1321128427
11
151.270528153
21
18.0666124213
0
LINE
5
1AE
100
AcDbEntity
8
0
6
ByLayer
62
256
370
-1
100
AcDbLine
10
151.979185503
20
18.4284499663
11
148.975492932
21
23.60085325
0
LINE
5
1AF
100
AcDbEntity
8
0
6
ByLayer
62
256
370
-1
100
AcDbLine
10
140.279933199
20
23.8957852035
11
140.289915246
21
23.8957444113
0
LINE
5
1B0
100
AcDbEntity
8
0
6
ByLayer
62
256
370
-1
100
AcDbLine
10
140.170471934
20
26.8939780341
11
143.168444918
21
26.8939780341
0
LINE
5
1B1
100
AcDbEntity
8
0
6
ByLayer
62
256
370
-1
100
AcDbLine
10
140.170471934
20
23.89415044
11
140.170471934
21
26.8939780341
0
LINE
5
1B2
100
AcDbEntity
8
0
6
ByLayer
62
256
370
-1
100
AcDbLine
10
150.272671791
20
26.8939780341
11
147.268444918
21
26.8939780341
0
LINE
5
1B3
100
AcDbEntity
8
0
6
ByLayer
62
256
370
-1
100
AcDbLine
10
150.272671791
20
23.89415044
11
150.272671791
21
26.8939780341
0
LINE
5
1B4
100
AcDbEntity
8
0
6
ByLayer
62
256
370
-1
100
AcDbLine
10
143.168444918
20
26.8939780341
11
146.968444918
21
25.7539780341
0
CIRCLE
5
1B5
100
AcDbEntity
8
0
6
ByLayer
62
256
370
-1
100
AcDbCircle
10
146.105120636
20
4.74437746975
40
3
0
LINE
5
1B6
100
AcDbEntity
8
0
6
ByLayer
62
256
370
-1
100
AcDbLine
10
144.105401137
20
6.98069630368
11
147.102984126
21
1.91519588222
0
LINE
5
1B7
100
AcDbEntity
8
0
6
ByLayer
62
256
370
-1
100
AcDbLine
10
147.811641475
20
2.27703342728
11
144.807948904
21
7.44943671099
0
CIRCLE
5
1B8
100
AcDbEntity
8
0
6
ByLayer
62
256
370
-1
100
AcDbCircle
10
156.105120636
20
4.74437746975
40
3
0
LINE
5
1B9
100
AcDbEntity
8
0
6
ByLayer
62
256
370
-1
100
AcDbLine
10
154.105401137
20
6.98069630368
11
157.102984126
21
1.91519588222
0
LINE
5
1BA
100
AcDbEntity
8
0
6
ByLayer
62
256
370
-1
100
AcDbLine
10
157.811641475
20
2.27703342728
11
154.807948904
21
7.44943671099
0
LINE
5
1BB
100
AcDbEntity
8
0
6
ByLayer
62
256
370
-1
100
AcDbLine
10
146.112389171
20
7.74436866447
11
146.122371219
21
7.74432787224
0
LINE
5
1BC
100
AcDbEntity
8
0
6
ByLayer
62
256
370
-1
100
AcDbLine
10
146.002927906
20
10.742561495
11
149.00090089
21
10.742561495
0
LINE
5
1BD
100
AcDbEntity
8
0
6
ByLayer
62
256
370
-1
100
AcDbLine
10
146.002927906
20
7.74273390091
11
146.002927906
21
10.742561495
0
LINE
5
1BE
100
AcDbEntity
8
0
6
ByLayer
62
256
370
-1
100
AcDbLine
10
156.105127763
20
10.742561495
11
153.10090089
21
10.742561495
0
LINE
5
1BF
100
AcDbEntity
8
0
6
ByLayer
62
256
370
-1
100
AcDbLine
10
156.105127763
20
7.74273390091
11
156.105127763
21
10.742561495
0
LINE
5
1C0
100
AcDbEntity
8
0
6
ByLayer
62
256
370
-1
100
AcDbLine
10
149.00090089
20
10.742561495
11
152.80090089
21
9.60256149502
0
LINE
5
1C1
100
AcDbEntity
8
aparatos
6
ByLayer
62
256
370
-1
100
AcDbLine
10
210
20
-22
11
230
21
-22
0
LINE
5
1C2
100
AcDbEntity
8
aparatos
6
ByLayer
62
256
370
-1
100
AcDbLine
10
230
20
-22
11
230
21
-28
0
LINE
5
1C3
100
AcDbEntity
8
aparatos
6
ByLayer
62
256
370
-1
100
AcDbLine
10
230
20
-28
11
210
21
-28
0
LINE
5
1C4
100
AcDbEntity
8
aparatos
6
ByLayer
62
256
370
-1
100
AcDbLine
10
210
20
-28
11
210
21
-22
0
LINE
5
1C5
100
AcDbEntity
8
aparatos
6
ByLayer
62
256
370
-1
100
AcDbLine
10
223
20
-17
11
223
21
-22
0
LINE
5
1C6
100
AcDbEntity
8
aparatos
6
ByLayer
62
256
370
-1
100
AcDbLine
10
223
20
-22
11
222
21
-20
0
LINE
5
1C7
100
AcDbEntity
8
aparatos
6
ByLayer
62
256
370
-1
100
AcDbLine
10
222
20
-20
11
224
21
-20
0
LINE
5
1C8
100
AcDbEntity
8
aparatos
6
ByLayer
62
256
370
-1
100
AcDbLine
10
224
20
-20
11
223
21
-22
0
LINE
5
1C9
100
AcDbEntity
8
cables
6
ByLayer
62
256
370
-1
100
AcDbLine
10
210
20
-25
11
200
21
-25
0
LINE
5
1CA
100
AcDbEntity
8
cables
6
ByLayer
62
256
370
-1
100
AcDbLine
10
200
20
-25
11
200
21
-10
0
LINE
5
1CB
100
AcDbEntity
8
cables
6
ByLayer
62
256
370
-1
100
AcDbLine
10
200
20
-10
11
223
21
-10
0
LINE
5
1CC
100
AcDbEntity
8
cables
6
ByLayer
62
256
370
-1
100
AcDbLine
10
223
20
-10
11
223
21
3
0
LINE
5
1CD
100
AcDbEntity
8
cables
6
ByLayer
62
256
370
-1
100
AcDbLine
10
231
20
3
11
231
21
-10
0
LINE
5
1CE
100
AcDbEntity
8
cables
6
ByLayer
62
256
370
-1
100
AcDbLine
10
231
20
-10
11
240
21
-10
0
LINE
5
1CF
100
AcDbEntity
8
cables
6
ByLayer
62
256
370
-1
100
AcDbLine
10
223
20
-17
11
240
21
-17
0
LINE
5
1D0
100
AcDbEntity
8
cables
6
ByLayer
62
256
370
-1
100
AcDbLine
10
240
20
-10
11
240
21
-17
0
LINE
5
1D1
100
AcDbEntity
8
cables
6
ByLayer
62
1
370
-1
100
AcDbLine
10
240
20
-25
11
360
21
-25
0
LINE
5
1D2
100
AcDbEntity
8
cables
6
ByLayer
62
1
370
-1
100
AcDbLine
10
360
20
90
11
360
21
-25
0
LINE
5
1D3
100
AcDbEntity
8
cables
6
ByLayer
62
1
370
-1
100
AcDbLine
10
264
20
75
11
264
21
90
0
MTEXT
5
1D4
100
AcDbEntity
8
TEXTO
6
ByLayer
62
256
370
-1
100
AcDbMText
10
262
20
58
30
0
40
2
41
28.4999993333
71
1
72
5
1
     OUTPUT 2X\P (0-10V)  or (4-20mA)
7
courier
210
0
220
0
230
1
50
0
73
2
44
0.96
0
LINE
5
1D5
100
AcDbEntity
8
0
6
ByLayer
62
256
370
-1
100
AcDbLine
10
-50
20
0
11
-50
21
75
0
CIRCLE
5
1D6
100
AcDbEntity
8
0
6
ByLayer
62
256
370
-1
100
AcDbCircle
10
-45.7989578961
20
69.3996273637
40
3
0
LINE
5
1D7
100
AcDbEntity
8
0
6
ByLayer
62
256
370
-1
100
AcDbLine
10
-47.7986773947
20
67.1633085298
11
-44.8010944061
21
72.2288089513
0
LINE
5
1D8
100
AcDbEntity
8
0
6
ByLayer
62
256
370
-1
100
AcDbLine
10
-44.0924370565
20
71.8669714062
11
-47.0961296278
21
66.6945681225
0
CIRCLE
5
1D9
100
AcDbEntity
8
0
6
ByLayer
62
256
370
-1
100
AcDbCircle
10
-37.7989578961
20
69.3996273637
40
3
0
LINE
5
1DA
100
AcDbEntity
8
0
6
ByLayer
62
256
370
-1
100
AcDbLine
10
-39.7986773947
20
67.1633085298
11
-36.8010944061
21
72.2288089513
0
LINE
5
1DB
100
AcDbEntity
8
0
6
ByLayer
62
256
370
-1
100
AcDbLine
10
-36.0924370565
20
71.8669714062
11
-39.0961296278
21
66.6945681225
0
LINE
5
1DC
100
AcDbEntity
8
0
6
ByLayer
62
256
370
-1
100
AcDbLine
10
-50
20
75
11
0
21
75
0
LINE
5
1DD
100
AcDbEntity
8
0
6
ByLayer
62
256
370
-1
100
AcDbLine
10
0
20
0
11
0
21
75
0
LINE
5
1DE
100
AcDbEntity
8
0
6
ByLayer
62
256
370
-1
100
AcDbLine
10
0
20
0
11
-50
21
0
0
LINE
5
1DF
100
AcDbEntity
8
0
6
ByLayer
62
256
370
-1
100
AcDbLine
10
0
20
0
11
0
21
75
0
CIRCLE
5
1E0
100
AcDbEntity
8
0
6
ByLayer
62
256
370
-1
100
AcDbCircle
10
-28.6911800918
20
69.6669931275
40
3
0
LINE
5
1E1
100
AcDbEntity
8
0
6
ByLayer
62
256
370
-1
100
AcDbLine
10
-30.6908995904
20
67.4306742936
11
-27.6933166017
21
72.496174715
0
LINE
5
1E2
100
AcDbEntity
8
0
6
ByLayer
62
256
370
-1
100
AcDbLine
10
-26.9846592521
20
72.13433717
11
-29.9883518234
21
66.9619338863
0
CIRCLE
5
1E3
100
AcDbEntity
8
0
6
ByLayer
62
256
370
-1
100
AcDbCircle
10
-20.6911800918
20
69.6669931275
40
3
0
LINE
5
1E4
100
AcDbEntity
8
0
6
ByLayer
62
256
370
-1
100
AcDbLine
10
-22.6908995904
20
67.4306742936
11
-19.6933166017
21
72.496174715
0
LINE
5
1E5
100
AcDbEntity
8
0
6
ByLayer
62
256
370
-1
100
AcDbLine
10
-18.9846592521
20
72.13433717
11
-21.9883518234
21
66.9619338863
0
CIRCLE
5
1E6
100
AcDbEntity
8
0
6
ByLayer
62
256
370
-1
100
AcDbCircle
10
-12.6911800918
20
69.6669931275
40
3
0
LINE
5
1E7
100
AcDbEntity
8
0
6
ByLayer
62
256
370
-1
100
AcDbLine
10
-14.6908995904
20
67.4306742936
11
-11.6933166017
21
72.496174715
0
LINE
5
1E8
100
AcDbEntity
8
0
6
ByLayer
62
256
370
-1
100
AcDbLine
10
-10.9846592521
20
72.13433717
11
-13.9883518234
21
66.9619338863
0
CIRCLE
5
1E9
100
AcDbEntity
8
0
6
ByLayer
62
256
370
-1
100
AcDbCircle
10
-4.69118009178
20
69.6669931275
40
3
0
LINE
5
1EA
100
AcDbEntity
8
0
6
ByLayer
62
256
370
-1
100
AcDbLine
10
-6.69089959036
20
67.4306742936
11
-3.69331660174
21
72.496174715
0
LINE
5
1EB
100
AcDbEntity
8
0
6
ByLayer
62
256
370
-1
100
AcDbLine
10
-2.98465925215
20
72.13433717
11
-5.98835182342
21
66.9619338863
0
MTEXT
5
1EC
100
AcDbEntity
8
TEXTO
6
ByLayer
62
256
370
-1
100
AcDbMText
10
-24
20
66
30
0
40
4
41
3.69231111111
71
1
72
5
1
+
7
romancs
210
0
220
0
230
1
50
0
73
2
44
0.96
0
MTEXT
5
1ED
100
AcDbEntity
8
TEXTO
6
ByLayer
62
256
370
-1
100
AcDbMText
10
-16
20
66
30
0
40
4
41
3.69231111111
71
1
72
5
1
-
7
romancs
210
0
220
0
230
1
50
0
73
2
44
0.96
0
MTEXT
5
1EE
100
AcDbEntity
8
TEXTO
6
ByLayer
62
256
370
-1
100
AcDbMText
10
-8
20
66
30
0
40
4
41
3.69231111111
71
1
72
5
1
-
7
romancs
210
0
220
0
230
1
50
0
73
2
44
0.96
0
MTEXT
5
1EF
100
AcDbEntity
8
TEXTO
6
ByLayer
62
256
370
-1
100
AcDbMText
10
-31
20
66
30
0
40
4
41
3.69231111111
71
1
72
5
1
+
7
romancs
210
0
220
0
230
1
50
0
73
2
44
0.96
0
LINE
5
1F0
100
AcDbEntity
8
cables
6
ByLayer
62
256
370
-1
100
AcDbLine
10
-13
20
75
11
-13
21
100
0
LINE
5
1F1
100
AcDbEntity
8
cables
6
ByLayer
62
1
370
-1
100
AcDbLine
10
-29
20
75
11
-29
21
90
0
LINE
5
1F2
100
AcDbEntity
8
cables
6
ByLayer
62
5
370
-1
100
AcDbLine
10
-100
20
200
11
400
21
200
0
LINE
5
1F3
100
AcDbEntity
8
cables
6
ByLayer
62
8
370
-1
100
AcDbLine
10
-100
20
190
11
400
21
190
0
LINE
5
1F4
100
AcDbEntity
8
cables
6
ByLayer
62
8
370
-1
100
AcDbLine
10
6.30697755044
20
72.3977563938
11
6.30697755044
21
190
0
LINE
5
1F5
100
AcDbEntity
8
cables
6
ByLayer
62
8
370
-1
100
AcDbLine
10
-45.6045468269
20
72.393321459
11
-45.6045468269
21
190
0
LINE
5
1F6
100
AcDbEntity
8
cables
6
ByLayer
62
5
370
-1
100
AcDbLine
10
-37.8237168338
20
72.3995251945
11
-37.8237168338
21
200
0
LINE
5
1F7
100
AcDbEntity
8
cables
6
ByLayer
62
5
370
-1
100
AcDbLine
10
16.6797933501
20
71.3515810981
11
16.6797933501
21
200
0
LINE
5
1F8
100
AcDbEntity
8
cables
6
ByLayer
62
1
370
-1
100
AcDbLine
10
164
20
72
11
164
21
75
0
LINE
5
1F9
100
AcDbEntity
8
cables
6
ByLayer
62
256
370
-1
100
AcDbLine
10
272
20
72
11
272
21
100
0
LINE
5
1FA
100
AcDbEntity
8
cables
6
ByLayer
62
1
370
-1
100
AcDbLine
10
214
20
75
11
214
21
90
0
LINE
5
1FB
100
AcDbEntity
8
cables
6
ByLayer
62
256
370
-1
100
AcDbLine
10
222
20
72
11
222
21
100
0
LINE
5
1FC
100
AcDbEntity
8
cables
6
ByLayer
62
256
370
-1
100
AcDbLine
10
246
20
72
11
246
21
100
0
LINE
5
1FD
100
AcDbEntity
8
cables
6
ByLayer
62
256
370
-1
100
AcDbLine
10
246
20
100
11
272
21
100
0
LINE
5
1FE
100
AcDbEntity
8
cables
6
ByLayer
62
1
370
-1
100
AcDbLine
10
238
20
72
11
238
21
90
0
LINE
5
1FF
100
AcDbEntity
8
cables
6
ByLayer
62
1
370
-1
100
AcDbLine
10
238
20
90
11
264
21
90
0
LINE
5
200
100
AcDbEntity
8
cables
6
ByLayer
62
1
370
-1
100
AcDbLine
10
264
20
75
11
264
21
72
0
LINE
5
201
100
AcDbEntity
8
cables
6
ByLayer
62
1
370
-1
100
AcDbLine
10
164
20
75
11
164
21
90
0
LINE
5
202
100
AcDbEntity
8
cables
6
ByLayer
62
1
370
-1
100
AcDbLine
10
-29
20
90
11
164
21
90
0
LINE
5
203
100
AcDbEntity
8
cables
6
ByLayer
62
256
370
-1
100
AcDbLine
10
172
20
72
11
172
21
100
0
LINE
5
204
100
AcDbEntity
8
cables
6
ByLayer
62
256
370
-1
100
AcDbLine
10
-13
20
100
11
172
21
100
0
LINE
5
205
100
AcDbEntity
8
cables
6
ByLayer
62
1
370
-1
100
AcDbLine
10
188
20
72
11
188
21
90
0
LINE
5
206
100
AcDbEntity
8
cables
6
ByLayer
62
1
370
-1
100
AcDbLine
10
188
20
90
11
214
21
90
0
LINE
5
207
100
AcDbEntity
8
cables
6
ByLayer
62
256
370
-1
100
AcDbLine
10
196
20
72
11
196
21
100
0
LINE
5
208
100
AcDbEntity
8
cables
6
ByLayer
62
256
370
-1
100
AcDbLine
10
196
20
100
11
222
21
100
0
LINE
5
209
100
AcDbEntity
8
cables
6
ByLayer
62
1
370
-1
100
AcDbLine
10
260
20
90
11
360
21
90
0
CIRCLE
5
20A
100
AcDbEntity
8
cables
6
ByLayer
62
256
370
-1
100
AcDbCircle
10
-10.4421052632
20
10.4421052632
40
2.95347337658
0
MTEXT
5
20B
100
AcDbEntity
8
cables
6
ByLayer
62
256
370
-1
100
AcDbMText
10
-14.4290909091
20
19.9349282297
30
0
40
4
41
26.1794888889
71
2
72
5
1
24V OK
7
romancs
210
0
220
0
230
1
50
0
73
1
44
0.96
0
CIRCLE
5
20C
100
AcDbEntity
8
cables
6
ByLayer
62
256
370
-1
100
AcDbCircle
10
-5.95389856459
20
2.79468708134
40
1
0
MTEXT
5
20D
100
AcDbEntity
8
cables
6
ByLayer
62
256
370
-1
100
AcDbMText
10
-30.5289186603
20
52.2484976077
30
0
40
4
41
39.5714266667
71
2
72
5
1
LOGO POWER
7
romans
210
0
220
0
230
1
50
0
73
1
44
0.96
0
MTEXT
5
20E
100
AcDbEntity
8
TEXTO
6
ByLayer
62
256
370
-1
100
AcDbMText
10
187
20
13
30
0
40
2
41
5.90476222222
71
1
72
5
1
M2+
7
romans
210
0
220
0
230
1
50
0
73
1
44
0.96
0
MTEXT
5
20F
100
AcDbEntity
8
TEXTO
6
ByLayer
62
256
370
-1
100
AcDbMText
10
194
20
13
30
0
40
2
41
4.09523777778
71
1
72
5
1
IC2
7
romans
210
0
220
0
230
1
50
0
73
1
44
0.96
0
MTEXT
5
210
100
AcDbEntity
8
TEXTO
6
ByLayer
62
256
370
-1
100
AcDbMText
10
201
20
13
30
0
40
2
41
5.90476222222
71
1
72
5
1
M2-
7
romans
210
0
220
0
230
1
50
0
73
1
44
0.96
0
MTEXT
5
211
100
AcDbEntity
8
TEXTO
6
ByLayer
62
256
370
-1
100
AcDbMText
10
178
20
13
30
0
40
2
41
5.04762
71
1
72
5
1
M1-
7
romans
210
0
220
0
230
1
50
0
73
1
44
0.96
0
MTEXT
5
212
100
AcDbEntity
8
TEXTO
6
ByLayer
62
256
370
-1
100
AcDbMText
10
170
20
13
30
0
40
2
41
3.23809555556
71
1
72
5
1
IC1
7
romans
210
0
220
0
230
1
50
0
73
1
44
0.96
0
MTEXT
5
213
100
AcDbEntity
8
TEXTO
6
ByLayer
62
256
370
-1
100
AcDbMText
10
161
20
13
30
0
40
2
41
5.04762
71
1
72
5
1
M1+
7
romans
210
0
220
0
230
1
50
0
73
1
44
0.96
0
MTEXT
5
214
100
AcDbEntity
8
TEXTO
6
ByLayer
62
256
370
-1
100
AcDbMText
10
212
20
14
30
0
40
2
41
1.14285777778
71
1
72
5
1
I1
7
romans
210
0
220
0
230
1
50
0
73
2
44
0.96
0
MTEXT
5
215
100
AcDbEntity
8
TEXTO
6
ByLayer
62
256
370
-1
100
AcDbMText
10
220
20
14
30
0
40
2
41
2.66666666667
71
1
72
5
1
M1
7
romans
210
0
220
0
230
1
50
0
73
2
44
0.96
0
MTEXT
5
216
100
AcDbEntity
8
TEXTO
6
ByLayer
62
256
370
-1
100
AcDbMText
10
229
20
14
30
0
40
2
41
2.47619111111
71
1
72
5
1
U1
7
romans
210
0
220
0
230
1
50
0
73
2
44
0.96
0
MTEXT
5
217
100
AcDbEntity
8
TEXTO
6
ByLayer
62
256
370
-1
100
AcDbMText
10
237
20
14
30
0
40
2
41
2
71
1
72
5
1
I2
7
romans
210
0
220
0
230
1
50
0
73
2
44
0.96
0
MTEXT
5
218
100
AcDbEntity
8
TEXTO
6
ByLayer
62
256
370
-1
100
AcDbMText
10
144
20
66
30
0
40
3
41
3.42857333333
71
1
72
5
1
I11
7
romans
210
0
220
0
230
1
50
0
73
2
44
0.96
0
MTEXT
5
219
100
AcDbEntity
8
TEXTO
6
ByLayer
62
256
370
-1
100
AcDbMText
10
152
20
66
30
0
40
3
41
4.71428666667
71
1
72
5
1
I12
7
romans
210
0
220
0
230
1
50
0
73
2
44
0.96
0
MTEXT
5
21A
100
AcDbEntity
8
TEXTO
6
ByLayer
62
256
370
-1
100
AcDbMText
10
136
20
66
30
0
40
3
41
4.71428666667
71
1
72
5
1
I10
7
romans
210
0
220
0
230
1
50
0
73
2
44
0.96
0
MTEXT
5
21B
100
AcDbEntity
8
TEXTO
6
ByLayer
62
256
370
-1
100
AcDbMText
10
129
20
66
30
0
40
3
41
2.85714333333
71
1
72
5
1
I9
7
romans
210
0
220
0
230
1
50
0
73
2
44
0.96
0
MTEXT
5
21C
100
AcDbEntity
8
TEXTO
6
ByLayer
62
256
370
-1
100
AcDbMText
10
161
20
66
30
0
40
3
41
5.28571666667
71
1
72
5
1
L+
7
romans
210
0
220
0
230
1
50
0
73
2
44
0.96
0
MTEXT
5
21D
100
AcDbEntity
8
TEXTO
6
ByLayer
62
256
370
-1
100
AcDbMText
10
170
20
66
30
0
40
3
41
2.28571333333
71
1
72
5
1
M
7
romans
210
0
220
0
230
1
50
0
73
2
44
0.96
0
MTEXT
5
21E
100
AcDbEntity
8
TEXTO
6
ByLayer
62
256
370
-1
100
AcDbMText
10
185
20
66
30
0
40
3
41
5.28571666667
71
1
72
5
1
L+
7
romans
210
0
220
0
230
1
50
0
73
2
44
0.96
0
MTEXT
5
21F
100
AcDbEntity
8
TEXTO
6
ByLayer
62
256
370
-1
100
AcDbMText
10
194
20
66
30
0
40
3
41
2.28571333333
71
1
72
5
1
M
7
romans
210
0
220
0
230
1
50
0
73
2
44
0.96
0
MTEXT
5
220
100
AcDbEntity
8
TEXTO
6
ByLayer
62
256
370
-1
100
AcDbMText
10
220
20
66
30
0
40
3
41
2.28571333333
71
1
72
5
1
M
7
romans
210
0
220
0
230
1
50
0
73
2
44
0.96
0
MTEXT
5
221
100
AcDbEntity
8
TEXTO
6
ByLayer
62
256
370
-1
100
AcDbMText
10
235
20
66
30
0
40
3
41
5.28571666667
71
1
72
5
1
L+
7
romans
210
0
220
0
230
1
50
0
73
2
44
0.96
0
MTEXT
5
222
100
AcDbEntity
8
TEXTO
6
ByLayer
62
256
370
-1
100
AcDbMText
10
245
20
14
30
0
40
3
41
5.28571333333
71
1
72
5
1
M2
7
romans
210
0
220
0
230
1
50
0
73
2
44
0.96
0
MTEXT
5
223
100
AcDbEntity
8
TEXTO
6
ByLayer
62
256
370
-1
100
AcDbMText
10
244
20
66
30
0
40
3
41
2.28571333333
71
1
72
5
1
M
7
romans
210
0
220
0
230
1
50
0
73
2
44
0.96
0
MTEXT
5
224
100
AcDbEntity
8
TEXTO
6
ByLayer
62
256
370
-1
100
AcDbMText
10
253
20
14
30
0
40
3
41
5
71
1
72
5
1
U2
7
romans
210
0
220
0
230
1
50
0
73
2
44
0.96
0
MTEXT
5
225
100
AcDbEntity
8
TEXTO
6
ByLayer
62
256
370
-1
100
AcDbMText
10
270
20
66
30
0
40
3
41
2.28571333333
71
1
72
5
1
M
7
romans
210
0
220
0
230
1
50
0
73
2
44
0.96
0
MTEXT
5
226
100
AcDbEntity
8
TEXTO
6
ByLayer
62
256
370
-1
100
AcDbMText
10
303
20
14
30
0
40
3
41
3
71
1
72
5
1
I2
7
romans
210
0
220
0
230
1
50
0
73
2
44
0.96
0
MTEXT
5
227
100
AcDbEntity
8
TEXTO
6
ByLayer
62
256
370
-1
100
AcDbMText
10
295
20
14
30
0
40
3
41
5.28571333333
71
1
72
5
1
M2
7
romans
210
0
220
0
230
1
50
0
73
2
44
0.96
0
MTEXT
5
228
100
AcDbEntity
8
TEXTO
6
ByLayer
62
256
370
-1
100
AcDbMText
10
279
20
14
30
0
40
3
41
1.71428666667
71
1
72
5
1
I1
7
romans
210
0
220
0
230
1
50
0
73
2
44
0.96
0
MTEXT
5
229
100
AcDbEntity
8
0
6
ByLayer
62
256
370
-1
100
AcDbMText
10
56.2041688079
20
63.5097369823
30
0
40
4
41
4.19047555556
71
1
72
5
1
l4
7
romans
210
0
220
0
230
1
50
0
73
2
44
0.96
0
MTEXT
5
22A
100
AcDbEntity
8
0
6
ByLayer
62
256
370
-1
100
AcDbMText
10
123.37887634
20
33.6487844564
30
0
40
3
41
5.28571333333
71
1
72
5
1
Q5
7
romans
210
0
220
0
230
1
50
0
73
2
44
0.96
0
MTEXT
5
22B
100
AcDbEntity
8
0
6
ByLayer
62
256
370
-1
100
AcDbMText
10
115.95712098
20
16.9065849923
30
0
40
3
41
5.28571333333
71
1
72
5
1
Q7
7
romans
210
0
220
0
230
1
50
0
73
2
44
0.96
0
MTEXT
5
22C
100
AcDbEntity
8
0
6
ByLayer
62
256
370
-1
100
AcDbMText
10
146.003062787
20
17.6416539051
30
0
40
3
41
5.28571333333
71
1
72
5
1
Q8
7
romans
210
0
220
0
230
1
50
0
73
2
44
0.96
0
MTEXT
5
22D
100
AcDbEntity
8
0
6
ByLayer
62
256
370
-1
100
AcDbMText
10
142.670846095
20
32.9758087672
30
0
40
3
41
5.14285666667
71
1
72
5
1
Q6
7
romans
210
0
220
0
230
1
50
0
73
2
44
0.96
0
LINE
5
22E
100
AcDbEntity
8
cables
6
ByLayer
62
256
370
-1
100
AcDbLine
10
100
20
-70
11
170
21
-70
0
LINE
5
22F
100
AcDbEntity
8
cables
6
ByLayer
62
256
370
-1
100
AcDbLine
10
170
20
-70
11
170
21
-90
0
LINE
5
230
100
AcDbEntity
8
cables
6
ByLayer
62
256
370
-1
100
AcDbLine
10
170
20
-90
11
100
21
-90
0
LINE
5
231
100
AcDbEntity
8
cables
6
ByLayer
62
256
370
-1
100
AcDbLine
10
100
20
-90
11
100
21
-70
0
LINE
5
232
100
AcDbEntity
8
cables
6
ByLayer
62
256
370
-1
100
AcDbLine
10
60
20
-110
11
190
21
-110
0
LINE
5
233
100
AcDbEntity
8
cables
6
ByLayer
62
256
370
-1
100
AcDbLine
10
190
20
-120
11
60
21
-120
0
LINE
5
234
100
AcDbEntity
8
cables
6
ByLayer
62
256
370
-1
100
AcDbLine
10
60
20
-120
11
60
21
-110
0
MTEXT
5
235
100
AcDbEntity
8
TEXTO
6
ByLayer
62
256
370
-1
100
AcDbMText
10
262
20
14
30
0
40
3
41
7.57143
71
1
72
5
1
V1+
7
romans
210
0
220
0
230
1
50
0
73
2
44
0.96
0
MTEXT
5
236
100
AcDbEntity
8
TEXTO
6
ByLayer
62
256
370
-1
100
AcDbMText
10
294
20
66
30
0
40
3
41
2.28571333333
71
1
72
5
1
M
7
romans
210
0
220
0
230
1
50
0
73
2
44
0.96
0
MTEXT
5
237
100
AcDbEntity
8
TEXTO
6
ByLayer
62
256
370
-1
100
AcDbMText
10
211
20
66
30
0
40
3
41
5.28571666667
71
1
72
5
1
L+
7
romans
210
0
220
0
230
1
50
0
73
2
44
0.96
0
MTEXT
5
238
100
AcDbEntity
8
TEXTO
6
ByLayer
62
256
370
-1
100
AcDbMText
10
261
20
66
30
0
40
3
41
5.28571666667
71
1
72
5
1
L+
7
romans
210
0
220
0
230
1
50
0
73
2
44
0.96
0
MTEXT
5
239
100
AcDbEntity
8
TEXTO
6
ByLayer
62
256
370
-1
100
AcDbMText
10
285
20
66
30
0
40
3
41
6.07692333333
71
1
72
5
1
L+
7
romancs
210
0
220
0
230
1
50
0
73
2
44
0.96
0
MTEXT
5
23A
100
AcDbEntity
8
TEXTO
6
ByLayer
62
256
370
-1
100
AcDbMText
10
120
20
66
30
0
40
3
41
2.28571333333
71
1
72
5
1
M
7
romans
210
0
220
0
230
1
50
0
73
2
44
0.96
0
MTEXT
5
23B
100
AcDbEntity
8
TEXTO
6
ByLayer
62
256
370
-1
100
AcDbMText
10
111
20
66
30
0
40
3
41
5.28571666667
71
1
72
5
1
L+
7
romans
210
0
220
0
230
1
50
0
73
2
44
0.96
0
CIRCLE
5
23C
100
AcDbEntity
8
0
6
ByLayer
62
256
370
-1
100
AcDbCircle
10
114.104912476
20
69.0941954862
40
3
0
MTEXT
5
23D
100
AcDbEntity
8
cables
6
ByLayer
62
256
370
-1
100
AcDbMText
10
-23.4510698565
20
6.31842296651
30
0
40
3
41
26.428572
71
2
72
5
1
22,2-26,4V
7
romans
210
0
220
0
230
1
50
0
73
1
44
0.96
0
MTEXT
5
23E
100
AcDbEntity
8
TEXTO
6
ByLayer
62
256
370
-1
100
AcDbMText
10
-49
20
66
30
0
40
3
41
3.42857333333
71
1
72
5
1
L1
7
romans
210
0
220
0
230
1
50
0
73
2
44
0.96
0
MTEXT
5
23F
100
AcDbEntity
8
TEXTO
6
ByLayer
62
256
370
-1
100
AcDbMText
10
-40
20
66
30
0
40
3
41
2
71
1
72
5
1
N
7
romans
210
0
220
0
230
1
50
0
73
2
44
0.96
0
LINE
5
240
100
AcDbEntity
8
cables230
6
ByLayer
62
256
370
-1
100
AcDbLine
10
170
20
-71
11
167
21
-71
0
LINE
5
241
100
AcDbEntity
8
cables230
6
ByLayer
62
256
370
-1
100
AcDbLine
10
167
20
-71
11
167
21
-72
0
LINE
5
242
100
AcDbEntity
8
cables230
6
ByLayer
62
256
370
-1
100
AcDbLine
10
170
20
-72
11
170
21
-71
0
LINE
5
243
100
AcDbEntity
8
cables230
6
ByLayer
62
256
370
-1
100
AcDbLine
10
170
20
-71
11
167
21
-71
0
LINE
5
244
100
AcDbEntity
8
cables230
6
ByLayer
62
256
370
-1
100
AcDbLine
10
167
20
-71
11
167
21
-73
0
LINE
5
245
100
AcDbEntity
8
cables230
6
ByLayer
62
256
370
-1
100
AcDbLine
10
167
20
-73
11
170
21
-73
0
LINE
5
246
100
AcDbEntity
8
cables230
6
ByLayer
62
256
370
-1
100
AcDbLine
10
170
20
-73
11
170
21
-71
0
LINE
5
247
100
AcDbEntity
8
cables230
6
ByLayer
62
256
370
-1
100
AcDbLine
10
170
20
-75
11
167
21
-75
0
LINE
5
248
100
AcDbEntity
8
cables230
6
ByLayer
62
256
370
-1
100
AcDbLine
10
167
20
-75
11
167
21
-77
0
LINE
5
249
100
AcDbEntity
8
cables230
6
ByLayer
62
256
370
-1
100
AcDbLine
10
167
20
-77
11
170
21
-77
0
LINE
5
24A
100
AcDbEntity
8
cables230
6
ByLayer
62
256
370
-1
100
AcDbLine
10
170
20
-77
11
170
21
-75
0
LINE
5
24B
100
AcDbEntity
8
cables230
6
ByLayer
62
256
370
-1
100
AcDbLine
10
170
20
-89
11
167
21
-89
0
LINE
5
24C
100
AcDbEntity
8
cables230
6
ByLayer
62
256
370
-1
100
AcDbLine
10
167
20
-89
11
167
21
-87
0
LINE
5
24D
100
AcDbEntity
8
cables230
6
ByLayer
62
256
370
-1
100
AcDbLine
10
167
20
-87
11
170
21
-87
0
LINE
5
24E
100
AcDbEntity
8
cables230
6
ByLayer
62
256
370
-1
100
AcDbLine
10
170
20
-87
11
170
21
-89
0
LINE
5
24F
100
AcDbEntity
8
cables230
6
ByLayer
62
256
370
-1
100
AcDbLine
10
170
20
-85
11
167
21
-85
0
LINE
5
250
100
AcDbEntity
8
cables230
6
ByLayer
62
256
370
-1
100
AcDbLine
10
167
20
-85
11
167
21
-83
0
LINE
5
251
100
AcDbEntity
8
cables230
6
ByLayer
62
256
370
-1
100
AcDbLine
10
167
20
-83
11
170
21
-83
0
LINE
5
252
100
AcDbEntity
8
cables230
6
ByLayer
62
256
370
-1
100
AcDbLine
10
170
20
-83
11
170
21
-85
0
LINE
5
253
100
AcDbEntity
8
cables230
6
ByLayer
62
256
370
-1
100
AcDbLine
10
190
20
-110
11
190
21
-120
0
LINE
5
254
100
AcDbEntity
8
cables230
6
ByLayer
62
256
370
-1
100
AcDbLine
10
60
20
-114
11
60
21
-112
0
LINE
5
255
100
AcDbEntity
8
cables230
6
ByLayer
62
256
370
-1
100
AcDbLine
10
60
20
-118
11
60
21
-116
0
LINE
5
256
100
AcDbEntity
8
cables230
6
ByLayer
62
256
370
-1
100
AcDbLine
10
60
20
-113
11
50
21
-113
0
LINE
5
257
100
AcDbEntity
8
cables230
6
ByLayer
62
256
370
-1
100
AcDbLine
10
190
20
-113
11
200
21
-113
0
LINE
5
258
100
AcDbEntity
8
cables230
6
ByLayer
62
256
370
-1
100
AcDbLine
10
200
20
-113
11
200
21
-110
0
LINE
5
259
100
AcDbEntity
8
cables230
6
ByLayer
62
256
370
-1
100
AcDbLine
10
210
20
-110
11
210
21
-117
0
LINE
5
25A
100
AcDbEntity
8
cables230
6
ByLayer
62
256
370
-1
100
AcDbLine
10
210
20
-117
11
190
21
-117
0
LINE
5
25B
100
AcDbEntity
8
cables230
6
ByLayer
62
256
370
-1
100
AcDbLine
10
170
20
-88
11
200
21
-88
0
LINE
5
25C
100
AcDbEntity
8
cables230
6
ByLayer
62
256
370
-1
100
AcDbLine
10
200
20
-88
11
200
21
-110
0
LINE
5
25D
100
AcDbEntity
8
cables230
6
ByLayer
62
256
370
-1
100
AcDbLine
10
170
20
-84
11
210
21
-84
0
LINE
5
25E
100
AcDbEntity
8
cables230
6
ByLayer
62
256
370
-1
100
AcDbLine
10
210
20
-84
11
210
21
-110
0
LINE
5
25F
100
AcDbEntity
8
cables230
6
ByLayer
62
256
370
-1
100
AcDbLine
10
170
20
-72
11
230
21
-72
0
LINE
5
260
100
AcDbEntity
8
cables230
6
ByLayer
62
256
370
-1
100
AcDbLine
10
230
20
-72
11
230
21
-110
0
LINE
5
261
100
AcDbEntity
8
cables230
6
ByLayer
62
256
370
-1
100
AcDbLine
10
170
20
-76
11
220
21
-76
0
LINE
5
262
100
AcDbEntity
8
cables230
6
ByLayer
62
256
370
-1
100
AcDbLine
10
220
20
-76
11
220
21
-110
0
LINE
5
263
100
AcDbEntity
8
cables230
6
ByLayer
62
256
370
-1
100
AcDbLine
10
220
20
-110
11
220
21
-130
0
LINE
5
264
100
AcDbEntity
8
cables230
6
ByLayer
62
256
370
-1
100
AcDbLine
10
220
20
-130
11
165
21
-130
0
LINE
5
265
100
AcDbEntity
8
cables230
6
ByLayer
62
256
370
-1
100
AcDbLine
10
165
20
-130
11
50
21
-130
0
LINE
5
266
100
AcDbEntity
8
cables230
6
ByLayer
62
256
370
-1
100
AcDbLine
10
60
20
-117
11
50
21
-117
0
LINE
5
267
100
AcDbEntity
8
cables230
6
ByLayer
62
256
370
-1
100
AcDbLine
10
50
20
-130
11
50
21
-117
0
LINE
5
268
100
AcDbEntity
8
cables230
6
ByLayer
62
256
370
-1
100
AcDbLine
10
50
20
-113
11
39
21
-113
0
LINE
5
269
100
AcDbEntity
8
cables230
6
ByLayer
62
256
370
-1
100
AcDbLine
10
39
20
-113
11
39
21
-140
0
LINE
5
26A
100
AcDbEntity
8
cables230
6
ByLayer
62
256
370
-1
100
AcDbLine
10
39
20
-140
11
78
21
-140
0
LINE
5
26B
100
AcDbEntity
8
cables230
6
ByLayer
62
256
370
-1
100
AcDbLine
10
78
20
-140
11
230
21
-140
0
LINE
5
26C
100
AcDbEntity
8
cables230
6
ByLayer
62
256
370
-1
100
AcDbLine
10
230
20
-110
11
230
21
-140
0
LINE
5
26D
100
AcDbEntity
8
cables230
6
ByLayer
62
256
370
-1
100
AcDbLine
10
100
20
-71
11
103
21
-71
0
LINE
5
26E
100
AcDbEntity
8
cables230
6
ByLayer
62
256
370
-1
100
AcDbLine
10
103
20
-71
11
103
21
-73
0
LINE
5
26F
100
AcDbEntity
8
cables230
6
ByLayer
62
256
370
-1
100
AcDbLine
10
103
20
-73
11
100
21
-73
0
LINE
5
270
100
AcDbEntity
8
cables230
6
ByLayer
62
256
370
-1
100
AcDbLine
10
100
20
-73
11
100
21
-71
0
LINE
5
271
100
AcDbEntity
8
cables230
6
ByLayer
62
256
370
-1
100
AcDbLine
10
100
20
-74
11
103
21
-74
0
LINE
5
272
100
AcDbEntity
8
cables230
6
ByLayer
62
256
370
-1
100
AcDbLine
10
103
20
-74
11
103
21
-76
0
LINE
5
273
100
AcDbEntity
8
cables230
6
ByLayer
62
256
370
-1
100
AcDbLine
10
103
20
-76
11
100
21
-76
0
LINE
5
274
100
AcDbEntity
8
cables230
6
ByLayer
62
256
370
-1
100
AcDbLine
10
100
20
-76
11
100
21
-74
0
LINE
5
275
100
AcDbEntity
8
cables230
6
ByLayer
62
256
370
-1
100
AcDbLine
10
100
20
-83
11
103
21
-83
0
LINE
5
276
100
AcDbEntity
8
cables230
6
ByLayer
62
256
370
-1
100
AcDbLine
10
103
20
-83
11
103
21
-85
0
LINE
5
277
100
AcDbEntity
8
cables230
6
ByLayer
62
256
370
-1
100
AcDbLine
10
103
20
-85
11
100
21
-85
0
LINE
5
278
100
AcDbEntity
8
cables230
6
ByLayer
62
256
370
-1
100
AcDbLine
10
100
20
-85
11
100
21
-83
0
LINE
5
279
100
AcDbEntity
8
cables230
6
ByLayer
62
256
370
-1
100
AcDbLine
10
100
20
-87
11
103
21
-87
0
LINE
5
27A
100
AcDbEntity
8
cables230
6
ByLayer
62
256
370
-1
100
AcDbLine
10
103
20
-87
11
103
21
-89
0
LINE
5
27B
100
AcDbEntity
8
cables230
6
ByLayer
62
256
370
-1
100
AcDbLine
10
103
20
-89
11
100
21
-89
0
LINE
5
27C
100
AcDbEntity
8
cables230
6
ByLayer
62
256
370
-1
100
AcDbLine
10
100
20
-89
11
100
21
-87
0
LINE
5
27D
100
AcDbEntity
8
cables230
6
ByLayer
62
5
370
-1
100
AcDbLine
10
100
20
-75
11
-50
21
-75
0
LINE
5
27E
100
AcDbEntity
8
cables230
6
ByLayer
62
5
370
-1
100
AcDbLine
10
-50
20
-75
11
-100
21
-75
0
LINE
5
27F
100
AcDbEntity
8
cables230
6
ByLayer
62
5
370
-1
100
AcDbLine
10
-100
20
-75
11
-100
21
200
0
LINE
5
280
100
AcDbEntity
8
cables230
6
ByLayer
62
5
370
-1
100
AcDbLine
10
-100
20
200
11
-120
21
200
0
LINE
5
281
100
AcDbEntity
8
cables230
6
ByLayer
62
253
420
10526884
370
-1
100
AcDbLine
10
-120
20
190
11
-90
21
190
0
LINE
5
282
100
AcDbEntity
8
cables230
6
ByLayer
62
253
420
10526884
370
-1
100
AcDbLine
10
-90
20
190
11
-90
21
-72
0
LINE
5
283
100
AcDbEntity
8
cables230
6
ByLayer
62
253
420
10526884
370
-1
100
AcDbLine
10
100
20
-72
11
-90
21
-72
0
LINE
5
284
100
AcDbEntity
8
cables
6
ByLayer
62
1
370
-1
100
AcDbLine
10
90
20
-84
11
90
21
-60
0
LINE
5
285
100
AcDbEntity
8
cables
6
ByLayer
62
1
370
-1
100
AcDbLine
10
90
20
-60
11
264
21
-60
0
LINE
5
286
100
AcDbEntity
8
cables
6
ByLayer
62
1
370
-1
100
AcDbLine
10
264
20
3
11
264
21
-60
0
LINE
5
287
100
AcDbEntity
8
cables
6
ByLayer
62
1
370
-1
100
AcDbLine
10
90
20
-84
11
90
21
-88
0
LINE
5
288
100
AcDbEntity
8
cables
6
ByLayer
62
1
370
-1
100
AcDbLine
10
90
20
-88
11
100
21
-88
0
LINE
5
289
100
AcDbEntity
8
cables
6
ByLayer
62
256
370
-1
100
AcDbLine
10
94
20
-65
11
94
21
-84
0
LINE
5
28A
100
AcDbEntity
8
cables
6
ByLayer
62
256
370
-1
100
AcDbLine
10
100
20
-84
11
94
21
-84
0
LINE
5
28B
100
AcDbEntity
8
cables
6
ByLayer
62
256
370
-1
100
AcDbLine
10
94
20
-65
11
272
21
-65
0
LINE
5
28C
100
AcDbEntity
8
cables
6
ByLayer
62
256
370
-1
100
AcDbLine
10
272
20
3
11
272
21
-65
0
MTEXT
5
28D
100
AcDbEntity
8
aparatos
6
ByLayer
62
256
370
-1
100
AcDbMText
10
105
20
-71
30
0
40
2
41
0.444444444444
71
1
72
1
1
1
7
standard
210
0
220
0
230
1
50
0
73
2
44
1
0
MTEXT
5
28E
100
AcDbEntity
8
aparatos
6
ByLayer
62
256
370
-1
100
AcDbMText
10
105
20
-74
30
0
40
2
41
0.888888888889
71
1
72
1
1
2
7
standard
210
0
220
0
230
1
50
0
73
2
44
1
0
MTEXT
5
28F
100
AcDbEntity
8
aparatos
6
ByLayer
62
256
370
-1
100
AcDbMText
10
105
20
-83
30
0
40
2
41
2.44444444444
71
1
72
1
1
6-
7
standard
210
0
220
0
230
1
50
0
73
2
44
1
0
MTEXT
5
290
100
AcDbEntity
8
aparatos
6
ByLayer
62
256
370
-1
100
AcDbMText
10
105
20
-87
30
0
40
2
41
2.44444444444
71
1
72
1
1
7+
7
standard
210
0
220
0
230
1
50
0
73
2
44
1
0
MTEXT
5
291
100
AcDbEntity
8
aparatos
6
ByLayer
62
256
370
-1
100
AcDbMText
10
163
20
-71
30
0
40
2
41
2
71
1
72
1
1
21
7
standard
210
0
220
0
230
1
50
0
73
2
44
1
0
MTEXT
5
292
100
AcDbEntity
8
aparatos
6
ByLayer
62
256
370
-1
100
AcDbMText
10
163
20
-75
30
0
40
2
41
2.44444444444
71
1
72
1
1
22
7
standard
210
0
220
0
230
1
50
0
73
2
44
1
0
MTEXT
5
293
100
AcDbEntity
8
aparatos
6
ByLayer
62
256
370
-1
100
AcDbMText
10
163
20
-83
30
0
40
2
41
2.44444444444
71
1
72
1
1
26
7
standard
210
0
220
0
230
1
50
0
73
2
44
1
0
MTEXT
5
294
100
AcDbEntity
8
aparatos
6
ByLayer
62
256
370
-1
100
AcDbMText
10
163
20
-87
30
0
40
2
41
2.44444444444
71
1
72
1
1
27
7
standard
210
0
220
0
230
1
50
0
73
2
44
1
0
LINE
5
295
100
AcDbEntity
8
aparatos
6
ByLayer
62
256
370
-1
100
AcDbLine
10
165
20
-31
11
165
21
3
0
LINE
5
296
100
AcDbEntity
8
aparatos
6
ByLayer
62
256
370
-1
100
AcDbLine
10
173
20
-31
11
173
21
3
0
LINE
5
297
100
AcDbEntity
8
aparatos
6
ByLayer
62
256
370
-1
100
AcDbLine
10
180
20
-31
11
180
21
3
0
LINE
5
298
100
AcDbEntity
8
aparatos
6
ByLayer
62
256
370
-1
100
AcDbLine
10
162
20
-55
11
180
21
-36
0
LINE
5
299
100
AcDbEntity
8
aparatos
6
ByLayer
62
256
370
-1
100
AcDbLine
10
180
20
-36
11
176
21
-38
0
LINE
5
29A
100
AcDbEntity
8
aparatos
6
ByLayer
62
256
370
-1
100
AcDbLine
10
176
20
-38
11
179
21
-40
0
LINE
5
29B
100
AcDbEntity
8
aparatos
6
ByLayer
62
256
370
-1
100
AcDbLine
10
179
20
-40
11
180
21
-36
0
MTEXT
5
29C
100
AcDbEntity
8
aparatos
6
ByLayer
62
256
370
-1
100
AcDbMText
10
167
20
-51
30
0
40
4
41
19.79488
71
2
72
5
1
PT100
7
romancs
210
0
220
0
230
1
50
0
73
1
44
0.96
0
LINE
5
29D
100
AcDbEntity
8
aparatos
6
ByLayer
62
256
370
-1
100
AcDbLine
10
180
20
-43
11
180
21
-49
0
LINE
5
29E
100
AcDbEntity
8
aparatos
6
ByLayer
62
256
370
-1
100
AcDbLine
10
160
20
-43
11
180
21
-43
0
LINE
5
29F
100
AcDbEntity
8
aparatos
6
ByLayer
62
256
370
-1
100
AcDbLine
10
160
20
-49
11
180
21
-49
0
LINE
5
2A0
100
AcDbEntity
8
aparatos
6
ByLayer
62
256
370
-1
100
AcDbLine
10
160
20
-49
11
160
21
-43
0
LINE
5
2A1
100
AcDbEntity
8
aparatos
6
ByLayer
62
256
370
-1
100
AcDbLine
10
160
20
-46
11
150
21
-46
0
LINE
5
2A2
100
AcDbEntity
8
aparatos
6
ByLayer
62
256
370
-1
100
AcDbLine
10
150
20
-46
11
150
21
-31
0
LINE
5
2A3
100
AcDbEntity
8
aparatos
6
ByLayer
62
256
370
-1
100
AcDbLine
10
150
20
-31
11
165
21
-31
0
LINE
5
2A4
100
AcDbEntity
8
aparatos
6
ByLayer
62
256
370
-1
100
AcDbLine
10
165
20
-31
11
173
21
-31
0
LINE
5
2A5
100
AcDbEntity
8
aparatos
6
ByLayer
62
256
370
-1
100
AcDbLine
10
180
20
-46
11
190
21
-46
0
LINE
5
2A6
100
AcDbEntity
8
aparatos
6
ByLayer
62
256
370
-1
100
AcDbLine
10
190
20
-46
11
190
21
-31
0
LINE
5
2A7
100
AcDbEntity
8
aparatos
6
ByLayer
62
256
370
-1
100
AcDbLine
10
190
20
-31
11
180
21
-31
0
CIRCLE
5
2A8
100
AcDbEntity
8
aparatos
6
ByLayer
62
256
370
-1
100
AcDbCircle
10
165
20
-31
40
0.460934411143
0
MTEXT
5
2A9
100
AcDbEntity
8
aparatos
6
ByLayer
62
256
370
-1
100
AcDbMText
10
170
20
-15
30
0
40
2
41
8.61538888889
71
2
72
5
1
ROJO
7
romancs
210
0
220
0
230
1
50
90
73
1
44
0.96
0
MTEXT
5
2AA
100
AcDbEntity
8
aparatos
6
ByLayer
62
256
370
-1
100
AcDbMText
10
177
20
-17
30
0
40
2
41
13.7948711111
71
2
72
5
1
BLANCO
7
romancs
210
0
220
0
230
1
50
90
73
1
44
0.96
0
MTEXT
5
2AB
100
AcDbEntity
8
aparatos
6
ByLayer
62
256
370
-1
100
AcDbMText
10
162
20
-15
30
0
40
2
41
8.61538888889
71
2
72
5
1
ROJO
7
romancs
210
0
220
0
230
1
50
90
73
1
44
0.96
0
MTEXT
5
2AC
100
AcDbEntity
8
TEXTO
6
ByLayer
62
256
370
-1
100
AcDbMText
10
283.998579221
20
13.9090478552
30
0
40
3
41
8.85714333333
71
1
72
5
1
V2+\P
7
romans
210
0
220
0
230
1
50
0
73
2
44
0.96
0
MTEXT
5
2AD
100
AcDbEntity
8
TEXTO
6
ByLayer
62
256
370
-1
100
AcDbMText
10
270
20
14
30
0
40
3
41
4
71
1
72
5
1
M1
7
romans
210
0
220
0
230
1
50
0
73
2
44
0.96
0
LINE
5
2AE
100
AcDbEntity
8
cables
6
ByLayer
62
1
370
-1
100
AcDbLine
10
240
20
-25
11
230
21
-25
0
CIRCLE
5
2AF
100
AcDbEntity
8
cables
6
ByLayer
62
1
370
-1
100
AcDbCircle
10
264
20
90
40
1
0
LINE
5
2B0
100
AcDbEntity
8
aparatos
6
ByLayer
62
256
370
-1
100
AcDbLine
10
189
20
-113
11
187
21
-113
0
LINE
5
2B1
100
AcDbEntity
8
aparatos
6
ByLayer
62
256
370
-1
100
AcDbLine
10
190
20
-117
11
187
21
-117
0
ARC
5
2B2
100
AcDbEntity
8
aparatos
6
ByLayer
62
256
370
-1
100
AcDbCircle
10
187
20
-115
40
2
100
AcDbArc
50
90
51
270
0
LINE
5
2B3
100
AcDbEntity
8
aparatos
6
ByLayer
62
256
370
-1
100
AcDbLine
10
189
20
-113
11
190
21
-113
0
LINE
5
2B4
100
AcDbEntity
8
aparatos
6
ByLayer
62
256
370
-1
100
AcDbLine
10
60
20
-113
11
63
21
-113
0
LINE
5
2B5
100
AcDbEntity
8
aparatos
6
ByLayer
62
256
370
-1
100
AcDbLine
10
60
20
-117
11
63
21
-117
0
ARC
5
2B6
100
AcDbEntity
8
aparatos
6
ByLayer
62
256
370
-1
100
AcDbCircle
10
63
20
-115
40
2
100
AcDbArc
50
270
51
90
0
MTEXT
5
2B7
100
AcDbEntity
8
aparatos
6
ByLayer
62
256
370
-1
100
AcDbMText
10
107
20
-78
30
0
40
2
41
51.8888888889
71
1
72
1
1
REACTANCIA ELECTRNICA REGULABLE\P    
7
standard
210
0
220
0
230
1
50
0
73
2
44
1
0
MTEXT
5
2B8
100
AcDbEntity
8
aparatos
6
ByLayer
62
256
370
-1
100
AcDbMText
10
210
20
-30
30
0
40
4
41
19
71
1
72
1
1
2 KOhm
7
standard
210
0
220
0
230
1
50
0
73
2
44
1
0
LINE
5
2B9
100
AcDbEntity
8
cables230
6
ByLayer
62
253
420
10526884
370
-1
100
AcDbLine
10
114
20
72
11
114
21
190
0
LINE
5
2BA
100
AcDbEntity
8
cables230
6
ByLayer
62
5
370
-1
100
AcDbLine
10
122
20
71
11
122
21
200
0
CIRCLE
5
2BB
100
AcDbEntity
8
cables230
6
ByLayer
62
256
370
-1
100
AcDbCircle
10
122
20
200
40
1
0
CIRCLE
5
2BC
100
AcDbEntity
8
cables230
6
ByLayer
62
253
420
10526884
370
-1
100
AcDbCircle
10
114
20
190
40
1
0
ENDSEC
0
SECTION
2
OBJECTS
0
DICTIONARY
5
C
330
0
100
AcDbDictionary
281
1
3
ACAD_GROUP
350
D
0
DICTIONARY
5
D
330
C
100
AcDbDictionary
281
1
0
ENDSEC
0
EOF
