999
dxflib 2.2.0.0
  0
SECTION
  2
HEADER
  9
$ACADVER
  1
AC1015
  9
$HANDSEED
  5
FFFF
  9
$DIMASZ
 40
2.5
  9
$PLIMMIN
 10
0.0
 20
0.0
  9
$DIMEXE
 40
1.25
  9
$DIMGAP
 40
0.625
  9
$PLIMMAX
 10
210.0
 20
297.0
  9
$INSUNITS
 70
0
  9
$DIMEXO
 40
0.625
  9
$DIMTXT
 40
2.5
  0
ENDSEC
  0
SECTION
  2
TABLES
  0
TABLE
  2
VPORT
  5
8
100
AcDbSymbolTable
 70
1
  0
VPORT
  5
30
100
AcDbSymbolTableRecord
100
AcDbViewportTableRecord
  2
*Active
 70
0
 10
0.0
 20
0.0
 11
1.0
 21
1.0
 12
286.30555555555549
 22
148.5
 13
0.0
 23
0.0
 14
10.0
 24
10.0
 15
10.0
 25
10.0
 16
0.0
 26
0.0
 36
1.0
 17
0.0
 27
0.0
 37
0.0
 40
297.0
 41
1.92798353909465
 42
50.0
 43
0.0
 44
0.0
 50
0.0
 51
0.0
 71
0
 72
100
 73
1
 74
3
 75
1
 76
1
 77
0
 78
0
281
0
 65
1
110
0.0
120
0.0
130
0.0
111
1.0
121
0.0
131
0.0
112
0.0
122
1.0
132
0.0
 79
0
146
0.0
  0
ENDTAB
  0
TABLE
  2
LTYPE
  5
5
100
AcDbSymbolTable
 70
21
  0
LTYPE
  5
14
100
AcDbSymbolTableRecord
100
AcDbLinetypeTableRecord
  2
ByBlock
 70
0
  3

 72
65
 73
0
 40
0.0
  0
LTYPE
  5
15
100
AcDbSymbolTableRecord
100
AcDbLinetypeTableRecord
  2
ByLayer
 70
0
  3

 72
65
 73
0
 40
0.0
  0
LTYPE
  5
16
100
AcDbSymbolTableRecord
100
AcDbLinetypeTableRecord
  2
CONTINUOUS
 70
0
  3
Solid line
 72
65
 73
0
 40
0.0
  0
LTYPE
  5
31
100
AcDbSymbolTableRecord
100
AcDbLinetypeTableRecord
  2
DOT
 70
0
  3
Dot . . . . . . . . . . . . . . . . . . . . . .
 72
65
 73
2
 40
6.3499999999999996
 49
0.0
 74
0
 49
-6.3499999999999996
 74
0
  0
LTYPE
  5
32
100
AcDbSymbolTableRecord
100
AcDbLinetypeTableRecord
  2
DOT2
 70
0
  3
Dot (.5x) .....................................
 72
65
 73
2
 40
3.1749999999999998
 49
0.0
 74
0
 49
-3.1749999999999998
 74
0
  0
LTYPE
  5
33
100
AcDbSymbolTableRecord
100
AcDbLinetypeTableRecord
  2
DOTX2
 70
0
  3
Dot (2x) .  .  .  .  .  .  .  .  .  .  .  .  .
 72
65
 73
2
 40
12.699999999999999
 49
0.0
 74
0
 49
-12.699999999999999
 74
0
  0
LTYPE
  5
34
100
AcDbSymbolTableRecord
100
AcDbLinetypeTableRecord
  2
DASHED
 70
0
  3
Dashed __ __ __ __ __ __ __ __ __ __ __ __ __ _
 72
65
 73
2
 40
19.050000000000001
 49
12.699999999999999
 74
0
 49
-6.3499999999999996
 74
0
  0
LTYPE
  5
35
100
AcDbSymbolTableRecord
100
AcDbLinetypeTableRecord
  2
DASHED2
 70
0
  3
Dashed (.5x) _ _ _ _ _ _ _ _ _ _ _ _ _ _ _ _ _
 72
65
 73
2
 40
9.5250000000000004
 49
6.3499999999999996
 74
0
 49
-3.1749999999999998
 74
0
  0
LTYPE
  5
36
100
AcDbSymbolTableRecord
100
AcDbLinetypeTableRecord
  2
DASHEDX2
 70
0
  3
Dashed (2x) ____  ____  ____  ____  ____  ___
 72
65
 73
2
 40
38.100000000000001
 49
25.399999999999999
 74
0
 49
-12.699999999999999
 74
0
  0
LTYPE
  5
37
100
AcDbSymbolTableRecord
100
AcDbLinetypeTableRecord
  2
DASHDOT
 70
0
  3
Dash dot __ . __ . __ . __ . __ . __ . __ . __
 72
65
 73
4
 40
25.399999999999999
 49
12.699999999999999
 74
0
 49
-6.3499999999999996
 74
0
 49
0.0
 74
0
 49
-6.3499999999999996
 74
0
  0
LTYPE
  5
38
100
AcDbSymbolTableRecord
100
AcDbLinetypeTableRecord
  2
DASHDOT2
 70
0
  3
Dash dot (.5x) _._._._._._._._._._._._._._._.
 72
65
 73
4
 40
12.699999999999999
 49
6.3499999999999996
 74
0
 49
-3.1749999999999998
 74
0
 49
0.0
 74
0
 49
-3.1749999999999998
 74
0
  0
LTYPE
  5
39
100
AcDbSymbolTableRecord
100
AcDbLinetypeTableRecord
  2
DASHDOTX2
 70
0
  3
Dash dot (2x) ____  .  ____  .  ____  .  ___
 72
65
 73
4
 40
50.799999999999997
 49
25.399999999999999
 74
0
 49
-12.699999999999999
 74
0
 49
0.0
 74
0
 49
-12.699999999999999
 74
0
  0
LTYPE
  5
3A
100
AcDbSymbolTableRecord
100
AcDbLinetypeTableRecord
  2
DIVIDE
 70
0
  3
Divide ____ . . ____ . . ____ . . ____ . . ____
 72
65
 73
6
 40
31.75
 49
12.699999999999999
 74
0
 49
-6.3499999999999996
 74
0
 49
0.0
 74
0
 49
-6.3499999999999996
 74
0
 49
0.0
 74
0
 49
-6.3499999999999996
 74
0
  0
LTYPE
  5
3B
100
AcDbSymbolTableRecord
100
AcDbLinetypeTableRecord
  2
DIVIDE2
 70
0
  3
Divide (.5x) __..__..__..__..__..__..__..__.._
 72
65
 73
6
 40
15.875
 49
6.3499999999999996
 74
0
 49
-3.1749999999999998
 74
0
 49
0.0
 74
0
 49
-3.1749999999999998
 74
0
 49
0.0
 74
0
 49
-3.1749999999999998
 74
0
  0
LTYPE
  5
3C
100
AcDbSymbolTableRecord
100
AcDbLinetypeTableRecord
  2
DIVIDEX2
 70
0
  3
Divide (2x) ________  .  .  ________  .  .  _
 72
65
 73
6
 40
63.5
 49
25.399999999999999
 74
0
 49
-12.699999999999999
 74
0
 49
0.0
 74
0
 49
-12.699999999999999
 74
0
 49
0.0
 74
0
 49
-12.699999999999999
 74
0
  0
LTYPE
  5
3D
100
AcDbSymbolTableRecord
100
AcDbLinetypeTableRecord
  2
CENTER
 70
0
  3
Center ____ _ ____ _ ____ _ ____ _ ____ _ ____
 72
65
 73
4
 40
50.799999999999997
 49
31.75
 74
0
 49
-6.3499999999999996
 74
0
 49
6.3499999999999996
 74
0
 49
-6.3499999999999996
 74
0
  0
LTYPE
  5
3E
100
AcDbSymbolTableRecord
100
AcDbLinetypeTableRecord
  2
CENTER2
 70
0
  3
Center (.5x) ___ _ ___ _ ___ _ ___ _ ___ _ ___
 72
65
 73
4
 40
28.574999999999999
 49
19.050000000000001
 74
0
 49
-3.1749999999999998
 74
0
 49
3.1749999999999998
 74
0
 49
-3.1749999999999998
 74
0
  0
LTYPE
  5
3F
100
AcDbSymbolTableRecord
100
AcDbLinetypeTableRecord
  2
CENTERX2
 70
0
  3
Center (2x) ________  __  ________  __  _____
 72
65
 73
4
 40
101.59999999999999
 49
63.5
 74
0
 49
-12.699999999999999
 74
0
 49
12.699999999999999
 74
0
 49
-12.699999999999999
 74
0
  0
LTYPE
  5
40
100
AcDbSymbolTableRecord
100
AcDbLinetypeTableRecord
  2
BORDER
 70
0
  3
Border __ __ . __ __ . __ __ . __ __ . __ __ .
 72
65
 73
6
 40
44.450000000000003
 49
12.699999999999999
 74
0
 49
-6.3499999999999996
 74
0
 49
12.699999999999999
 74
0
 49
-6.3499999999999996
 74
0
 49
0.0
 74
0
 49
-6.3499999999999996
 74
0
  0
LTYPE
  5
41
100
AcDbSymbolTableRecord
100
AcDbLinetypeTableRecord
  2
BORDER2
 70
0
  3
Border (.5x) __.__.__.__.__.__.__.__.__.__.__.
 72
65
 73
6
 40
22.225000000000001
 49
6.3499999999999996
 74
0
 49
-3.1749999999999998
 74
0
 49
6.3499999999999996
 74
0
 49
-3.1749999999999998
 74
0
 49
0.0
 74
0
 49
-3.1749999999999998
 74
0
  0
LTYPE
  5
42
100
AcDbSymbolTableRecord
100
AcDbLinetypeTableRecord
  2
BORDERX2
 70
0
  3
Border (2x) ____  ____  .  ____  ____  .  ___
 72
65
 73
6
 40
88.900000000000006
 49
25.399999999999999
 74
0
 49
-12.699999999999999
 74
0
 49
25.399999999999999
 74
0
 49
-12.699999999999999
 74
0
 49
0.0
 74
0
 49
-12.699999999999999
 74
0
  0
ENDTAB
  0
TABLE
  2
LAYER
  5
2
100
AcDbSymbolTable
 70
1
  0
LAYER
  5
10
100
AcDbSymbolTableRecord
100
AcDbLayerTableRecord
  2
0
 70
0
 62
7
  6
CONTINUOUS
370
0
390
F
  0
ENDTAB
  0
TABLE
  2
STYLE
  5
3
100
AcDbSymbolTable
 70
1
  0
STYLE
  5
11
100
AcDbSymbolTableRecord
100
AcDbTextStyleTableRecord
  2
Standard
 70
0
 40
0.0
 41
0.75
 50
0.0
 71
0
 42
2.5
  3
txt
  4

  0
ENDTAB
  0
TABLE
  2
VIEW
  5
6
100
AcDbSymbolTable
 70
0
  0
ENDTAB
  0
TABLE
  2
UCS
  5
7
100
AcDbSymbolTable
 70
0
  0
ENDTAB
  0
TABLE
  2
APPID
  5
9
100
AcDbSymbolTable
 70
1
  0
APPID
  5
12
100
AcDbSymbolTableRecord
100
AcDbRegAppTableRecord
  2
ACAD
 70
0
  0
ENDTAB
  0
TABLE
  2
DIMSTYLE
  5
A
100
AcDbSymbolTable
 70
1
100
AcDbDimStyleTable
 71
0
  0
DIMSTYLE
105
27
100
AcDbSymbolTableRecord
100
AcDbDimStyleTableRecord
  2
Standard
 41
2.5
 42
0.625
 43
3.75
 44
1.25
 70
0
 73
0
 74
0
 77
1
 78
8
140
2.5
141
2.5
143
0.03937007874016
147
0.625
171
3
172
1
271
2
272
2
274
3
278
44
283
0
284
8
340
11
  0
ENDTAB
  0
TABLE
  2
BLOCK_RECORD
  5
1
100
AcDbSymbolTable
 70
1
  0
BLOCK_RECORD
  5
1F
100
AcDbSymbolTableRecord
100
AcDbBlockTableRecord
  2
*Model_Space
340
22
  0
BLOCK_RECORD
  5
1B
100
AcDbSymbolTableRecord
100
AcDbBlockTableRecord
  2
*Paper_Space
340
1E
  0
BLOCK_RECORD
  5
23
100
AcDbSymbolTableRecord
100
AcDbBlockTableRecord
  2
*Paper_Space0
340
26
  0
BLOCK_RECORD
  5
43
100
AcDbSymbolTableRecord
100
AcDbBlockTableRecord
  2
tux-0
340
0
  0
ENDTAB
  0
ENDSEC
  0
SECTION
  2
BLOCKS
  0
BLOCK
  5
20
100
AcDbEntity
  8
0
100
AcDbBlockBegin
  2
*Model_Space
 70
0
 10
0.0
 20
0.0
 30
0.0
  3
*Model_Space
  1

  0
ENDBLK
  5
21
100
AcDbEntity
  8
0
100
AcDbBlockEnd
  0
BLOCK
  5
1C
100
AcDbEntity
 67
1
  8
0
100
AcDbBlockBegin
  2
*Paper_Space
 70
0
 10
0.0
 20
0.0
 30
0.0
  3
*Paper_Space
  1

  0
ENDBLK
  5
1D
100
AcDbEntity
 67
1
  8
0
100
AcDbBlockEnd
  0
BLOCK
  5
24
100
AcDbEntity
  8
0
100
AcDbBlockBegin
  2
*Paper_Space0
 70
0
 10
0.0
 20
0.0
 30
0.0
  3
*Paper_Space0
  1

  0
ENDBLK
  5
25
100
AcDbEntity
  8
0
100
AcDbBlockEnd
  0
BLOCK
  5
44
100
AcDbEntity
  8
0
100
AcDbBlockBegin
  2
tux-0
 70
0
 10
0.0
 20
0.0
 30
0.0
  3
tux-0
  1

  0
ARC
  5
45
100
AcDbEntity
  8
0
 62
0
370
0
  6
CONTINUOUS
100
AcDbCircle
 10
12.727015
 20
26.404627000000001
 30
0.0
 40
3.9318719999999998
100
AcDbArc
 50
105.141426
 51
177.151825
  0
ARC
  5
46
100
AcDbEntity
  8
0
 62
0
370
0
  6
CONTINUOUS
100
AcDbCircle
 10
12.877936999999999
 20
25.504308000000002
 30
0.0
 40
4.8411840000000002
100
AcDbArc
 50
39.750774
 51
104.082336
  0
ARC
  5
47
100
AcDbEntity
  8
0
 62
0
370
0
  6
CONTINUOUS
100
AcDbCircle
 10
8.2048389999999998
 20
23.946774000000001
 30
0.0
 40
9.5985019999999999
100
AcDbArc
 50
1.511741
 51
28.998494999999998
  0
ARC
  5
48
100
AcDbEntity
  8
0
 62
0
370
0
  6
CONTINUOUS
100
AcDbCircle
 10
21.393749
 20
23.318750000000001
 30
0.0
 40
3.7002220000000001
100
AcDbArc
 50
166.22195400000001
 51
199.23066700000001
  0
ARC
  5
49
100
AcDbEntity
  8
0
 62
0
370
0
  6
CONTINUOUS
100
AcDbCircle
 10
28.341781999999998
 20
24.829452
 30
0.0
 40
10.792622
100
AcDbArc
 50
194.64917
 51
215.90626499999999
  0
ARC
  5
4A
100
AcDbEntity
  8
0
 62
0
370
0
  6
CONTINUOUS
100
AcDbCircle
 10
14.31
 20
11.81
 30
0.0
 40
8.5287869999999995
100
AcDbArc
 50
27.135887
 51
51.665436
  0
ARC
  5
4B
100
AcDbEntity
  8
0
 62
0
370
0
  6
CONTINUOUS
100
AcDbCircle
 10
10.25
 20
10.75
 30
0.0
 40
12.658001000000001
100
AcDbArc
 50
7.4899529999999999
 51
23.020285000000001
  0
ARC
  5
4C
100
AcDbEntity
  8
0
 62
0
370
0
  6
CONTINUOUS
100
AcDbCircle
 10
18.777632000000001
 20
11.196382
 30
0.0
 40
4.198588
100
AcDbArc
 50
310.42114299999997
 51
16.658829000000001
  0
ARC
  5
4D
100
AcDbEntity
  8
0
 62
0
370
0
  6
CONTINUOUS
100
AcDbCircle
 10
20.403659999999999
 20
9.4304880000000004
 30
0.0
 40
1.8022929999999999
100
AcDbArc
 50
218.84750399999999
 51
307.466949
  0
ARC
  5
4E
100
AcDbEntity
  8
0
 62
0
370
0
  6
CONTINUOUS
100
AcDbCircle
 10
20.632560999999999
 20
8.7012260000000001
 30
0.0
 40
1.6811419999999999
100
AcDbArc
 50
50.583835999999998
 51
193.80763200000001
  0
ARC
  5
4F
100
AcDbEntity
  8
0
 62
0
370
0
  6
CONTINUOUS
100
AcDbCircle
 10
25.431249999999999
 20
8.2874999999999996
 30
0.0
 40
2.3489110000000002
100
AcDbArc
 50
187.030472
 51
222.51980599999999
  0
ARC
  5
50
100
AcDbEntity
  8
0
 62
0
370
0
  6
CONTINUOUS
100
AcDbCircle
 10
28.475000000000001
 20
11.5625
 30
0.0
 40
6.8150219999999999
100
AcDbArc
 50
225.52018699999999
 51
239.34263600000003
  0
ARC
  5
51
100
AcDbEntity
  8
0
 62
0
370
0
  6
CONTINUOUS
100
AcDbCircle
 10
24.637501
 20
5.0
 30
0.0
 40
0.788293
100
AcDbArc
 50
297.37771600000002
 51
62.622295000000001
  0
ARC
  5
52
100
AcDbEntity
  8
0
 62
0
370
0
  6
CONTINUOUS
100
AcDbCircle
 10
27.612499
 20
-5.5187489999999997
 30
0.0
 40
9.7841330000000006
100
AcDbArc
 50
119.463425
 51
136.630661
  0
ARC
  5
53
100
AcDbEntity
  8
0
 62
0
370
0
  6
CONTINUOUS
100
AcDbCircle
 10
18.957018000000001
 20
2.8991229999999999
 30
0.0
 40
2.295172
100
AcDbArc
 50
211.49704
 51
312.24276700000001
  0
ARC
  5
54
100
AcDbEntity
  8
0
 62
0
370
0
  6
CONTINUOUS
100
AcDbCircle
 10
20.776759999999999
 20
2.966901
 30
0.0
 40
3.9835859999999998
100
AcDbArc
 50
157.36532600000001
 51
198.54385400000001
  0
ARC
  5
55
100
AcDbEntity
  8
0
 62
0
370
0
  6
CONTINUOUS
100
AcDbCircle
 10
3.2000000000000002
 20
7.2000000000000002
 30
0.0
 40
14.159802000000001
100
AcDbArc
 50
349.00747699999999
 51
5.2676970000000001
  0
ARC
  5
56
100
AcDbEntity
  8
0
 62
0
370
0
  6
CONTINUOUS
100
AcDbCircle
 10
17.850000000000001
 20
8.8499999999999996
 30
0.0
 40
0.6519200000000001
100
AcDbArc
 50
57.52880900000001
 51
212.471191
  0
ARC
  5
57
100
AcDbEntity
  8
0
 62
0
370
0
  6
CONTINUOUS
100
AcDbCircle
 10
6.0499999999999998
 20
6.3499999999999996
 30
0.0
 40
5.0916600000000001
100
AcDbArc
 50
162.27676399999999
 51
187.33438100000001
  0
ARC
  5
58
100
AcDbEntity
  8
0
 62
0
370
0
  6
CONTINUOUS
100
AcDbCircle
 10
4.8837659999999996
 20
8.9759740000000008
 30
0.0
 40
1.0274460000000001
100
AcDbArc
 50
37.398586000000002
 51
149.33433500000001
  0
ARC
  5
59
100
AcDbEntity
  8
0
 62
0
370
0
  6
CONTINUOUS
100
AcDbCircle
 10
-12.5
 20
-6.0
 30
0.0
 40
23.970815999999999
100
AcDbArc
 50
26.778839000000001
 51
40.601295
  0
ARC
  5
5A
100
AcDbEntity
  8
0
 62
0
370
0
  6
CONTINUOUS
100
AcDbCircle
 10
7.7595239999999999
 20
2.8880949999999999
 30
0.0
 40
2.2262219999999999
100
AcDbArc
 50
321.426331
 51
59.183371999999999
  0
ARC
  5
5B
100
AcDbEntity
  8
0
 62
0
370
0
  6
CONTINUOUS
100
AcDbCircle
 10
7.8404759999999998
 20
2.819048
 30
0.0
 40
2.1198830000000002
100
AcDbArc
 50
234.18553199999997
 51
321.52108800000002
  0
ARC
  5
5C
100
AcDbEntity
  8
0
 62
0
370
0
  6
CONTINUOUS
100
AcDbCircle
 10
10.525
 20
8.1875
 30
0.0
 40
7.1972759999999996
100
AcDbArc
 50
140.143463
 51
156.99740600000001
  0
ARC
  5
5D
100
AcDbEntity
  8
0
 62
0
370
0
  6
CONTINUOUS
100
AcDbCircle
 10
-3.7999999999999998
 20
16.930769000000002
 30
0.0
 40
9.7212779999999999
100
AcDbArc
 50
334.85437000000002
 51
350.940155
  0
ARC
  5
5E
100
AcDbEntity
  8
0
 62
0
370
0
  6
CONTINUOUS
100
AcDbCircle
 10
10.541667
 20
14.083333
 30
0.0
 40
4.9210789999999998
100
AcDbArc
 50
136.02915999999999
 51
164.48107899999999
  0
ARC
  5
5F
100
AcDbEntity
  8
0
 62
0
370
0
  6
CONTINUOUS
100
AcDbCircle
 10
-2.0
 20
26.016667000000002
 30
0.0
 40
12.390867999999999
100
AcDbArc
 50
316.580536
 51
328.811554
  0
ARC
  5
60
100
AcDbEntity
  8
0
 62
0
370
0
  6
CONTINUOUS
100
AcDbCircle
 10
6.4375
 20
21.100000000000001
 30
0.0
 40
2.6318069999999998
100
AcDbArc
 50
325.25320399999998
 51
13.178191
  0
ARC
  5
61
100
AcDbEntity
  8
0
 62
0
370
0
  6
CONTINUOUS
100
AcDbCircle
 10
1481.349976
 20
84.25
 30
0.0
 40
1473.678101
100
AcDbArc
 50
182.241974
 51
182.43263200000001
  0
ARC
  5
62
100
AcDbEntity
  8
0
 62
0
370
0
  6
CONTINUOUS
100
AcDbCircle
 10
11.572222
 20
10.527778
 30
0.0
 40
7.119097
100
AcDbArc
 50
289.08535799999999
 51
323.56829800000003
  0
ARC
  5
63
100
AcDbEntity
  8
0
 62
0
370
0
  6
CONTINUOUS
100
AcDbCircle
 10
27.143256999999998
 20
30.218537999999999
 30
0.0
 40
29.124475
100
AcDbArc
 50
220.50958299999999
 51
232.21826200000001
  0
ARC
  5
64
100
AcDbEntity
  8
0
 62
0
370
0
  6
CONTINUOUS
100
AcDbCircle
 10
15.85
 20
12.25
 30
0.0
 40
4.7565739999999996
100
AcDbArc
 50
3.012788
 51
56.142890999999999
  0
ARC
  5
65
100
AcDbEntity
  8
0
 62
0
370
0
  6
CONTINUOUS
100
AcDbCircle
 10
10.6
 20
20.399999999999999
 30
0.0
 40
1.0
100
AcDbArc
 50
143.13009600000001
 51
216.86990399999999
  0
ARC
  5
66
100
AcDbEntity
  8
0
 62
0
370
0
  6
CONTINUOUS
100
AcDbCircle
 10
18.902381999999999
 20
12.683332999999999
 30
0.0
 40
11.554232000000001
100
AcDbArc
 50
141.980042
 51
155.36257900000001
  0
ARC
  5
67
100
AcDbEntity
  8
0
 62
0
370
0
  6
CONTINUOUS
100
AcDbCircle
 10
9.3000000000000007
 20
16.850000000000001
 30
0.0
 40
1.1101799999999999
100
AcDbArc
 50
144.16235399999999
 51
215.83764600000001
  0
ARC
  5
68
100
AcDbEntity
  8
0
 62
0
370
0
  6
CONTINUOUS
100
AcDbCircle
 10
13.725
 20
10.925000000000001
 30
0.0
 40
7.4954150000000004
100
AcDbArc
 50
135.270264
 51
187.859848
  0
ARC
  5
69
100
AcDbEntity
  8
0
 62
0
370
0
  6
CONTINUOUS
100
AcDbCircle
 10
7.1944439999999998
 20
14.627777999999999
 30
0.0
 40
10.198078000000001
100
AcDbArc
 50
11.150778000000001
 51
32.452041999999999
  0
ARC
  5
6A
100
AcDbEntity
  8
0
 62
0
370
0
  6
CONTINUOUS
100
AcDbCircle
 10
15.15
 20
20.399999999999999
 30
0.0
 40
0.7158910000000001
100
AcDbArc
 50
335.22485399999999
 51
77.905242999999999
  0
ARC
  5
6B
100
AcDbEntity
  8
0
 62
0
370
0
  6
CONTINUOUS
100
AcDbCircle
 10
32.492105000000002
 20
10.623684000000001
 30
0.0
 40
21.895337999999999
100
AcDbArc
 50
172.187378
 51
185.56601000000001
  0
ARC
  5
6C
100
AcDbEntity
  8
0
 62
0
370
0
  6
CONTINUOUS
100
AcDbCircle
 10
12.872413999999999
 20
9.6965520000000005
 30
0.0
 40
6.9516119999999999
100
AcDbArc
 50
44.859321999999999
 51
78.149399000000003
  0
ARC
  5
6D
100
AcDbEntity
  8
0
 62
0
370
0
  6
CONTINUOUS
100
AcDbCircle
 10
16.960000000000001
 20
7.9400000000000004
 30
0.0
 40
8.9637720000000005
100
AcDbArc
 50
91.662132
 51
107.262512
  0
ARC
  5
6E
100
AcDbEntity
  8
0
 62
0
370
0
  6
CONTINUOUS
100
AcDbCircle
 10
10.455556
 20
24.883333
 30
0.0
 40
0.951623
100
AcDbArc
 50
7.0420389999999999
 51
154.03331
  0
ARC
  5
6F
100
AcDbEntity
  8
0
 62
0
370
0
  6
CONTINUOUS
100
AcDbCircle
 10
9.7973680000000005
 20
17.889474
 30
0.0
 40
1.293552
100
AcDbArc
 50
202.23431400000001
 51
274.55068999999997
  0
ARC
  5
70
100
AcDbEntity
  8
0
 62
0
370
0
  6
CONTINUOUS
100
AcDbCircle
 10
15.050000000000001
 20
3.7999999999999998
 30
0.0
 40
13.797192000000001
100
AcDbArc
 50
111.917084
 51
121.21302
  0
ARC
  5
71
100
AcDbEntity
  8
0
 62
0
370
0
  6
CONTINUOUS
100
AcDbCircle
 10
9.0694689999999998
 20
6.3606189999999998
 30
0.0
 40
0.870462
100
AcDbArc
 50
278.62435900000003
 51
74.642700000000005
  0
ARC
  5
72
100
AcDbEntity
  8
0
 62
0
370
0
  6
CONTINUOUS
100
AcDbCircle
 10
4.983333
 20
10.5
 30
0.0
 40
1.193152
100
AcDbArc
 50
155.22485399999999
 51
224.07708700000001
  0
ARC
  5
73
100
AcDbEntity
  8
0
 62
0
370
0
  6
CONTINUOUS
100
AcDbCircle
 10
-0.926087
 20
5.0304349999999998
 30
0.0
 40
2.0391490000000001
100
AcDbArc
 50
314.26324499999998
 51
19.168976000000001
  0
ARC
  5
74
100
AcDbEntity
  8
0
 62
0
370
0
  6
CONTINUOUS
100
AcDbCircle
 10
1.1857139999999999
 20
3.3999999999999999
 30
0.0
 40
0.709268
100
AcDbArc
 50
166.12233000000001
 51
279.27261399999998
  0
ARC
  5
75
100
AcDbEntity
  8
0
 62
0
370
0
  6
CONTINUOUS
100
AcDbCircle
 10
15.269231
 20
38.850000000000001
 30
0.0
 40
38.755153999999997
100
AcDbArc
 50
248.87226899999999
 51
256.92227200000002
  0
ARC
  5
76
100
AcDbEntity
  8
0
 62
0
370
0
  6
CONTINUOUS
100
AcDbCircle
 10
2.7714289999999999
 20
9.5071429999999992
 30
0.0
 40
1.2285919999999999
100
AcDbArc
 50
261.56558200000001
 51
359.666901
  0
ARC
  5
77
100
AcDbEntity
  8
0
 62
0
370
0
  6
CONTINUOUS
100
AcDbCircle
 10
2.8394740000000001
 20
4.7447369999999998
 30
0.0
 40
3.5557780000000001
100
AcDbArc
 50
94.003440999999995
 51
117.45637499999999
  0
ARC
  5
78
100
AcDbEntity
  8
0
 62
0
370
0
  6
CONTINUOUS
100
AcDbCircle
 10
13.4
 20
-13.1625
 30
0.0
 40
15.463793000000001
100
AcDbArc
 50
76.918593999999999
 51
103.712036
  0
ARC
  5
79
100
AcDbEntity
  8
0
 62
0
370
0
  6
CONTINUOUS
100
AcDbCircle
 10
12.100942999999999
 20
9.04434
 30
0.0
 40
5.54434
100
AcDbArc
 50
243.68719499999997
 51
288.93438700000002
  0
ARC
  5
7A
100
AcDbEntity
  8
0
 62
0
370
0
  6
CONTINUOUS
100
AcDbCircle
 10
21.924999
 20
8.3249999999999993
 30
0.0
 40
1.2191190000000001
100
AcDbArc
 50
344.53878800000001
 51
58.775948000000007
  0
ARC
  5
7B
100
AcDbEntity
  8
0
 62
0
370
0
  6
CONTINUOUS
100
AcDbCircle
 10
11.6875
 20
13.36875
 30
0.0
 40
8.9547410000000003
100
AcDbArc
 50
339.92611699999998
 51
354.43264799999997
  0
ARC
  5
7C
100
AcDbEntity
  8
0
 62
0
370
0
  6
CONTINUOUS
100
AcDbCircle
 10
10.674467999999999
 20
11.73617
 30
0.0
 40
8.1387599999999996
100
AcDbArc
 50
341.88952599999999
 51
36.699142000000002
  0
ARC
  5
7D
100
AcDbEntity
  8
0
 62
0
370
0
  6
CONTINUOUS
100
AcDbCircle
 10
19.234760000000001
 20
10.310893999999999
 30
0.0
 40
1.3785700000000001
100
AcDbArc
 50
221.35730000000001
 51
258.97430400000002
  0
ARC
  5
7E
100
AcDbEntity
  8
0
 62
0
370
0
  6
CONTINUOUS
100
AcDbCircle
 10
11.869565
 20
11.278261000000001
 30
0.0
 40
6.3696020000000004
100
AcDbArc
 50
138.48663300000001
 51
185.20031700000001
  0
ARC
  5
7F
100
AcDbEntity
  8
0
 62
0
370
0
  6
CONTINUOUS
100
AcDbCircle
 10
13.670968
 20
24.309677000000001
 30
0.0
 40
1.9383980000000001
100
AcDbArc
 50
311.96636999999998
 51
62.028458000000008
  0
ARC
  5
80
100
AcDbEntity
  8
0
 62
0
370
0
  6
CONTINUOUS
100
AcDbCircle
 10
12.1
 20
22.699999999999999
 30
0.0
 40
1.204159
100
AcDbArc
 50
30.362410999999998
 51
138.366455
  0
ARC
  5
81
100
AcDbEntity
  8
0
 62
0
370
0
  6
CONTINUOUS
100
AcDbCircle
 10
10.383333
 20
21.797619000000001
 30
0.0
 40
0.988167
100
AcDbArc
 50
116.20534499999999
 51
233.82037399999996
  0
ARC
  5
82
100
AcDbEntity
  8
0
 62
0
370
0
  6
CONTINUOUS
100
AcDbCircle
 10
12.375
 20
20.324999999999999
 30
0.0
 40
3.3854470000000001
100
AcDbArc
 50
110.308441
 51
135.82350199999999
  0
ARC
  5
83
100
AcDbEntity
  8
0
 62
0
370
0
  6
CONTINUOUS
100
AcDbCircle
 10
9.3499999999999996
 20
24.649999999999999
 30
0.0
 40
2.079663
100
AcDbArc
 50
324.26037600000001
 51
9.6887869999999996
  0
ARC
  5
84
100
AcDbEntity
  8
0
 62
0
370
0
  6
CONTINUOUS
100
AcDbCircle
 10
12.480625
 20
24.056663
 30
0.0
 40
3.1374970000000002
100
AcDbArc
 50
156.65399199999999
 51
208.87178
  0
ARC
  5
85
100
AcDbEntity
  8
0
 62
0
370
0
  6
CONTINUOUS
100
AcDbCircle
 10
13.217642
 20
19.648993999999998
 30
0.0
 40
3.660514
100
AcDbArc
 50
62.638961999999999
 51
91.230980000000002
  0
ARC
  5
86
100
AcDbEntity
  8
0
 62
0
370
0
  6
CONTINUOUS
100
AcDbCircle
 10
15.264609
 20
24.871905999999999
 30
0.0
 40
2.5824189999999998
100
AcDbArc
 50
188.83506800000001
 51
217.23010300000001
  0
ARC
  5
87
100
AcDbEntity
  8
0
 62
0
370
0
  6
CONTINUOUS
100
AcDbCircle
 10
14.115116
 20
24.682558
 30
0.0
 40
1.4175219999999999
100
AcDbArc
 50
70.849288999999999
 51
190.29920999999999
  0
ARC
  5
88
100
AcDbEntity
  8
0
 62
0
370
0
  6
CONTINUOUS
100
AcDbCircle
 10
10.31601
 20
24.450403999999999
 30
0.0
 40
0.3
100
AcDbArc
 50
63.315994000000003
 51
150.122559
  0
ARC
  5
89
100
AcDbEntity
  8
0
 62
0
370
0
  6
CONTINUOUS
100
AcDbCircle
 10
10.057895
 20
23.936841999999999
 30
0.0
 40
0.874777
100
AcDbArc
 50
344.29135100000002
 51
63.315994000000003
  0
ARC
  5
8A
100
AcDbEntity
  8
0
 62
0
370
0
  6
CONTINUOUS
100
AcDbCircle
 10
11.1
 20
24.0
 30
0.0
 40
1.204159
100
AcDbArc
 50
150.122559
 51
232.26332099999999
  0
ARC
  5
8B
100
AcDbEntity
  8
0
 62
0
370
0
  6
CONTINUOUS
100
AcDbCircle
 10
14.212873
 20
24.585545
 30
0.0
 40
0.3
100
AcDbArc
 50
46.369446000000003
 51
103.18042800000001
  0
ARC
  5
8C
100
AcDbEntity
  8
0
 62
0
370
0
  6
CONTINUOUS
100
AcDbCircle
 10
14.35
 20
24.0
 30
0.0
 40
0.901388
100
AcDbArc
 50
103.18042800000001
 51
235.62516799999997
  0
ARC
  5
8D
100
AcDbEntity
  8
0
 62
0
370
0
  6
CONTINUOUS
100
AcDbCircle
 10
13.75
 20
24.100000000000001
 30
0.0
 40
0.970824
100
AcDbArc
 50
291.83279399999998
 51
46.369446000000003
  0
ARC
  5
8E
100
AcDbEntity
  8
0
 62
0
370
0
  6
CONTINUOUS
100
AcDbCircle
 10
14.945522
 20
21.459682999999998
 30
0.0
 40
0.3
100
AcDbArc
 50
294.03259300000002
 51
308.96630900000002
  0
ARC
  5
8F
100
AcDbEntity
  8
0
 62
0
370
0
  6
CONTINUOUS
100
AcDbCircle
 10
14.514286
 20
21.992857000000001
 30
0.0
 40
0.98574
100
AcDbArc
 50
308.96630900000002
 51
66.964957999999996
  0
ARC
  5
90
100
AcDbEntity
  8
0
 62
0
370
0
  6
CONTINUOUS
100
AcDbCircle
 10
10.987847
 20
21.089974000000002
 30
0.0
 40
0.3
100
AcDbArc
 50
244.80934099999999
 51
261.61901899999998
  0
ARC
  5
91
100
AcDbEntity
  8
0
 62
0
370
0
  6
CONTINUOUS
100
AcDbCircle
 10
12.786364000000001
 20
24.913636
 30
0.0
 40
4.5255239999999999
100
AcDbArc
 50
225.244156
 51
244.80934099999999
  0
ARC
  5
92
100
AcDbEntity
  8
0
 62
0
370
0
  6
CONTINUOUS
100
AcDbCircle
 10
13.130515000000001
 20
20.928681999999998
 30
0.0
 40
0.3
100
AcDbArc
 50
110.92012
 51
120.32196
  0
ARC
  5
93
100
AcDbEntity
  8
0
 62
0
370
0
  6
CONTINUOUS
100
AcDbCircle
 10
11.4
 20
23.887499999999999
 30
0.0
 40
3.1277240000000002
100
AcDbArc
 50
261.61901899999998
 51
300.32195999999999
  0
ARC
  5
94
100
AcDbEntity
  8
0
 62
0
370
0
  6
CONTINUOUS
100
AcDbCircle
 10
9.8785710000000009
 20
29.435714999999998
 30
0.0
 40
8.8074010000000005
100
AcDbArc
 50
290.92013500000002
 51
304.75979599999999
  0
ARC
  5
95
100
AcDbEntity
  8
0
 62
0
370
0
  6
CONTINUOUS
100
AcDbCircle
 10
11.379521
 20
20.788561000000001
 30
0.0
 40
1.0
100
AcDbArc
 50
218.74629200000001
 51
251.56507899999997
  0
ARC
  5
96
100
AcDbEntity
  8
0
 62
0
370
0
  6
CONTINUOUS
100
AcDbCircle
 10
11.949999999999999
 20
22.5
 30
0.0
 40
2.8040150000000001
100
AcDbArc
 50
251.56507899999997
 51
291.99111900000003
  0
ARC
  5
97
100
AcDbEntity
  8
0
 62
0
370
0
  6
CONTINUOUS
100
AcDbCircle
 10
5.3499999999999996
 20
15.949999999999999
 30
0.0
 40
6.730899
100
AcDbArc
 50
38.746291999999997
 51
48.613880000000002
  0
ARC
  5
98
100
AcDbEntity
  8
0
 62
0
370
0
  6
CONTINUOUS
100
AcDbCircle
 10
18.999158999999999
 20
12.557426
 30
0.0
 40
9.4817339999999994
100
AcDbArc
 50
114.49633
 51
129.25010700000001
  0
ARC
  5
99
100
AcDbEntity
  8
0
 62
0
370
0
  6
CONTINUOUS
100
AcDbCircle
 10
8.9430420000000002
 20
9.1931639999999994
 30
0.0
 40
3.7020930000000001
100
AcDbArc
 50
263.50045799999998
 51
273.98004200000003
  0
ARC
  5
9A
100
AcDbEntity
  8
0
 62
0
370
0
  6
CONTINUOUS
100
AcDbCircle
 10
28.940781000000001
 20
-4.8805509999999996
 30
0.0
 40
9.9906089999999992
100
AcDbArc
 50
113.231583
 51
127.926872
  0
ARC
  5
9B
100
AcDbEntity
  8
0
 62
0
370
0
  6
CONTINUOUS
100
AcDbCircle
 10
9.1069709999999997
 20
23.999931
 30
0.0
 40
1.817941
100
AcDbArc
 50
337.95315599999998
 51
350.503693
  0
ENDBLK
  5
9C
100
AcDbEntity
  8
0
100
AcDbBlockEnd
  0
ENDSEC
  0
SECTION
  2
ENTITIES
  0
MTEXT
  5
9D
100
AcDbEntity
100
AcDbMText
  8
0
 62
256
370
-1
  6
ByLayer
 10
110.0
 20
260.0
 30
0.0
 40
6.0
 41
100.0
 71
5
 72
0
  1
ESQUEMAS
  7
standard
 50
0.0
 73
1
 44
1.0
  0
MTEXT
  5
9E
100
AcDbEntity
100
AcDbMText
  8
0
 62
256
370
-1
  6
ByLayer
 10
110.0
 20
240.0
 30
0.0
 40
6.0
 41
100.0
 71
5
 72
0
  1
PARA JUEGO CONVIVENCIA
  7
standard
 50
0.0
 73
1
 44
1.0
  0
MTEXT
  5
9F
100
AcDbEntity
100
AcDbMText
  8
0
 62
256
370
-1
  6
ByLayer
 10
40.0
 20
200.0
 30
0.0
 40
3.0
 41
100.0
 71
5
 72
0
  1
1.ESQUEMA ELECTRICO
  7
standard
 50
0.0
 73
1
 44
1.0
  0
MTEXT
  5
A0
100
AcDbEntity
100
AcDbMText
  8
0
 62
256
370
-1
  6
ByLayer
 10
45.250000000000043
 20
189.7500000000002
 30
0.0
 40
3.0
 41
100.0
 71
5
 72
0
  1
2.PLANO DE IMPLANTACION\P
  7
standard
 50
0.0
 73
1
 44
1.0
  0
MTEXT
  5
A1
100
AcDbEntity
100
AcDbMText
  8
0
 62
256
370
-1
  6
ByLayer
 10
30.250000000000032
 20
181.75000000000017
 30
0.0
 40
3.0
 41
100.0
 71
5
 72
0
  1
3.BORNEROS\P
  7
standard
 50
0.0
 73
1
 44
1.0
  0
LINE
  5
A2
100
AcDbEntity
100
AcDbLine
  8
0
 62
256
370
-1
  6
ByLayer
 10
50.0
 20
270.0
 30
0.0
 11
170.0
 21
270.0
 31
0.0
  0
LINE
  5
A3
100
AcDbEntity
100
AcDbLine
  8
0
 62
256
370
-1
  6
ByLayer
 10
170.0
 20
270.0
 30
0.0
 11
170.0
 21
230.0
 31
0.0
  0
LINE
  5
A4
100
AcDbEntity
100
AcDbLine
  8
0
 62
256
370
-1
  6
ByLayer
 10
170.0
 20
230.0
 30
0.0
 11
50.0
 21
230.0
 31
0.0
  0
LINE
  5
A5
100
AcDbEntity
100
AcDbLine
  8
0
 62
256
370
-1
  6
ByLayer
 10
50.0
 20
230.0
 30
0.0
 11
50.0
 21
270.0
 31
0.0
  0
LINE
  5
A6
100
AcDbEntity
100
AcDbLine
  8
0
 62
256
370
-1
  6
ByLayer
 10
10.0
 20
210.0
 30
0.0
 11
80.0
 21
210.0
 31
0.0
  0
LINE
  5
A7
100
AcDbEntity
100
AcDbLine
  8
0
 62
256
370
-1
  6
ByLayer
 10
80.0
 20
210.0
 30
0.0
 11
80.0
 21
170.0
 31
0.0
  0
LINE
  5
A8
100
AcDbEntity
100
AcDbLine
  8
0
 62
256
370
-1
  6
ByLayer
 10
80.0
 20
170.0
 30
0.0
 11
10.0
 21
170.0
 31
0.0
  0
LINE
  5
A9
100
AcDbEntity
100
AcDbLine
  8
0
 62
256
370
-1
  6
ByLayer
 10
10.0
 20
170.0
 30
0.0
 11
10.0
 21
210.0
 31
0.0
  0
LINE
  5
AA
100
AcDbEntity
100
AcDbLine
  8
0
 62
256
370
-1
  6
ByLayer
 10
0.0
 20
90.0
 30
0.0
 11
0.0000000000000129
 21
300.0
 31
0.0
  0
LINE
  5
AB
100
AcDbEntity
100
AcDbLine
  8
0
 62
256
370
-1
  6
ByLayer
 10
0.0
 20
300.0
 30
0.0
 11
297.0
 21
300.0
 31
0.0
  0
LINE
  5
AC
100
AcDbEntity
100
AcDbLine
  8
0
 62
256
370
-1
  6
ByLayer
 10
0.0
 20
90.0
 30
0.0
 11
297.0
 21
90.0
 31
0.0
  0
LINE
  5
AD
100
AcDbEntity
100
AcDbLine
  8
0
 62
256
370
-1
  6
ByLayer
 10
297.0
 20
90.0
 30
0.0
 11
297.0
 21
300.0
 31
0.0
  0
LINE
  5
AE
100
AcDbEntity
100
AcDbLine
  8
0
 62
256
370
-1
  6
ByLayer
 10
0.48828125
 20
90.332031250000256
 30
0.0
 11
210.48828125
 21
90.332031250000256
 31
0.0
  0
LINE
  5
AF
100
AcDbEntity
100
AcDbLine
  8
0
 62
256
370
-1
  6
ByLayer
 10
0.48828125
 20
120.33203125000026
 30
0.0
 11
210.48828125
 21
120.33203125000026
 31
0.0
  0
MTEXT
  5
B0
100
AcDbEntity
100
AcDbMText
  8
0
 62
256
370
-1
  6
ByLayer
 10
46.088281250000115
 20
105.5320312500003
 30
0.0
 40
3.0
 41
100.0
 71
5
 72
0
  1
ANGEL MARTIN
  7
standard
 50
0.0
 73
1
 44
1.0
  0
MTEXT
  5
B1
100
AcDbEntity
100
AcDbMText
  8
0
 62
256
370
-1
  6
ByLayer
 10
164.08828125000042
 20
104.33203125000028
 30
0.0
 40
3.0
 41
100.0
 71
5
 72
0
  1
HUGO MAYORAL\P
  7
standard
 50
0.0
 73
1
 44
1.0
  0
LINE
  5
B2
100
AcDbEntity
100
AcDbLine
  8
0
 62
256
370
-1
  6
ByLayer
 10
100.48828125
 20
120.33203125000026
 30
0.0
 11
100.48828125
 21
90.332031250000256
 31
0.0
  0
LINE
  5
B3
100
AcDbEntity
100
AcDbLine
  8
0
 62
256
370
-1
  6
ByLayer
 10
210.48828125
 20
120.33203125000026
 30
0.0
 11
210.48828125
 21
90.332031250000256
 31
0.0
  0
MTEXT
  5
B4
100
AcDbEntity
100
AcDbMText
  8
0
 62
256
370
-1
  6
ByLayer
 10
250.0
 20
113.0
 30
0.0
 40
3.0
 41
100.0
 71
5
 72
0
  1
1\U+00ba I.E.A
  7
standard
 50
0.0
 73
1
 44
1.0
  0
MTEXT
  5
B5
100
AcDbEntity
100
AcDbMText
  8
0
 62
256
370
-1
  6
ByLayer
 10
250.0
 20
105.0
 30
0.0
 40
3.0
 41
100.0
 71
5
 72
0
  1
RENOVABLES
  7
standard
 50
0.0
 73
1
 44
1.0
  0
LINE
  5
B6
100
AcDbEntity
100
AcDbLine
  8
0
 62
256
370
-1
  6
ByLayer
 10
210.0
 20
120.0
 30
0.0
 11
297.0
 21
120.0
 31
0.0
  0
INSERT
  5
B7
100
AcDbEntity
100
AcDbBlockReference
  8
0
 62
256
370
-1
  6
ByLayer
  2
tux-0
 10
190.0
 20
150.0
 30
0.0
 41
3.0
 42
3.0
 43
1.0
  0
ENDSEC
  0
SECTION
  2
OBJECTS
  0
DICTIONARY
  5
C
100
AcDbDictionary
280
0
281
1
  3
ACAD_GROUP
350
D
  3
ACAD_LAYOUT
350
1A
  3
ACAD_MLINESTYLE
350
17
  3
ACAD_PLOTSETTINGS
350
19
  3
ACAD_PLOTSTYLENAME
350
E
  3
AcDbVariableDictionary
350
B8
  0
DICTIONARY
  5
D
100
AcDbDictionary
280
0
281
1
  0
ACDBDICTIONARYWDFLT
  5
E
100
AcDbDictionary
281
1
  3
Normal
350
F
100
AcDbDictionaryWithDefault
340
F
  0
ACDBPLACEHOLDER
  5
F
  0
DICTIONARY
  5
17
100
AcDbDictionary
280
0
281
1
  3
Standard
350
18
  0
MLINESTYLE
  5
18
100
AcDbMlineStyle
  2
STANDARD
 70
0
  3

 62
256
 51
90.0
 52
90.0
 71
2
 49
0.5
 62
256
  6
BYLAYER
 49
-0.5
 62
256
  6
BYLAYER
  0
DICTIONARY
  5
19
100
AcDbDictionary
280
0
281
1
  0
DICTIONARY
  5
1A
100
AcDbDictionary
281
1
  3
Layout1
350
1E
  3
Layout2
350
26
  3
Model
350
22
  0
LAYOUT
  5
1E
100
AcDbPlotSettings
  1

  2
C:\Program Files\AutoCAD 2002\plotters\DWF ePlot (optimized for plotting).pc3
  4

  6

 40
0.0
 41
0.0
 42
0.0
 43
0.0
 44
0.0
 45
0.0
 46
0.0
 47
0.0
 48
0.0
 49
0.0
140
0.0
141
0.0
142
1.0
143
1.0
 70
688
 72
0
 73
0
 74
5
  7

 75
16
147
1.0
148
0.0
149
0.0
100
AcDbLayout
  1
Layout1
 70
1
 71
1
 10
0.0
 20
0.0
 11
420.0
 21
297.0
 12
0.0
 22
0.0
 32
0.0
 14
100000000000000000000.0
 24
100000000000000000000.0
 34
100000000000000000000.0
 15
-100000000000000000000.0
 25
-100000000000000000000.0
 35
-100000000000000000000.0
146
0.0
 13
0.0
 23
0.0
 33
0.0
 16
1.0
 26
0.0
 36
0.0
 17
0.0
 27
1.0
 37
0.0
 76
0
330
1B
  0
LAYOUT
  5
22
100
AcDbPlotSettings
  1

  2
C:\Program Files\AutoCAD 2002\plotters\DWF ePlot (optimized for plotting).pc3
  4

  6

 40
0.0
 41
0.0
 42
0.0
 43
0.0
 44
0.0
 45
0.0
 46
0.0
 47
0.0
 48
0.0
 49
0.0
140
0.0
141
0.0
142
1.0
143
1.0
 70
1712
 72
0
 73
0
 74
0
  7

 75
0
147
1.0
148
0.0
149
0.0
100
AcDbLayout
  1
Model
 70
1
 71
0
 10
0.0
 20
0.0
 11
12.0
 21
9.0
 12
0.0
 22
0.0
 32
0.0
 14
0.0
 24
0.0
 34
0.0
 15
0.0
 25
0.0
 35
0.0
146
0.0
 13
0.0
 23
0.0
 33
0.0
 16
1.0
 26
0.0
 36
0.0
 17
0.0
 27
1.0
 37
0.0
 76
0
330
1F
  0
LAYOUT
  5
26
100
AcDbPlotSettings
  1

  2
C:\Program Files\AutoCAD 2002\plotters\DWF ePlot (optimized for plotting).pc3
  4

  6

 40
0.0
 41
0.0
 42
0.0
 43
0.0
 44
0.0
 45
0.0
 46
0.0
 47
0.0
 48
0.0
 49
0.0
140
0.0
141
0.0
142
1.0
143
1.0
 70
688
 72
0
 73
0
 74
5
  7

 75
16
147
1.0
148
0.0
149
0.0
100
AcDbLayout
  1
Layout2
 70
1
 71
2
 10
0.0
 20
0.0
 11
12.0
 21
9.0
 12
0.0
 22
0.0
 32
0.0
 14
0.0
 24
0.0
 34
0.0
 15
0.0
 25
0.0
 35
0.0
146
0.0
 13
0.0
 23
0.0
 33
0.0
 16
1.0
 26
0.0
 36
0.0
 17
0.0
 27
1.0
 37
0.0
 76
0
330
23
  0
DICTIONARY
  5
B8
100
AcDbDictionary
281
1
  3
DIMASSOC
350
BA
  3
HIDETEXT
350
B9
  0
DICTIONARYVAR
  5
B9
100
DictionaryVariables
280
0
  1
2
  0
DICTIONARYVAR
  5
BA
100
DictionaryVariables
280
0
  1
1
  0
ENDSEC
  0
EOF
