999
dxflib 2.2.0.0
  0
SECTION
  2
HEADER
  9
$ACADVER
  1
AC1015
  9
$HANDSEED
  5
FFFF
  9
$SPLINESEGS
 70
8
  9
$DIMEXE
 40
1.25
  9
$PSVPSCALE
 40
1.5722499999999999
  9
$DIMLUNIT
 70
2
  9
$GRIDMODE
 70
1
  9
$INSUNITS
 70
0
  9
$DIMADEC
 70
2
  9
$DIMASZ
 40
2.5
  9
$DIMGAP
 40
0.625
  9
$DIMTXT
 40
2.5
  9
$GRIDUNIT
 10
0.0
 20
0.0
  9
$DIMEXO
 40
0.625
  9
$LUPREC
 70
4
  9
$PINSBASE
 10
43.94537500000002
 20
-13.268138888888878
 30
0.0
  9
$DIMAUNIT
 70
0
  9
$AUPREC
 70
2
  9
$PLIMMIN
 10
0.0
 20
0.0
  9
$LUNITS
 70
2
  9
$PLIMMAX
 10
297.0
 20
210.0
  9
$AUNITS
 70
0
  0
ENDSEC
  0
SECTION
  2
TABLES
  0
TABLE
  2
VPORT
  5
8
100
AcDbSymbolTable
 70
1
  0
VPORT
  5
30
100
AcDbSymbolTableRecord
100
AcDbViewportTableRecord
  2
*Active
 70
0
 10
0.0
 20
0.0
 11
1.0
 21
1.0
 12
286.30555555555549
 22
148.5
 13
0.0
 23
0.0
 14
10.0
 24
10.0
 15
10.0
 25
10.0
 16
0.0
 26
0.0
 36
1.0
 17
0.0
 27
0.0
 37
0.0
 40
297.0
 41
1.92798353909465
 42
50.0
 43
0.0
 44
0.0
 50
0.0
 51
0.0
 71
0
 72
100
 73
1
 74
3
 75
1
 76
1
 77
0
 78
0
281
0
 65
1
110
0.0
120
0.0
130
0.0
111
1.0
121
0.0
131
0.0
112
0.0
122
1.0
132
0.0
 79
0
146
0.0
  0
ENDTAB
  0
TABLE
  2
LTYPE
  5
5
100
AcDbSymbolTable
 70
21
  0
LTYPE
  5
14
100
AcDbSymbolTableRecord
100
AcDbLinetypeTableRecord
  2
ByBlock
 70
0
  3

 72
65
 73
0
 40
0.0
  0
LTYPE
  5
15
100
AcDbSymbolTableRecord
100
AcDbLinetypeTableRecord
  2
ByLayer
 70
0
  3

 72
65
 73
0
 40
0.0
  0
LTYPE
  5
16
100
AcDbSymbolTableRecord
100
AcDbLinetypeTableRecord
  2
CONTINUOUS
 70
0
  3
Solid line
 72
65
 73
0
 40
0.0
  0
LTYPE
  5
31
100
AcDbSymbolTableRecord
100
AcDbLinetypeTableRecord
  2
DOT
 70
0
  3
Dot . . . . . . . . . . . . . . . . . . . . . .
 72
65
 73
2
 40
6.3499999999999996
 49
0.0
 74
0
 49
-6.3499999999999996
 74
0
  0
LTYPE
  5
32
100
AcDbSymbolTableRecord
100
AcDbLinetypeTableRecord
  2
DOT2
 70
0
  3
Dot (.5x) .....................................
 72
65
 73
2
 40
3.1749999999999998
 49
0.0
 74
0
 49
-3.1749999999999998
 74
0
  0
LTYPE
  5
33
100
AcDbSymbolTableRecord
100
AcDbLinetypeTableRecord
  2
DOTX2
 70
0
  3
Dot (2x) .  .  .  .  .  .  .  .  .  .  .  .  .
 72
65
 73
2
 40
12.699999999999999
 49
0.0
 74
0
 49
-12.699999999999999
 74
0
  0
LTYPE
  5
34
100
AcDbSymbolTableRecord
100
AcDbLinetypeTableRecord
  2
DASHED
 70
0
  3
Dashed __ __ __ __ __ __ __ __ __ __ __ __ __ _
 72
65
 73
2
 40
19.050000000000001
 49
12.699999999999999
 74
0
 49
-6.3499999999999996
 74
0
  0
LTYPE
  5
35
100
AcDbSymbolTableRecord
100
AcDbLinetypeTableRecord
  2
DASHED2
 70
0
  3
Dashed (.5x) _ _ _ _ _ _ _ _ _ _ _ _ _ _ _ _ _
 72
65
 73
2
 40
9.5250000000000004
 49
6.3499999999999996
 74
0
 49
-3.1749999999999998
 74
0
  0
LTYPE
  5
36
100
AcDbSymbolTableRecord
100
AcDbLinetypeTableRecord
  2
DASHEDX2
 70
0
  3
Dashed (2x) ____  ____  ____  ____  ____  ___
 72
65
 73
2
 40
38.100000000000001
 49
25.399999999999999
 74
0
 49
-12.699999999999999
 74
0
  0
LTYPE
  5
37
100
AcDbSymbolTableRecord
100
AcDbLinetypeTableRecord
  2
DASHDOT
 70
0
  3
Dash dot __ . __ . __ . __ . __ . __ . __ . __
 72
65
 73
4
 40
25.399999999999999
 49
12.699999999999999
 74
0
 49
-6.3499999999999996
 74
0
 49
0.0
 74
0
 49
-6.3499999999999996
 74
0
  0
LTYPE
  5
38
100
AcDbSymbolTableRecord
100
AcDbLinetypeTableRecord
  2
DASHDOT2
 70
0
  3
Dash dot (.5x) _._._._._._._._._._._._._._._.
 72
65
 73
4
 40
12.699999999999999
 49
6.3499999999999996
 74
0
 49
-3.1749999999999998
 74
0
 49
0.0
 74
0
 49
-3.1749999999999998
 74
0
  0
LTYPE
  5
39
100
AcDbSymbolTableRecord
100
AcDbLinetypeTableRecord
  2
DASHDOTX2
 70
0
  3
Dash dot (2x) ____  .  ____  .  ____  .  ___
 72
65
 73
4
 40
50.799999999999997
 49
25.399999999999999
 74
0
 49
-12.699999999999999
 74
0
 49
0.0
 74
0
 49
-12.699999999999999
 74
0
  0
LTYPE
  5
3A
100
AcDbSymbolTableRecord
100
AcDbLinetypeTableRecord
  2
DIVIDE
 70
0
  3
Divide ____ . . ____ . . ____ . . ____ . . ____
 72
65
 73
6
 40
31.75
 49
12.699999999999999
 74
0
 49
-6.3499999999999996
 74
0
 49
0.0
 74
0
 49
-6.3499999999999996
 74
0
 49
0.0
 74
0
 49
-6.3499999999999996
 74
0
  0
LTYPE
  5
3B
100
AcDbSymbolTableRecord
100
AcDbLinetypeTableRecord
  2
DIVIDE2
 70
0
  3
Divide (.5x) __..__..__..__..__..__..__..__.._
 72
65
 73
6
 40
15.875
 49
6.3499999999999996
 74
0
 49
-3.1749999999999998
 74
0
 49
0.0
 74
0
 49
-3.1749999999999998
 74
0
 49
0.0
 74
0
 49
-3.1749999999999998
 74
0
  0
LTYPE
  5
3C
100
AcDbSymbolTableRecord
100
AcDbLinetypeTableRecord
  2
DIVIDEX2
 70
0
  3
Divide (2x) ________  .  .  ________  .  .  _
 72
65
 73
6
 40
63.5
 49
25.399999999999999
 74
0
 49
-12.699999999999999
 74
0
 49
0.0
 74
0
 49
-12.699999999999999
 74
0
 49
0.0
 74
0
 49
-12.699999999999999
 74
0
  0
LTYPE
  5
3D
100
AcDbSymbolTableRecord
100
AcDbLinetypeTableRecord
  2
CENTER
 70
0
  3
Center ____ _ ____ _ ____ _ ____ _ ____ _ ____
 72
65
 73
4
 40
50.799999999999997
 49
31.75
 74
0
 49
-6.3499999999999996
 74
0
 49
6.3499999999999996
 74
0
 49
-6.3499999999999996
 74
0
  0
LTYPE
  5
3E
100
AcDbSymbolTableRecord
100
AcDbLinetypeTableRecord
  2
CENTER2
 70
0
  3
Center (.5x) ___ _ ___ _ ___ _ ___ _ ___ _ ___
 72
65
 73
4
 40
28.574999999999999
 49
19.050000000000001
 74
0
 49
-3.1749999999999998
 74
0
 49
3.1749999999999998
 74
0
 49
-3.1749999999999998
 74
0
  0
LTYPE
  5
3F
100
AcDbSymbolTableRecord
100
AcDbLinetypeTableRecord
  2
CENTERX2
 70
0
  3
Center (2x) ________  __  ________  __  _____
 72
65
 73
4
 40
101.59999999999999
 49
63.5
 74
0
 49
-12.699999999999999
 74
0
 49
12.699999999999999
 74
0
 49
-12.699999999999999
 74
0
  0
LTYPE
  5
40
100
AcDbSymbolTableRecord
100
AcDbLinetypeTableRecord
  2
BORDER
 70
0
  3
Border __ __ . __ __ . __ __ . __ __ . __ __ .
 72
65
 73
6
 40
44.450000000000003
 49
12.699999999999999
 74
0
 49
-6.3499999999999996
 74
0
 49
12.699999999999999
 74
0
 49
-6.3499999999999996
 74
0
 49
0.0
 74
0
 49
-6.3499999999999996
 74
0
  0
LTYPE
  5
41
100
AcDbSymbolTableRecord
100
AcDbLinetypeTableRecord
  2
BORDER2
 70
0
  3
Border (.5x) __.__.__.__.__.__.__.__.__.__.__.
 72
65
 73
6
 40
22.225000000000001
 49
6.3499999999999996
 74
0
 49
-3.1749999999999998
 74
0
 49
6.3499999999999996
 74
0
 49
-3.1749999999999998
 74
0
 49
0.0
 74
0
 49
-3.1749999999999998
 74
0
  0
LTYPE
  5
42
100
AcDbSymbolTableRecord
100
AcDbLinetypeTableRecord
  2
BORDERX2
 70
0
  3
Border (2x) ____  ____  .  ____  ____  .  ___
 72
65
 73
6
 40
88.900000000000006
 49
25.399999999999999
 74
0
 49
-12.699999999999999
 74
0
 49
25.399999999999999
 74
0
 49
-12.699999999999999
 74
0
 49
0.0
 74
0
 49
-12.699999999999999
 74
0
  0
ENDTAB
  0
TABLE
  2
LAYER
  5
2
100
AcDbSymbolTable
 70
1
  0
LAYER
  5
10
100
AcDbSymbolTableRecord
100
AcDbLayerTableRecord
  2
0
 70
0
 62
7
  6
CONTINUOUS
370
0
390
F
  0
ENDTAB
  0
TABLE
  2
STYLE
  5
3
100
AcDbSymbolTable
 70
1
  0
STYLE
  5
11
100
AcDbSymbolTableRecord
100
AcDbTextStyleTableRecord
  2
Standard
 70
0
 40
0.0
 41
0.75
 50
0.0
 71
0
 42
2.5
  3
txt
  4

  0
ENDTAB
  0
TABLE
  2
VIEW
  5
6
100
AcDbSymbolTable
 70
0
  0
ENDTAB
  0
TABLE
  2
UCS
  5
7
100
AcDbSymbolTable
 70
0
  0
ENDTAB
  0
TABLE
  2
APPID
  5
9
100
AcDbSymbolTable
 70
1
  0
APPID
  5
12
100
AcDbSymbolTableRecord
100
AcDbRegAppTableRecord
  2
ACAD
 70
0
  0
ENDTAB
  0
TABLE
  2
DIMSTYLE
  5
A
100
AcDbSymbolTable
 70
1
100
AcDbDimStyleTable
 71
0
  0
DIMSTYLE
105
27
100
AcDbSymbolTableRecord
100
AcDbDimStyleTableRecord
  2
Standard
 41
2.5
 42
0.625
 43
3.75
 44
1.25
 70
0
 73
0
 74
0
 77
1
 78
8
140
2.5
141
2.5
143
0.03937007874016
147
0.625
171
3
172
1
271
2
272
2
274
3
278
44
283
0
284
8
340
11
  0
ENDTAB
  0
TABLE
  2
BLOCK_RECORD
  5
1
100
AcDbSymbolTable
 70
1
  0
BLOCK_RECORD
  5
1F
100
AcDbSymbolTableRecord
100
AcDbBlockTableRecord
  2
*Model_Space
340
22
  0
BLOCK_RECORD
  5
1B
100
AcDbSymbolTableRecord
100
AcDbBlockTableRecord
  2
*Paper_Space
340
1E
  0
BLOCK_RECORD
  5
23
100
AcDbSymbolTableRecord
100
AcDbBlockTableRecord
  2
*Paper_Space0
340
26
  0
BLOCK_RECORD
  5
43
100
AcDbSymbolTableRecord
100
AcDbBlockTableRecord
  2
terminal
340
0
  0
BLOCK_RECORD
  5
44
100
AcDbSymbolTableRecord
100
AcDbBlockTableRecord
  2
terminal macho
340
0
  0
ENDTAB
  0
ENDSEC
  0
SECTION
  2
BLOCKS
  0
BLOCK
  5
20
100
AcDbEntity
  8
0
100
AcDbBlockBegin
  2
*Model_Space
 70
0
 10
0.0
 20
0.0
 30
0.0
  3
*Model_Space
  1

  0
ENDBLK
  5
21
100
AcDbEntity
  8
0
100
AcDbBlockEnd
  0
BLOCK
  5
1C
100
AcDbEntity
 67
1
  8
0
100
AcDbBlockBegin
  2
*Paper_Space
 70
0
 10
0.0
 20
0.0
 30
0.0
  3
*Paper_Space
  1

  0
ENDBLK
  5
1D
100
AcDbEntity
 67
1
  8
0
100
AcDbBlockEnd
  0
BLOCK
  5
24
100
AcDbEntity
  8
0
100
AcDbBlockBegin
  2
*Paper_Space0
 70
0
 10
0.0
 20
0.0
 30
0.0
  3
*Paper_Space0
  1

  0
ENDBLK
  5
25
100
AcDbEntity
  8
0
100
AcDbBlockEnd
  0
BLOCK
  5
45
100
AcDbEntity
  8
0
100
AcDbBlockBegin
  2
terminal
 70
0
 10
0.0
 20
0.0
 30
0.0
  3
terminal
  1

  0
HATCH
  5
46
  8
0
 62
256
370
-1
  6
ByLayer
100
AcDbEntity
100
AcDbHatch
 10
0.0
 20
0.0
 30
0.0
210
0.0
220
0.0
230
1.0
  2
SOLID
 70
1
 71
0
 91
1
 92
1
 93
1
 72
2
 10
0.0
 20
0.0
 40
0.526426640102254
 50
0.0
 51
360.0
 73
1
 97
0
 75
0
 76
1
 98
0
  0
HATCH
  5
47
  8
0
 62
256
370
-1
  6
ByLayer
100
AcDbEntity
100
AcDbHatch
 10
0.0
 20
0.0
 30
0.0
210
0.0
220
0.0
230
1.0
  2
SOLID
 70
1
 71
0
 91
1
 92
1
 93
1
 72
2
 10
0.0
 20
0.0
 40
0.526426640102254
 50
0.0
 51
360.0
 73
1
 97
0
 75
0
 76
1
 98
0
  0
HATCH
  5
48
  8
0
 62
256
370
-1
  6
ByLayer
100
AcDbEntity
100
AcDbHatch
 10
0.0
 20
0.0
 30
0.0
210
0.0
220
0.0
230
1.0
  2
SOLID
 70
1
 71
0
 91
1
 92
1
 93
1
 72
2
 10
0.0
 20
0.0
 40
0.526426640102254
 50
0.0
 51
360.0
 73
1
 97
0
 75
0
 76
1
 98
0
  0
ARC
  5
49
100
AcDbEntity
  8
0
 62
256
370
-1
  6
ByLayer
100
AcDbCircle
 10
-1.0
 20
1.0
 30
0.0
 40
1.0
100
AcDbArc
 50
90.0
 51
180.0
  0
LINE
  5
4A
100
AcDbEntity
100
AcDbLine
  8
0
 62
256
370
-1
  6
ByLayer
 10
-2.0
 20
-1.0
 30
0.0
 11
-2.0
 21
1.0
 31
0.0
  0
ARC
  5
4B
100
AcDbEntity
  8
0
 62
256
370
-1
  6
ByLayer
100
AcDbCircle
 10
-1.0
 20
-1.0
 30
0.0
 40
1.0
100
AcDbArc
 50
180.0
 51
270.0
  0
ARC
  5
4C
100
AcDbEntity
  8
0
 62
256
370
-1
  6
ByLayer
100
AcDbCircle
 10
1.0
 20
-1.0
 30
0.0
 40
1.0
100
AcDbArc
 50
270.0
 51
0.0
  0
LINE
  5
4D
100
AcDbEntity
100
AcDbLine
  8
0
 62
256
370
-1
  6
ByLayer
 10
1.0
 20
-2.0
 30
0.0
 11
-1.0
 21
-2.0
 31
0.0
  0
ARC
  5
4E
100
AcDbEntity
  8
0
 62
256
370
-1
  6
ByLayer
100
AcDbCircle
 10
1.0
 20
-1.0
 30
0.0
 40
1.0
100
AcDbArc
 50
270.0
 51
0.0
  0
LINE
  5
4F
100
AcDbEntity
100
AcDbLine
  8
0
 62
256
370
-1
  6
ByLayer
 10
-1.0
 20
2.0
 30
0.0
 11
1.0
 21
2.0
 31
0.0
  0
LINE
  5
50
100
AcDbEntity
100
AcDbLine
  8
0
 62
256
370
-1
  6
ByLayer
 10
2.0
 20
1.0
 30
0.0
 11
2.0
 21
-1.0
 31
0.0
  0
ARC
  5
51
100
AcDbEntity
  8
0
 62
256
370
-1
  6
ByLayer
100
AcDbCircle
 10
1.0
 20
1.0
 30
0.0
 40
1.0
100
AcDbArc
 50
0.0
 51
90.0
  0
CIRCLE
  5
52
100
AcDbEntity
100
AcDbCircle
  8
0
 62
256
370
-1
  6
ByLayer
 10
0.0
 20
0.0
 30
0.0
 40
0.526426640102254
  0
ENDBLK
  5
53
100
AcDbEntity
  8
0
100
AcDbBlockEnd
  0
BLOCK
  5
54
100
AcDbEntity
  8
0
100
AcDbBlockBegin
  2
terminal macho
 70
0
 10
0.0
 20
0.0
 30
0.0
  3
terminal macho
  1

  0
LINE
  5
55
100
AcDbEntity
100
AcDbLine
  8
0
 62
256
370
-1
  6
ByLayer
 10
1.0
 20
1.0
 30
0.0
 11
-1.0
 21
-1.0
 31
0.0
  0
LINE
  5
56
100
AcDbEntity
100
AcDbLine
  8
0
 62
256
370
-1
  6
ByLayer
 10
1.0
 20
-1.0
 30
0.0
 11
-1.0
 21
1.0
 31
0.0
  0
ARC
  5
57
100
AcDbEntity
  8
0
 62
256
370
-1
  6
ByLayer
100
AcDbCircle
 10
-1.0
 20
1.0
 30
0.0
 40
1.0
100
AcDbArc
 50
90.0
 51
180.0
  0
LINE
  5
58
100
AcDbEntity
100
AcDbLine
  8
0
 62
256
370
-1
  6
ByLayer
 10
-2.0
 20
-1.0
 30
0.0
 11
-2.0
 21
1.0
 31
0.0
  0
ARC
  5
59
100
AcDbEntity
  8
0
 62
256
370
-1
  6
ByLayer
100
AcDbCircle
 10
-1.0
 20
-1.0
 30
0.0
 40
1.0
100
AcDbArc
 50
180.0
 51
270.0
  0
LINE
  5
5A
100
AcDbEntity
100
AcDbLine
  8
0
 62
256
370
-1
  6
ByLayer
 10
-1.0
 20
-2.0
 30
0.0
 11
1.0
 21
-2.0
 31
0.0
  0
ARC
  5
5B
100
AcDbEntity
  8
0
 62
256
370
-1
  6
ByLayer
100
AcDbCircle
 10
1.0
 20
-1.0
 30
0.0
 40
1.0
100
AcDbArc
 50
270.0
 51
0.0
  0
LINE
  5
5C
100
AcDbEntity
100
AcDbLine
  8
0
 62
256
370
-1
  6
ByLayer
 10
2.0
 20
-1.0
 30
0.0
 11
2.0
 21
1.0
 31
0.0
  0
LINE
  5
5D
100
AcDbEntity
100
AcDbLine
  8
0
 62
256
370
-1
  6
ByLayer
 10
1.0
 20
2.0
 30
0.0
 11
-1.0
 21
2.0
 31
0.0
  0
ARC
  5
5E
100
AcDbEntity
  8
0
 62
256
370
-1
  6
ByLayer
100
AcDbCircle
 10
1.0
 20
1.0
 30
0.0
 40
1.0
100
AcDbArc
 50
0.0
 51
90.0
  0
ENDBLK
  5
5F
100
AcDbEntity
  8
0
100
AcDbBlockEnd
  0
ENDSEC
  0
SECTION
  2
ENTITIES
  0
HATCH
  5
60
  8
0
 62
256
370
-1
  6
ByLayer
100
AcDbEntity
100
AcDbHatch
 10
0.0
 20
0.0
 30
0.0
210
0.0
220
0.0
230
1.0
  2
SOLID
 70
1
 71
0
 91
1
 92
1
 93
3
 72
1
 10
27.799999999999997
 20
74.950000000000017
 11
27.949999999999999
 21
74.800000000000011
 72
1
 10
27.949999999999999
 20
74.800000000000011
 11
28.0
 21
75.0
 72
1
 10
28.0
 20
75.0
 11
27.799999999999997
 21
74.950000000000017
 97
0
 75
0
 76
1
 98
0
  0
HATCH
  5
61
  8
0
 62
256
370
-1
  6
ByLayer
100
AcDbEntity
100
AcDbHatch
 10
0.0
 20
0.0
 30
0.0
210
0.0
220
0.0
230
1.0
  2
SOLID
 70
1
 71
0
 91
1
 92
1
 93
3
 72
1
 10
112.8
 20
75.950000000000017
 11
112.95
 21
75.800000000000011
 72
1
 10
112.95
 20
75.800000000000011
 11
113.0
 21
76.0
 72
1
 10
113.0
 20
76.0
 11
112.8
 21
75.950000000000017
 97
0
 75
0
 76
1
 98
0
  0
HATCH
  5
62
  8
0
 62
256
370
-1
  6
ByLayer
100
AcDbEntity
100
AcDbHatch
 10
0.0
 20
0.0
 30
0.0
210
0.0
220
0.0
230
1.0
  2
SOLID
 70
1
 71
0
 91
1
 92
1
 93
3
 72
1
 10
27.799999999999997
 20
77.950000000000017
 11
27.949999999999999
 21
77.800000000000011
 72
1
 10
27.949999999999999
 20
77.800000000000011
 11
28.0
 21
78.0
 72
1
 10
28.0
 20
78.0
 11
27.799999999999997
 21
77.950000000000017
 97
0
 75
0
 76
1
 98
0
  0
HATCH
  5
63
  8
0
 62
256
370
-1
  6
ByLayer
100
AcDbEntity
100
AcDbHatch
 10
0.0
 20
0.0
 30
0.0
210
0.0
220
0.0
230
1.0
  2
SOLID
 70
1
 71
0
 91
1
 92
1
 93
3
 72
1
 10
27.799999999999997
 20
88.950000000000017
 11
27.949999999999999
 21
88.800000000000011
 72
1
 10
27.949999999999999
 20
88.800000000000011
 11
28.0
 21
89.0
 72
1
 10
28.0
 20
89.0
 11
27.799999999999997
 21
88.950000000000017
 97
0
 75
0
 76
1
 98
0
  0
INSERT
  5
64
100
AcDbEntity
100
AcDbBlockReference
  8
0
 62
256
370
-1
  6
ByLayer
  2
terminal
 10
56.0
 20
100.0
 30
0.0
 44
1.0
 45
1.0
  0
INSERT
  5
65
100
AcDbEntity
100
AcDbBlockReference
  8
0
 62
256
370
-1
  6
ByLayer
  2
terminal
 10
60.0
 20
100.0
 30
0.0
 44
1.0
 45
1.0
  0
INSERT
  5
66
100
AcDbEntity
100
AcDbBlockReference
  8
0
 62
256
370
-1
  6
ByLayer
  2
terminal
 10
64.0
 20
100.0
 30
0.0
 44
1.0
 45
1.0
  0
INSERT
  5
67
100
AcDbEntity
100
AcDbBlockReference
  8
0
 62
256
370
-1
  6
ByLayer
  2
terminal
 10
68.0
 20
100.0
 30
0.0
 44
1.0
 45
1.0
  0
INSERT
  5
68
100
AcDbEntity
100
AcDbBlockReference
  8
0
 62
256
370
-1
  6
ByLayer
  2
terminal
 10
72.0
 20
100.0
 30
0.0
 44
1.0
 45
1.0
  0
INSERT
  5
69
100
AcDbEntity
100
AcDbBlockReference
  8
0
 62
256
370
-1
  6
ByLayer
  2
terminal
 10
76.0
 20
100.0
 30
0.0
 44
1.0
 45
1.0
  0
INSERT
  5
6A
100
AcDbEntity
100
AcDbBlockReference
  8
0
 62
256
370
-1
  6
ByLayer
  2
terminal
 10
80.0
 20
100.0
 30
0.0
 44
1.0
 45
1.0
  0
INSERT
  5
6B
100
AcDbEntity
100
AcDbBlockReference
  8
0
 62
256
370
-1
  6
ByLayer
  2
terminal
 10
84.0
 20
100.0
 30
0.0
 44
1.0
 45
1.0
  0
MTEXT
  5
6C
100
AcDbEntity
100
AcDbMText
  8
0
 62
256
370
-1
  6
ByLayer
 10
56.0
 20
96.0
 30
0.0
 40
2.0
 41
100.0
 71
2
 72
0
  1
7
  7
standard
 50
90.0
 73
1
 44
1.0
  0
MTEXT
  5
6D
100
AcDbEntity
100
AcDbMText
  8
0
 62
256
370
-1
  6
ByLayer
 10
59.0
 20
96.0
 30
0.0
 40
2.0
 41
100.0
 71
2
 72
0
  1
6
  7
standard
 50
90.0
 73
1
 44
1.0
  0
MTEXT
  5
6E
100
AcDbEntity
100
AcDbMText
  8
0
 62
256
370
-1
  6
ByLayer
 10
63.0
 20
96.0
 30
0.0
 40
2.0
 41
100.0
 71
2
 72
0
  1
5
  7
standard
 50
90.0
 73
1
 44
1.0
  0
MTEXT
  5
6F
100
AcDbEntity
100
AcDbMText
  8
0
 62
256
370
-1
  6
ByLayer
 10
67.0
 20
96.0
 30
0.0
 40
2.0
 41
100.0
 71
2
 72
0
  1
4
  7
standard
 50
90.0
 73
1
 44
1.0
  0
MTEXT
  5
70
100
AcDbEntity
100
AcDbMText
  8
0
 62
256
370
-1
  6
ByLayer
 10
71.0
 20
96.0
 30
0.0
 40
2.0
 41
100.0
 71
2
 72
0
  1
3
  7
standard
 50
90.0
 73
1
 44
1.0
  0
MTEXT
  5
71
100
AcDbEntity
100
AcDbMText
  8
0
 62
256
370
-1
  6
ByLayer
 10
75.0
 20
96.0
 30
0.0
 40
2.0
 41
100.0
 71
2
 72
0
  1
2
  7
standard
 50
90.0
 73
1
 44
1.0
  0
MTEXT
  5
72
100
AcDbEntity
100
AcDbMText
  8
0
 62
256
370
-1
  6
ByLayer
 10
79.0
 20
96.0
 30
0.0
 40
2.0
 41
100.0
 71
2
 72
0
  1
1
  7
standard
 50
90.0
 73
1
 44
1.0
  0
MTEXT
  5
73
100
AcDbEntity
100
AcDbMText
  8
0
 62
256
370
-1
  6
ByLayer
 10
83.0
 20
96.0
 30
0.0
 40
2.0
 41
100.0
 71
2
 72
0
  1
0
  7
standard
 50
90.0
 73
1
 44
1.0
  0
INSERT
  5
74
100
AcDbEntity
100
AcDbBlockReference
  8
0
 62
256
370
-1
  6
ByLayer
  2
terminal
 10
96.0
 20
100.0
 30
0.0
 44
1.0
 45
1.0
  0
INSERT
  5
75
100
AcDbEntity
100
AcDbBlockReference
  8
0
 62
256
370
-1
  6
ByLayer
  2
terminal
 10
100.0
 20
100.0
 30
0.0
 44
1.0
 45
1.0
  0
INSERT
  5
76
100
AcDbEntity
100
AcDbBlockReference
  8
0
 62
256
370
-1
  6
ByLayer
  2
terminal
 10
104.0
 20
100.0
 30
0.0
 44
1.0
 45
1.0
  0
INSERT
  5
77
100
AcDbEntity
100
AcDbBlockReference
  8
0
 62
256
370
-1
  6
ByLayer
  2
terminal
 10
108.0
 20
100.0
 30
0.0
 44
1.0
 45
1.0
  0
INSERT
  5
78
100
AcDbEntity
100
AcDbBlockReference
  8
0
 62
256
370
-1
  6
ByLayer
  2
terminal
 10
112.0
 20
100.0
 30
0.0
 44
1.0
 45
1.0
  0
INSERT
  5
79
100
AcDbEntity
100
AcDbBlockReference
  8
0
 62
256
370
-1
  6
ByLayer
  2
terminal
 10
116.0
 20
100.0
 30
0.0
 44
1.0
 45
1.0
  0
INSERT
  5
7A
100
AcDbEntity
100
AcDbBlockReference
  8
0
 62
256
370
-1
  6
ByLayer
  2
terminal
 10
120.0
 20
100.0
 30
0.0
 44
1.0
 45
1.0
  0
INSERT
  5
7B
100
AcDbEntity
100
AcDbBlockReference
  8
0
 62
256
370
-1
  6
ByLayer
  2
terminal
 10
124.0
 20
100.0
 30
0.0
 44
1.0
 45
1.0
  0
MTEXT
  5
7C
100
AcDbEntity
100
AcDbMText
  8
0
 62
256
370
-1
  6
ByLayer
 10
96.0
 20
96.0
 30
0.0
 40
2.0
 41
100.0
 71
2
 72
0
  1
14
  7
standard
 50
90.0
 73
1
 44
1.0
  0
MTEXT
  5
7D
100
AcDbEntity
100
AcDbMText
  8
0
 62
256
370
-1
  6
ByLayer
 10
100.0
 20
96.0
 30
0.0
 40
2.0
 41
100.0
 71
2
 72
0
  1
15
  7
standard
 50
90.0
 73
1
 44
1.0
  0
MTEXT
  5
7E
100
AcDbEntity
100
AcDbMText
  8
0
 62
256
370
-1
  6
ByLayer
 10
103.0
 20
96.0
 30
0.0
 40
2.0
 41
100.0
 71
2
 72
0
  1
16
  7
standard
 50
90.0
 73
1
 44
1.0
  0
MTEXT
  5
7F
100
AcDbEntity
100
AcDbMText
  8
0
 62
256
370
-1
  6
ByLayer
 10
107.0
 20
96.0
 30
0.0
 40
2.0
 41
100.0
 71
2
 72
0
  1
17
  7
standard
 50
90.0
 73
1
 44
1.0
  0
MTEXT
  5
80
100
AcDbEntity
100
AcDbMText
  8
0
 62
256
370
-1
  6
ByLayer
 10
111.0
 20
96.0
 30
0.0
 40
2.0
 41
100.0
 71
2
 72
0
  1
18
  7
standard
 50
90.0
 73
1
 44
1.0
  0
MTEXT
  5
81
100
AcDbEntity
100
AcDbMText
  8
0
 62
256
370
-1
  6
ByLayer
 10
115.0
 20
96.0
 30
0.0
 40
2.0
 41
100.0
 71
2
 72
0
  1
19
  7
standard
 50
90.0
 73
1
 44
1.0
  0
MTEXT
  5
82
100
AcDbEntity
100
AcDbMText
  8
0
 62
256
370
-1
  6
ByLayer
 10
119.0
 20
96.0
 30
0.0
 40
2.0
 41
100.0
 71
2
 72
0
  1
20
  7
standard
 50
90.0
 73
1
 44
1.0
  0
MTEXT
  5
83
100
AcDbEntity
100
AcDbMText
  8
0
 62
256
370
-1
  6
ByLayer
 10
123.0
 20
96.0
 30
0.0
 40
2.0
 41
100.0
 71
2
 72
0
  1
21
  7
standard
 50
90.0
 73
1
 44
1.0
  0
MTEXT
  5
84
100
AcDbEntity
100
AcDbMText
  8
0
 62
256
370
-1
  6
ByLayer
 10
135.0
 20
99.0
 30
0.0
 40
2.0
 41
100.0
 71
2
 72
0
  1
22
  7
standard
 50
0.0
 73
1
 44
1.0
  0
MTEXT
  5
85
100
AcDbEntity
100
AcDbMText
  8
0
 62
256
370
-1
  6
ByLayer
 10
135.0
 20
95.0
 30
0.0
 40
2.0
 41
100.0
 71
2
 72
0
  1
24
  7
standard
 50
0.0
 73
1
 44
1.0
  0
MTEXT
  5
86
100
AcDbEntity
100
AcDbMText
  8
0
 62
256
370
-1
  6
ByLayer
 10
135.0
 20
91.0
 30
0.0
 40
2.0
 41
100.0
 71
2
 72
0
  1
26
  7
standard
 50
0.0
 73
1
 44
1.0
  0
MTEXT
  5
87
100
AcDbEntity
100
AcDbMText
  8
0
 62
256
370
-1
  6
ByLayer
 10
135.0
 20
87.0
 30
0.0
 40
2.0
 41
100.0
 71
2
 72
0
  1
28
  7
standard
 50
0.0
 73
1
 44
1.0
  0
MTEXT
  5
88
100
AcDbEntity
100
AcDbMText
  8
0
 62
256
370
-1
  6
ByLayer
 10
135.0
 20
83.0
 30
0.0
 40
2.0
 41
100.0
 71
2
 72
0
  1
30
  7
standard
 50
0.0
 73
1
 44
1.0
  0
MTEXT
  5
89
100
AcDbEntity
100
AcDbMText
  8
0
 62
256
370
-1
  6
ByLayer
 10
135.0
 20
79.0
 30
0.0
 40
2.0
 41
100.0
 71
2
 72
0
  1
34
  7
standard
 50
0.0
 73
1
 44
1.0
  0
MTEXT
  5
8A
100
AcDbEntity
100
AcDbMText
  8
0
 62
256
370
-1
  6
ByLayer
 10
135.0
 20
75.0
 30
0.0
 40
2.0
 41
100.0
 71
2
 72
0
  1
36
  7
standard
 50
0.0
 73
1
 44
1.0
  0
MTEXT
  5
8B
100
AcDbEntity
100
AcDbMText
  8
0
 62
256
370
-1
  6
ByLayer
 10
135.0
 20
71.0
 30
0.0
 40
2.0
 41
100.0
 71
2
 72
0
  1
38
  7
standard
 50
0.0
 73
1
 44
1.0
  0
MTEXT
  5
8C
100
AcDbEntity
100
AcDbMText
  8
0
 62
256
370
-1
  6
ByLayer
 10
135.0
 20
67.0
 30
0.0
 40
2.0
 41
100.0
 71
2
 72
0
  1
40
  7
standard
 50
0.0
 73
1
 44
1.0
  0
MTEXT
  5
8D
100
AcDbEntity
100
AcDbMText
  8
0
 62
256
370
-1
  6
ByLayer
 10
135.0
 20
63.0
 30
0.0
 40
2.0
 41
100.0
 71
2
 72
0
  1
42
  7
standard
 50
0.0
 73
1
 44
1.0
  0
MTEXT
  5
8E
100
AcDbEntity
100
AcDbMText
  8
0
 62
256
370
-1
  6
ByLayer
 10
135.0
 20
59.0
 30
0.0
 40
2.0
 41
100.0
 71
2
 72
0
  1
44
  7
standard
 50
0.0
 73
1
 44
1.0
  0
MTEXT
  5
8F
100
AcDbEntity
100
AcDbMText
  8
0
 62
256
370
-1
  6
ByLayer
 10
135.0
 20
55.0
 30
0.0
 40
2.0
 41
100.0
 71
2
 72
0
  1
46
  7
standard
 50
0.0
 73
1
 44
1.0
  0
MTEXT
  5
90
100
AcDbEntity
100
AcDbMText
  8
0
 62
256
370
-1
  6
ByLayer
 10
135.0
 20
51.0
 30
0.0
 40
2.0
 41
100.0
 71
2
 72
0
  1
48
  7
standard
 50
0.0
 73
1
 44
1.0
  0
MTEXT
  5
91
100
AcDbEntity
100
AcDbMText
  8
0
 62
256
370
-1
  6
ByLayer
 10
135.0
 20
47.0
 30
0.0
 40
2.0
 41
100.0
 71
2
 72
0
  1
50
  7
standard
 50
0.0
 73
1
 44
1.0
  0
MTEXT
  5
92
100
AcDbEntity
100
AcDbMText
  8
0
 62
256
370
-1
  6
ByLayer
 10
135.0
 20
43.0
 30
0.0
 40
2.0
 41
100.0
 71
2
 72
0
  1
52
  7
standard
 50
0.0
 73
1
 44
1.0
  0
INSERT
  5
93
100
AcDbEntity
100
AcDbBlockReference
  8
0
 62
256
370
-1
  6
ByLayer
  2
terminal
 10
143.0
 20
98.0
 30
0.0
 44
1.0
 45
1.0
  0
INSERT
  5
94
100
AcDbEntity
100
AcDbBlockReference
  8
0
 62
256
370
-1
  6
ByLayer
  2
terminal
 10
139.0
 20
98.0
 30
0.0
 44
1.0
 45
1.0
  0
INSERT
  5
95
100
AcDbEntity
100
AcDbBlockReference
  8
0
 62
256
370
-1
  6
ByLayer
  2
terminal
 10
139.0
 20
94.0
 30
0.0
 44
1.0
 45
1.0
  0
INSERT
  5
96
100
AcDbEntity
100
AcDbBlockReference
  8
0
 62
256
370
-1
  6
ByLayer
  2
terminal
 10
143.0
 20
94.0
 30
0.0
 44
1.0
 45
1.0
  0
INSERT
  5
97
100
AcDbEntity
100
AcDbBlockReference
  8
0
 62
256
370
-1
  6
ByLayer
  2
terminal
 10
143.0
 20
90.0
 30
0.0
 44
1.0
 45
1.0
  0
INSERT
  5
98
100
AcDbEntity
100
AcDbBlockReference
  8
0
 62
256
370
-1
  6
ByLayer
  2
terminal
 10
139.0
 20
90.0
 30
0.0
 44
1.0
 45
1.0
  0
INSERT
  5
99
100
AcDbEntity
100
AcDbBlockReference
  8
0
 62
256
370
-1
  6
ByLayer
  2
terminal
 10
143.0
 20
86.0
 30
0.0
 44
1.0
 45
1.0
  0
INSERT
  5
9A
100
AcDbEntity
100
AcDbBlockReference
  8
0
 62
256
370
-1
  6
ByLayer
  2
terminal
 10
139.0
 20
86.0
 30
0.0
 44
1.0
 45
1.0
  0
INSERT
  5
9B
100
AcDbEntity
100
AcDbBlockReference
  8
0
 62
256
370
-1
  6
ByLayer
  2
terminal
 10
139.0
 20
82.0
 30
0.0
 44
1.0
 45
1.0
  0
INSERT
  5
9C
100
AcDbEntity
100
AcDbBlockReference
  8
0
 62
256
370
-1
  6
ByLayer
  2
terminal
 10
143.0
 20
82.0
 30
0.0
 44
1.0
 45
1.0
  0
INSERT
  5
9D
100
AcDbEntity
100
AcDbBlockReference
  8
0
 62
256
370
-1
  6
ByLayer
  2
terminal
 10
143.0
 20
78.0
 30
0.0
 44
1.0
 45
1.0
  0
INSERT
  5
9E
100
AcDbEntity
100
AcDbBlockReference
  8
0
 62
256
370
-1
  6
ByLayer
  2
terminal
 10
139.0
 20
78.0
 30
0.0
 44
1.0
 45
1.0
  0
INSERT
  5
9F
100
AcDbEntity
100
AcDbBlockReference
  8
0
 62
256
370
-1
  6
ByLayer
  2
terminal
 10
139.0
 20
74.0
 30
0.0
 44
1.0
 45
1.0
  0
INSERT
  5
A0
100
AcDbEntity
100
AcDbBlockReference
  8
0
 62
256
370
-1
  6
ByLayer
  2
terminal
 10
143.0
 20
74.0
 30
0.0
 44
1.0
 45
1.0
  0
INSERT
  5
A1
100
AcDbEntity
100
AcDbBlockReference
  8
0
 62
256
370
-1
  6
ByLayer
  2
terminal
 10
143.0
 20
70.0
 30
0.0
 44
1.0
 45
1.0
  0
INSERT
  5
A2
100
AcDbEntity
100
AcDbBlockReference
  8
0
 62
256
370
-1
  6
ByLayer
  2
terminal
 10
139.0
 20
70.0
 30
0.0
 44
1.0
 45
1.0
  0
INSERT
  5
A3
100
AcDbEntity
100
AcDbBlockReference
  8
0
 62
256
370
-1
  6
ByLayer
  2
terminal
 10
139.0
 20
66.0
 30
0.0
 44
1.0
 45
1.0
  0
INSERT
  5
A4
100
AcDbEntity
100
AcDbBlockReference
  8
0
 62
256
370
-1
  6
ByLayer
  2
terminal
 10
143.0
 20
66.0
 30
0.0
 44
1.0
 45
1.0
  0
INSERT
  5
A5
100
AcDbEntity
100
AcDbBlockReference
  8
0
 62
256
370
-1
  6
ByLayer
  2
terminal
 10
143.0
 20
62.0
 30
0.0
 44
1.0
 45
1.0
  0
INSERT
  5
A6
100
AcDbEntity
100
AcDbBlockReference
  8
0
 62
256
370
-1
  6
ByLayer
  2
terminal
 10
139.0
 20
62.0
 30
0.0
 44
1.0
 45
1.0
  0
INSERT
  5
A7
100
AcDbEntity
100
AcDbBlockReference
  8
0
 62
256
370
-1
  6
ByLayer
  2
terminal
 10
139.0
 20
58.0
 30
0.0
 44
1.0
 45
1.0
  0
INSERT
  5
A8
100
AcDbEntity
100
AcDbBlockReference
  8
0
 62
256
370
-1
  6
ByLayer
  2
terminal
 10
143.0
 20
58.0
 30
0.0
 44
1.0
 45
1.0
  0
INSERT
  5
A9
100
AcDbEntity
100
AcDbBlockReference
  8
0
 62
256
370
-1
  6
ByLayer
  2
terminal
 10
143.0
 20
54.0
 30
0.0
 44
1.0
 45
1.0
  0
INSERT
  5
AA
100
AcDbEntity
100
AcDbBlockReference
  8
0
 62
256
370
-1
  6
ByLayer
  2
terminal
 10
139.0
 20
54.0
 30
0.0
 44
1.0
 45
1.0
  0
INSERT
  5
AB
100
AcDbEntity
100
AcDbBlockReference
  8
0
 62
256
370
-1
  6
ByLayer
  2
terminal
 10
139.0
 20
50.0
 30
0.0
 44
1.0
 45
1.0
  0
INSERT
  5
AC
100
AcDbEntity
100
AcDbBlockReference
  8
0
 62
256
370
-1
  6
ByLayer
  2
terminal
 10
143.0
 20
50.0
 30
0.0
 44
1.0
 45
1.0
  0
INSERT
  5
AD
100
AcDbEntity
100
AcDbBlockReference
  8
0
 62
256
370
-1
  6
ByLayer
  2
terminal
 10
143.0
 20
46.0
 30
0.0
 44
1.0
 45
1.0
  0
INSERT
  5
AE
100
AcDbEntity
100
AcDbBlockReference
  8
0
 62
256
370
-1
  6
ByLayer
  2
terminal
 10
139.0
 20
46.0
 30
0.0
 44
1.0
 45
1.0
  0
LINE
  5
AF
100
AcDbEntity
100
AcDbLine
  8
0
 62
256
370
-1
  6
ByLayer
 10
150.0
 20
120.0
 30
0.0
 11
150.0
 21
120.0
 31
0.0
  0
INSERT
  5
B0
100
AcDbEntity
100
AcDbBlockReference
  8
0
 62
256
370
-1
  6
ByLayer
  2
terminal
 10
139.0
 20
42.0
 30
0.0
 44
1.0
 45
1.0
  0
INSERT
  5
B1
100
AcDbEntity
100
AcDbBlockReference
  8
0
 62
256
370
-1
  6
ByLayer
  2
terminal
 10
143.0
 20
42.0
 30
0.0
 44
1.0
 45
1.0
  0
MTEXT
  5
B2
100
AcDbEntity
100
AcDbMText
  8
0
 62
256
370
-1
  6
ByLayer
 10
147.0
 20
99.0
 30
0.0
 40
2.0
 41
100.0
 71
2
 72
0
  1
23
  7
standard
 50
0.0
 73
1
 44
1.0
  0
MTEXT
  5
B3
100
AcDbEntity
100
AcDbMText
  8
0
 62
256
370
-1
  6
ByLayer
 10
147.0
 20
95.0
 30
0.0
 40
2.0
 41
100.0
 71
2
 72
0
  1
25
  7
standard
 50
0.0
 73
1
 44
1.0
  0
MTEXT
  5
B4
100
AcDbEntity
100
AcDbMText
  8
0
 62
256
370
-1
  6
ByLayer
 10
147.0
 20
91.0
 30
0.0
 40
2.0
 41
100.0
 71
2
 72
0
  1
27
  7
standard
 50
0.0
 73
1
 44
1.0
  0
MTEXT
  5
B5
100
AcDbEntity
100
AcDbMText
  8
0
 62
256
370
-1
  6
ByLayer
 10
147.0
 20
87.0
 30
0.0
 40
2.0
 41
100.0
 71
2
 72
0
  1
29
  7
standard
 50
0.0
 73
1
 44
1.0
  0
MTEXT
  5
B6
100
AcDbEntity
100
AcDbMText
  8
0
 62
256
370
-1
  6
ByLayer
 10
147.0
 20
83.0
 30
0.0
 40
2.0
 41
100.0
 71
2
 72
0
  1
31
  7
standard
 50
0.0
 73
1
 44
1.0
  0
MTEXT
  5
B7
100
AcDbEntity
100
AcDbMText
  8
0
 62
256
370
-1
  6
ByLayer
 10
147.0
 20
79.0
 30
0.0
 40
2.0
 41
100.0
 71
2
 72
0
  1
33
  7
standard
 50
0.0
 73
1
 44
1.0
  0
MTEXT
  5
B8
100
AcDbEntity
100
AcDbMText
  8
0
 62
256
370
-1
  6
ByLayer
 10
147.0
 20
75.0
 30
0.0
 40
2.0
 41
100.0
 71
2
 72
0
  1
35
  7
standard
 50
0.0
 73
1
 44
1.0
  0
MTEXT
  5
B9
100
AcDbEntity
100
AcDbMText
  8
0
 62
256
370
-1
  6
ByLayer
 10
147.0
 20
71.0
 30
0.0
 40
2.0
 41
100.0
 71
2
 72
0
  1
37
  7
standard
 50
0.0
 73
1
 44
1.0
  0
MTEXT
  5
BA
100
AcDbEntity
100
AcDbMText
  8
0
 62
256
370
-1
  6
ByLayer
 10
147.0
 20
67.0
 30
0.0
 40
2.0
 41
100.0
 71
2
 72
0
  1
39
  7
standard
 50
0.0
 73
1
 44
1.0
  0
MTEXT
  5
BB
100
AcDbEntity
100
AcDbMText
  8
0
 62
256
370
-1
  6
ByLayer
 10
147.0
 20
63.0
 30
0.0
 40
2.0
 41
100.0
 71
2
 72
0
  1
41
  7
standard
 50
0.0
 73
1
 44
1.0
  0
MTEXT
  5
BC
100
AcDbEntity
100
AcDbMText
  8
0
 62
256
370
-1
  6
ByLayer
 10
147.0
 20
59.0
 30
0.0
 40
2.0
 41
100.0
 71
2
 72
0
  1
45
  7
standard
 50
0.0
 73
1
 44
1.0
  0
MTEXT
  5
BD
100
AcDbEntity
100
AcDbMText
  8
0
 62
256
370
-1
  6
ByLayer
 10
147.0
 20
55.0
 30
0.0
 40
2.0
 41
100.0
 71
2
 72
0
  1
47
  7
standard
 50
0.0
 73
1
 44
1.0
  0
MTEXT
  5
BE
100
AcDbEntity
100
AcDbMText
  8
0
 62
256
370
-1
  6
ByLayer
 10
147.0
 20
51.0
 30
0.0
 40
2.0
 41
100.0
 71
2
 72
0
  1
49
  7
standard
 50
0.0
 73
1
 44
1.0
  0
MTEXT
  5
BF
100
AcDbEntity
100
AcDbMText
  8
0
 62
256
370
-1
  6
ByLayer
 10
147.0
 20
47.0
 30
0.0
 40
2.0
 41
100.0
 71
2
 72
0
  1
51
  7
standard
 50
0.0
 73
1
 44
1.0
  0
MTEXT
  5
C0
100
AcDbEntity
100
AcDbMText
  8
0
 62
256
370
-1
  6
ByLayer
 10
147.0
 20
43.0
 30
0.0
 40
2.0
 41
100.0
 71
2
 72
0
  1
53
  7
standard
 50
0.0
 73
1
 44
1.0
  0
INSERT
  5
C1
100
AcDbEntity
100
AcDbBlockReference
  8
0
 62
256
370
-1
  6
ByLayer
  2
terminal
 10
100.0
 20
30.0
 30
0.0
 44
1.0
 45
1.0
  0
INSERT
  5
C2
100
AcDbEntity
100
AcDbBlockReference
  8
0
 62
256
370
-1
  6
ByLayer
  2
terminal
 10
96.0
 20
30.0
 30
0.0
 44
1.0
 45
1.0
  0
INSERT
  5
C3
100
AcDbEntity
100
AcDbBlockReference
  8
0
 62
256
370
-1
  6
ByLayer
  2
terminal
 10
92.0
 20
30.0
 30
0.0
 44
1.0
 45
1.0
  0
INSERT
  5
C4
100
AcDbEntity
100
AcDbBlockReference
  8
0
 62
256
370
-1
  6
ByLayer
  2
terminal
 10
88.0
 20
30.0
 30
0.0
 44
1.0
 45
1.0
  0
INSERT
  5
C5
100
AcDbEntity
100
AcDbBlockReference
  8
0
 62
256
370
-1
  6
ByLayer
  2
terminal
 10
84.0
 20
30.0
 30
0.0
 44
1.0
 45
1.0
  0
INSERT
  5
C6
100
AcDbEntity
100
AcDbBlockReference
  8
0
 62
256
370
-1
  6
ByLayer
  2
terminal
 10
80.0
 20
30.0
 30
0.0
 44
1.0
 45
1.0
  0
INSERT
  5
C7
100
AcDbEntity
100
AcDbBlockReference
  8
0
 62
256
370
-1
  6
ByLayer
  2
terminal
 10
76.0
 20
30.0
 30
0.0
 44
1.0
 45
1.0
  0
INSERT
  5
C8
100
AcDbEntity
100
AcDbBlockReference
  8
0
 62
256
370
-1
  6
ByLayer
  2
terminal
 10
72.0
 20
30.0
 30
0.0
 44
1.0
 45
1.0
  0
INSERT
  5
C9
100
AcDbEntity
100
AcDbBlockReference
  8
0
 62
256
370
-1
  6
ByLayer
  2
terminal
 10
60.0
 20
30.0
 30
0.0
 44
1.0
 45
1.0
  0
INSERT
  5
CA
100
AcDbEntity
100
AcDbBlockReference
  8
0
 62
256
370
-1
  6
ByLayer
  2
terminal
 10
56.0
 20
30.0
 30
0.0
 44
1.0
 45
1.0
  0
INSERT
  5
CB
100
AcDbEntity
100
AcDbBlockReference
  8
0
 62
256
370
-1
  6
ByLayer
  2
terminal
 10
52.0
 20
30.0
 30
0.0
 44
1.0
 45
1.0
  0
INSERT
  5
CC
100
AcDbEntity
100
AcDbBlockReference
  8
0
 62
256
370
-1
  6
ByLayer
  2
terminal
 10
48.0
 20
30.0
 30
0.0
 44
1.0
 45
1.0
  0
INSERT
  5
CD
100
AcDbEntity
100
AcDbBlockReference
  8
0
 62
256
370
-1
  6
ByLayer
  2
terminal
 10
44.0
 20
30.0
 30
0.0
 44
1.0
 45
1.0
  0
INSERT
  5
CE
100
AcDbEntity
100
AcDbBlockReference
  8
0
 62
256
370
-1
  6
ByLayer
  2
terminal
 10
40.0
 20
30.0
 30
0.0
 44
1.0
 45
1.0
  0
ARC
  5
CF
100
AcDbEntity
  8
0
 62
256
370
-1
  6
ByLayer
100
AcDbCircle
 10
64.0
 20
76.0
 30
0.0
 40
4.0
100
AcDbArc
 50
90.0
 51
180.0
  0
LINE
  5
D0
100
AcDbEntity
100
AcDbLine
  8
0
 62
256
370
-1
  6
ByLayer
 10
76.0
 20
80.0
 30
0.0
 11
64.0
 21
80.0
 31
0.0
  0
ARC
  5
D1
100
AcDbEntity
  8
0
 62
256
370
-1
  6
ByLayer
100
AcDbCircle
 10
76.0
 20
76.0
 30
0.0
 40
4.0
100
AcDbArc
 50
0.0
 51
90.0
  0
LINE
  5
D2
100
AcDbEntity
100
AcDbLine
  8
0
 62
256
370
-1
  6
ByLayer
 10
80.0
 20
64.0
 30
0.0
 11
80.0
 21
76.0
 31
0.0
  0
ARC
  5
D3
100
AcDbEntity
  8
0
 62
256
370
-1
  6
ByLayer
100
AcDbCircle
 10
76.0
 20
64.0
 30
0.0
 40
4.0
100
AcDbArc
 50
270.0
 51
0.0
  0
LINE
  5
D4
100
AcDbEntity
100
AcDbLine
  8
0
 62
256
370
-1
  6
ByLayer
 10
64.0
 20
60.0
 30
0.0
 11
76.0
 21
60.0
 31
0.0
  0
LINE
  5
D5
100
AcDbEntity
100
AcDbLine
  8
0
 62
256
370
-1
  6
ByLayer
 10
60.0
 20
76.0
 30
0.0
 11
60.0
 21
64.0
 31
0.0
  0
ARC
  5
D6
100
AcDbEntity
  8
0
 62
256
370
-1
  6
ByLayer
100
AcDbCircle
 10
64.0
 20
64.0
 30
0.0
 40
4.0
100
AcDbArc
 50
180.0
 51
270.0
  0
LINE
  5
D7
100
AcDbEntity
100
AcDbLine
  8
0
 62
256
370
-1
  6
ByLayer
 10
64.0
 20
80.0
 30
0.0
 11
64.0
 21
82.0
 31
0.0
  0
LINE
  5
D8
100
AcDbEntity
100
AcDbLine
  8
0
 62
256
370
-1
  6
ByLayer
 10
65.0
 20
80.0
 30
0.0
 11
65.0
 21
82.0
 31
0.0
  0
LINE
  5
D9
100
AcDbEntity
100
AcDbLine
  8
0
 62
256
370
-1
  6
ByLayer
 10
66.0
 20
80.0
 30
0.0
 11
66.0
 21
82.0
 31
0.0
  0
LINE
  5
DA
100
AcDbEntity
100
AcDbLine
  8
0
 62
256
370
-1
  6
ByLayer
 10
67.0
 20
80.0
 30
0.0
 11
67.0
 21
82.0
 31
0.0
  0
LINE
  5
DB
100
AcDbEntity
100
AcDbLine
  8
0
 62
256
370
-1
  6
ByLayer
 10
68.0
 20
80.0
 30
0.0
 11
68.0
 21
82.0
 31
0.0
  0
LINE
  5
DC
100
AcDbEntity
100
AcDbLine
  8
0
 62
256
370
-1
  6
ByLayer
 10
69.0
 20
80.0
 30
0.0
 11
69.0
 21
82.0
 31
0.0
  0
LINE
  5
DD
100
AcDbEntity
100
AcDbLine
  8
0
 62
256
370
-1
  6
ByLayer
 10
70.0
 20
80.0
 30
0.0
 11
70.0
 21
82.0
 31
0.0
  0
LINE
  5
DE
100
AcDbEntity
100
AcDbLine
  8
0
 62
256
370
-1
  6
ByLayer
 10
71.0
 20
80.0
 30
0.0
 11
71.0
 21
82.0
 31
0.0
  0
LINE
  5
DF
100
AcDbEntity
100
AcDbLine
  8
0
 62
256
370
-1
  6
ByLayer
 10
72.0
 20
80.0
 30
0.0
 11
72.0
 21
82.0
 31
0.0
  0
LINE
  5
E0
100
AcDbEntity
100
AcDbLine
  8
0
 62
256
370
-1
  6
ByLayer
 10
73.0
 20
80.0
 30
0.0
 11
73.0
 21
82.0
 31
0.0
  0
LINE
  5
E1
100
AcDbEntity
100
AcDbLine
  8
0
 62
256
370
-1
  6
ByLayer
 10
74.0
 20
80.0
 30
0.0
 11
74.0
 21
82.0
 31
0.0
  0
LINE
  5
E2
100
AcDbEntity
100
AcDbLine
  8
0
 62
256
370
-1
  6
ByLayer
 10
60.0
 20
76.0
 30
0.0
 11
58.0
 21
76.0
 31
0.0
  0
LINE
  5
E3
100
AcDbEntity
100
AcDbLine
  8
0
 62
256
370
-1
  6
ByLayer
 10
80.0
 20
76.0
 30
0.0
 11
82.0
 21
76.0
 31
0.0
  0
LINE
  5
E4
100
AcDbEntity
100
AcDbLine
  8
0
 62
256
370
-1
  6
ByLayer
 10
75.0
 20
80.0
 30
0.0
 11
75.0
 21
82.0
 31
0.0
  0
LINE
  5
E5
100
AcDbEntity
100
AcDbLine
  8
0
 62
256
370
-1
  6
ByLayer
 10
76.0
 20
80.0
 30
0.0
 11
76.0
 21
82.0
 31
0.0
  0
LINE
  5
E6
100
AcDbEntity
100
AcDbLine
  8
0
 62
256
370
-1
  6
ByLayer
 10
80.0
 20
75.0
 30
0.0
 11
82.0
 21
75.0
 31
0.0
  0
LINE
  5
E7
100
AcDbEntity
100
AcDbLine
  8
0
 62
256
370
-1
  6
ByLayer
 10
80.0
 20
74.0
 30
0.0
 11
82.0
 21
74.0
 31
0.0
  0
LINE
  5
E8
100
AcDbEntity
100
AcDbLine
  8
0
 62
256
370
-1
  6
ByLayer
 10
80.0
 20
73.0
 30
0.0
 11
82.0
 21
73.0
 31
0.0
  0
LINE
  5
E9
100
AcDbEntity
100
AcDbLine
  8
0
 62
256
370
-1
  6
ByLayer
 10
80.0
 20
72.0
 30
0.0
 11
82.0
 21
72.0
 31
0.0
  0
LINE
  5
EA
100
AcDbEntity
100
AcDbLine
  8
0
 62
256
370
-1
  6
ByLayer
 10
80.0
 20
71.0
 30
0.0
 11
82.0
 21
71.0
 31
0.0
  0
LINE
  5
EB
100
AcDbEntity
100
AcDbLine
  8
0
 62
256
370
-1
  6
ByLayer
 10
80.0
 20
70.0
 30
0.0
 11
82.0
 21
70.0
 31
0.0
  0
LINE
  5
EC
100
AcDbEntity
100
AcDbLine
  8
0
 62
256
370
-1
  6
ByLayer
 10
80.0
 20
69.0
 30
0.0
 11
82.0
 21
69.0
 31
0.0
  0
LINE
  5
ED
100
AcDbEntity
100
AcDbLine
  8
0
 62
256
370
-1
  6
ByLayer
 10
80.0
 20
68.0
 30
0.0
 11
82.0
 21
68.0
 31
0.0
  0
LINE
  5
EE
100
AcDbEntity
100
AcDbLine
  8
0
 62
256
370
-1
  6
ByLayer
 10
80.0
 20
67.0
 30
0.0
 11
82.0
 21
67.0
 31
0.0
  0
LINE
  5
EF
100
AcDbEntity
100
AcDbLine
  8
0
 62
256
370
-1
  6
ByLayer
 10
80.0
 20
66.0
 30
0.0
 11
82.0
 21
66.0
 31
0.0
  0
LINE
  5
F0
100
AcDbEntity
100
AcDbLine
  8
0
 62
256
370
-1
  6
ByLayer
 10
80.0
 20
65.0
 30
0.0
 11
82.0
 21
65.0
 31
0.0
  0
LINE
  5
F1
100
AcDbEntity
100
AcDbLine
  8
0
 62
256
370
-1
  6
ByLayer
 10
80.0
 20
64.0
 30
0.0
 11
82.0
 21
64.0
 31
0.0
  0
LINE
  5
F2
100
AcDbEntity
100
AcDbLine
  8
0
 62
256
370
-1
  6
ByLayer
 10
60.0
 20
75.0
 30
0.0
 11
58.0
 21
75.0
 31
0.0
  0
LINE
  5
F3
100
AcDbEntity
100
AcDbLine
  8
0
 62
256
370
-1
  6
ByLayer
 10
60.0
 20
74.0
 30
0.0
 11
58.0
 21
74.0
 31
0.0
  0
LINE
  5
F4
100
AcDbEntity
100
AcDbLine
  8
0
 62
256
370
-1
  6
ByLayer
 10
60.0
 20
73.0
 30
0.0
 11
58.0
 21
73.0
 31
0.0
  0
LINE
  5
F5
100
AcDbEntity
100
AcDbLine
  8
0
 62
256
370
-1
  6
ByLayer
 10
60.0
 20
72.0
 30
0.0
 11
58.0
 21
72.0
 31
0.0
  0
LINE
  5
F6
100
AcDbEntity
100
AcDbLine
  8
0
 62
256
370
-1
  6
ByLayer
 10
60.0
 20
71.0
 30
0.0
 11
58.0
 21
71.0
 31
0.0
  0
LINE
  5
F7
100
AcDbEntity
100
AcDbLine
  8
0
 62
256
370
-1
  6
ByLayer
 10
60.0
 20
70.0
 30
0.0
 11
58.0
 21
70.0
 31
0.0
  0
LINE
  5
F8
100
AcDbEntity
100
AcDbLine
  8
0
 62
256
370
-1
  6
ByLayer
 10
60.0
 20
69.0
 30
0.0
 11
58.0
 21
69.0
 31
0.0
  0
LINE
  5
F9
100
AcDbEntity
100
AcDbLine
  8
0
 62
256
370
-1
  6
ByLayer
 10
60.0
 20
68.0
 30
0.0
 11
58.0
 21
68.0
 31
0.0
  0
LINE
  5
FA
100
AcDbEntity
100
AcDbLine
  8
0
 62
256
370
-1
  6
ByLayer
 10
60.0
 20
67.0
 30
0.0
 11
58.0
 21
67.0
 31
0.0
  0
LINE
  5
FB
100
AcDbEntity
100
AcDbLine
  8
0
 62
256
370
-1
  6
ByLayer
 10
60.0
 20
66.0
 30
0.0
 11
58.0
 21
66.0
 31
0.0
  0
LINE
  5
FC
100
AcDbEntity
100
AcDbLine
  8
0
 62
256
370
-1
  6
ByLayer
 10
60.0
 20
65.0
 30
0.0
 11
58.0
 21
65.0
 31
0.0
  0
LINE
  5
FD
100
AcDbEntity
100
AcDbLine
  8
0
 62
256
370
-1
  6
ByLayer
 10
60.0
 20
64.0
 30
0.0
 11
58.0
 21
64.0
 31
0.0
  0
LINE
  5
FE
100
AcDbEntity
100
AcDbLine
  8
0
 62
256
370
-1
  6
ByLayer
 10
64.0
 20
60.0
 30
0.0
 11
64.0
 21
58.0
 31
0.0
  0
LINE
  5
FF
100
AcDbEntity
100
AcDbLine
  8
0
 62
256
370
-1
  6
ByLayer
 10
65.0
 20
60.0
 30
0.0
 11
65.0
 21
58.0
 31
0.0
  0
LINE
  5
100
100
AcDbEntity
100
AcDbLine
  8
0
 62
256
370
-1
  6
ByLayer
 10
66.0
 20
60.0
 30
0.0
 11
66.0
 21
58.0
 31
0.0
  0
LINE
  5
101
100
AcDbEntity
100
AcDbLine
  8
0
 62
256
370
-1
  6
ByLayer
 10
67.0
 20
60.0
 30
0.0
 11
67.0
 21
58.0
 31
0.0
  0
LINE
  5
102
100
AcDbEntity
100
AcDbLine
  8
0
 62
256
370
-1
  6
ByLayer
 10
68.0
 20
60.0
 30
0.0
 11
68.0
 21
58.0
 31
0.0
  0
LINE
  5
103
100
AcDbEntity
100
AcDbLine
  8
0
 62
256
370
-1
  6
ByLayer
 10
69.0
 20
60.0
 30
0.0
 11
69.0
 21
58.0
 31
0.0
  0
LINE
  5
104
100
AcDbEntity
100
AcDbLine
  8
0
 62
256
370
-1
  6
ByLayer
 10
70.0
 20
60.0
 30
0.0
 11
70.0
 21
58.0
 31
0.0
  0
LINE
  5
105
100
AcDbEntity
100
AcDbLine
  8
0
 62
256
370
-1
  6
ByLayer
 10
71.0
 20
60.0
 30
0.0
 11
71.0
 21
58.0
 31
0.0
  0
LINE
  5
106
100
AcDbEntity
100
AcDbLine
  8
0
 62
256
370
-1
  6
ByLayer
 10
72.0
 20
60.0
 30
0.0
 11
72.0
 21
58.0
 31
0.0
  0
LINE
  5
107
100
AcDbEntity
100
AcDbLine
  8
0
 62
256
370
-1
  6
ByLayer
 10
73.0
 20
60.0
 30
0.0
 11
73.0
 21
58.0
 31
0.0
  0
LINE
  5
108
100
AcDbEntity
100
AcDbLine
  8
0
 62
256
370
-1
  6
ByLayer
 10
74.0
 20
60.0
 30
0.0
 11
74.0
 21
58.0
 31
0.0
  0
LINE
  5
109
100
AcDbEntity
100
AcDbLine
  8
0
 62
256
370
-1
  6
ByLayer
 10
75.0
 20
60.0
 30
0.0
 11
75.0
 21
58.0
 31
0.0
  0
LINE
  5
10A
100
AcDbEntity
100
AcDbLine
  8
0
 62
256
370
-1
  6
ByLayer
 10
76.0
 20
60.0
 30
0.0
 11
76.0
 21
58.0
 31
0.0
  0
INSERT
  5
10B
100
AcDbEntity
100
AcDbBlockReference
  8
0
 62
256
370
-1
  6
ByLayer
  2
terminal
 10
22.0
 20
100.0
 30
0.0
 44
1.0
 45
1.0
  0
INSERT
  5
10C
100
AcDbEntity
100
AcDbBlockReference
  8
0
 62
256
370
-1
  6
ByLayer
  2
terminal
 10
26.0
 20
100.0
 30
0.0
 44
1.0
 45
1.0
  0
INSERT
  5
10D
100
AcDbEntity
100
AcDbBlockReference
  8
0
 62
256
370
-1
  6
ByLayer
  2
terminal
 10
30.0
 20
100.0
 30
0.0
 44
1.0
 45
1.0
  0
INSERT
  5
10E
100
AcDbEntity
100
AcDbBlockReference
  8
0
 62
256
370
-1
  6
ByLayer
  2
terminal
 10
34.0
 20
100.0
 30
0.0
 44
1.0
 45
1.0
  0
INSERT
  5
10F
100
AcDbEntity
100
AcDbBlockReference
  8
0
 62
256
370
-1
  6
ByLayer
  2
terminal
 10
38.0
 20
100.0
 30
0.0
 44
1.0
 45
1.0
  0
INSERT
  5
110
100
AcDbEntity
100
AcDbBlockReference
  8
0
 62
256
370
-1
  6
ByLayer
  2
terminal
 10
42.0
 20
100.0
 30
0.0
 44
1.0
 45
1.0
  0
INSERT
  5
111
100
AcDbEntity
100
AcDbBlockReference
  8
0
 62
256
370
-1
  6
ByLayer
  2
terminal
 10
46.0
 20
100.0
 30
0.0
 44
1.0
 45
1.0
  0
INSERT
  5
112
100
AcDbEntity
100
AcDbBlockReference
  8
0
 62
256
370
-1
  6
ByLayer
  2
terminal
 10
50.0
 20
100.0
 30
0.0
 44
1.0
 45
1.0
  0
MTEXT
  5
113
100
AcDbEntity
100
AcDbMText
  8
0
 62
256
370
-1
  6
ByLayer
 10
33.0
 20
96.0
 30
0.0
 40
2.0
 41
100.0
 71
2
 72
0
  1
12
  7
standard
 50
90.0
 73
1
 44
1.0
  0
MTEXT
  5
114
100
AcDbEntity
100
AcDbMText
  8
0
 62
256
370
-1
  6
ByLayer
 10
37.0
 20
96.0
 30
0.0
 40
2.0
 41
100.0
 71
2
 72
0
  1
11
  7
standard
 50
90.0
 73
1
 44
1.0
  0
MTEXT
  5
115
100
AcDbEntity
100
AcDbMText
  8
0
 62
256
370
-1
  6
ByLayer
 10
41.0
 20
96.0
 30
0.0
 40
2.0
 41
100.0
 71
2
 72
0
  1
10
  7
standard
 50
90.0
 73
1
 44
1.0
  0
MTEXT
  5
116
100
AcDbEntity
100
AcDbMText
  8
0
 62
256
370
-1
  6
ByLayer
 10
45.0
 20
96.0
 30
0.0
 40
2.0
 41
100.0
 71
2
 72
0
  1
9
  7
standard
 50
90.0
 73
1
 44
1.0
  0
MTEXT
  5
117
100
AcDbEntity
100
AcDbMText
  8
0
 62
256
370
-1
  6
ByLayer
 10
49.0
 20
96.0
 30
0.0
 40
2.0
 41
100.0
 71
2
 72
0
  1
8
  7
standard
 50
90.0
 73
1
 44
1.0
  0
MTEXT
  5
118
100
AcDbEntity
100
AcDbMText
  8
0
 62
256
370
-1
  6
ByLayer
 10
29.0
 20
96.0
 30
0.0
 40
2.0
 41
100.0
 71
2
 72
0
  1
13
  7
standard
 50
90.0
 73
1
 44
1.0
  0
MTEXT
  5
119
100
AcDbEntity
100
AcDbMText
  8
0
 62
256
370
-1
  6
ByLayer
 10
25.0
 20
95.0
 30
0.0
 40
2.0
 41
100.0
 71
2
 72
0
  1
GND
  7
standard
 50
90.0
 73
1
 44
1.0
  0
MTEXT
  5
11A
100
AcDbEntity
100
AcDbMText
  8
0
 62
256
370
-1
  6
ByLayer
 10
21.0
 20
94.0
 30
0.0
 40
2.0
 41
100.0
 71
2
 72
0
  1
AREF
  7
standard
 50
90.0
 73
1
 44
1.0
  0
INSERT
  5
11B
100
AcDbEntity
100
AcDbBlockReference
  8
0
 62
256
370
-1
  6
ByLayer
  2
terminal
 10
18.0
 20
100.0
 30
0.0
 44
1.0
 45
1.0
  0
INSERT
  5
11C
100
AcDbEntity
100
AcDbBlockReference
  8
0
 62
256
370
-1
  6
ByLayer
  2
terminal
 10
14.0
 20
100.0
 30
0.0
 44
1.0
 45
1.0
  0
INSERT
  5
11D
100
AcDbEntity
100
AcDbBlockReference
  8
0
 62
256
370
-1
  6
ByLayer
  2
terminal
 10
10.0
 20
100.0
 30
0.0
 44
1.0
 45
1.0
  0
LINE
  5
11E
100
AcDbEntity
100
AcDbLine
  8
0
 62
256
370
-1
  6
ByLayer
 10
-6.0
 20
28.0
 30
0.0
 11
-15.0
 21
28.0
 31
0.0
  0
LINE
  5
11F
100
AcDbEntity
100
AcDbLine
  8
0
 62
256
370
-1
  6
ByLayer
 10
-15.0
 20
28.0
 30
0.0
 11
-15.0
 21
34.0
 31
0.0
  0
LINE
  5
120
100
AcDbEntity
100
AcDbLine
  8
0
 62
256
370
-1
  6
ByLayer
 10
-15.0
 20
34.0
 30
0.0
 11
-6.0
 21
34.0
 31
0.0
  0
LINE
  5
121
100
AcDbEntity
100
AcDbLine
  8
0
 62
256
370
-1
  6
ByLayer
 10
-6.0
 20
34.0
 30
0.0
 11
-6.0
 21
28.0
 31
0.0
  0
INSERT
  5
122
100
AcDbEntity
100
AcDbBlockReference
  8
0
 62
256
370
-1
  6
ByLayer
  2
terminal macho
 10
3.0
 20
94.0
 30
0.0
  0
INSERT
  5
123
100
AcDbEntity
100
AcDbBlockReference
  8
0
 62
256
370
-1
  6
ByLayer
  2
terminal macho
 10
7.0
 20
94.0
 30
0.0
 44
1.0
 45
1.0
  0
INSERT
  5
124
100
AcDbEntity
100
AcDbBlockReference
  8
0
 62
256
370
-1
  6
ByLayer
  2
terminal macho
 10
11.0
 20
94.0
 30
0.0
 44
1.0
 45
1.0
  0
INSERT
  5
125
100
AcDbEntity
100
AcDbBlockReference
  8
0
 62
256
370
-1
  6
ByLayer
  2
terminal macho
 10
11.0
 20
90.0
 30
0.0
 44
1.0
 45
1.0
  0
INSERT
  5
126
100
AcDbEntity
100
AcDbBlockReference
  8
0
 62
256
370
-1
  6
ByLayer
  2
terminal macho
 10
7.0
 20
90.0
 30
0.0
 44
1.0
 45
1.0
  0
INSERT
  5
127
100
AcDbEntity
100
AcDbBlockReference
  8
0
 62
256
370
-1
  6
ByLayer
  2
terminal macho
 10
3.0
 20
90.0
 30
0.0
 44
1.0
 45
1.0
  0
LINE
  5
128
100
AcDbEntity
100
AcDbLine
  8
0
 62
256
370
-1
  6
ByLayer
 10
27.0
 20
87.5
 30
0.0
 11
28.5
 21
88.0
 31
0.0
  0
LINE
  5
129
100
AcDbEntity
100
AcDbLine
  8
0
 62
256
370
-1
  6
ByLayer
 10
28.5
 20
88.0
 30
0.0
 11
27.0
 21
88.5
 31
0.0
  0
LINE
  5
12A
100
AcDbEntity
100
AcDbLine
  8
0
 62
256
370
-1
  6
ByLayer
 10
27.0
 20
88.5
 30
0.0
 11
27.0
 21
87.5
 31
0.0
  0
LINE
  5
12B
100
AcDbEntity
100
AcDbLine
  8
0
 62
256
370
-1
  6
ByLayer
 10
28.5
 20
87.5
 30
0.0
 11
28.5
 21
88.5
 31
0.0
  0
LINE
  5
12C
100
AcDbEntity
100
AcDbLine
  8
0
 62
256
370
-1
  6
ByLayer
 10
28.5
 20
88.0
 30
0.0
 11
29.5
 21
88.0
 31
0.0
  0
LINE
  5
12D
100
AcDbEntity
100
AcDbLine
  8
0
 62
256
370
-1
  6
ByLayer
 10
27.0
 20
88.0
 30
0.0
 11
26.0
 21
88.0
 31
0.0
  0
LINE
  5
12E
100
AcDbEntity
100
AcDbLine
  8
0
 62
256
370
-1
  6
ByLayer
 10
27.799999999999997
 20
88.950000000000017
 30
0.0
 11
27.949999999999999
 21
88.800000000000011
 31
0.0
  0
LINE
  5
12F
100
AcDbEntity
100
AcDbLine
  8
0
 62
256
370
-1
  6
ByLayer
 10
27.949999999999999
 20
88.800000000000011
 30
0.0
 11
28.0
 21
89.0
 31
0.0
  0
LINE
  5
130
100
AcDbEntity
100
AcDbLine
  8
0
 62
256
370
-1
  6
ByLayer
 10
28.0
 20
89.0
 30
0.0
 11
27.799999999999997
 21
88.950000000000017
 31
0.0
  0
LINE
  5
131
100
AcDbEntity
100
AcDbLine
  8
0
 62
256
370
-1
  6
ByLayer
 10
27.449999999999999
 20
88.5
 30
0.0
 11
27.86904761904762
 21
88.88095238095238
 31
0.0
  0
LINE
  5
132
100
AcDbEntity
100
AcDbLine
  8
0
 62
256
370
-1
  6
ByLayer
 10
28.149999999999999
 20
88.75
 30
0.0
 11
28.299999999999997
 21
88.599999999999994
 31
0.0
  0
LINE
  5
133
100
AcDbEntity
100
AcDbLine
  8
0
 62
256
370
-1
  6
ByLayer
 10
28.299999999999997
 20
88.599999999999994
 30
0.0
 11
28.350000000000001
 21
88.800000000000011
 31
0.0
  0
LINE
  5
134
100
AcDbEntity
100
AcDbLine
  8
0
 62
256
370
-1
  6
ByLayer
 10
28.350000000000001
 20
88.800000000000011
 30
0.0
 11
28.149999999999999
 21
88.75
 31
0.0
  0
LINE
  5
135
100
AcDbEntity
100
AcDbLine
  8
0
 62
256
370
-1
  6
ByLayer
 10
27.799999999999997
 20
88.300000000000011
 30
0.0
 11
28.219047619047618
 21
88.680952380952391
 31
0.0
  0
LINE
  5
136
100
AcDbEntity
100
AcDbLine
  8
0
 62
256
370
-1
  6
ByLayer
 10
26.0
 20
89.0
 30
0.0
 11
30.0
 21
89.0
 31
0.0
  0
LINE
  5
137
100
AcDbEntity
100
AcDbLine
  8
0
 62
256
370
-1
  6
ByLayer
 10
30.0
 20
89.0
 30
0.0
 11
30.0
 21
87.0
 31
0.0
  0
LINE
  5
138
100
AcDbEntity
100
AcDbLine
  8
0
 62
256
370
-1
  6
ByLayer
 10
30.0
 20
87.0
 30
0.0
 11
26.0
 21
87.0
 31
0.0
  0
LINE
  5
139
100
AcDbEntity
100
AcDbLine
  8
0
 62
256
370
-1
  6
ByLayer
 10
26.0
 20
87.0
 30
0.0
 11
26.0
 21
89.0
 31
0.0
  0
LINE
  5
13A
100
AcDbEntity
100
AcDbLine
  8
0
 62
256
370
-1
  6
ByLayer
 10
27.0
 20
76.5
 30
0.0
 11
28.5
 21
77.0
 31
0.0
  0
LINE
  5
13B
100
AcDbEntity
100
AcDbLine
  8
0
 62
256
370
-1
  6
ByLayer
 10
28.5
 20
77.0
 30
0.0
 11
27.0
 21
77.5
 31
0.0
  0
LINE
  5
13C
100
AcDbEntity
100
AcDbLine
  8
0
 62
256
370
-1
  6
ByLayer
 10
27.0
 20
77.5
 30
0.0
 11
27.0
 21
76.5
 31
0.0
  0
LINE
  5
13D
100
AcDbEntity
100
AcDbLine
  8
0
 62
256
370
-1
  6
ByLayer
 10
28.5
 20
76.5
 30
0.0
 11
28.5
 21
77.5
 31
0.0
  0
LINE
  5
13E
100
AcDbEntity
100
AcDbLine
  8
0
 62
256
370
-1
  6
ByLayer
 10
28.5
 20
77.0
 30
0.0
 11
29.5
 21
77.0
 31
0.0
  0
LINE
  5
13F
100
AcDbEntity
100
AcDbLine
  8
0
 62
256
370
-1
  6
ByLayer
 10
27.0
 20
77.0
 30
0.0
 11
26.0
 21
77.0
 31
0.0
  0
LINE
  5
140
100
AcDbEntity
100
AcDbLine
  8
0
 62
256
370
-1
  6
ByLayer
 10
27.799999999999997
 20
77.950000000000017
 30
0.0
 11
27.949999999999999
 21
77.800000000000011
 31
0.0
  0
LINE
  5
141
100
AcDbEntity
100
AcDbLine
  8
0
 62
256
370
-1
  6
ByLayer
 10
27.949999999999999
 20
77.800000000000011
 30
0.0
 11
28.0
 21
78.0
 31
0.0
  0
LINE
  5
142
100
AcDbEntity
100
AcDbLine
  8
0
 62
256
370
-1
  6
ByLayer
 10
28.0
 20
78.0
 30
0.0
 11
27.799999999999997
 21
77.950000000000017
 31
0.0
  0
LINE
  5
143
100
AcDbEntity
100
AcDbLine
  8
0
 62
256
370
-1
  6
ByLayer
 10
27.449999999999999
 20
77.5
 30
0.0
 11
27.86904761904762
 21
77.88095238095238
 31
0.0
  0
LINE
  5
144
100
AcDbEntity
100
AcDbLine
  8
0
 62
256
370
-1
  6
ByLayer
 10
28.149999999999999
 20
77.75
 30
0.0
 11
28.299999999999997
 21
77.599999999999994
 31
0.0
  0
LINE
  5
145
100
AcDbEntity
100
AcDbLine
  8
0
 62
256
370
-1
  6
ByLayer
 10
28.299999999999997
 20
77.599999999999994
 30
0.0
 11
28.350000000000001
 21
77.800000000000011
 31
0.0
  0
LINE
  5
146
100
AcDbEntity
100
AcDbLine
  8
0
 62
256
370
-1
  6
ByLayer
 10
28.350000000000001
 20
77.800000000000011
 30
0.0
 11
28.149999999999999
 21
77.75
 31
0.0
  0
LINE
  5
147
100
AcDbEntity
100
AcDbLine
  8
0
 62
256
370
-1
  6
ByLayer
 10
27.799999999999997
 20
77.300000000000011
 30
0.0
 11
28.219047619047618
 21
77.680952380952391
 31
0.0
  0
LINE
  5
148
100
AcDbEntity
100
AcDbLine
  8
0
 62
256
370
-1
  6
ByLayer
 10
26.0
 20
78.0
 30
0.0
 11
30.0
 21
78.0
 31
0.0
  0
LINE
  5
149
100
AcDbEntity
100
AcDbLine
  8
0
 62
256
370
-1
  6
ByLayer
 10
30.0
 20
78.0
 30
0.0
 11
30.0
 21
76.0
 31
0.0
  0
LINE
  5
14A
100
AcDbEntity
100
AcDbLine
  8
0
 62
256
370
-1
  6
ByLayer
 10
30.0
 20
76.0
 30
0.0
 11
26.0
 21
76.0
 31
0.0
  0
LINE
  5
14B
100
AcDbEntity
100
AcDbLine
  8
0
 62
256
370
-1
  6
ByLayer
 10
26.0
 20
76.0
 30
0.0
 11
26.0
 21
78.0
 31
0.0
  0
MTEXT
  5
14C
100
AcDbEntity
100
AcDbMText
  8
0
 62
256
370
-1
  6
ByLayer
 10
22.0
 20
78.0
 30
0.0
 40
2.0
 41
100.0
 71
2
 72
0
  1
TX
  7
standard
 50
0.0
 73
1
 44
1.0
  0
MTEXT
  5
14D
100
AcDbEntity
100
AcDbMText
  8
0
 62
256
370
-1
  6
ByLayer
 10
22.0
 20
75.0
 30
0.0
 40
2.0
 41
100.0
 71
2
 72
0
  1
RX
  7
standard
 50
0.0
 73
1
 44
1.0
  0
MTEXT
  5
14E
100
AcDbEntity
100
AcDbMText
  8
0
 62
256
370
-1
  6
ByLayer
 10
22.0
 20
89.0
 30
0.0
 40
2.0
 41
100.0
 71
2
 72
0
  1
L13
  7
standard
 50
0.0
 73
1
 44
1.0
  0
LINE
  5
14F
100
AcDbEntity
100
AcDbLine
  8
0
 62
256
370
-1
  6
ByLayer
 10
29.0
 20
91.0
 30
0.0
 11
77.0
 21
91.0
 31
0.0
  0
MTEXT
  5
150
100
AcDbEntity
100
AcDbMText
  8
0
 62
256
370
-1
  6
ByLayer
 10
79.0
 20
90.0
 30
0.0
 40
2.0
 41
100.0
 71
2
 72
0
  1
TX0
  7
standard
 50
90.0
 73
1
 44
1.0
  0
MTEXT
  5
151
100
AcDbEntity
100
AcDbMText
  8
0
 62
256
370
-1
  6
ByLayer
 10
83.0
 20
90.0
 30
0.0
 40
2.0
 41
100.0
 71
2
 72
0
  1
RX0
  7
standard
 50
90.0
 73
1
 44
1.0
  0
MTEXT
  5
152
100
AcDbEntity
100
AcDbMText
  8
0
 62
256
370
-1
  6
ByLayer
 10
32.0
 20
93.0
 30
0.0
 40
2.0
 41
100.0
 71
2
 72
0
  1
PWM
  7
standard
 50
0.0
 73
1
 44
1.0
  0
LINE
  5
153
100
AcDbEntity
100
AcDbLine
  8
0
 62
256
370
-1
  6
ByLayer
 10
84.0
 20
95.0
 30
0.0
 11
84.0
 21
93.0
 31
0.0
  0
LINE
  5
154
100
AcDbEntity
100
AcDbLine
  8
0
 62
256
370
-1
  6
ByLayer
 10
84.0
 20
93.0
 30
0.0
 11
85.0
 21
94.0
 31
0.0
  0
LINE
  5
155
100
AcDbEntity
100
AcDbLine
  8
0
 62
256
370
-1
  6
ByLayer
 10
84.0
 20
93.0
 30
0.0
 11
83.0
 21
94.0
 31
0.0
  0
LINE
  5
156
100
AcDbEntity
100
AcDbLine
  8
0
 62
256
370
-1
  6
ByLayer
 10
80.0
 20
93.0
 30
0.0
 11
80.0
 21
95.0
 31
0.0
  0
LINE
  5
157
100
AcDbEntity
100
AcDbLine
  8
0
 62
256
370
-1
  6
ByLayer
 10
80.0
 20
95.0
 30
0.0
 11
79.0
 21
94.0
 31
0.0
  0
LINE
  5
158
100
AcDbEntity
100
AcDbLine
  8
0
 62
256
370
-1
  6
ByLayer
 10
80.0
 20
95.0
 30
0.0
 11
81.0
 21
94.0
 31
0.0
  0
MTEXT
  5
159
100
AcDbEntity
100
AcDbMText
  8
0
 62
256
370
-1
  6
ByLayer
 10
96.0
 20
91.0
 30
0.0
 40
2.0
 41
100.0
 71
2
 72
0
  1
TX3
  7
standard
 50
90.0
 73
1
 44
1.0
  0
MTEXT
  5
15A
100
AcDbEntity
100
AcDbMText
  8
0
 62
256
370
-1
  6
ByLayer
 10
100.0
 20
91.0
 30
0.0
 40
2.0
 41
100.0
 71
2
 72
0
  1
RX3
  7
standard
 50
90.0
 73
1
 44
1.0
  0
MTEXT
  5
15B
100
AcDbEntity
100
AcDbMText
  8
0
 62
256
370
-1
  6
ByLayer
 10
107.0
 20
91.0
 30
0.0
 40
2.0
 41
100.0
 71
2
 72
0
  1
RX2
  7
standard
 50
90.0
 73
1
 44
1.0
  0
MTEXT
  5
15C
100
AcDbEntity
100
AcDbMText
  8
0
 62
256
370
-1
  6
ByLayer
 10
115.0
 20
91.0
 30
0.0
 40
2.0
 41
100.0
 71
2
 72
0
  1
RX1
  7
standard
 50
90.0
 73
1
 44
1.0
  0
MTEXT
  5
15D
100
AcDbEntity
100
AcDbMText
  8
0
 62
256
370
-1
  6
ByLayer
 10
111.0
 20
91.0
 30
0.0
 40
2.0
 41
100.0
 71
2
 72
0
  1
TX1
  7
standard
 50
90.0
 73
1
 44
1.0
  0
MTEXT
  5
15E
100
AcDbEntity
100
AcDbMText
  8
0
 62
256
370
-1
  6
ByLayer
 10
103.0
 20
91.0
 30
0.0
 40
2.0
 41
100.0
 71
2
 72
0
  1
TX2
  7
standard
 50
90.0
 73
1
 44
1.0
  0
MTEXT
  5
15F
100
AcDbEntity
100
AcDbMText
  8
0
 62
256
370
-1
  6
ByLayer
 10
119.0
 20
91.0
 30
0.0
 40
2.0
 41
100.0
 71
2
 72
0
  1
SDA
  7
standard
 50
90.0
 73
1
 44
1.0
  0
MTEXT
  5
160
100
AcDbEntity
100
AcDbMText
  8
0
 62
256
370
-1
  6
ByLayer
 10
123.0
 20
91.0
 30
0.0
 40
2.0
 41
100.0
 71
2
 72
0
  1
SCL
  7
standard
 50
90.0
 73
1
 44
1.0
  0
MTEXT
  5
161
100
AcDbEntity
100
AcDbMText
  8
0
 62
256
370
-1
  6
ByLayer
 10
88.0
 20
85.0
 30
0.0
 40
2.0
 41
100.0
 71
2
 72
0
  1
COMMUNICATION
  7
standard
 50
0.0
 73
1
 44
1.0
  0
LINE
  5
162
100
AcDbEntity
100
AcDbLine
  8
0
 62
256
370
-1
  6
ByLayer
 10
78.0
 20
82.0
 30
0.0
 11
125.0
 21
82.0
 31
0.0
  0
CIRCLE
  5
163
100
AcDbEntity
100
AcDbCircle
  8
0
 62
256
370
-1
  6
ByLayer
 10
130.0
 20
100.0
 30
0.0
 40
2.8284271247461903
  0
LINE
  5
164
100
AcDbEntity
100
AcDbLine
  8
0
 62
256
370
-1
  6
ByLayer
 10
150.0
 20
90.0
 30
0.0
 11
150.0
 21
101.0
 31
0.0
  0
LINE
  5
165
100
AcDbEntity
100
AcDbLine
  8
0
 62
256
370
-1
  6
ByLayer
 10
150.0
 20
90.0
 30
0.0
 11
153.0
 21
88.0
 31
0.0
  0
LINE
  5
166
100
AcDbEntity
100
AcDbLine
  8
0
 62
256
370
-1
  6
ByLayer
 10
153.0
 20
30.0
 30
0.0
 11
153.0
 21
88.0
 31
0.0
  0
LINE
  5
167
100
AcDbEntity
100
AcDbLine
  8
0
 62
256
370
-1
  6
ByLayer
 10
143.0
 20
20.0
 30
0.0
 11
-10.0
 21
20.0
 31
0.0
  0
LINE
  5
168
100
AcDbEntity
100
AcDbLine
  8
0
 62
256
370
-1
  6
ByLayer
 10
153.0
 20
30.0
 30
0.0
 11
143.0
 21
20.0
 31
0.0
  0
CIRCLE
  5
169
100
AcDbEntity
100
AcDbCircle
  8
0
 62
256
370
-1
  6
ByLayer
 10
143.0
 20
26.0
 30
0.0
 40
3.1622776601683795
  0
INSERT
  5
16A
100
AcDbEntity
100
AcDbBlockReference
  8
0
 62
256
370
-1
  6
ByLayer
  2
terminal macho
 10
88.0
 20
73.0
 30
0.0
 44
1.0
 45
1.0
  0
INSERT
  5
16B
100
AcDbEntity
100
AcDbBlockReference
  8
0
 62
256
370
-1
  6
ByLayer
  2
terminal macho
 10
88.0
 20
69.0
 30
0.0
 44
1.0
 45
1.0
  0
INSERT
  5
16C
100
AcDbEntity
100
AcDbBlockReference
  8
0
 62
256
370
-1
  6
ByLayer
  2
terminal macho
 10
88.0
 20
65.0
 30
0.0
 44
1.0
 45
1.0
  0
INSERT
  5
16D
100
AcDbEntity
100
AcDbBlockReference
  8
0
 62
256
370
-1
  6
ByLayer
  2
terminal macho
 10
92.0
 20
65.0
 30
0.0
 44
1.0
 45
1.0
  0
INSERT
  5
16E
100
AcDbEntity
100
AcDbBlockReference
  8
0
 62
256
370
-1
  6
ByLayer
  2
terminal macho
 10
92.0
 20
69.0
 30
0.0
 44
1.0
 45
1.0
  0
INSERT
  5
16F
100
AcDbEntity
100
AcDbBlockReference
  8
0
 62
256
370
-1
  6
ByLayer
  2
terminal macho
 10
92.0
 20
73.0
 30
0.0
 44
1.0
 45
1.0
  0
LINE
  5
170
100
AcDbEntity
100
AcDbLine
  8
0
 62
256
370
-1
  6
ByLayer
 10
102.0
 20
64.0
 30
0.0
 11
108.0
 21
64.0
 31
0.0
  0
LINE
  5
171
100
AcDbEntity
100
AcDbLine
  8
0
 62
256
370
-1
  6
ByLayer
 10
108.0
 20
64.0
 30
0.0
 11
108.0
 21
70.0
 31
0.0
  0
LINE
  5
172
100
AcDbEntity
100
AcDbLine
  8
0
 62
256
370
-1
  6
ByLayer
 10
108.0
 20
70.0
 30
0.0
 11
102.0
 21
70.0
 31
0.0
  0
LINE
  5
173
100
AcDbEntity
100
AcDbLine
  8
0
 62
256
370
-1
  6
ByLayer
 10
102.0
 20
70.0
 30
0.0
 11
102.0
 21
64.0
 31
0.0
  0
CIRCLE
  5
174
100
AcDbEntity
100
AcDbCircle
  8
0
 62
256
370
-1
  6
ByLayer
 10
105.0
 20
67.0
 30
0.0
 40
1.0
  0
CIRCLE
  5
175
100
AcDbEntity
100
AcDbCircle
  8
0
 62
256
370
-1
  6
ByLayer
 10
105.0
 20
67.0
 30
0.0
 40
1.4142135623730951
  0
CIRCLE
  5
176
100
AcDbEntity
100
AcDbCircle
  8
0
 62
256
370
-1
  6
ByLayer
 10
105.0
 20
67.0
 30
0.0
 40
0.0
  0
CIRCLE
  5
177
100
AcDbEntity
100
AcDbCircle
  8
0
 62
256
370
-1
  6
ByLayer
 10
105.0
 20
67.0
 30
0.0
 40
1.612451549659689
  0
MTEXT
  5
178
100
AcDbEntity
100
AcDbMText
  8
0
 62
256
370
-1
  6
ByLayer
 10
99.0
 20
67.0
 30
0.0
 40
2.0
 41
100.0
 71
2
 72
0
  1
RESET
  7
standard
 50
90.0
 73
1
 44
1.0
  0
MTEXT
  5
179
100
AcDbEntity
100
AcDbMText
  8
0
 62
256
370
-1
  6
ByLayer
 10
83.0
 20
67.0
 30
0.0
 40
2.0
 41
100.0
 71
2
 72
0
  1
ICSP
  7
standard
 50
90.0
 73
1
 44
1.0
  0
LINE
  5
17A
100
AcDbEntity
100
AcDbLine
  8
0
 62
256
370
-1
  6
ByLayer
 10
150.0
 20
101.0
 30
0.0
 11
145.0
 21
105.0
 31
0.0
  0
LINE
  5
17B
100
AcDbEntity
100
AcDbLine
  8
0
 62
256
370
-1
  6
ByLayer
 10
112.0
 20
74.5
 30
0.0
 11
113.5
 21
75.0
 31
0.0
  0
LINE
  5
17C
100
AcDbEntity
100
AcDbLine
  8
0
 62
256
370
-1
  6
ByLayer
 10
113.5
 20
75.0
 30
0.0
 11
112.0
 21
75.5
 31
0.0
  0
LINE
  5
17D
100
AcDbEntity
100
AcDbLine
  8
0
 62
256
370
-1
  6
ByLayer
 10
112.0
 20
75.5
 30
0.0
 11
112.0
 21
74.5
 31
0.0
  0
LINE
  5
17E
100
AcDbEntity
100
AcDbLine
  8
0
 62
256
370
-1
  6
ByLayer
 10
113.5
 20
74.5
 30
0.0
 11
113.5
 21
75.5
 31
0.0
  0
LINE
  5
17F
100
AcDbEntity
100
AcDbLine
  8
0
 62
256
370
-1
  6
ByLayer
 10
113.5
 20
75.0
 30
0.0
 11
114.5
 21
75.0
 31
0.0
  0
LINE
  5
180
100
AcDbEntity
100
AcDbLine
  8
0
 62
256
370
-1
  6
ByLayer
 10
112.0
 20
75.0
 30
0.0
 11
111.0
 21
75.0
 31
0.0
  0
LINE
  5
181
100
AcDbEntity
100
AcDbLine
  8
0
 62
256
370
-1
  6
ByLayer
 10
112.8
 20
75.950000000000017
 30
0.0
 11
112.95
 21
75.800000000000011
 31
0.0
  0
LINE
  5
182
100
AcDbEntity
100
AcDbLine
  8
0
 62
256
370
-1
  6
ByLayer
 10
112.95
 20
75.800000000000011
 30
0.0
 11
113.0
 21
76.0
 31
0.0
  0
LINE
  5
183
100
AcDbEntity
100
AcDbLine
  8
0
 62
256
370
-1
  6
ByLayer
 10
113.0
 20
76.0
 30
0.0
 11
112.8
 21
75.950000000000017
 31
0.0
  0
LINE
  5
184
100
AcDbEntity
100
AcDbLine
  8
0
 62
256
370
-1
  6
ByLayer
 10
112.45
 20
75.5
 30
0.0
 11
112.86904761904762
 21
75.88095238095238
 31
0.0
  0
LINE
  5
185
100
AcDbEntity
100
AcDbLine
  8
0
 62
256
370
-1
  6
ByLayer
 10
113.15000000000001
 20
75.75
 30
0.0
 11
113.3
 21
75.599999999999994
 31
0.0
  0
LINE
  5
186
100
AcDbEntity
100
AcDbLine
  8
0
 62
256
370
-1
  6
ByLayer
 10
113.3
 20
75.599999999999994
 30
0.0
 11
113.34999999999999
 21
75.800000000000011
 31
0.0
  0
LINE
  5
187
100
AcDbEntity
100
AcDbLine
  8
0
 62
256
370
-1
  6
ByLayer
 10
113.34999999999999
 20
75.800000000000011
 30
0.0
 11
113.15000000000001
 21
75.75
 31
0.0
  0
LINE
  5
188
100
AcDbEntity
100
AcDbLine
  8
0
 62
256
370
-1
  6
ByLayer
 10
112.8
 20
75.300000000000011
 30
0.0
 11
113.21904761904761
 21
75.680952380952391
 31
0.0
  0
LINE
  5
189
100
AcDbEntity
100
AcDbLine
  8
0
 62
256
370
-1
  6
ByLayer
 10
111.0
 20
76.0
 30
0.0
 11
115.0
 21
76.0
 31
0.0
  0
LINE
  5
18A
100
AcDbEntity
100
AcDbLine
  8
0
 62
256
370
-1
  6
ByLayer
 10
115.0
 20
76.0
 30
0.0
 11
115.0
 21
74.0
 31
0.0
  0
LINE
  5
18B
100
AcDbEntity
100
AcDbLine
  8
0
 62
256
370
-1
  6
ByLayer
 10
115.0
 20
74.0
 30
0.0
 11
111.0
 21
74.0
 31
0.0
  0
LINE
  5
18C
100
AcDbEntity
100
AcDbLine
  8
0
 62
256
370
-1
  6
ByLayer
 10
111.0
 20
74.0
 30
0.0
 11
111.0
 21
76.0
 31
0.0
  0
MTEXT
  5
18D
100
AcDbEntity
100
AcDbMText
  8
0
 62
256
370
-1
  6
ByLayer
 10
113.0
 20
73.0
 30
0.0
 40
2.0
 41
100.0
 71
2
 72
0
  1
ON
  7
standard
 50
0.0
 73
1
 44
1.0
  0
MTEXT
  5
18E
100
AcDbEntity
100
AcDbMText
  8
0
 62
256
370
-1
  6
ByLayer
 10
100.0
 20
34.0
 30
0.0
 40
2.0
 41
100.0
 71
2
 72
0
  1
A7
  7
standard
 50
90.0
 73
1
 44
1.0
  0
MTEXT
  5
18F
100
AcDbEntity
100
AcDbMText
  8
0
 62
256
370
-1
  6
ByLayer
 10
95.0
 20
34.0
 30
0.0
 40
2.0
 41
100.0
 71
2
 72
0
  1
A6
  7
standard
 50
90.0
 73
1
 44
1.0
  0
MTEXT
  5
190
100
AcDbEntity
100
AcDbMText
  8
0
 62
256
370
-1
  6
ByLayer
 10
91.0
 20
34.0
 30
0.0
 40
2.0
 41
100.0
 71
2
 72
0
  1
A5
  7
standard
 50
90.0
 73
1
 44
1.0
  0
MTEXT
  5
191
100
AcDbEntity
100
AcDbMText
  8
0
 62
256
370
-1
  6
ByLayer
 10
87.0
 20
34.0
 30
0.0
 40
2.0
 41
100.0
 71
2
 72
0
  1
A4
  7
standard
 50
90.0
 73
1
 44
1.0
  0
MTEXT
  5
192
100
AcDbEntity
100
AcDbMText
  8
0
 62
256
370
-1
  6
ByLayer
 10
83.0
 20
34.0
 30
0.0
 40
2.0
 41
100.0
 71
2
 72
0
  1
A3
  7
standard
 50
90.0
 73
1
 44
1.0
  0
MTEXT
  5
193
100
AcDbEntity
100
AcDbMText
  8
0
 62
256
370
-1
  6
ByLayer
 10
79.0
 20
34.0
 30
0.0
 40
2.0
 41
100.0
 71
2
 72
0
  1
A2
  7
standard
 50
90.0
 73
1
 44
1.0
  0
MTEXT
  5
194
100
AcDbEntity
100
AcDbMText
  8
0
 62
256
370
-1
  6
ByLayer
 10
75.0
 20
34.0
 30
0.0
 40
2.0
 41
100.0
 71
2
 72
0
  1
A1
  7
standard
 50
90.0
 73
1
 44
1.0
  0
MTEXT
  5
195
100
AcDbEntity
100
AcDbMText
  8
0
 62
256
370
-1
  6
ByLayer
 10
71.0
 20
34.0
 30
0.0
 40
2.0
 41
100.0
 71
2
 72
0
  1
A0
  7
standard
 50
90.0
 73
1
 44
1.0
  0
MTEXT
  5
196
100
AcDbEntity
100
AcDbMText
  8
0
 62
256
370
-1
  6
ByLayer
 10
59.0
 20
34.0
 30
0.0
 40
2.0
 41
100.0
 71
2
 72
0
  1
Vin
  7
standard
 50
90.0
 73
1
 44
1.0
  0
MTEXT
  5
197
100
AcDbEntity
100
AcDbMText
  8
0
 62
256
370
-1
  6
ByLayer
 10
55.0
 20
35.0
 30
0.0
 40
2.0
 41
100.0
 71
2
 72
0
  1
GND
  7
standard
 50
90.0
 73
1
 44
1.0
  0
MTEXT
  5
198
100
AcDbEntity
100
AcDbMText
  8
0
 62
256
370
-1
  6
ByLayer
 10
51.0
 20
35.0
 30
0.0
 40
2.0
 41
100.0
 71
2
 72
0
  1
GND
  7
standard
 50
90.0
 73
1
 44
1.0
  0
MTEXT
  5
199
100
AcDbEntity
100
AcDbMText
  8
0
 62
256
370
-1
  6
ByLayer
 10
47.0
 20
35.0
 30
0.0
 40
2.0
 41
100.0
 71
2
 72
0
  1
5V
  7
standard
 50
90.0
 73
1
 44
1.0
  0
MTEXT
  5
19A
100
AcDbEntity
100
AcDbMText
  8
0
 62
256
370
-1
  6
ByLayer
 10
43.0
 20
35.0
 30
0.0
 40
2.0
 41
100.0
 71
2
 72
0
  1
3.3V
  7
standard
 50
90.0
 73
1
 44
1.0
  0
MTEXT
  5
19B
100
AcDbEntity
100
AcDbMText
  8
0
 62
256
370
-1
  6
ByLayer
 10
39.0
 20
37.0
 30
0.0
 40
2.0
 41
100.0
 71
2
 72
0
  1
RESET
  7
standard
 50
90.0
 73
1
 44
1.0
  0
MTEXT
  5
19C
100
AcDbEntity
100
AcDbMText
  8
0
 62
256
370
-1
  6
ByLayer
 10
34.0
 20
36.0
 30
0.0
 40
2.0
 41
100.0
 71
2
 72
0
  1
IOREF
  7
standard
 50
90.0
 73
1
 44
1.0
  0
INSERT
  5
19D
100
AcDbEntity
100
AcDbBlockReference
  8
0
 62
256
370
-1
  6
ByLayer
  2
terminal
 10
36.0
 20
30.0
 30
0.0
 44
1.0
 45
1.0
  0
INSERT
  5
19E
100
AcDbEntity
100
AcDbBlockReference
  8
0
 62
256
370
-1
  6
ByLayer
  2
terminal
 10
32.0
 20
30.0
 30
0.0
 44
1.0
 45
1.0
  0
INSERT
  5
19F
100
AcDbEntity
100
AcDbBlockReference
  8
0
 62
256
370
-1
  6
ByLayer
  2
terminal
 10
28.0
 20
30.0
 30
0.0
 44
1.0
 45
1.0
  0
MTEXT
  5
1A0
100
AcDbEntity
100
AcDbMText
  8
0
 62
256
370
-1
  6
ByLayer
 10
77.0
 20
41.0
 30
0.0
 40
2.0
 41
100.0
 71
2
 72
0
  1
ANALOG IN
  7
standard
 50
0.0
 73
1
 44
1.0
  0
MTEXT
  5
1A1
100
AcDbEntity
100
AcDbMText
  8
0
 62
256
370
-1
  6
ByLayer
 10
58.0
 20
41.0
 30
0.0
 40
2.0
 41
100.0
 71
2
 72
0
  1
POWER
  7
standard
 50
0.0
 73
1
 44
1.0
  0
INSERT
  5
1A2
100
AcDbEntity
100
AcDbBlockReference
  8
0
 62
256
370
-1
  6
ByLayer
  2
terminal
 10
106.0
 20
30.0
 30
0.0
 44
1.0
 45
1.0
  0
INSERT
  5
1A3
100
AcDbEntity
100
AcDbBlockReference
  8
0
 62
256
370
-1
  6
ByLayer
  2
terminal
 10
110.0
 20
30.0
 30
0.0
 44
1.0
 45
1.0
  0
INSERT
  5
1A4
100
AcDbEntity
100
AcDbBlockReference
  8
0
 62
256
370
-1
  6
ByLayer
  2
terminal
 10
114.0
 20
30.0
 30
0.0
 44
1.0
 45
1.0
  0
INSERT
  5
1A5
100
AcDbEntity
100
AcDbBlockReference
  8
0
 62
256
370
-1
  6
ByLayer
  2
terminal
 10
118.0
 20
30.0
 30
0.0
 44
1.0
 45
1.0
  0
INSERT
  5
1A6
100
AcDbEntity
100
AcDbBlockReference
  8
0
 62
256
370
-1
  6
ByLayer
  2
terminal
 10
122.0
 20
30.0
 30
0.0
 44
1.0
 45
1.0
  0
INSERT
  5
1A7
100
AcDbEntity
100
AcDbBlockReference
  8
0
 62
256
370
-1
  6
ByLayer
  2
terminal
 10
126.0
 20
30.0
 30
0.0
 44
1.0
 45
1.0
  0
INSERT
  5
1A8
100
AcDbEntity
100
AcDbBlockReference
  8
0
 62
256
370
-1
  6
ByLayer
  2
terminal
 10
130.0
 20
30.0
 30
0.0
 44
1.0
 45
1.0
  0
INSERT
  5
1A9
100
AcDbEntity
100
AcDbBlockReference
  8
0
 62
256
370
-1
  6
ByLayer
  2
terminal
 10
134.0
 20
30.0
 30
0.0
 44
1.0
 45
1.0
  0
MTEXT
  5
1AA
100
AcDbEntity
100
AcDbMText
  8
0
 62
256
370
-1
  6
ByLayer
 10
105.0
 20
34.0
 30
0.0
 40
2.0
 41
100.0
 71
2
 72
0
  1
A8
  7
standard
 50
90.0
 73
1
 44
1.0
  0
MTEXT
  5
1AB
100
AcDbEntity
100
AcDbMText
  8
0
 62
256
370
-1
  6
ByLayer
 10
109.0
 20
34.0
 30
0.0
 40
2.0
 41
100.0
 71
2
 72
0
  1
A9
  7
standard
 50
90.0
 73
1
 44
1.0
  0
MTEXT
  5
1AC
100
AcDbEntity
100
AcDbMText
  8
0
 62
256
370
-1
  6
ByLayer
 10
113.0
 20
35.0
 30
0.0
 40
2.0
 41
100.0
 71
2
 72
0
  1
A10
  7
standard
 50
90.0
 73
1
 44
1.0
  0
MTEXT
  5
1AD
100
AcDbEntity
100
AcDbMText
  8
0
 62
256
370
-1
  6
ByLayer
 10
117.0
 20
35.0
 30
0.0
 40
2.0
 41
100.0
 71
2
 72
0
  1
A11
  7
standard
 50
90.0
 73
1
 44
1.0
  0
MTEXT
  5
1AE
100
AcDbEntity
100
AcDbMText
  8
0
 62
256
370
-1
  6
ByLayer
 10
121.0
 20
35.0
 30
0.0
 40
2.0
 41
100.0
 71
2
 72
0
  1
A12
  7
standard
 50
90.0
 73
1
 44
1.0
  0
MTEXT
  5
1AF
100
AcDbEntity
100
AcDbMText
  8
0
 62
256
370
-1
  6
ByLayer
 10
125.0
 20
35.0
 30
0.0
 40
2.0
 41
100.0
 71
2
 72
0
  1
A13
  7
standard
 50
90.0
 73
1
 44
1.0
  0
MTEXT
  5
1B0
100
AcDbEntity
100
AcDbMText
  8
0
 62
256
370
-1
  6
ByLayer
 10
129.0
 20
35.0
 30
0.0
 40
2.0
 41
100.0
 71
2
 72
0
  1
A14
  7
standard
 50
90.0
 73
1
 44
1.0
  0
MTEXT
  5
1B1
100
AcDbEntity
100
AcDbMText
  8
0
 62
256
370
-1
  6
ByLayer
 10
133.0
 20
35.0
 30
0.0
 40
2.0
 41
100.0
 71
2
 72
0
  1
A15
  7
standard
 50
90.0
 73
1
 44
1.0
  0
LINE
  5
1B2
100
AcDbEntity
100
AcDbLine
  8
0
 62
256
370
-1
  6
ByLayer
 10
71.0
 20
38.0
 30
0.0
 11
134.0
 21
38.0
 31
0.0
  0
MTEXT
  5
1B3
100
AcDbEntity
100
AcDbMText
  8
0
 62
256
370
-1
  6
ByLayer
 10
130.0
 20
45.0
 30
0.0
 40
2.0
 41
100.0
 71
2
 72
0
  1
DIGITAL
  7
standard
 50
90.0
 73
1
 44
1.0
  0
LINE
  5
1B4
100
AcDbEntity
100
AcDbLine
  8
0
 62
256
370
-1
  6
ByLayer
 10
129.0
 20
40.0
 30
0.0
 11
129.0
 21
81.0
 31
0.0
  0
LINE
  5
1B5
100
AcDbEntity
100
AcDbLine
  8
0
 62
256
370
-1
  6
ByLayer
 10
129.0
 20
81.0
 30
0.0
 11
132.0
 21
84.0
 31
0.0
  0
LINE
  5
1B6
100
AcDbEntity
100
AcDbLine
  8
0
 62
256
370
-1
  6
ByLayer
 10
132.0
 20
84.0
 30
0.0
 11
132.0
 21
96.0
 31
0.0
  0
LINE
  5
1B7
100
AcDbEntity
100
AcDbLine
  8
0
 62
256
370
-1
  6
ByLayer
 10
68.0
 20
50.0
 30
0.0
 11
72.0
 21
50.0
 31
0.0
  0
MTEXT
  5
1B8
100
AcDbEntity
100
AcDbMText
  8
0
 62
256
370
-1
  6
ByLayer
 10
75.0
 20
45.0
 30
0.0
 40
2.0
 41
100.0
 71
2
 72
0
  1
ARDUINO
  7
standard
 50
0.0
 73
1
 44
1.0
  0
MTEXT
  5
1B9
100
AcDbEntity
100
AcDbMText
  8
0
 62
256
370
-1
  6
ByLayer
 10
101.0
 20
51.0
 30
0.0
 40
2.0
 41
100.0
 71
2
 72
0
  1
MEGA
  7
standard
 50
0.0
 73
1
 44
1.0
  0
MTEXT
  5
1BA
100
AcDbEntity
100
AcDbMText
  8
0
 62
256
370
-1
  6
ByLayer
 10
106.0
 20
45.0
 30
0.0
 40
2.0
 41
100.0
 71
2
 72
0
  1
2560
  7
standard
 50
0.0
 73
1
 44
1.0
  0
LINE
  5
1BB
100
AcDbEntity
100
AcDbLine
  8
0
 62
256
370
-1
  6
ByLayer
 10
80.0
 20
48.0
 30
0.0
 11
80.0
 21
52.0
 31
0.0
  0
LINE
  5
1BC
100
AcDbEntity
100
AcDbLine
  8
0
 62
256
370
-1
  6
ByLayer
 10
78.0
 20
50.0
 30
0.0
 11
82.0
 21
50.0
 31
0.0
  0
ARC
  5
1BD
100
AcDbEntity
  8
0
 62
256
370
18
  6
DASHED
100
AcDbCircle
 10
108.0
 20
50.0
 30
0.0
 40
3.0
100
AcDbArc
 50
270.0
 51
90.0
  0
LINE
  5
1BE
100
AcDbEntity
100
AcDbLine
  8
0
 62
256
370
18
  6
DASHED
 10
93.0
 20
53.0
 30
0.0
 11
108.0
 21
53.0
 31
0.0
  0
LINE
  5
1BF
100
AcDbEntity
100
AcDbLine
  8
0
 62
256
370
18
  6
DASHED
 10
108.0
 20
47.0
 30
0.0
 11
93.0
 21
47.0
 31
0.0
  0
ARC
  5
1C0
100
AcDbEntity
  8
0
 62
256
370
18
  6
DASHED
100
AcDbCircle
 10
93.0
 20
50.0
 30
0.0
 40
3.0
100
AcDbArc
 50
90.0
 51
270.0
  0
ELLIPSE
  5
1C1
100
AcDbEntity
100
AcDbEllipse
  8
0
 62
256
370
80
  6
ByLayer
 10
70.0
 20
50.0
 30
0.0
 11
5.0
 21
0.0
 31
0.0
 40
0.6
 41
0.0
 42
6.2831853071795862
  0
ELLIPSE
  5
1C2
100
AcDbEntity
100
AcDbEllipse
  8
0
 62
256
370
70
  6
ByLayer
 10
80.0
 20
50.0
 30
0.0
 11
5.0
 21
0.0
 31
0.0
 40
0.6
 41
0.0
 42
6.2831853071795862
  0
MTEXT
  5
1C3
100
AcDbEntity
100
AcDbMText
  8
0
 62
256
370
-1
  6
ByLayer
 10
3.0
 20
37.0
 30
0.0
 40
2.0
 41
100.0
 71
2
 72
0
  1
7S
  7
standard
 50
90.0
 73
1
 44
1.0
  0
MTEXT
  5
1C4
100
AcDbEntity
100
AcDbMText
  8
0
 62
256
370
-1
  6
ByLayer
 10
6.0
 20
37.0
 30
0.0
 40
2.0
 41
100.0
 71
2
 72
0
  1
47
  7
standard
 50
90.0
 73
1
 44
1.0
  0
MTEXT
  5
1C5
100
AcDbEntity
100
AcDbMText
  8
0
 62
256
370
-1
  6
ByLayer
 10
9.0
 20
37.0
 30
0.0
 40
2.0
 41
100.0
 71
2
 72
0
  1
25V
  7
standard
 50
90.0
 73
1
 44
1.0
  0
CIRCLE
  5
1C6
100
AcDbEntity
100
AcDbCircle
  8
0
 62
256
370
-1
  6
ByLayer
 10
6.0
 20
37.0
 30
0.0
 40
6.324555320336759
  0
CIRCLE
  5
1C7
100
AcDbEntity
100
AcDbCircle
  8
0
 62
256
370
-1
  6
ByLayer
 10
8.0
 20
84.0
 30
0.0
 40
0.7286149019833086
  0
CIRCLE
  5
1C8
100
AcDbEntity
100
AcDbCircle
  8
0
 62
256
370
-1
  6
ByLayer
 10
3.0
 20
84.0
 30
0.0
 40
0.6997841277632273
  0
ARC
  5
1C9
100
AcDbEntity
  8
0
 62
256
370
-1
  6
ByLayer
100
AcDbCircle
 10
2.0
 20
85.0
 30
0.0
 40
1.0
100
AcDbArc
 50
90.0
 51
180.0
  0
LINE
  5
1CA
100
AcDbEntity
100
AcDbLine
  8
0
 62
256
370
-1
  6
ByLayer
 10
1.0
 20
83.0
 30
0.0
 11
1.0
 21
85.0
 31
0.0
  0
ARC
  5
1CB
100
AcDbEntity
  8
0
 62
256
370
-1
  6
ByLayer
100
AcDbCircle
 10
2.0
 20
83.0
 30
0.0
 40
1.0
100
AcDbArc
 50
180.0
 51
270.0
  0
LINE
  5
1CC
100
AcDbEntity
100
AcDbLine
  8
0
 62
256
370
-1
  6
ByLayer
 10
9.0
 20
82.0
 30
0.0
 11
2.0
 21
82.0
 31
0.0
  0
ARC
  5
1CD
100
AcDbEntity
  8
0
 62
256
370
-1
  6
ByLayer
100
AcDbCircle
 10
9.0
 20
83.0
 30
0.0
 40
1.0
100
AcDbArc
 50
270.0
 51
0.0
  0
LINE
  5
1CE
100
AcDbEntity
100
AcDbLine
  8
0
 62
256
370
-1
  6
ByLayer
 10
10.0
 20
85.0
 30
0.0
 11
10.0
 21
83.0
 31
0.0
  0
LINE
  5
1CF
100
AcDbEntity
100
AcDbLine
  8
0
 62
256
370
-1
  6
ByLayer
 10
2.0
 20
86.0
 30
0.0
 11
9.0
 21
86.0
 31
0.0
  0
ARC
  5
1D0
100
AcDbEntity
  8
0
 62
256
370
-1
  6
ByLayer
100
AcDbCircle
 10
9.0
 20
85.0
 30
0.0
 40
1.0
100
AcDbArc
 50
0.0
 51
90.0
  0
CIRCLE
  5
1D1
100
AcDbEntity
100
AcDbCircle
  8
0
 62
256
370
-1
  6
ByLayer
 10
8.0
 20
80.0
 30
0.0
 40
0.7286149019833086
  0
CIRCLE
  5
1D2
100
AcDbEntity
100
AcDbCircle
  8
0
 62
256
370
-1
  6
ByLayer
 10
3.0
 20
80.0
 30
0.0
 40
0.6997841277632273
  0
ARC
  5
1D3
100
AcDbEntity
  8
0
 62
256
370
-1
  6
ByLayer
100
AcDbCircle
 10
2.0
 20
81.0
 30
0.0
 40
1.0
100
AcDbArc
 50
90.0
 51
180.0
  0
LINE
  5
1D4
100
AcDbEntity
100
AcDbLine
  8
0
 62
256
370
-1
  6
ByLayer
 10
1.0
 20
79.0
 30
0.0
 11
1.0
 21
81.0
 31
0.0
  0
ARC
  5
1D5
100
AcDbEntity
  8
0
 62
256
370
-1
  6
ByLayer
100
AcDbCircle
 10
2.0
 20
79.0
 30
0.0
 40
1.0
100
AcDbArc
 50
180.0
 51
270.0
  0
LINE
  5
1D6
100
AcDbEntity
100
AcDbLine
  8
0
 62
256
370
-1
  6
ByLayer
 10
9.0
 20
78.0
 30
0.0
 11
2.0
 21
78.0
 31
0.0
  0
ARC
  5
1D7
100
AcDbEntity
  8
0
 62
256
370
-1
  6
ByLayer
100
AcDbCircle
 10
9.0
 20
79.0
 30
0.0
 40
1.0
100
AcDbArc
 50
270.0
 51
0.0
  0
LINE
  5
1D8
100
AcDbEntity
100
AcDbLine
  8
0
 62
256
370
-1
  6
ByLayer
 10
10.0
 20
81.0
 30
0.0
 11
10.0
 21
79.0
 31
0.0
  0
LINE
  5
1D9
100
AcDbEntity
100
AcDbLine
  8
0
 62
256
370
-1
  6
ByLayer
 10
2.0
 20
82.0
 30
0.0
 11
9.0
 21
82.0
 31
0.0
  0
ARC
  5
1DA
100
AcDbEntity
  8
0
 62
256
370
-1
  6
ByLayer
100
AcDbCircle
 10
9.0
 20
81.0
 30
0.0
 40
1.0
100
AcDbArc
 50
0.0
 51
90.0
  0
MTEXT
  5
1DB
100
AcDbEntity
100
AcDbMText
  8
0
 62
256
370
-1
  6
ByLayer
 10
-2.0
 20
83.0
 30
0.0
 40
2.0
 41
100.0
 71
2
 72
0
  1
JP5
  7
standard
 50
90.0
 73
1
 44
1.0
  0
LINE
  5
1DC
100
AcDbEntity
100
AcDbLine
  8
0
 62
256
370
-1
  6
ByLayer
 10
145.0
 20
105.0
 30
0.0
 11
-10.0
 21
105.0
 31
0.0
  0
LINE
  5
1DD
100
AcDbEntity
100
AcDbLine
  8
0
 62
256
370
-1
  6
ByLayer
 10
-10.0
 20
105.0
 30
0.0
 11
-10.0
 21
20.0
 31
0.0
  0
MTEXT
  5
1DE
100
AcDbEntity
100
AcDbMText
  8
0
 62
256
370
-1
  6
ByLayer
 10
-2.0000000000002869
 20
102.80000000001475
 30
0.0
 40
2.0
 41
100.0
 71
2
 72
0
  1
MADE\PIN ITALY
  7
standard
 50
0.0
 73
1
 44
1.0
  0
MTEXT
  5
1DF
100
AcDbEntity
100
AcDbMText
  8
0
 62
256
370
-1
  6
ByLayer
 10
17.0
 20
37.0
 30
0.0
 40
2.0
 41
100.0
 71
2
 72
0
  1
7S
  7
standard
 50
90.0
 73
1
 44
1.0
  0
MTEXT
  5
1E0
100
AcDbEntity
100
AcDbMText
  8
0
 62
256
370
-1
  6
ByLayer
 10
20.0
 20
37.0
 30
0.0
 40
2.0
 41
100.0
 71
2
 72
0
  1
47
  7
standard
 50
90.0
 73
1
 44
1.0
  0
MTEXT
  5
1E1
100
AcDbEntity
100
AcDbMText
  8
0
 62
256
370
-1
  6
ByLayer
 10
23.0
 20
37.0
 30
0.0
 40
2.0
 41
100.0
 71
2
 72
0
  1
25V
  7
standard
 50
90.0
 73
1
 44
1.0
  0
CIRCLE
  5
1E2
100
AcDbEntity
100
AcDbCircle
  8
0
 62
256
370
-1
  6
ByLayer
 10
20.0
 20
37.0
 30
0.0
 40
6.324555320336759
  0
LINE
  5
1E3
100
AcDbEntity
100
AcDbLine
  8
0
 62
256
370
-1
  6
ByLayer
 10
-6.0
 20
47.0
 30
0.0
 11
-6.0
 21
53.0
 31
0.0
  0
LINE
  5
1E4
100
AcDbEntity
100
AcDbLine
  8
0
 62
256
370
-1
  6
ByLayer
 10
-6.0
 20
53.0
 30
0.0
 11
-2.0
 21
53.0
 31
0.0
  0
LINE
  5
1E5
100
AcDbEntity
100
AcDbLine
  8
0
 62
256
370
-1
  6
ByLayer
 10
-2.0
 20
53.0
 30
0.0
 11
-2.0
 21
47.0
 31
0.0
  0
LINE
  5
1E6
100
AcDbEntity
100
AcDbLine
  8
0
 62
256
370
-1
  6
ByLayer
 10
-2.0
 20
47.0
 30
0.0
 11
-6.0
 21
47.0
 31
0.0
  0
LINE
  5
1E7
100
AcDbEntity
100
AcDbLine
  8
0
 62
256
370
-1
  6
ByLayer
 10
-2.0
 20
48.0
 30
0.0
 11
2.0
 21
48.0
 31
0.0
  0
LINE
  5
1E8
100
AcDbEntity
100
AcDbLine
  8
0
 62
256
370
-1
  6
ByLayer
 10
-2.0
 20
50.0
 30
0.0
 11
2.0
 21
50.0
 31
0.0
  0
LINE
  5
1E9
100
AcDbEntity
100
AcDbLine
  8
0
 62
256
370
-1
  6
ByLayer
 10
-2.0
 20
52.0
 30
0.0
 11
2.0
 21
52.0
 31
0.0
  0
LINE
  5
1EA
100
AcDbEntity
100
AcDbLine
  8
0
 62
256
370
-1
  6
ByLayer
 10
-19.0
 20
88.0
 30
0.0
 11
-3.0
 21
88.0
 31
0.0
  0
LINE
  5
1EB
100
AcDbEntity
100
AcDbLine
  8
0
 62
256
370
-1
  6
ByLayer
 10
-3.0
 20
88.0
 30
0.0
 11
-3.0
 21
75.0
 31
0.0
  0
LINE
  5
1EC
100
AcDbEntity
100
AcDbLine
  8
0
 62
256
370
-1
  6
ByLayer
 10
-3.0
 20
75.0
 30
0.0
 11
-20.0
 21
75.0
 31
0.0
  0
LINE
  5
1ED
100
AcDbEntity
100
AcDbLine
  8
0
 62
256
370
-1
  6
ByLayer
 10
-20.0
 20
75.0
 30
0.0
 11
-20.0
 21
88.0
 31
0.0
  0
LINE
  5
1EE
100
AcDbEntity
100
AcDbLine
  8
0
 62
256
370
-1
  6
ByLayer
 10
-20.0
 20
88.0
 30
0.0
 11
-19.0
 21
88.0
 31
0.0
  0
LINE
  5
1EF
100
AcDbEntity
100
AcDbLine
  8
0
 62
256
370
-1
  6
ByLayer
 10
27.0
 20
73.5
 30
0.0
 11
28.5
 21
74.0
 31
0.0
  0
LINE
  5
1F0
100
AcDbEntity
100
AcDbLine
  8
0
 62
256
370
-1
  6
ByLayer
 10
28.5
 20
74.0
 30
0.0
 11
27.0
 21
74.5
 31
0.0
  0
LINE
  5
1F1
100
AcDbEntity
100
AcDbLine
  8
0
 62
256
370
-1
  6
ByLayer
 10
27.0
 20
74.5
 30
0.0
 11
27.0
 21
73.5
 31
0.0
  0
LINE
  5
1F2
100
AcDbEntity
100
AcDbLine
  8
0
 62
256
370
-1
  6
ByLayer
 10
28.5
 20
73.5
 30
0.0
 11
28.5
 21
74.5
 31
0.0
  0
LINE
  5
1F3
100
AcDbEntity
100
AcDbLine
  8
0
 62
256
370
-1
  6
ByLayer
 10
28.5
 20
74.0
 30
0.0
 11
29.5
 21
74.0
 31
0.0
  0
LINE
  5
1F4
100
AcDbEntity
100
AcDbLine
  8
0
 62
256
370
-1
  6
ByLayer
 10
27.0
 20
74.0
 30
0.0
 11
26.0
 21
74.0
 31
0.0
  0
LINE
  5
1F5
100
AcDbEntity
100
AcDbLine
  8
0
 62
256
370
-1
  6
ByLayer
 10
27.799999999999997
 20
74.950000000000017
 30
0.0
 11
27.949999999999999
 21
74.800000000000011
 31
0.0
  0
LINE
  5
1F6
100
AcDbEntity
100
AcDbLine
  8
0
 62
256
370
-1
  6
ByLayer
 10
27.949999999999999
 20
74.800000000000011
 30
0.0
 11
28.0
 21
75.0
 31
0.0
  0
LINE
  5
1F7
100
AcDbEntity
100
AcDbLine
  8
0
 62
256
370
-1
  6
ByLayer
 10
28.0
 20
75.0
 30
0.0
 11
27.799999999999997
 21
74.950000000000017
 31
0.0
  0
LINE
  5
1F8
100
AcDbEntity
100
AcDbLine
  8
0
 62
256
370
-1
  6
ByLayer
 10
27.449999999999999
 20
74.5
 30
0.0
 11
27.86904761904762
 21
74.88095238095238
 31
0.0
  0
LINE
  5
1F9
100
AcDbEntity
100
AcDbLine
  8
0
 62
256
370
-1
  6
ByLayer
 10
28.149999999999999
 20
74.75
 30
0.0
 11
28.299999999999997
 21
74.599999999999994
 31
0.0
  0
LINE
  5
1FA
100
AcDbEntity
100
AcDbLine
  8
0
 62
256
370
-1
  6
ByLayer
 10
28.299999999999997
 20
74.599999999999994
 30
0.0
 11
28.350000000000001
 21
74.800000000000011
 31
0.0
  0
LINE
  5
1FB
100
AcDbEntity
100
AcDbLine
  8
0
 62
256
370
-1
  6
ByLayer
 10
28.350000000000001
 20
74.800000000000011
 30
0.0
 11
28.149999999999999
 21
74.75
 31
0.0
  0
LINE
  5
1FC
100
AcDbEntity
100
AcDbLine
  8
0
 62
256
370
-1
  6
ByLayer
 10
27.799999999999997
 20
74.300000000000011
 30
0.0
 11
28.219047619047618
 21
74.680952380952391
 31
0.0
  0
LINE
  5
1FD
100
AcDbEntity
100
AcDbLine
  8
0
 62
256
370
-1
  6
ByLayer
 10
26.0
 20
75.0
 30
0.0
 11
30.0
 21
75.0
 31
0.0
  0
LINE
  5
1FE
100
AcDbEntity
100
AcDbLine
  8
0
 62
256
370
-1
  6
ByLayer
 10
30.0
 20
75.0
 30
0.0
 11
30.0
 21
73.0
 31
0.0
  0
LINE
  5
1FF
100
AcDbEntity
100
AcDbLine
  8
0
 62
256
370
-1
  6
ByLayer
 10
30.0
 20
73.0
 30
0.0
 11
26.0
 21
73.0
 31
0.0
  0
LINE
  5
200
100
AcDbEntity
100
AcDbLine
  8
0
 62
256
370
-1
  6
ByLayer
 10
26.0
 20
73.0
 30
0.0
 11
26.0
 21
75.0
 31
0.0
  0
LINE
  5
201
100
AcDbEntity
100
AcDbLine
  8
0
 62
256
370
-1
  6
ByLayer
 10
10.0
 20
75.0
 30
0.0
 11
10.0
 21
66.0
 31
0.0
  0
LINE
  5
202
100
AcDbEntity
100
AcDbLine
  8
0
 62
256
370
-1
  6
ByLayer
 10
10.0
 20
74.0
 30
0.0
 11
12.0
 21
74.0
 31
0.0
  0
LINE
  5
203
100
AcDbEntity
100
AcDbLine
  8
0
 62
256
370
-1
  6
ByLayer
 10
9.0
 20
66.0
 30
0.0
 11
9.0
 21
64.0
 31
0.0
  0
LINE
  5
204
100
AcDbEntity
100
AcDbLine
  8
0
 62
256
370
-1
  6
ByLayer
 10
10.0
 20
73.799999999999997
 30
0.0
 11
12.0
 21
73.799999999999997
 31
0.0
  0
LINE
  5
205
100
AcDbEntity
100
AcDbLine
  8
0
 62
256
370
-1
  6
ByLayer
 10
10.0
 20
73.599999999999994
 30
0.0
 11
12.0
 21
73.599999999999994
 31
0.0
  0
LINE
  5
206
100
AcDbEntity
100
AcDbLine
  8
0
 62
256
370
-1
  6
ByLayer
 10
10.0
 20
73.399999999999991
 30
0.0
 11
12.0
 21
73.399999999999991
 31
0.0
  0
LINE
  5
207
100
AcDbEntity
100
AcDbLine
  8
0
 62
256
370
-1
  6
ByLayer
 10
10.0
 20
73.199999999999989
 30
0.0
 11
12.0
 21
73.199999999999989
 31
0.0
  0
LINE
  5
208
100
AcDbEntity
100
AcDbLine
  8
0
 62
256
370
-1
  6
ByLayer
 10
10.0
 20
72.999999999999986
 30
0.0
 11
12.0
 21
72.999999999999986
 31
0.0
  0
LINE
  5
209
100
AcDbEntity
100
AcDbLine
  8
0
 62
256
370
-1
  6
ByLayer
 10
10.0
 20
72.799999999999983
 30
0.0
 11
12.0
 21
72.799999999999983
 31
0.0
  0
LINE
  5
20A
100
AcDbEntity
100
AcDbLine
  8
0
 62
256
370
-1
  6
ByLayer
 10
10.0
 20
72.59999999999998
 30
0.0
 11
12.0
 21
72.59999999999998
 31
0.0
  0
LINE
  5
20B
100
AcDbEntity
100
AcDbLine
  8
0
 62
256
370
-1
  6
ByLayer
 10
10.0
 20
72.399999999999977
 30
0.0
 11
12.0
 21
72.399999999999977
 31
0.0
  0
LINE
  5
20C
100
AcDbEntity
100
AcDbLine
  8
0
 62
256
370
-1
  6
ByLayer
 10
10.0
 20
72.199999999999974
 30
0.0
 11
12.0
 21
72.199999999999974
 31
0.0
  0
LINE
  5
20D
100
AcDbEntity
100
AcDbLine
  8
0
 62
256
370
-1
  6
ByLayer
 10
10.0
 20
71.999999999999972
 30
0.0
 11
12.0
 21
71.999999999999972
 31
0.0
  0
LINE
  5
20E
100
AcDbEntity
100
AcDbLine
  8
0
 62
256
370
-1
  6
ByLayer
 10
10.0
 20
71.799999999999969
 30
0.0
 11
12.0
 21
71.799999999999969
 31
0.0
  0
LINE
  5
20F
100
AcDbEntity
100
AcDbLine
  8
0
 62
256
370
-1
  6
ByLayer
 10
10.0
 20
71.599999999999966
 30
0.0
 11
12.0
 21
71.599999999999966
 31
0.0
  0
LINE
  5
210
100
AcDbEntity
100
AcDbLine
  8
0
 62
256
370
-1
  6
ByLayer
 10
10.0
 20
71.399999999999963
 30
0.0
 11
12.0
 21
71.399999999999963
 31
0.0
  0
LINE
  5
211
100
AcDbEntity
100
AcDbLine
  8
0
 62
256
370
-1
  6
ByLayer
 10
10.0
 20
71.19999999999996
 30
0.0
 11
12.0
 21
71.19999999999996
 31
0.0
  0
LINE
  5
212
100
AcDbEntity
100
AcDbLine
  8
0
 62
256
370
-1
  6
ByLayer
 10
10.0
 20
70.999999999999957
 30
0.0
 11
12.0
 21
70.999999999999957
 31
0.0
  0
LINE
  5
213
100
AcDbEntity
100
AcDbLine
  8
0
 62
256
370
-1
  6
ByLayer
 10
10.0
 20
70.799999999999955
 30
0.0
 11
12.0
 21
70.799999999999955
 31
0.0
  0
LINE
  5
214
100
AcDbEntity
100
AcDbLine
  8
0
 62
256
370
-1
  6
ByLayer
 10
10.0
 20
70.599999999999952
 30
0.0
 11
12.0
 21
70.599999999999952
 31
0.0
  0
LINE
  5
215
100
AcDbEntity
100
AcDbLine
  8
0
 62
256
370
-1
  6
ByLayer
 10
10.0
 20
70.399999999999949
 30
0.0
 11
12.0
 21
70.399999999999949
 31
0.0
  0
LINE
  5
216
100
AcDbEntity
100
AcDbLine
  8
0
 62
256
370
-1
  6
ByLayer
 10
10.0
 20
70.199999999999946
 30
0.0
 11
12.0
 21
70.199999999999946
 31
0.0
  0
LINE
  5
217
100
AcDbEntity
100
AcDbLine
  8
0
 62
256
370
-1
  6
ByLayer
 10
10.0
 20
69.999999999999943
 30
0.0
 11
12.0
 21
69.999999999999943
 31
0.0
  0
LINE
  5
218
100
AcDbEntity
100
AcDbLine
  8
0
 62
256
370
-1
  6
ByLayer
 10
10.0
 20
69.79999999999994
 30
0.0
 11
12.0
 21
69.79999999999994
 31
0.0
  0
LINE
  5
219
100
AcDbEntity
100
AcDbLine
  8
0
 62
256
370
-1
  6
ByLayer
 10
10.0
 20
69.599999999999937
 30
0.0
 11
12.0
 21
69.599999999999937
 31
0.0
  0
LINE
  5
21A
100
AcDbEntity
100
AcDbLine
  8
0
 62
256
370
-1
  6
ByLayer
 10
10.0
 20
69.399999999999935
 30
0.0
 11
12.0
 21
69.399999999999935
 31
0.0
  0
LINE
  5
21B
100
AcDbEntity
100
AcDbLine
  8
0
 62
256
370
-1
  6
ByLayer
 10
10.0
 20
69.199999999999932
 30
0.0
 11
12.0
 21
69.199999999999932
 31
0.0
  0
LINE
  5
21C
100
AcDbEntity
100
AcDbLine
  8
0
 62
256
370
-1
  6
ByLayer
 10
10.0
 20
68.999999999999929
 30
0.0
 11
12.0
 21
68.999999999999929
 31
0.0
  0
LINE
  5
21D
100
AcDbEntity
100
AcDbLine
  8
0
 62
256
370
-1
  6
ByLayer
 10
10.0
 20
68.799999999999926
 30
0.0
 11
12.0
 21
68.799999999999926
 31
0.0
  0
LINE
  5
21E
100
AcDbEntity
100
AcDbLine
  8
0
 62
256
370
-1
  6
ByLayer
 10
10.0
 20
68.599999999999923
 30
0.0
 11
12.0
 21
68.599999999999923
 31
0.0
  0
LINE
  5
21F
100
AcDbEntity
100
AcDbLine
  8
0
 62
256
370
-1
  6
ByLayer
 10
10.0
 20
68.39999999999992
 30
0.0
 11
12.0
 21
68.39999999999992
 31
0.0
  0
LINE
  5
220
100
AcDbEntity
100
AcDbLine
  8
0
 62
256
370
-1
  6
ByLayer
 10
10.0
 20
68.199999999999918
 30
0.0
 11
12.0
 21
68.199999999999918
 31
0.0
  0
LINE
  5
221
100
AcDbEntity
100
AcDbLine
  8
0
 62
256
370
-1
  6
ByLayer
 10
10.0
 20
67.999999999999915
 30
0.0
 11
12.0
 21
67.999999999999915
 31
0.0
  0
LINE
  5
222
100
AcDbEntity
100
AcDbLine
  8
0
 62
256
370
-1
  6
ByLayer
 10
10.0
 20
67.799999999999912
 30
0.0
 11
12.0
 21
67.799999999999912
 31
0.0
  0
LINE
  5
223
100
AcDbEntity
100
AcDbLine
  8
0
 62
256
370
-1
  6
ByLayer
 10
10.0
 20
67.599999999999909
 30
0.0
 11
12.0
 21
67.599999999999909
 31
0.0
  0
LINE
  5
224
100
AcDbEntity
100
AcDbLine
  8
0
 62
256
370
-1
  6
ByLayer
 10
10.0
 20
67.399999999999906
 30
0.0
 11
12.0
 21
67.399999999999906
 31
0.0
  0
LINE
  5
225
100
AcDbEntity
100
AcDbLine
  8
0
 62
256
370
-1
  6
ByLayer
 10
8.8000000000000007
 20
66.0
 30
0.0
 11
8.8000000000000007
 21
64.0
 31
0.0
  0
LINE
  5
226
100
AcDbEntity
100
AcDbLine
  8
0
 62
256
370
-1
  6
ByLayer
 10
8.6000000000000014
 20
66.0
 30
0.0
 11
8.6000000000000014
 21
64.0
 31
0.0
  0
LINE
  5
227
100
AcDbEntity
100
AcDbLine
  8
0
 62
256
370
-1
  6
ByLayer
 10
8.4000000000000021
 20
66.0
 30
0.0
 11
8.4000000000000021
 21
64.0
 31
0.0
  0
LINE
  5
228
100
AcDbEntity
100
AcDbLine
  8
0
 62
256
370
-1
  6
ByLayer
 10
8.2000000000000028
 20
66.0
 30
0.0
 11
8.2000000000000028
 21
64.0
 31
0.0
  0
LINE
  5
229
100
AcDbEntity
100
AcDbLine
  8
0
 62
256
370
-1
  6
ByLayer
 10
8.0000000000000036
 20
66.0
 30
0.0
 11
8.0000000000000036
 21
64.0
 31
0.0
  0
LINE
  5
22A
100
AcDbEntity
100
AcDbLine
  8
0
 62
256
370
-1
  6
ByLayer
 10
7.8000000000000043
 20
66.0
 30
0.0
 11
7.8000000000000043
 21
64.0
 31
0.0
  0
LINE
  5
22B
100
AcDbEntity
100
AcDbLine
  8
0
 62
256
370
-1
  6
ByLayer
 10
7.600000000000005
 20
66.0
 30
0.0
 11
7.600000000000005
 21
64.0
 31
0.0
  0
LINE
  5
22C
100
AcDbEntity
100
AcDbLine
  8
0
 62
256
370
-1
  6
ByLayer
 10
7.4000000000000057
 20
66.0
 30
0.0
 11
7.4000000000000057
 21
64.0
 31
0.0
  0
LINE
  5
22D
100
AcDbEntity
100
AcDbLine
  8
0
 62
256
370
-1
  6
ByLayer
 10
7.2000000000000064
 20
66.0
 30
0.0
 11
7.2000000000000064
 21
64.0
 31
0.0
  0
LINE
  5
22E
100
AcDbEntity
100
AcDbLine
  8
0
 62
256
370
-1
  6
ByLayer
 10
7.0000000000000071
 20
66.0
 30
0.0
 11
7.0000000000000071
 21
64.0
 31
0.0
  0
LINE
  5
22F
100
AcDbEntity
100
AcDbLine
  8
0
 62
256
370
-1
  6
ByLayer
 10
6.8000000000000078
 20
66.0
 30
0.0
 11
6.8000000000000078
 21
64.0
 31
0.0
  0
LINE
  5
230
100
AcDbEntity
100
AcDbLine
  8
0
 62
256
370
-1
  6
ByLayer
 10
6.6000000000000085
 20
66.0
 30
0.0
 11
6.6000000000000085
 21
64.0
 31
0.0
  0
LINE
  5
231
100
AcDbEntity
100
AcDbLine
  8
0
 62
256
370
-1
  6
ByLayer
 10
6.4000000000000092
 20
66.0
 30
0.0
 11
6.4000000000000092
 21
64.0
 31
0.0
  0
LINE
  5
232
100
AcDbEntity
100
AcDbLine
  8
0
 62
256
370
-1
  6
ByLayer
 10
6.2000000000000099
 20
66.0
 30
0.0
 11
6.2000000000000099
 21
64.0
 31
0.0
  0
LINE
  5
233
100
AcDbEntity
100
AcDbLine
  8
0
 62
256
370
-1
  6
ByLayer
 10
6.0000000000000107
 20
66.0
 30
0.0
 11
6.0000000000000107
 21
64.0
 31
0.0
  0
LINE
  5
234
100
AcDbEntity
100
AcDbLine
  8
0
 62
256
370
-1
  6
ByLayer
 10
5.8000000000000114
 20
66.0
 30
0.0
 11
5.8000000000000114
 21
64.0
 31
0.0
  0
LINE
  5
235
100
AcDbEntity
100
AcDbLine
  8
0
 62
256
370
-1
  6
ByLayer
 10
5.6000000000000121
 20
66.0
 30
0.0
 11
5.6000000000000121
 21
64.0
 31
0.0
  0
LINE
  5
236
100
AcDbEntity
100
AcDbLine
  8
0
 62
256
370
-1
  6
ByLayer
 10
5.4000000000000128
 20
66.0
 30
0.0
 11
5.4000000000000128
 21
64.0
 31
0.0
  0
LINE
  5
237
100
AcDbEntity
100
AcDbLine
  8
0
 62
256
370
-1
  6
ByLayer
 10
5.2000000000000135
 20
66.0
 30
0.0
 11
5.2000000000000135
 21
64.0
 31
0.0
  0
LINE
  5
238
100
AcDbEntity
100
AcDbLine
  8
0
 62
256
370
-1
  6
ByLayer
 10
5.0000000000000142
 20
66.0
 30
0.0
 11
5.0000000000000142
 21
64.0
 31
0.0
  0
LINE
  5
239
100
AcDbEntity
100
AcDbLine
  8
0
 62
256
370
-1
  6
ByLayer
 10
4.8000000000000149
 20
66.0
 30
0.0
 11
4.8000000000000149
 21
64.0
 31
0.0
  0
LINE
  5
23A
100
AcDbEntity
100
AcDbLine
  8
0
 62
256
370
-1
  6
ByLayer
 10
4.6000000000000156
 20
66.0
 30
0.0
 11
4.6000000000000156
 21
64.0
 31
0.0
  0
LINE
  5
23B
100
AcDbEntity
100
AcDbLine
  8
0
 62
256
370
-1
  6
ByLayer
 10
4.4000000000000163
 20
66.0
 30
0.0
 11
4.4000000000000163
 21
64.0
 31
0.0
  0
LINE
  5
23C
100
AcDbEntity
100
AcDbLine
  8
0
 62
256
370
-1
  6
ByLayer
 10
4.2000000000000171
 20
66.0
 30
0.0
 11
4.2000000000000171
 21
64.0
 31
0.0
  0
LINE
  5
23D
100
AcDbEntity
100
AcDbLine
  8
0
 62
256
370
-1
  6
ByLayer
 10
4.0000000000000178
 20
66.0
 30
0.0
 11
4.0000000000000178
 21
64.0
 31
0.0
  0
LINE
  5
23E
100
AcDbEntity
100
AcDbLine
  8
0
 62
256
370
-1
  6
ByLayer
 10
3.8000000000000185
 20
66.0
 30
0.0
 11
3.8000000000000185
 21
64.0
 31
0.0
  0
LINE
  5
23F
100
AcDbEntity
100
AcDbLine
  8
0
 62
256
370
-1
  6
ByLayer
 10
3.6000000000000192
 20
66.0
 30
0.0
 11
3.6000000000000192
 21
64.0
 31
0.0
  0
LINE
  5
240
100
AcDbEntity
100
AcDbLine
  8
0
 62
256
370
-1
  6
ByLayer
 10
3.4000000000000199
 20
66.0
 30
0.0
 11
3.4000000000000199
 21
64.0
 31
0.0
  0
LINE
  5
241
100
AcDbEntity
100
AcDbLine
  8
0
 62
256
370
-1
  6
ByLayer
 10
3.2000000000000206
 20
66.0
 30
0.0
 11
3.2000000000000206
 21
64.0
 31
0.0
  0
LINE
  5
242
100
AcDbEntity
100
AcDbLine
  8
0
 62
256
370
-1
  6
ByLayer
 10
3.0000000000000213
 20
66.0
 30
0.0
 11
3.0000000000000213
 21
64.0
 31
0.0
  0
LINE
  5
243
100
AcDbEntity
100
AcDbLine
  8
0
 62
256
370
-1
  6
ByLayer
 10
2.800000000000022
 20
66.0
 30
0.0
 11
2.800000000000022
 21
64.0
 31
0.0
  0
LINE
  5
244
100
AcDbEntity
100
AcDbLine
  8
0
 62
256
370
-1
  6
ByLayer
 10
2.6000000000000227
 20
66.0
 30
0.0
 11
2.6000000000000227
 21
64.0
 31
0.0
  0
LINE
  5
245
100
AcDbEntity
100
AcDbLine
  8
0
 62
256
370
-1
  6
ByLayer
 10
2.4000000000000234
 20
66.0
 30
0.0
 11
2.4000000000000234
 21
64.0
 31
0.0
  0
LINE
  5
246
100
AcDbEntity
100
AcDbLine
  8
0
 62
256
370
-1
  6
ByLayer
 10
1.0
 20
75.0
 30
0.0
 11
10.0
 21
75.0
 31
0.0
  0
LINE
  5
247
100
AcDbEntity
100
AcDbLine
  8
0
 62
256
370
-1
  6
ByLayer
 10
10.0
 20
66.0
 30
0.0
 11
1.0
 21
66.0
 31
0.0
  0
LINE
  5
248
100
AcDbEntity
100
AcDbLine
  8
0
 62
256
370
-1
  6
ByLayer
 10
1.0
 20
66.0
 30
0.0
 11
1.0
 21
75.0
 31
0.0
  0
LINE
  5
249
100
AcDbEntity
100
AcDbLine
  8
0
 62
256
370
-1
  6
ByLayer
 10
1.0
 20
67.0
 30
0.0
 11
-1.0
 21
67.0
 31
0.0
  0
LINE
  5
24A
100
AcDbEntity
100
AcDbLine
  8
0
 62
256
370
-1
  6
ByLayer
 10
2.0
 20
75.0
 30
0.0
 11
2.0
 21
77.0
 31
0.0
  0
LINE
  5
24B
100
AcDbEntity
100
AcDbLine
  8
0
 62
256
370
-1
  6
ByLayer
 10
2.2000000000000002
 20
75.0
 30
0.0
 11
2.2000000000000002
 21
77.0
 31
0.0
  0
LINE
  5
24C
100
AcDbEntity
100
AcDbLine
  8
0
 62
256
370
-1
  6
ByLayer
 10
2.4000000000000004
 20
75.0
 30
0.0
 11
2.4000000000000004
 21
77.0
 31
0.0
  0
LINE
  5
24D
100
AcDbEntity
100
AcDbLine
  8
0
 62
256
370
-1
  6
ByLayer
 10
2.6000000000000005
 20
75.0
 30
0.0
 11
2.6000000000000005
 21
77.0
 31
0.0
  0
LINE
  5
24E
100
AcDbEntity
100
AcDbLine
  8
0
 62
256
370
-1
  6
ByLayer
 10
2.8000000000000007
 20
75.0
 30
0.0
 11
2.8000000000000007
 21
77.0
 31
0.0
  0
LINE
  5
24F
100
AcDbEntity
100
AcDbLine
  8
0
 62
256
370
-1
  6
ByLayer
 10
3.0000000000000009
 20
75.0
 30
0.0
 11
3.0000000000000009
 21
77.0
 31
0.0
  0
LINE
  5
250
100
AcDbEntity
100
AcDbLine
  8
0
 62
256
370
-1
  6
ByLayer
 10
3.2000000000000011
 20
75.0
 30
0.0
 11
3.2000000000000011
 21
77.0
 31
0.0
  0
LINE
  5
251
100
AcDbEntity
100
AcDbLine
  8
0
 62
256
370
-1
  6
ByLayer
 10
3.4000000000000012
 20
75.0
 30
0.0
 11
3.4000000000000012
 21
77.0
 31
0.0
  0
LINE
  5
252
100
AcDbEntity
100
AcDbLine
  8
0
 62
256
370
-1
  6
ByLayer
 10
3.6000000000000014
 20
75.0
 30
0.0
 11
3.6000000000000014
 21
77.0
 31
0.0
  0
LINE
  5
253
100
AcDbEntity
100
AcDbLine
  8
0
 62
256
370
-1
  6
ByLayer
 10
3.8000000000000016
 20
75.0
 30
0.0
 11
3.8000000000000016
 21
77.0
 31
0.0
  0
LINE
  5
254
100
AcDbEntity
100
AcDbLine
  8
0
 62
256
370
-1
  6
ByLayer
 10
4.0000000000000018
 20
75.0
 30
0.0
 11
4.0000000000000018
 21
77.0
 31
0.0
  0
LINE
  5
255
100
AcDbEntity
100
AcDbLine
  8
0
 62
256
370
-1
  6
ByLayer
 10
4.200000000000002
 20
75.0
 30
0.0
 11
4.200000000000002
 21
77.0
 31
0.0
  0
LINE
  5
256
100
AcDbEntity
100
AcDbLine
  8
0
 62
256
370
-1
  6
ByLayer
 10
4.4000000000000021
 20
75.0
 30
0.0
 11
4.4000000000000021
 21
77.0
 31
0.0
  0
LINE
  5
257
100
AcDbEntity
100
AcDbLine
  8
0
 62
256
370
-1
  6
ByLayer
 10
4.6000000000000023
 20
75.0
 30
0.0
 11
4.6000000000000023
 21
77.0
 31
0.0
  0
LINE
  5
258
100
AcDbEntity
100
AcDbLine
  8
0
 62
256
370
-1
  6
ByLayer
 10
4.8000000000000025
 20
75.0
 30
0.0
 11
4.8000000000000025
 21
77.0
 31
0.0
  0
LINE
  5
259
100
AcDbEntity
100
AcDbLine
  8
0
 62
256
370
-1
  6
ByLayer
 10
5.0000000000000027
 20
75.0
 30
0.0
 11
5.0000000000000027
 21
77.0
 31
0.0
  0
LINE
  5
25A
100
AcDbEntity
100
AcDbLine
  8
0
 62
256
370
-1
  6
ByLayer
 10
5.2000000000000028
 20
75.0
 30
0.0
 11
5.2000000000000028
 21
77.0
 31
0.0
  0
LINE
  5
25B
100
AcDbEntity
100
AcDbLine
  8
0
 62
256
370
-1
  6
ByLayer
 10
5.400000000000003
 20
75.0
 30
0.0
 11
5.400000000000003
 21
77.0
 31
0.0
  0
LINE
  5
25C
100
AcDbEntity
100
AcDbLine
  8
0
 62
256
370
-1
  6
ByLayer
 10
5.6000000000000032
 20
75.0
 30
0.0
 11
5.6000000000000032
 21
77.0
 31
0.0
  0
LINE
  5
25D
100
AcDbEntity
100
AcDbLine
  8
0
 62
256
370
-1
  6
ByLayer
 10
5.8000000000000034
 20
75.0
 30
0.0
 11
5.8000000000000034
 21
77.0
 31
0.0
  0
LINE
  5
25E
100
AcDbEntity
100
AcDbLine
  8
0
 62
256
370
-1
  6
ByLayer
 10
6.0000000000000036
 20
75.0
 30
0.0
 11
6.0000000000000036
 21
77.0
 31
0.0
  0
LINE
  5
25F
100
AcDbEntity
100
AcDbLine
  8
0
 62
256
370
-1
  6
ByLayer
 10
6.2000000000000037
 20
75.0
 30
0.0
 11
6.2000000000000037
 21
77.0
 31
0.0
  0
LINE
  5
260
100
AcDbEntity
100
AcDbLine
  8
0
 62
256
370
-1
  6
ByLayer
 10
6.4000000000000039
 20
75.0
 30
0.0
 11
6.4000000000000039
 21
77.0
 31
0.0
  0
LINE
  5
261
100
AcDbEntity
100
AcDbLine
  8
0
 62
256
370
-1
  6
ByLayer
 10
6.6000000000000041
 20
75.0
 30
0.0
 11
6.6000000000000041
 21
77.0
 31
0.0
  0
LINE
  5
262
100
AcDbEntity
100
AcDbLine
  8
0
 62
256
370
-1
  6
ByLayer
 10
6.8000000000000043
 20
75.0
 30
0.0
 11
6.8000000000000043
 21
77.0
 31
0.0
  0
LINE
  5
263
100
AcDbEntity
100
AcDbLine
  8
0
 62
256
370
-1
  6
ByLayer
 10
7.0000000000000044
 20
75.0
 30
0.0
 11
7.0000000000000044
 21
77.0
 31
0.0
  0
LINE
  5
264
100
AcDbEntity
100
AcDbLine
  8
0
 62
256
370
-1
  6
ByLayer
 10
7.2000000000000046
 20
75.0
 30
0.0
 11
7.2000000000000046
 21
77.0
 31
0.0
  0
LINE
  5
265
100
AcDbEntity
100
AcDbLine
  8
0
 62
256
370
-1
  6
ByLayer
 10
7.4000000000000048
 20
75.0
 30
0.0
 11
7.4000000000000048
 21
77.0
 31
0.0
  0
LINE
  5
266
100
AcDbEntity
100
AcDbLine
  8
0
 62
256
370
-1
  6
ByLayer
 10
7.600000000000005
 20
75.0
 30
0.0
 11
7.600000000000005
 21
77.0
 31
0.0
  0
LINE
  5
267
100
AcDbEntity
100
AcDbLine
  8
0
 62
256
370
-1
  6
ByLayer
 10
7.8000000000000052
 20
75.0
 30
0.0
 11
7.8000000000000052
 21
77.0
 31
0.0
  0
LINE
  5
268
100
AcDbEntity
100
AcDbLine
  8
0
 62
256
370
-1
  6
ByLayer
 10
8.0000000000000053
 20
75.0
 30
0.0
 11
8.0000000000000053
 21
77.0
 31
0.0
  0
LINE
  5
269
100
AcDbEntity
100
AcDbLine
  8
0
 62
256
370
-1
  6
ByLayer
 10
8.2000000000000064
 20
75.0
 30
0.0
 11
8.2000000000000064
 21
77.0
 31
0.0
  0
LINE
  5
26A
100
AcDbEntity
100
AcDbLine
  8
0
 62
256
370
-1
  6
ByLayer
 10
8.4000000000000057
 20
75.0
 30
0.0
 11
8.4000000000000057
 21
77.0
 31
0.0
  0
LINE
  5
26B
100
AcDbEntity
100
AcDbLine
  8
0
 62
256
370
-1
  6
ByLayer
 10
8.600000000000005
 20
75.0
 30
0.0
 11
8.600000000000005
 21
77.0
 31
0.0
  0
LINE
  5
26C
100
AcDbEntity
100
AcDbLine
  8
0
 62
256
370
-1
  6
ByLayer
 10
1.0
 20
67.200000000000003
 30
0.0
 11
-1.0
 21
67.200000000000003
 31
0.0
  0
LINE
  5
26D
100
AcDbEntity
100
AcDbLine
  8
0
 62
256
370
-1
  6
ByLayer
 10
1.0
 20
67.400000000000006
 30
0.0
 11
-1.0
 21
67.400000000000006
 31
0.0
  0
LINE
  5
26E
100
AcDbEntity
100
AcDbLine
  8
0
 62
256
370
-1
  6
ByLayer
 10
1.0
 20
67.600000000000009
 30
0.0
 11
-1.0
 21
67.600000000000009
 31
0.0
  0
LINE
  5
26F
100
AcDbEntity
100
AcDbLine
  8
0
 62
256
370
-1
  6
ByLayer
 10
1.0
 20
67.800000000000011
 30
0.0
 11
-1.0
 21
67.800000000000011
 31
0.0
  0
LINE
  5
270
100
AcDbEntity
100
AcDbLine
  8
0
 62
256
370
-1
  6
ByLayer
 10
1.0
 20
68.000000000000014
 30
0.0
 11
-1.0
 21
68.000000000000014
 31
0.0
  0
LINE
  5
271
100
AcDbEntity
100
AcDbLine
  8
0
 62
256
370
-1
  6
ByLayer
 10
1.0
 20
68.200000000000017
 30
0.0
 11
-1.0
 21
68.200000000000017
 31
0.0
  0
LINE
  5
272
100
AcDbEntity
100
AcDbLine
  8
0
 62
256
370
-1
  6
ByLayer
 10
1.0
 20
68.40000000000002
 30
0.0
 11
-1.0
 21
68.40000000000002
 31
0.0
  0
LINE
  5
273
100
AcDbEntity
100
AcDbLine
  8
0
 62
256
370
-1
  6
ByLayer
 10
1.0
 20
68.600000000000023
 30
0.0
 11
-1.0
 21
68.600000000000023
 31
0.0
  0
LINE
  5
274
100
AcDbEntity
100
AcDbLine
  8
0
 62
256
370
-1
  6
ByLayer
 10
1.0
 20
68.800000000000026
 30
0.0
 11
-1.0
 21
68.800000000000026
 31
0.0
  0
LINE
  5
275
100
AcDbEntity
100
AcDbLine
  8
0
 62
256
370
-1
  6
ByLayer
 10
1.0
 20
69.000000000000028
 30
0.0
 11
-1.0
 21
69.000000000000028
 31
0.0
  0
LINE
  5
276
100
AcDbEntity
100
AcDbLine
  8
0
 62
256
370
-1
  6
ByLayer
 10
1.0
 20
69.200000000000031
 30
0.0
 11
-1.0
 21
69.200000000000031
 31
0.0
  0
LINE
  5
277
100
AcDbEntity
100
AcDbLine
  8
0
 62
256
370
-1
  6
ByLayer
 10
1.0
 20
69.400000000000034
 30
0.0
 11
-1.0
 21
69.400000000000034
 31
0.0
  0
LINE
  5
278
100
AcDbEntity
100
AcDbLine
  8
0
 62
256
370
-1
  6
ByLayer
 10
1.0
 20
69.600000000000037
 30
0.0
 11
-1.0
 21
69.600000000000037
 31
0.0
  0
LINE
  5
279
100
AcDbEntity
100
AcDbLine
  8
0
 62
256
370
-1
  6
ByLayer
 10
1.0
 20
69.80000000000004
 30
0.0
 11
-1.0
 21
69.80000000000004
 31
0.0
  0
LINE
  5
27A
100
AcDbEntity
100
AcDbLine
  8
0
 62
256
370
-1
  6
ByLayer
 10
1.0
 20
70.000000000000043
 30
0.0
 11
-1.0
 21
70.000000000000043
 31
0.0
  0
LINE
  5
27B
100
AcDbEntity
100
AcDbLine
  8
0
 62
256
370
-1
  6
ByLayer
 10
1.0
 20
70.200000000000045
 30
0.0
 11
-1.0
 21
70.200000000000045
 31
0.0
  0
LINE
  5
27C
100
AcDbEntity
100
AcDbLine
  8
0
 62
256
370
-1
  6
ByLayer
 10
1.0
 20
70.400000000000048
 30
0.0
 11
-1.0
 21
70.400000000000048
 31
0.0
  0
LINE
  5
27D
100
AcDbEntity
100
AcDbLine
  8
0
 62
256
370
-1
  6
ByLayer
 10
1.0
 20
70.600000000000051
 30
0.0
 11
-1.0
 21
70.600000000000051
 31
0.0
  0
LINE
  5
27E
100
AcDbEntity
100
AcDbLine
  8
0
 62
256
370
-1
  6
ByLayer
 10
1.0
 20
70.800000000000054
 30
0.0
 11
-1.0
 21
70.800000000000054
 31
0.0
  0
LINE
  5
27F
100
AcDbEntity
100
AcDbLine
  8
0
 62
256
370
-1
  6
ByLayer
 10
1.0
 20
71.000000000000057
 30
0.0
 11
-1.0
 21
71.000000000000057
 31
0.0
  0
LINE
  5
280
100
AcDbEntity
100
AcDbLine
  8
0
 62
256
370
-1
  6
ByLayer
 10
1.0
 20
71.20000000000006
 30
0.0
 11
-1.0
 21
71.20000000000006
 31
0.0
  0
LINE
  5
281
100
AcDbEntity
100
AcDbLine
  8
0
 62
256
370
-1
  6
ByLayer
 10
1.0
 20
71.400000000000063
 30
0.0
 11
-1.0
 21
71.400000000000063
 31
0.0
  0
LINE
  5
282
100
AcDbEntity
100
AcDbLine
  8
0
 62
256
370
-1
  6
ByLayer
 10
1.0
 20
71.600000000000065
 30
0.0
 11
-1.0
 21
71.600000000000065
 31
0.0
  0
LINE
  5
283
100
AcDbEntity
100
AcDbLine
  8
0
 62
256
370
-1
  6
ByLayer
 10
1.0
 20
71.800000000000068
 30
0.0
 11
-1.0
 21
71.800000000000068
 31
0.0
  0
LINE
  5
284
100
AcDbEntity
100
AcDbLine
  8
0
 62
256
370
-1
  6
ByLayer
 10
1.0
 20
72.000000000000071
 30
0.0
 11
-1.0
 21
72.000000000000071
 31
0.0
  0
LINE
  5
285
100
AcDbEntity
100
AcDbLine
  8
0
 62
256
370
-1
  6
ByLayer
 10
1.0
 20
72.200000000000074
 30
0.0
 11
-1.0
 21
72.200000000000074
 31
0.0
  0
LINE
  5
286
100
AcDbEntity
100
AcDbLine
  8
0
 62
256
370
-1
  6
ByLayer
 10
1.0
 20
72.400000000000077
 30
0.0
 11
-1.0
 21
72.400000000000077
 31
0.0
  0
LINE
  5
287
100
AcDbEntity
100
AcDbLine
  8
0
 62
256
370
-1
  6
ByLayer
 10
1.0
 20
72.60000000000008
 30
0.0
 11
-1.0
 21
72.60000000000008
 31
0.0
  0
LINE
  5
288
100
AcDbEntity
100
AcDbLine
  8
0
 62
256
370
-1
  6
ByLayer
 10
1.0
 20
72.800000000000082
 30
0.0
 11
-1.0
 21
72.800000000000082
 31
0.0
  0
LINE
  5
289
100
AcDbEntity
100
AcDbLine
  8
0
 62
256
370
-1
  6
ByLayer
 10
1.0
 20
73.000000000000085
 30
0.0
 11
-1.0
 21
73.000000000000085
 31
0.0
  0
LINE
  5
28A
100
AcDbEntity
100
AcDbLine
  8
0
 62
256
370
-1
  6
ByLayer
 10
1.0
 20
73.200000000000088
 30
0.0
 11
-1.0
 21
73.200000000000088
 31
0.0
  0
LINE
  5
28B
100
AcDbEntity
100
AcDbLine
  8
0
 62
256
370
-1
  6
ByLayer
 10
1.0
 20
73.400000000000091
 30
0.0
 11
-1.0
 21
73.400000000000091
 31
0.0
  0
LINE
  5
28C
100
AcDbEntity
100
AcDbLine
  8
0
 62
256
370
-1
  6
ByLayer
 10
1.0
 20
73.600000000000094
 30
0.0
 11
-1.0
 21
73.600000000000094
 31
0.0
  0
LINE
  5
28D
100
AcDbEntity
100
AcDbLine
  8
0
 62
256
370
-1
  6
ByLayer
 10
0.0
 20
59.0
 30
0.0
 11
9.0
 21
59.0
 31
0.0
  0
LINE
  5
28E
100
AcDbEntity
100
AcDbLine
  8
0
 62
256
370
-1
  6
ByLayer
 10
9.0
 20
55.0
 30
0.0
 11
0.0
 21
55.0
 31
0.0
  0
ARC
  5
28F
100
AcDbEntity
  8
0
 62
256
370
-1
  6
ByLayer
100
AcDbCircle
 10
0.0
 20
57.0
 30
0.0
 40
2.0
100
AcDbArc
 50
90.0
 51
270.0
  0
ARC
  5
290
100
AcDbEntity
  8
0
 62
256
370
-1
  6
ByLayer
100
AcDbCircle
 10
9.0
 20
57.0
 30
0.0
 40
2.0
100
AcDbArc
 50
270.0
 51
90.0
  0
LINE
  5
291
100
AcDbEntity
100
AcDbLine
  8
0
 62
256
370
-1
  6
ByLayer
 10
-3.0
 20
60.0
 30
0.0
 11
0.0
 21
60.0
 31
0.0
  0
LINE
  5
292
100
AcDbEntity
100
AcDbLine
  8
0
 62
256
370
-1
  6
ByLayer
 10
0.0
 20
60.0
 30
0.0
 11
0.0
 21
61.0
 31
0.0
  0
LINE
  5
293
100
AcDbEntity
100
AcDbLine
  8
0
 62
256
370
-1
  6
ByLayer
 10
0.0
 20
61.0
 30
0.0
 11
-3.0
 21
61.0
 31
0.0
  0
LINE
  5
294
100
AcDbEntity
100
AcDbLine
  8
0
 62
256
370
-1
  6
ByLayer
 10
-3.0
 20
61.0
 30
0.0
 11
-3.0
 21
60.0
 31
0.0
  0
LINE
  5
295
100
AcDbEntity
100
AcDbLine
  8
0
 62
256
370
-1
  6
ByLayer
 10
0.0
 20
62.0
 30
0.0
 11
-3.0
 21
62.0
 31
0.0
  0
LINE
  5
296
100
AcDbEntity
100
AcDbLine
  8
0
 62
256
370
-1
  6
ByLayer
 10
-3.0
 20
62.0
 30
0.0
 11
-3.0
 21
63.0
 31
0.0
  0
LINE
  5
297
100
AcDbEntity
100
AcDbLine
  8
0
 62
256
370
-1
  6
ByLayer
 10
-3.0
 20
63.0
 30
0.0
 11
0.0
 21
63.0
 31
0.0
  0
LINE
  5
298
100
AcDbEntity
100
AcDbLine
  8
0
 62
256
370
-1
  6
ByLayer
 10
0.0
 20
63.0
 30
0.0
 11
0.0
 21
62.0
 31
0.0
  0
LINE
  5
299
100
AcDbEntity
100
AcDbLine
  8
0
 62
256
370
-1
  6
ByLayer
 10
1.0
 20
60.0
 30
0.0
 11
4.0
 21
60.0
 31
0.0
  0
LINE
  5
29A
100
AcDbEntity
100
AcDbLine
  8
0
 62
256
370
-1
  6
ByLayer
 10
4.0
 20
60.0
 30
0.0
 11
4.0
 21
61.0
 31
0.0
  0
LINE
  5
29B
100
AcDbEntity
100
AcDbLine
  8
0
 62
256
370
-1
  6
ByLayer
 10
4.0
 20
61.0
 30
0.0
 11
1.0
 21
61.0
 31
0.0
  0
LINE
  5
29C
100
AcDbEntity
100
AcDbLine
  8
0
 62
256
370
-1
  6
ByLayer
 10
1.0
 20
61.0
 30
0.0
 11
1.0
 21
60.0
 31
0.0
  0
LINE
  5
29D
100
AcDbEntity
100
AcDbLine
  8
0
 62
256
370
-1
  6
ByLayer
 10
5.0
 20
60.0
 30
0.0
 11
8.0
 21
60.0
 31
0.0
  0
LINE
  5
29E
100
AcDbEntity
100
AcDbLine
  8
0
 62
256
370
-1
  6
ByLayer
 10
8.0
 20
60.0
 30
0.0
 11
8.0
 21
61.0
 31
0.0
  0
LINE
  5
29F
100
AcDbEntity
100
AcDbLine
  8
0
 62
256
370
-1
  6
ByLayer
 10
8.0
 20
61.0
 30
0.0
 11
5.0
 21
61.0
 31
0.0
  0
LINE
  5
2A0
100
AcDbEntity
100
AcDbLine
  8
0
 62
256
370
-1
  6
ByLayer
 10
5.0
 20
61.0
 30
0.0
 11
5.0
 21
60.0
 31
0.0
  0
LINE
  5
2A1
100
AcDbEntity
100
AcDbLine
  8
0
 62
256
370
-1
  6
ByLayer
 10
9.0
 20
60.0
 30
0.0
 11
12.0
 21
60.0
 31
0.0
  0
LINE
  5
2A2
100
AcDbEntity
100
AcDbLine
  8
0
 62
256
370
-1
  6
ByLayer
 10
12.0
 20
60.0
 30
0.0
 11
12.0
 21
61.0
 31
0.0
  0
LINE
  5
2A3
100
AcDbEntity
100
AcDbLine
  8
0
 62
256
370
-1
  6
ByLayer
 10
12.0
 20
61.0
 30
0.0
 11
9.0
 21
61.0
 31
0.0
  0
LINE
  5
2A4
100
AcDbEntity
100
AcDbLine
  8
0
 62
256
370
-1
  6
ByLayer
 10
9.0
 20
61.0
 30
0.0
 11
9.0
 21
60.0
 31
0.0
  0
LINE
  5
2A5
100
AcDbEntity
100
AcDbLine
  8
0
 62
256
370
-1
  6
ByLayer
 10
13.0
 20
60.0
 30
0.0
 11
16.0
 21
60.0
 31
0.0
  0
LINE
  5
2A6
100
AcDbEntity
100
AcDbLine
  8
0
 62
256
370
-1
  6
ByLayer
 10
16.0
 20
60.0
 30
0.0
 11
16.0
 21
61.0
 31
0.0
  0
LINE
  5
2A7
100
AcDbEntity
100
AcDbLine
  8
0
 62
256
370
-1
  6
ByLayer
 10
16.0
 20
61.0
 30
0.0
 11
13.0
 21
61.0
 31
0.0
  0
LINE
  5
2A8
100
AcDbEntity
100
AcDbLine
  8
0
 62
256
370
-1
  6
ByLayer
 10
13.0
 20
61.0
 30
0.0
 11
13.0
 21
60.0
 31
0.0
  0
MTEXT
  5
2A9
100
AcDbEntity
100
AcDbMText
  8
0
 62
256
370
-1
  6
ByLayer
 10
33.200000000006177
 20
45.800000000008517
 30
0.0
 40
2.0
 41
100.0
 71
1
 72
0
  1
WWW.ARDUINO.CC
  7
standard
 50
90.0
 73
1
 44
1.0
  0
MTEXT
  5
2AA
100
AcDbEntity
100
AcDbMText
  8
0
 62
256
370
-1
  6
ByLayer
 10
14.200000000002641
 20
46.200000000008593
 30
0.0
 40
2.0
 41
100.0
 71
1
 72
0
  1
RESET-EN
  7
standard
 50
0.0
 73
1
 44
1.0
  0
LINE
  5
2AB
100
AcDbEntity
100
AcDbLine
  8
0
 62
256
370
-1
  6
ByLayer
 10
30.0
 20
50.0
 30
0.0
 11
25.0
 21
50.0
 31
0.0
  0
LINE
  5
2AC
100
AcDbEntity
100
AcDbLine
  8
0
 62
256
370
-1
  6
ByLayer
 10
25.0
 20
50.0
 30
0.0
 11
25.0
 21
51.0
 31
0.0
  0
LINE
  5
2AD
100
AcDbEntity
100
AcDbLine
  8
0
 62
256
370
-1
  6
ByLayer
 10
25.0
 20
51.0
 30
0.0
 11
30.0
 21
51.0
 31
0.0
  0
LINE
  5
2AE
100
AcDbEntity
100
AcDbLine
  8
0
 62
256
370
-1
  6
ByLayer
 10
30.0
 20
51.0
 30
0.0
 11
30.0
 21
50.0
 31
0.0
  0
LINE
  5
2AF
100
AcDbEntity
100
AcDbLine
  8
0
 62
256
370
-1
  6
ByLayer
 10
30.0
 20
53.0
 30
0.0
 11
25.0
 21
53.0
 31
0.0
  0
LINE
  5
2B0
100
AcDbEntity
100
AcDbLine
  8
0
 62
256
370
-1
  6
ByLayer
 10
25.0
 20
53.0
 30
0.0
 11
25.0
 21
54.0
 31
0.0
  0
LINE
  5
2B1
100
AcDbEntity
100
AcDbLine
  8
0
 62
256
370
-1
  6
ByLayer
 10
25.0
 20
54.0
 30
0.0
 11
30.0
 21
54.0
 31
0.0
  0
LINE
  5
2B2
100
AcDbEntity
100
AcDbLine
  8
0
 62
256
370
-1
  6
ByLayer
 10
30.0
 20
54.0
 30
0.0
 11
30.0
 21
53.0
 31
0.0
  0
LINE
  5
2B3
100
AcDbEntity
100
AcDbLine
  8
0
 62
256
370
-1
  6
ByLayer
 10
30.0
 20
57.0
 30
0.0
 11
25.0
 21
57.0
 31
0.0
  0
LINE
  5
2B4
100
AcDbEntity
100
AcDbLine
  8
0
 62
256
370
-1
  6
ByLayer
 10
25.0
 20
57.0
 30
0.0
 11
25.0
 21
59.0
 31
0.0
  0
LINE
  5
2B5
100
AcDbEntity
100
AcDbLine
  8
0
 62
256
370
-1
  6
ByLayer
 10
25.0
 20
59.0
 30
0.0
 11
30.0
 21
59.0
 31
0.0
  0
LINE
  5
2B6
100
AcDbEntity
100
AcDbLine
  8
0
 62
256
370
-1
  6
ByLayer
 10
30.0
 20
59.0
 30
0.0
 11
30.0
 21
57.0
 31
0.0
  0
LINE
  5
2B7
100
AcDbEntity
100
AcDbLine
  8
0
 62
256
370
-1
  6
ByLayer
 10
26.0
 20
56.0
 30
0.0
 11
26.0
 21
57.0
 31
0.0
  0
LINE
  5
2B8
100
AcDbEntity
100
AcDbLine
  8
0
 62
256
370
-1
  6
ByLayer
 10
26.0
 20
59.0
 30
0.0
 11
26.0
 21
60.0
 31
0.0
  0
LINE
  5
2B9
100
AcDbEntity
100
AcDbLine
  8
0
 62
256
370
-1
  6
ByLayer
 10
28.0
 20
59.0
 30
0.0
 11
28.0
 21
60.0
 31
0.0
  0
LINE
  5
2BA
100
AcDbEntity
100
AcDbLine
  8
0
 62
256
370
-1
  6
ByLayer
 10
29.0
 20
59.0
 30
0.0
 11
29.0
 21
60.0
 31
0.0
  0
LINE
  5
2BB
100
AcDbEntity
100
AcDbLine
  8
0
 62
256
370
-1
  6
ByLayer
 10
29.0
 20
56.0
 30
0.0
 11
29.0
 21
57.0
 31
0.0
  0
LINE
  5
2BC
100
AcDbEntity
100
AcDbLine
  8
0
 62
256
370
-1
  6
ByLayer
 10
27.0
 20
64.0
 30
0.0
 11
29.0
 21
64.0
 31
0.0
  0
LINE
  5
2BD
100
AcDbEntity
100
AcDbLine
  8
0
 62
256
370
-1
  6
ByLayer
 10
29.0
 20
64.0
 30
0.0
 11
29.0
 21
63.0
 31
0.0
  0
LINE
  5
2BE
100
AcDbEntity
100
AcDbLine
  8
0
 62
256
370
-1
  6
ByLayer
 10
29.0
 20
63.0
 30
0.0
 11
27.0
 21
63.0
 31
0.0
  0
LINE
  5
2BF
100
AcDbEntity
100
AcDbLine
  8
0
 62
256
370
-1
  6
ByLayer
 10
27.0
 20
63.0
 30
0.0
 11
27.0
 21
64.0
 31
0.0
  0
LINE
  5
2C0
100
AcDbEntity
100
AcDbLine
  8
0
 62
256
370
-1
  6
ByLayer
 10
27.0
 20
66.0
 30
0.0
 11
29.0
 21
66.0
 31
0.0
  0
LINE
  5
2C1
100
AcDbEntity
100
AcDbLine
  8
0
 62
256
370
-1
  6
ByLayer
 10
29.0
 20
66.0
 30
0.0
 11
29.0
 21
65.0
 31
0.0
  0
LINE
  5
2C2
100
AcDbEntity
100
AcDbLine
  8
0
 62
256
370
-1
  6
ByLayer
 10
29.0
 20
65.0
 30
0.0
 11
27.0
 21
65.0
 31
0.0
  0
LINE
  5
2C3
100
AcDbEntity
100
AcDbLine
  8
0
 62
256
370
-1
  6
ByLayer
 10
27.0
 20
65.0
 30
0.0
 11
27.0
 21
66.0
 31
0.0
  0
LINE
  5
2C4
100
AcDbEntity
100
AcDbLine
  8
0
 62
256
370
-1
  6
ByLayer
 10
27.0
 20
68.0
 30
0.0
 11
29.0
 21
68.0
 31
0.0
  0
LINE
  5
2C5
100
AcDbEntity
100
AcDbLine
  8
0
 62
256
370
-1
  6
ByLayer
 10
29.0
 20
68.0
 30
0.0
 11
29.0
 21
67.0
 31
0.0
  0
LINE
  5
2C6
100
AcDbEntity
100
AcDbLine
  8
0
 62
256
370
-1
  6
ByLayer
 10
29.0
 20
67.0
 30
0.0
 11
27.0
 21
67.0
 31
0.0
  0
LINE
  5
2C7
100
AcDbEntity
100
AcDbLine
  8
0
 62
256
370
-1
  6
ByLayer
 10
27.0
 20
67.0
 30
0.0
 11
27.0
 21
68.0
 31
0.0
  0
LINE
  5
2C8
100
AcDbEntity
100
AcDbLine
  8
0
 62
256
370
-1
  6
ByLayer
 10
27.0
 20
70.0
 30
0.0
 11
29.0
 21
70.0
 31
0.0
  0
LINE
  5
2C9
100
AcDbEntity
100
AcDbLine
  8
0
 62
256
370
-1
  6
ByLayer
 10
29.0
 20
70.0
 30
0.0
 11
29.0
 21
69.0
 31
0.0
  0
LINE
  5
2CA
100
AcDbEntity
100
AcDbLine
  8
0
 62
256
370
-1
  6
ByLayer
 10
29.0
 20
69.0
 30
0.0
 11
27.0
 21
69.0
 31
0.0
  0
LINE
  5
2CB
100
AcDbEntity
100
AcDbLine
  8
0
 62
256
370
-1
  6
ByLayer
 10
27.0
 20
69.0
 30
0.0
 11
27.0
 21
70.0
 31
0.0
  0
MTEXT
  5
2CC
100
AcDbEntity
100
AcDbMText
  8
0
 62
256
370
-1
  6
ByLayer
 10
-17.0
 20
82.0
 30
0.0
 40
2.0
 41
100.0
 71
1
 72
0
  1
USB
  7
standard
 50
0.0
 73
1
 44
1.0
  0
MTEXT
  5
2CD
100
AcDbEntity
100
AcDbMText
  8
0
 62
256
370
-1
  6
ByLayer
 10
-14.0
 20
32.0
 30
0.0
 40
2.0
 41
100.0
 71
1
 72
0
  1
F.A.
  7
standard
 50
0.0
 73
1
 44
1.0
  0
CIRCLE
  5
2CE
100
AcDbEntity
100
AcDbCircle
  8
0
 62
256
370
-1
  6
ByLayer
 10
-3.0
 20
24.0
 30
0.0
 40
3.1622776601683795
  0
CIRCLE
  5
2CF
100
AcDbEntity
100
AcDbCircle
  8
0
 62
256
370
-1
  6
ByLayer
 10
5.0
 20
101.0
 30
0.0
 40
2.0
  0
CIRCLE
  5
2D0
100
AcDbEntity
100
AcDbCircle
  8
0
 62
256
370
-1
  6
ByLayer
 10
95.0
 20
78.0
 30
0.0
 40
2.2360679774997898
  0
ENDSEC
  0
SECTION
  2
OBJECTS
  0
DICTIONARY
  5
C
100
AcDbDictionary
280
0
281
1
  3
ACAD_GROUP
350
D
  3
ACAD_LAYOUT
350
1A
  3
ACAD_MLINESTYLE
350
17
  3
ACAD_PLOTSETTINGS
350
19
  3
ACAD_PLOTSTYLENAME
350
E
  3
AcDbVariableDictionary
350
2D1
  0
DICTIONARY
  5
D
100
AcDbDictionary
280
0
281
1
  0
ACDBDICTIONARYWDFLT
  5
E
100
AcDbDictionary
281
1
  3
Normal
350
F
100
AcDbDictionaryWithDefault
340
F
  0
ACDBPLACEHOLDER
  5
F
  0
DICTIONARY
  5
17
100
AcDbDictionary
280
0
281
1
  3
Standard
350
18
  0
MLINESTYLE
  5
18
100
AcDbMlineStyle
  2
STANDARD
 70
0
  3

 62
256
 51
90.0
 52
90.0
 71
2
 49
0.5
 62
256
  6
BYLAYER
 49
-0.5
 62
256
  6
BYLAYER
  0
DICTIONARY
  5
19
100
AcDbDictionary
280
0
281
1
  0
DICTIONARY
  5
1A
100
AcDbDictionary
281
1
  3
Layout1
350
1E
  3
Layout2
350
26
  3
Model
350
22
  0
LAYOUT
  5
1E
100
AcDbPlotSettings
  1

  2
C:\Program Files\AutoCAD 2002\plotters\DWF ePlot (optimized for plotting).pc3
  4

  6

 40
0.0
 41
0.0
 42
0.0
 43
0.0
 44
0.0
 45
0.0
 46
0.0
 47
0.0
 48
0.0
 49
0.0
140
0.0
141
0.0
142
1.0
143
1.0
 70
688
 72
0
 73
0
 74
5
  7

 75
16
147
1.0
148
0.0
149
0.0
100
AcDbLayout
  1
Layout1
 70
1
 71
1
 10
0.0
 20
0.0
 11
420.0
 21
297.0
 12
0.0
 22
0.0
 32
0.0
 14
100000000000000000000.0
 24
100000000000000000000.0
 34
100000000000000000000.0
 15
-100000000000000000000.0
 25
-100000000000000000000.0
 35
-100000000000000000000.0
146
0.0
 13
0.0
 23
0.0
 33
0.0
 16
1.0
 26
0.0
 36
0.0
 17
0.0
 27
1.0
 37
0.0
 76
0
330
1B
  0
LAYOUT
  5
22
100
AcDbPlotSettings
  1

  2
C:\Program Files\AutoCAD 2002\plotters\DWF ePlot (optimized for plotting).pc3
  4

  6

 40
0.0
 41
0.0
 42
0.0
 43
0.0
 44
0.0
 45
0.0
 46
0.0
 47
0.0
 48
0.0
 49
0.0
140
0.0
141
0.0
142
1.0
143
1.0
 70
1712
 72
0
 73
0
 74
0
  7

 75
0
147
1.0
148
0.0
149
0.0
100
AcDbLayout
  1
Model
 70
1
 71
0
 10
0.0
 20
0.0
 11
12.0
 21
9.0
 12
0.0
 22
0.0
 32
0.0
 14
0.0
 24
0.0
 34
0.0
 15
0.0
 25
0.0
 35
0.0
146
0.0
 13
0.0
 23
0.0
 33
0.0
 16
1.0
 26
0.0
 36
0.0
 17
0.0
 27
1.0
 37
0.0
 76
0
330
1F
  0
LAYOUT
  5
26
100
AcDbPlotSettings
  1

  2
C:\Program Files\AutoCAD 2002\plotters\DWF ePlot (optimized for plotting).pc3
  4

  6

 40
0.0
 41
0.0
 42
0.0
 43
0.0
 44
0.0
 45
0.0
 46
0.0
 47
0.0
 48
0.0
 49
0.0
140
0.0
141
0.0
142
1.0
143
1.0
 70
688
 72
0
 73
0
 74
5
  7

 75
16
147
1.0
148
0.0
149
0.0
100
AcDbLayout
  1
Layout2
 70
1
 71
2
 10
0.0
 20
0.0
 11
12.0
 21
9.0
 12
0.0
 22
0.0
 32
0.0
 14
0.0
 24
0.0
 34
0.0
 15
0.0
 25
0.0
 35
0.0
146
0.0
 13
0.0
 23
0.0
 33
0.0
 16
1.0
 26
0.0
 36
0.0
 17
0.0
 27
1.0
 37
0.0
 76
0
330
23
  0
DICTIONARY
  5
2D1
100
AcDbDictionary
281
1
  3
DIMASSOC
350
2D3
  3
HIDETEXT
350
2D2
  0
DICTIONARYVAR
  5
2D2
100
DictionaryVariables
280
0
  1
2
  0
DICTIONARYVAR
  5
2D3
100
DictionaryVariables
280
0
  1
1
  0
ENDSEC
  0
EOF
